G04 #@! TF.GenerationSoftware,KiCad,Pcbnew,(5.1.12)-1*
G04 #@! TF.CreationDate,2022-05-08T19:14:48+02:00*
G04 #@! TF.ProjectId,EPROM-Shield,4550524f-4d2d-4536-9869-656c642e6b69,rev?*
G04 #@! TF.SameCoordinates,Original*
G04 #@! TF.FileFunction,Legend,Top*
G04 #@! TF.FilePolarity,Positive*
%FSLAX46Y46*%
G04 Gerber Fmt 4.6, Leading zero omitted, Abs format (unit mm)*
G04 Created by KiCad (PCBNEW (5.1.12)-1) date 2022-05-08 19:14:48*
%MOMM*%
%LPD*%
G01*
G04 APERTURE LIST*
%ADD10C,0.120000*%
%ADD11C,0.150000*%
%ADD12O,1.600000X2.400000*%
%ADD13R,1.600000X2.400000*%
%ADD14C,1.600000*%
%ADD15R,1.600000X1.600000*%
%ADD16O,1.600000X1.600000*%
%ADD17O,1.700000X1.700000*%
%ADD18R,1.700000X1.700000*%
%ADD19O,2.400000X1.600000*%
%ADD20R,2.400000X1.600000*%
%ADD21O,1.400000X1.400000*%
%ADD22C,1.400000*%
G04 APERTURE END LIST*
D10*
G04 #@! TO.C,U3*
X106560000Y-83650000D02*
X106560000Y-101770000D01*
X142360000Y-83650000D02*
X106560000Y-83650000D01*
X142360000Y-101770000D02*
X142360000Y-83650000D01*
X106560000Y-101770000D02*
X142360000Y-101770000D01*
X106620000Y-86650000D02*
X106620000Y-91710000D01*
X142300000Y-86650000D02*
X106620000Y-86650000D01*
X142300000Y-98770000D02*
X142300000Y-86650000D01*
X106620000Y-98770000D02*
X142300000Y-98770000D01*
X106620000Y-93710000D02*
X106620000Y-98770000D01*
X106620000Y-91710000D02*
G75*
G02*
X106620000Y-93710000I0J-1000000D01*
G01*
G04 #@! TO.C,C3*
X107564000Y-75534759D02*
X106934000Y-75534759D01*
X107249000Y-75219759D02*
X107249000Y-75849759D01*
X105812000Y-81961000D02*
X105008000Y-81961000D01*
X106043000Y-81921000D02*
X104777000Y-81921000D01*
X106212000Y-81881000D02*
X104608000Y-81881000D01*
X106350000Y-81841000D02*
X104470000Y-81841000D01*
X106469000Y-81801000D02*
X104351000Y-81801000D01*
X106575000Y-81761000D02*
X104245000Y-81761000D01*
X106672000Y-81721000D02*
X104148000Y-81721000D01*
X106760000Y-81681000D02*
X104060000Y-81681000D01*
X106842000Y-81641000D02*
X103978000Y-81641000D01*
X106919000Y-81601000D02*
X103901000Y-81601000D01*
X106991000Y-81561000D02*
X103829000Y-81561000D01*
X107060000Y-81521000D02*
X103760000Y-81521000D01*
X107124000Y-81481000D02*
X103696000Y-81481000D01*
X107186000Y-81441000D02*
X103634000Y-81441000D01*
X107244000Y-81401000D02*
X103576000Y-81401000D01*
X107300000Y-81361000D02*
X103520000Y-81361000D01*
X107354000Y-81321000D02*
X103466000Y-81321000D01*
X107405000Y-81281000D02*
X103415000Y-81281000D01*
X107454000Y-81241000D02*
X103366000Y-81241000D01*
X107502000Y-81201000D02*
X103318000Y-81201000D01*
X107547000Y-81161000D02*
X103273000Y-81161000D01*
X107592000Y-81121000D02*
X103228000Y-81121000D01*
X107634000Y-81081000D02*
X103186000Y-81081000D01*
X107675000Y-81041000D02*
X103145000Y-81041000D01*
X104370000Y-81001000D02*
X103105000Y-81001000D01*
X107715000Y-81001000D02*
X106450000Y-81001000D01*
X104370000Y-80961000D02*
X103067000Y-80961000D01*
X107753000Y-80961000D02*
X106450000Y-80961000D01*
X104370000Y-80921000D02*
X103030000Y-80921000D01*
X107790000Y-80921000D02*
X106450000Y-80921000D01*
X104370000Y-80881000D02*
X102994000Y-80881000D01*
X107826000Y-80881000D02*
X106450000Y-80881000D01*
X104370000Y-80841000D02*
X102960000Y-80841000D01*
X107860000Y-80841000D02*
X106450000Y-80841000D01*
X104370000Y-80801000D02*
X102926000Y-80801000D01*
X107894000Y-80801000D02*
X106450000Y-80801000D01*
X104370000Y-80761000D02*
X102894000Y-80761000D01*
X107926000Y-80761000D02*
X106450000Y-80761000D01*
X104370000Y-80721000D02*
X102862000Y-80721000D01*
X107958000Y-80721000D02*
X106450000Y-80721000D01*
X104370000Y-80681000D02*
X102832000Y-80681000D01*
X107988000Y-80681000D02*
X106450000Y-80681000D01*
X104370000Y-80641000D02*
X102803000Y-80641000D01*
X108017000Y-80641000D02*
X106450000Y-80641000D01*
X104370000Y-80601000D02*
X102774000Y-80601000D01*
X108046000Y-80601000D02*
X106450000Y-80601000D01*
X104370000Y-80561000D02*
X102746000Y-80561000D01*
X108074000Y-80561000D02*
X106450000Y-80561000D01*
X104370000Y-80521000D02*
X102720000Y-80521000D01*
X108100000Y-80521000D02*
X106450000Y-80521000D01*
X104370000Y-80481000D02*
X102694000Y-80481000D01*
X108126000Y-80481000D02*
X106450000Y-80481000D01*
X104370000Y-80441000D02*
X102668000Y-80441000D01*
X108152000Y-80441000D02*
X106450000Y-80441000D01*
X104370000Y-80401000D02*
X102644000Y-80401000D01*
X108176000Y-80401000D02*
X106450000Y-80401000D01*
X104370000Y-80361000D02*
X102620000Y-80361000D01*
X108200000Y-80361000D02*
X106450000Y-80361000D01*
X104370000Y-80321000D02*
X102598000Y-80321000D01*
X108222000Y-80321000D02*
X106450000Y-80321000D01*
X104370000Y-80281000D02*
X102576000Y-80281000D01*
X108244000Y-80281000D02*
X106450000Y-80281000D01*
X104370000Y-80241000D02*
X102554000Y-80241000D01*
X108266000Y-80241000D02*
X106450000Y-80241000D01*
X104370000Y-80201000D02*
X102534000Y-80201000D01*
X108286000Y-80201000D02*
X106450000Y-80201000D01*
X104370000Y-80161000D02*
X102514000Y-80161000D01*
X108306000Y-80161000D02*
X106450000Y-80161000D01*
X104370000Y-80121000D02*
X102494000Y-80121000D01*
X108326000Y-80121000D02*
X106450000Y-80121000D01*
X104370000Y-80081000D02*
X102476000Y-80081000D01*
X108344000Y-80081000D02*
X106450000Y-80081000D01*
X104370000Y-80041000D02*
X102458000Y-80041000D01*
X108362000Y-80041000D02*
X106450000Y-80041000D01*
X104370000Y-80001000D02*
X102440000Y-80001000D01*
X108380000Y-80001000D02*
X106450000Y-80001000D01*
X104370000Y-79961000D02*
X102424000Y-79961000D01*
X108396000Y-79961000D02*
X106450000Y-79961000D01*
X104370000Y-79921000D02*
X102408000Y-79921000D01*
X108412000Y-79921000D02*
X106450000Y-79921000D01*
X104370000Y-79881000D02*
X102392000Y-79881000D01*
X108428000Y-79881000D02*
X106450000Y-79881000D01*
X104370000Y-79841000D02*
X102377000Y-79841000D01*
X108443000Y-79841000D02*
X106450000Y-79841000D01*
X104370000Y-79801000D02*
X102363000Y-79801000D01*
X108457000Y-79801000D02*
X106450000Y-79801000D01*
X104370000Y-79761000D02*
X102349000Y-79761000D01*
X108471000Y-79761000D02*
X106450000Y-79761000D01*
X104370000Y-79721000D02*
X102336000Y-79721000D01*
X108484000Y-79721000D02*
X106450000Y-79721000D01*
X104370000Y-79681000D02*
X102324000Y-79681000D01*
X108496000Y-79681000D02*
X106450000Y-79681000D01*
X104370000Y-79641000D02*
X102312000Y-79641000D01*
X108508000Y-79641000D02*
X106450000Y-79641000D01*
X104370000Y-79601000D02*
X102300000Y-79601000D01*
X108520000Y-79601000D02*
X106450000Y-79601000D01*
X104370000Y-79561000D02*
X102289000Y-79561000D01*
X108531000Y-79561000D02*
X106450000Y-79561000D01*
X104370000Y-79521000D02*
X102279000Y-79521000D01*
X108541000Y-79521000D02*
X106450000Y-79521000D01*
X104370000Y-79481000D02*
X102269000Y-79481000D01*
X108551000Y-79481000D02*
X106450000Y-79481000D01*
X104370000Y-79441000D02*
X102260000Y-79441000D01*
X108560000Y-79441000D02*
X106450000Y-79441000D01*
X104370000Y-79400000D02*
X102251000Y-79400000D01*
X108569000Y-79400000D02*
X106450000Y-79400000D01*
X104370000Y-79360000D02*
X102243000Y-79360000D01*
X108577000Y-79360000D02*
X106450000Y-79360000D01*
X104370000Y-79320000D02*
X102235000Y-79320000D01*
X108585000Y-79320000D02*
X106450000Y-79320000D01*
X104370000Y-79280000D02*
X102228000Y-79280000D01*
X108592000Y-79280000D02*
X106450000Y-79280000D01*
X104370000Y-79240000D02*
X102221000Y-79240000D01*
X108599000Y-79240000D02*
X106450000Y-79240000D01*
X104370000Y-79200000D02*
X102215000Y-79200000D01*
X108605000Y-79200000D02*
X106450000Y-79200000D01*
X104370000Y-79160000D02*
X102209000Y-79160000D01*
X108611000Y-79160000D02*
X106450000Y-79160000D01*
X104370000Y-79120000D02*
X102204000Y-79120000D01*
X108616000Y-79120000D02*
X106450000Y-79120000D01*
X104370000Y-79080000D02*
X102199000Y-79080000D01*
X108621000Y-79080000D02*
X106450000Y-79080000D01*
X104370000Y-79040000D02*
X102195000Y-79040000D01*
X108625000Y-79040000D02*
X106450000Y-79040000D01*
X104370000Y-79000000D02*
X102192000Y-79000000D01*
X108628000Y-79000000D02*
X106450000Y-79000000D01*
X104370000Y-78960000D02*
X102188000Y-78960000D01*
X108632000Y-78960000D02*
X106450000Y-78960000D01*
X108634000Y-78920000D02*
X102186000Y-78920000D01*
X108637000Y-78880000D02*
X102183000Y-78880000D01*
X108638000Y-78840000D02*
X102182000Y-78840000D01*
X108640000Y-78800000D02*
X102180000Y-78800000D01*
X108640000Y-78760000D02*
X102180000Y-78760000D01*
X108640000Y-78720000D02*
X102180000Y-78720000D01*
X108680000Y-78720000D02*
G75*
G03*
X108680000Y-78720000I-3270000J0D01*
G01*
G04 #@! TO.C,R1*
X122020000Y-76200000D02*
X124630000Y-76200000D01*
X122020000Y-76200000D02*
G75*
G03*
X122020000Y-76200000I-1370000J0D01*
G01*
G04 #@! TO.C,C2*
X101700000Y-82550000D02*
X98960000Y-82550000D01*
X101700000Y-72310000D02*
X98960000Y-72310000D01*
X98960000Y-72310000D02*
X98960000Y-82550000D01*
X101700000Y-72310000D02*
X101700000Y-82550000D01*
G04 #@! TO.C,C1*
X131980000Y-104140000D02*
X134720000Y-104140000D01*
X131980000Y-114380000D02*
X134720000Y-114380000D01*
X134720000Y-114380000D02*
X134720000Y-104140000D01*
X131980000Y-114380000D02*
X131980000Y-104140000D01*
G04 #@! TO.C,J1*
X126425000Y-72450000D02*
X126425000Y-69790000D01*
X111125000Y-72450000D02*
X126425000Y-72450000D01*
X111125000Y-69790000D02*
X126425000Y-69790000D01*
X111125000Y-72450000D02*
X111125000Y-69790000D01*
X109855000Y-72450000D02*
X108525000Y-72450000D01*
X108525000Y-72450000D02*
X108525000Y-71120000D01*
G04 #@! TO.C,U2*
X129600000Y-108220000D02*
X129600000Y-106970000D01*
X129600000Y-106970000D02*
X109160000Y-106970000D01*
X109160000Y-106970000D02*
X109160000Y-111470000D01*
X109160000Y-111470000D02*
X129600000Y-111470000D01*
X129600000Y-111470000D02*
X129600000Y-110220000D01*
X129600000Y-110220000D02*
G75*
G02*
X129600000Y-108220000I0J1000000D01*
G01*
G04 #@! TO.C,U1*
X98790000Y-104200000D02*
X100040000Y-104200000D01*
X100040000Y-104200000D02*
X100040000Y-83760000D01*
X100040000Y-83760000D02*
X95540000Y-83760000D01*
X95540000Y-83760000D02*
X95540000Y-104200000D01*
X95540000Y-104200000D02*
X96790000Y-104200000D01*
X96790000Y-104200000D02*
G75*
G02*
X98790000Y-104200000I1000000J0D01*
G01*
G04 #@! TO.C,R9*
X148240000Y-74930000D02*
G75*
G03*
X148240000Y-74930000I-920000J0D01*
G01*
X147320000Y-75850000D02*
X147320000Y-76470000D01*
G04 #@! TO.C,R8*
X145700000Y-74930000D02*
G75*
G03*
X145700000Y-74930000I-920000J0D01*
G01*
X144780000Y-75850000D02*
X144780000Y-76470000D01*
G04 #@! TO.C,R7*
X143160000Y-74930000D02*
G75*
G03*
X143160000Y-74930000I-920000J0D01*
G01*
X142240000Y-75850000D02*
X142240000Y-76470000D01*
G04 #@! TO.C,R6*
X140620000Y-74930000D02*
G75*
G03*
X140620000Y-74930000I-920000J0D01*
G01*
X139700000Y-75850000D02*
X139700000Y-76470000D01*
G04 #@! TO.C,R5*
X138080000Y-74930000D02*
G75*
G03*
X138080000Y-74930000I-920000J0D01*
G01*
X137160000Y-75850000D02*
X137160000Y-76470000D01*
G04 #@! TO.C,R4*
X135540000Y-74930000D02*
G75*
G03*
X135540000Y-74930000I-920000J0D01*
G01*
X134620000Y-75850000D02*
X134620000Y-76470000D01*
G04 #@! TO.C,R3*
X133000000Y-74930000D02*
G75*
G03*
X133000000Y-74930000I-920000J0D01*
G01*
X132080000Y-75850000D02*
X132080000Y-76470000D01*
G04 #@! TO.C,R2*
X130460000Y-74930000D02*
G75*
G03*
X130460000Y-74930000I-920000J0D01*
G01*
X129540000Y-75850000D02*
X129540000Y-76470000D01*
G04 #@! TO.C,JP2*
X92650000Y-107890000D02*
X92650000Y-110550000D01*
X97790000Y-107890000D02*
X92650000Y-107890000D01*
X97790000Y-110550000D02*
X92650000Y-110550000D01*
X97790000Y-107890000D02*
X97790000Y-110550000D01*
X99060000Y-107890000D02*
X100390000Y-107890000D01*
X100390000Y-107890000D02*
X100390000Y-109220000D01*
G04 #@! TO.C,JP1*
X116900000Y-81340000D02*
X116900000Y-78680000D01*
X111760000Y-81340000D02*
X116900000Y-81340000D01*
X111760000Y-78680000D02*
X116900000Y-78680000D01*
X111760000Y-81340000D02*
X111760000Y-78680000D01*
X110490000Y-81340000D02*
X109160000Y-81340000D01*
X109160000Y-81340000D02*
X109160000Y-80010000D01*
G04 #@! TO.C,J4*
X148650000Y-121980000D02*
X148650000Y-119320000D01*
X135890000Y-121980000D02*
X148650000Y-121980000D01*
X135890000Y-119320000D02*
X148650000Y-119320000D01*
X135890000Y-121980000D02*
X135890000Y-119320000D01*
X134620000Y-121980000D02*
X133290000Y-121980000D01*
X133290000Y-121980000D02*
X133290000Y-120650000D01*
G04 #@! TO.C,J3*
X128210000Y-69790000D02*
X128210000Y-72450000D01*
X146050000Y-69790000D02*
X128210000Y-69790000D01*
X146050000Y-72450000D02*
X128210000Y-72450000D01*
X146050000Y-69790000D02*
X146050000Y-72450000D01*
X147320000Y-69790000D02*
X148650000Y-69790000D01*
X148650000Y-69790000D02*
X148650000Y-71120000D01*
G04 #@! TO.C,J2*
X115510000Y-119320000D02*
X115510000Y-121980000D01*
X128270000Y-119320000D02*
X115510000Y-119320000D01*
X128270000Y-121980000D02*
X115510000Y-121980000D01*
X128270000Y-119320000D02*
X128270000Y-121980000D01*
X129540000Y-119320000D02*
X130870000Y-119320000D01*
X130870000Y-119320000D02*
X130870000Y-120650000D01*
G04 #@! TO.C,U3*
D11*
X123698095Y-92162380D02*
X123698095Y-92971904D01*
X123745714Y-93067142D01*
X123793333Y-93114761D01*
X123888571Y-93162380D01*
X124079047Y-93162380D01*
X124174285Y-93114761D01*
X124221904Y-93067142D01*
X124269523Y-92971904D01*
X124269523Y-92162380D01*
X124650476Y-92162380D02*
X125269523Y-92162380D01*
X124936190Y-92543333D01*
X125079047Y-92543333D01*
X125174285Y-92590952D01*
X125221904Y-92638571D01*
X125269523Y-92733809D01*
X125269523Y-92971904D01*
X125221904Y-93067142D01*
X125174285Y-93114761D01*
X125079047Y-93162380D01*
X124793333Y-93162380D01*
X124698095Y-93114761D01*
X124650476Y-93067142D01*
G04 #@! TO.C,C3*
X105767142Y-77636666D02*
X105814761Y-77684285D01*
X105862380Y-77827142D01*
X105862380Y-77922380D01*
X105814761Y-78065238D01*
X105719523Y-78160476D01*
X105624285Y-78208095D01*
X105433809Y-78255714D01*
X105290952Y-78255714D01*
X105100476Y-78208095D01*
X105005238Y-78160476D01*
X104910000Y-78065238D01*
X104862380Y-77922380D01*
X104862380Y-77827142D01*
X104910000Y-77684285D01*
X104957619Y-77636666D01*
X104862380Y-77303333D02*
X104862380Y-76684285D01*
X105243333Y-77017619D01*
X105243333Y-76874761D01*
X105290952Y-76779523D01*
X105338571Y-76731904D01*
X105433809Y-76684285D01*
X105671904Y-76684285D01*
X105767142Y-76731904D01*
X105814761Y-76779523D01*
X105862380Y-76874761D01*
X105862380Y-77160476D01*
X105814761Y-77255714D01*
X105767142Y-77303333D01*
G04 #@! TO.C,R1*
X123023333Y-77922380D02*
X122690000Y-77446190D01*
X122451904Y-77922380D02*
X122451904Y-76922380D01*
X122832857Y-76922380D01*
X122928095Y-76970000D01*
X122975714Y-77017619D01*
X123023333Y-77112857D01*
X123023333Y-77255714D01*
X122975714Y-77350952D01*
X122928095Y-77398571D01*
X122832857Y-77446190D01*
X122451904Y-77446190D01*
X123975714Y-77922380D02*
X123404285Y-77922380D01*
X123690000Y-77922380D02*
X123690000Y-76922380D01*
X123594761Y-77065238D01*
X123499523Y-77160476D01*
X123404285Y-77208095D01*
G04 #@! TO.C,C2*
X100687142Y-77596666D02*
X100734761Y-77644285D01*
X100782380Y-77787142D01*
X100782380Y-77882380D01*
X100734761Y-78025238D01*
X100639523Y-78120476D01*
X100544285Y-78168095D01*
X100353809Y-78215714D01*
X100210952Y-78215714D01*
X100020476Y-78168095D01*
X99925238Y-78120476D01*
X99830000Y-78025238D01*
X99782380Y-77882380D01*
X99782380Y-77787142D01*
X99830000Y-77644285D01*
X99877619Y-77596666D01*
X99877619Y-77215714D02*
X99830000Y-77168095D01*
X99782380Y-77072857D01*
X99782380Y-76834761D01*
X99830000Y-76739523D01*
X99877619Y-76691904D01*
X99972857Y-76644285D01*
X100068095Y-76644285D01*
X100210952Y-76691904D01*
X100782380Y-77263333D01*
X100782380Y-76644285D01*
G04 #@! TO.C,C1*
X133707142Y-109426666D02*
X133754761Y-109474285D01*
X133802380Y-109617142D01*
X133802380Y-109712380D01*
X133754761Y-109855238D01*
X133659523Y-109950476D01*
X133564285Y-109998095D01*
X133373809Y-110045714D01*
X133230952Y-110045714D01*
X133040476Y-109998095D01*
X132945238Y-109950476D01*
X132850000Y-109855238D01*
X132802380Y-109712380D01*
X132802380Y-109617142D01*
X132850000Y-109474285D01*
X132897619Y-109426666D01*
X133802380Y-108474285D02*
X133802380Y-109045714D01*
X133802380Y-108760000D02*
X132802380Y-108760000D01*
X132945238Y-108855238D01*
X133040476Y-108950476D01*
X133088095Y-109045714D01*
G04 #@! TO.C,J1*
X118411666Y-70572380D02*
X118411666Y-71286666D01*
X118364047Y-71429523D01*
X118268809Y-71524761D01*
X118125952Y-71572380D01*
X118030714Y-71572380D01*
X119411666Y-71572380D02*
X118840238Y-71572380D01*
X119125952Y-71572380D02*
X119125952Y-70572380D01*
X119030714Y-70715238D01*
X118935476Y-70810476D01*
X118840238Y-70858095D01*
G04 #@! TO.C,U2*
X118618095Y-108672380D02*
X118618095Y-109481904D01*
X118665714Y-109577142D01*
X118713333Y-109624761D01*
X118808571Y-109672380D01*
X118999047Y-109672380D01*
X119094285Y-109624761D01*
X119141904Y-109577142D01*
X119189523Y-109481904D01*
X119189523Y-108672380D01*
X119618095Y-108767619D02*
X119665714Y-108720000D01*
X119760952Y-108672380D01*
X119999047Y-108672380D01*
X120094285Y-108720000D01*
X120141904Y-108767619D01*
X120189523Y-108862857D01*
X120189523Y-108958095D01*
X120141904Y-109100952D01*
X119570476Y-109672380D01*
X120189523Y-109672380D01*
G04 #@! TO.C,U1*
X97242380Y-94741904D02*
X98051904Y-94741904D01*
X98147142Y-94694285D01*
X98194761Y-94646666D01*
X98242380Y-94551428D01*
X98242380Y-94360952D01*
X98194761Y-94265714D01*
X98147142Y-94218095D01*
X98051904Y-94170476D01*
X97242380Y-94170476D01*
X98242380Y-93170476D02*
X98242380Y-93741904D01*
X98242380Y-93456190D02*
X97242380Y-93456190D01*
X97385238Y-93551428D01*
X97480476Y-93646666D01*
X97528095Y-93741904D01*
G04 #@! TO.C,R9*
X147772380Y-77636666D02*
X147296190Y-77970000D01*
X147772380Y-78208095D02*
X146772380Y-78208095D01*
X146772380Y-77827142D01*
X146820000Y-77731904D01*
X146867619Y-77684285D01*
X146962857Y-77636666D01*
X147105714Y-77636666D01*
X147200952Y-77684285D01*
X147248571Y-77731904D01*
X147296190Y-77827142D01*
X147296190Y-78208095D01*
X147772380Y-77160476D02*
X147772380Y-76970000D01*
X147724761Y-76874761D01*
X147677142Y-76827142D01*
X147534285Y-76731904D01*
X147343809Y-76684285D01*
X146962857Y-76684285D01*
X146867619Y-76731904D01*
X146820000Y-76779523D01*
X146772380Y-76874761D01*
X146772380Y-77065238D01*
X146820000Y-77160476D01*
X146867619Y-77208095D01*
X146962857Y-77255714D01*
X147200952Y-77255714D01*
X147296190Y-77208095D01*
X147343809Y-77160476D01*
X147391428Y-77065238D01*
X147391428Y-76874761D01*
X147343809Y-76779523D01*
X147296190Y-76731904D01*
X147200952Y-76684285D01*
G04 #@! TO.C,R8*
X145232380Y-77636666D02*
X144756190Y-77970000D01*
X145232380Y-78208095D02*
X144232380Y-78208095D01*
X144232380Y-77827142D01*
X144280000Y-77731904D01*
X144327619Y-77684285D01*
X144422857Y-77636666D01*
X144565714Y-77636666D01*
X144660952Y-77684285D01*
X144708571Y-77731904D01*
X144756190Y-77827142D01*
X144756190Y-78208095D01*
X144660952Y-77065238D02*
X144613333Y-77160476D01*
X144565714Y-77208095D01*
X144470476Y-77255714D01*
X144422857Y-77255714D01*
X144327619Y-77208095D01*
X144280000Y-77160476D01*
X144232380Y-77065238D01*
X144232380Y-76874761D01*
X144280000Y-76779523D01*
X144327619Y-76731904D01*
X144422857Y-76684285D01*
X144470476Y-76684285D01*
X144565714Y-76731904D01*
X144613333Y-76779523D01*
X144660952Y-76874761D01*
X144660952Y-77065238D01*
X144708571Y-77160476D01*
X144756190Y-77208095D01*
X144851428Y-77255714D01*
X145041904Y-77255714D01*
X145137142Y-77208095D01*
X145184761Y-77160476D01*
X145232380Y-77065238D01*
X145232380Y-76874761D01*
X145184761Y-76779523D01*
X145137142Y-76731904D01*
X145041904Y-76684285D01*
X144851428Y-76684285D01*
X144756190Y-76731904D01*
X144708571Y-76779523D01*
X144660952Y-76874761D01*
G04 #@! TO.C,R7*
X142692380Y-77636666D02*
X142216190Y-77970000D01*
X142692380Y-78208095D02*
X141692380Y-78208095D01*
X141692380Y-77827142D01*
X141740000Y-77731904D01*
X141787619Y-77684285D01*
X141882857Y-77636666D01*
X142025714Y-77636666D01*
X142120952Y-77684285D01*
X142168571Y-77731904D01*
X142216190Y-77827142D01*
X142216190Y-78208095D01*
X141692380Y-77303333D02*
X141692380Y-76636666D01*
X142692380Y-77065238D01*
G04 #@! TO.C,R6*
X140152380Y-77636666D02*
X139676190Y-77970000D01*
X140152380Y-78208095D02*
X139152380Y-78208095D01*
X139152380Y-77827142D01*
X139200000Y-77731904D01*
X139247619Y-77684285D01*
X139342857Y-77636666D01*
X139485714Y-77636666D01*
X139580952Y-77684285D01*
X139628571Y-77731904D01*
X139676190Y-77827142D01*
X139676190Y-78208095D01*
X139152380Y-76779523D02*
X139152380Y-76970000D01*
X139200000Y-77065238D01*
X139247619Y-77112857D01*
X139390476Y-77208095D01*
X139580952Y-77255714D01*
X139961904Y-77255714D01*
X140057142Y-77208095D01*
X140104761Y-77160476D01*
X140152380Y-77065238D01*
X140152380Y-76874761D01*
X140104761Y-76779523D01*
X140057142Y-76731904D01*
X139961904Y-76684285D01*
X139723809Y-76684285D01*
X139628571Y-76731904D01*
X139580952Y-76779523D01*
X139533333Y-76874761D01*
X139533333Y-77065238D01*
X139580952Y-77160476D01*
X139628571Y-77208095D01*
X139723809Y-77255714D01*
G04 #@! TO.C,R5*
X137612380Y-77636666D02*
X137136190Y-77970000D01*
X137612380Y-78208095D02*
X136612380Y-78208095D01*
X136612380Y-77827142D01*
X136660000Y-77731904D01*
X136707619Y-77684285D01*
X136802857Y-77636666D01*
X136945714Y-77636666D01*
X137040952Y-77684285D01*
X137088571Y-77731904D01*
X137136190Y-77827142D01*
X137136190Y-78208095D01*
X136612380Y-76731904D02*
X136612380Y-77208095D01*
X137088571Y-77255714D01*
X137040952Y-77208095D01*
X136993333Y-77112857D01*
X136993333Y-76874761D01*
X137040952Y-76779523D01*
X137088571Y-76731904D01*
X137183809Y-76684285D01*
X137421904Y-76684285D01*
X137517142Y-76731904D01*
X137564761Y-76779523D01*
X137612380Y-76874761D01*
X137612380Y-77112857D01*
X137564761Y-77208095D01*
X137517142Y-77255714D01*
G04 #@! TO.C,R4*
X135072380Y-77636666D02*
X134596190Y-77970000D01*
X135072380Y-78208095D02*
X134072380Y-78208095D01*
X134072380Y-77827142D01*
X134120000Y-77731904D01*
X134167619Y-77684285D01*
X134262857Y-77636666D01*
X134405714Y-77636666D01*
X134500952Y-77684285D01*
X134548571Y-77731904D01*
X134596190Y-77827142D01*
X134596190Y-78208095D01*
X134405714Y-76779523D02*
X135072380Y-76779523D01*
X134024761Y-77017619D02*
X134739047Y-77255714D01*
X134739047Y-76636666D01*
G04 #@! TO.C,R3*
X132532380Y-77636666D02*
X132056190Y-77970000D01*
X132532380Y-78208095D02*
X131532380Y-78208095D01*
X131532380Y-77827142D01*
X131580000Y-77731904D01*
X131627619Y-77684285D01*
X131722857Y-77636666D01*
X131865714Y-77636666D01*
X131960952Y-77684285D01*
X132008571Y-77731904D01*
X132056190Y-77827142D01*
X132056190Y-78208095D01*
X131532380Y-77303333D02*
X131532380Y-76684285D01*
X131913333Y-77017619D01*
X131913333Y-76874761D01*
X131960952Y-76779523D01*
X132008571Y-76731904D01*
X132103809Y-76684285D01*
X132341904Y-76684285D01*
X132437142Y-76731904D01*
X132484761Y-76779523D01*
X132532380Y-76874761D01*
X132532380Y-77160476D01*
X132484761Y-77255714D01*
X132437142Y-77303333D01*
G04 #@! TO.C,R2*
X129992380Y-77636666D02*
X129516190Y-77970000D01*
X129992380Y-78208095D02*
X128992380Y-78208095D01*
X128992380Y-77827142D01*
X129040000Y-77731904D01*
X129087619Y-77684285D01*
X129182857Y-77636666D01*
X129325714Y-77636666D01*
X129420952Y-77684285D01*
X129468571Y-77731904D01*
X129516190Y-77827142D01*
X129516190Y-78208095D01*
X129087619Y-77255714D02*
X129040000Y-77208095D01*
X128992380Y-77112857D01*
X128992380Y-76874761D01*
X129040000Y-76779523D01*
X129087619Y-76731904D01*
X129182857Y-76684285D01*
X129278095Y-76684285D01*
X129420952Y-76731904D01*
X129992380Y-77303333D01*
X129992380Y-76684285D01*
G04 #@! TO.C,JP2*
X100842380Y-110053333D02*
X101556666Y-110053333D01*
X101699523Y-110100952D01*
X101794761Y-110196190D01*
X101842380Y-110339047D01*
X101842380Y-110434285D01*
X101842380Y-109577142D02*
X100842380Y-109577142D01*
X100842380Y-109196190D01*
X100890000Y-109100952D01*
X100937619Y-109053333D01*
X101032857Y-109005714D01*
X101175714Y-109005714D01*
X101270952Y-109053333D01*
X101318571Y-109100952D01*
X101366190Y-109196190D01*
X101366190Y-109577142D01*
X100937619Y-108624761D02*
X100890000Y-108577142D01*
X100842380Y-108481904D01*
X100842380Y-108243809D01*
X100890000Y-108148571D01*
X100937619Y-108100952D01*
X101032857Y-108053333D01*
X101128095Y-108053333D01*
X101270952Y-108100952D01*
X101842380Y-108672380D01*
X101842380Y-108053333D01*
G04 #@! TO.C,JP1*
X112196666Y-76922380D02*
X112196666Y-77636666D01*
X112149047Y-77779523D01*
X112053809Y-77874761D01*
X111910952Y-77922380D01*
X111815714Y-77922380D01*
X112672857Y-77922380D02*
X112672857Y-76922380D01*
X113053809Y-76922380D01*
X113149047Y-76970000D01*
X113196666Y-77017619D01*
X113244285Y-77112857D01*
X113244285Y-77255714D01*
X113196666Y-77350952D01*
X113149047Y-77398571D01*
X113053809Y-77446190D01*
X112672857Y-77446190D01*
X114196666Y-77922380D02*
X113625238Y-77922380D01*
X113910952Y-77922380D02*
X113910952Y-76922380D01*
X113815714Y-77065238D01*
X113720476Y-77160476D01*
X113625238Y-77208095D01*
G04 #@! TO.C,J4*
X141906666Y-117562380D02*
X141906666Y-118276666D01*
X141859047Y-118419523D01*
X141763809Y-118514761D01*
X141620952Y-118562380D01*
X141525714Y-118562380D01*
X142811428Y-117895714D02*
X142811428Y-118562380D01*
X142573333Y-117514761D02*
X142335238Y-118229047D01*
X142954285Y-118229047D01*
G04 #@! TO.C,J3*
X136826666Y-70572380D02*
X136826666Y-71286666D01*
X136779047Y-71429523D01*
X136683809Y-71524761D01*
X136540952Y-71572380D01*
X136445714Y-71572380D01*
X137207619Y-70572380D02*
X137826666Y-70572380D01*
X137493333Y-70953333D01*
X137636190Y-70953333D01*
X137731428Y-71000952D01*
X137779047Y-71048571D01*
X137826666Y-71143809D01*
X137826666Y-71381904D01*
X137779047Y-71477142D01*
X137731428Y-71524761D01*
X137636190Y-71572380D01*
X137350476Y-71572380D01*
X137255238Y-71524761D01*
X137207619Y-71477142D01*
G04 #@! TO.C,J2*
X122856666Y-117562380D02*
X122856666Y-118276666D01*
X122809047Y-118419523D01*
X122713809Y-118514761D01*
X122570952Y-118562380D01*
X122475714Y-118562380D01*
X123285238Y-117657619D02*
X123332857Y-117610000D01*
X123428095Y-117562380D01*
X123666190Y-117562380D01*
X123761428Y-117610000D01*
X123809047Y-117657619D01*
X123856666Y-117752857D01*
X123856666Y-117848095D01*
X123809047Y-117990952D01*
X123237619Y-118562380D01*
X123856666Y-118562380D01*
G04 #@! TD*
%LPC*%
D12*
G04 #@! TO.C,U3*
X107950000Y-85090000D03*
X140970000Y-100330000D03*
X110490000Y-85090000D03*
X138430000Y-100330000D03*
X113030000Y-85090000D03*
X135890000Y-100330000D03*
X115570000Y-85090000D03*
X133350000Y-100330000D03*
X118110000Y-85090000D03*
X130810000Y-100330000D03*
X120650000Y-85090000D03*
X128270000Y-100330000D03*
X123190000Y-85090000D03*
X125730000Y-100330000D03*
X125730000Y-85090000D03*
X123190000Y-100330000D03*
X128270000Y-85090000D03*
X120650000Y-100330000D03*
X130810000Y-85090000D03*
X118110000Y-100330000D03*
X133350000Y-85090000D03*
X115570000Y-100330000D03*
X135890000Y-85090000D03*
X113030000Y-100330000D03*
X138430000Y-85090000D03*
X110490000Y-100330000D03*
X140970000Y-85090000D03*
D13*
X107950000Y-100330000D03*
G04 #@! TD*
D14*
G04 #@! TO.C,C3*
X105410000Y-79970000D03*
D15*
X105410000Y-77470000D03*
G04 #@! TD*
D16*
G04 #@! TO.C,R1*
X125730000Y-76200000D03*
D14*
X120650000Y-76200000D03*
G04 #@! TD*
G04 #@! TO.C,C2*
X100330000Y-79930000D03*
X100330000Y-74930000D03*
G04 #@! TD*
G04 #@! TO.C,C1*
X133350000Y-106760000D03*
X133350000Y-111760000D03*
G04 #@! TD*
D17*
G04 #@! TO.C,J1*
X125095000Y-71120000D03*
X122555000Y-71120000D03*
X120015000Y-71120000D03*
X117475000Y-71120000D03*
X114935000Y-71120000D03*
X112395000Y-71120000D03*
D18*
X109855000Y-71120000D03*
G04 #@! TD*
D12*
G04 #@! TO.C,U2*
X128270000Y-113030000D03*
X110490000Y-105410000D03*
X125730000Y-113030000D03*
X113030000Y-105410000D03*
X123190000Y-113030000D03*
X115570000Y-105410000D03*
X120650000Y-113030000D03*
X118110000Y-105410000D03*
X118110000Y-113030000D03*
X120650000Y-105410000D03*
X115570000Y-113030000D03*
X123190000Y-105410000D03*
X113030000Y-113030000D03*
X125730000Y-105410000D03*
X110490000Y-113030000D03*
D13*
X128270000Y-105410000D03*
G04 #@! TD*
D19*
G04 #@! TO.C,U1*
X93980000Y-102870000D03*
X101600000Y-85090000D03*
X93980000Y-100330000D03*
X101600000Y-87630000D03*
X93980000Y-97790000D03*
X101600000Y-90170000D03*
X93980000Y-95250000D03*
X101600000Y-92710000D03*
X93980000Y-92710000D03*
X101600000Y-95250000D03*
X93980000Y-90170000D03*
X101600000Y-97790000D03*
X93980000Y-87630000D03*
X101600000Y-100330000D03*
X93980000Y-85090000D03*
D20*
X101600000Y-102870000D03*
G04 #@! TD*
D21*
G04 #@! TO.C,R9*
X147320000Y-77470000D03*
D22*
X147320000Y-74930000D03*
G04 #@! TD*
D21*
G04 #@! TO.C,R8*
X144780000Y-77470000D03*
D22*
X144780000Y-74930000D03*
G04 #@! TD*
D21*
G04 #@! TO.C,R7*
X142240000Y-77470000D03*
D22*
X142240000Y-74930000D03*
G04 #@! TD*
D21*
G04 #@! TO.C,R6*
X139700000Y-77470000D03*
D22*
X139700000Y-74930000D03*
G04 #@! TD*
D21*
G04 #@! TO.C,R5*
X137160000Y-77470000D03*
D22*
X137160000Y-74930000D03*
G04 #@! TD*
D21*
G04 #@! TO.C,R4*
X134620000Y-77470000D03*
D22*
X134620000Y-74930000D03*
G04 #@! TD*
D21*
G04 #@! TO.C,R3*
X132080000Y-77470000D03*
D22*
X132080000Y-74930000D03*
G04 #@! TD*
D21*
G04 #@! TO.C,R2*
X129540000Y-77470000D03*
D22*
X129540000Y-74930000D03*
G04 #@! TD*
D17*
G04 #@! TO.C,JP2*
X93980000Y-109220000D03*
X96520000Y-109220000D03*
D18*
X99060000Y-109220000D03*
G04 #@! TD*
D17*
G04 #@! TO.C,JP1*
X115570000Y-80010000D03*
X113030000Y-80010000D03*
D18*
X110490000Y-80010000D03*
G04 #@! TD*
D17*
G04 #@! TO.C,J4*
X147320000Y-120650000D03*
X144780000Y-120650000D03*
X142240000Y-120650000D03*
X139700000Y-120650000D03*
X137160000Y-120650000D03*
D18*
X134620000Y-120650000D03*
G04 #@! TD*
D17*
G04 #@! TO.C,J3*
X129540000Y-71120000D03*
X132080000Y-71120000D03*
X134620000Y-71120000D03*
X137160000Y-71120000D03*
X139700000Y-71120000D03*
X142240000Y-71120000D03*
X144780000Y-71120000D03*
D18*
X147320000Y-71120000D03*
G04 #@! TD*
D17*
G04 #@! TO.C,J2*
X116840000Y-120650000D03*
X119380000Y-120650000D03*
X121920000Y-120650000D03*
X124460000Y-120650000D03*
X127000000Y-120650000D03*
D18*
X129540000Y-120650000D03*
G04 #@! TD*
M02*
