G04 #@! TF.GenerationSoftware,KiCad,Pcbnew,(5.1.12)-1*
G04 #@! TF.CreationDate,2022-05-08T19:14:48+02:00*
G04 #@! TF.ProjectId,EPROM-Shield,4550524f-4d2d-4536-9869-656c642e6b69,rev?*
G04 #@! TF.SameCoordinates,Original*
G04 #@! TF.FileFunction,Copper,L1,Top*
G04 #@! TF.FilePolarity,Positive*
%FSLAX46Y46*%
G04 Gerber Fmt 4.6, Leading zero omitted, Abs format (unit mm)*
G04 Created by KiCad (PCBNEW (5.1.12)-1) date 2022-05-08 19:14:48*
%MOMM*%
%LPD*%
G01*
G04 APERTURE LIST*
G04 #@! TA.AperFunction,ComponentPad*
%ADD10O,1.600000X2.400000*%
G04 #@! TD*
G04 #@! TA.AperFunction,ComponentPad*
%ADD11R,1.600000X2.400000*%
G04 #@! TD*
G04 #@! TA.AperFunction,ComponentPad*
%ADD12C,1.600000*%
G04 #@! TD*
G04 #@! TA.AperFunction,ComponentPad*
%ADD13R,1.600000X1.600000*%
G04 #@! TD*
G04 #@! TA.AperFunction,ComponentPad*
%ADD14O,1.600000X1.600000*%
G04 #@! TD*
G04 #@! TA.AperFunction,ComponentPad*
%ADD15O,1.700000X1.700000*%
G04 #@! TD*
G04 #@! TA.AperFunction,ComponentPad*
%ADD16R,1.700000X1.700000*%
G04 #@! TD*
G04 #@! TA.AperFunction,ComponentPad*
%ADD17O,2.400000X1.600000*%
G04 #@! TD*
G04 #@! TA.AperFunction,ComponentPad*
%ADD18R,2.400000X1.600000*%
G04 #@! TD*
G04 #@! TA.AperFunction,ComponentPad*
%ADD19O,1.400000X1.400000*%
G04 #@! TD*
G04 #@! TA.AperFunction,ComponentPad*
%ADD20C,1.400000*%
G04 #@! TD*
G04 #@! TA.AperFunction,ViaPad*
%ADD21C,0.800000*%
G04 #@! TD*
G04 #@! TA.AperFunction,Conductor*
%ADD22C,0.500000*%
G04 #@! TD*
G04 #@! TA.AperFunction,Conductor*
%ADD23C,0.750000*%
G04 #@! TD*
G04 #@! TA.AperFunction,Conductor*
%ADD24C,0.254000*%
G04 #@! TD*
G04 #@! TA.AperFunction,Conductor*
%ADD25C,0.100000*%
G04 #@! TD*
G04 APERTURE END LIST*
D10*
G04 #@! TO.P,U3,28*
G04 #@! TO.N,VCC*
X107950000Y-85090000D03*
G04 #@! TO.P,U3,14*
G04 #@! TO.N,GND*
X140970000Y-100330000D03*
G04 #@! TO.P,U3,27*
G04 #@! TO.N,/WE*
X110490000Y-85090000D03*
G04 #@! TO.P,U3,13*
G04 #@! TO.N,Net-(R4-Pad2)*
X138430000Y-100330000D03*
G04 #@! TO.P,U3,26*
G04 #@! TO.N,/A13*
X113030000Y-85090000D03*
G04 #@! TO.P,U3,12*
G04 #@! TO.N,Net-(R3-Pad2)*
X135890000Y-100330000D03*
G04 #@! TO.P,U3,25*
G04 #@! TO.N,/A8*
X115570000Y-85090000D03*
G04 #@! TO.P,U3,11*
G04 #@! TO.N,Net-(R2-Pad2)*
X133350000Y-100330000D03*
G04 #@! TO.P,U3,24*
G04 #@! TO.N,/A9*
X118110000Y-85090000D03*
G04 #@! TO.P,U3,10*
G04 #@! TO.N,/A0*
X130810000Y-100330000D03*
G04 #@! TO.P,U3,23*
G04 #@! TO.N,/A11*
X120650000Y-85090000D03*
G04 #@! TO.P,U3,9*
G04 #@! TO.N,/A1*
X128270000Y-100330000D03*
G04 #@! TO.P,U3,22*
G04 #@! TO.N,/OE*
X123190000Y-85090000D03*
G04 #@! TO.P,U3,8*
G04 #@! TO.N,/A2*
X125730000Y-100330000D03*
G04 #@! TO.P,U3,21*
G04 #@! TO.N,/A10*
X125730000Y-85090000D03*
G04 #@! TO.P,U3,7*
G04 #@! TO.N,/A3*
X123190000Y-100330000D03*
G04 #@! TO.P,U3,20*
G04 #@! TO.N,/CS*
X128270000Y-85090000D03*
G04 #@! TO.P,U3,6*
G04 #@! TO.N,/A4*
X120650000Y-100330000D03*
G04 #@! TO.P,U3,19*
G04 #@! TO.N,Net-(R9-Pad2)*
X130810000Y-85090000D03*
G04 #@! TO.P,U3,5*
G04 #@! TO.N,/A5*
X118110000Y-100330000D03*
G04 #@! TO.P,U3,18*
G04 #@! TO.N,Net-(R8-Pad2)*
X133350000Y-85090000D03*
G04 #@! TO.P,U3,4*
G04 #@! TO.N,/A6*
X115570000Y-100330000D03*
G04 #@! TO.P,U3,17*
G04 #@! TO.N,Net-(R7-Pad2)*
X135890000Y-85090000D03*
G04 #@! TO.P,U3,3*
G04 #@! TO.N,/A7*
X113030000Y-100330000D03*
G04 #@! TO.P,U3,16*
G04 #@! TO.N,Net-(R6-Pad2)*
X138430000Y-85090000D03*
G04 #@! TO.P,U3,2*
G04 #@! TO.N,/A12*
X110490000Y-100330000D03*
G04 #@! TO.P,U3,15*
G04 #@! TO.N,Net-(R5-Pad2)*
X140970000Y-85090000D03*
D11*
G04 #@! TO.P,U3,1*
G04 #@! TO.N,/A14*
X107950000Y-100330000D03*
G04 #@! TD*
D12*
G04 #@! TO.P,C3,2*
G04 #@! TO.N,GND*
X105410000Y-79970000D03*
D13*
G04 #@! TO.P,C3,1*
G04 #@! TO.N,VCC*
X105410000Y-77470000D03*
G04 #@! TD*
D14*
G04 #@! TO.P,R1,2*
G04 #@! TO.N,VCC*
X125730000Y-76200000D03*
D12*
G04 #@! TO.P,R1,1*
G04 #@! TO.N,Net-(J1-Pad6)*
X120650000Y-76200000D03*
G04 #@! TD*
G04 #@! TO.P,C2,2*
G04 #@! TO.N,GND*
X100330000Y-79930000D03*
G04 #@! TO.P,C2,1*
G04 #@! TO.N,VCC*
X100330000Y-74930000D03*
G04 #@! TD*
G04 #@! TO.P,C1,2*
G04 #@! TO.N,GND*
X133350000Y-106760000D03*
G04 #@! TO.P,C1,1*
G04 #@! TO.N,VCC*
X133350000Y-111760000D03*
G04 #@! TD*
D15*
G04 #@! TO.P,J1,7*
G04 #@! TO.N,Net-(J1-Pad7)*
X125095000Y-71120000D03*
G04 #@! TO.P,J1,6*
G04 #@! TO.N,Net-(J1-Pad6)*
X122555000Y-71120000D03*
G04 #@! TO.P,J1,5*
G04 #@! TO.N,Net-(J1-Pad5)*
X120015000Y-71120000D03*
G04 #@! TO.P,J1,4*
G04 #@! TO.N,Net-(J1-Pad4)*
X117475000Y-71120000D03*
G04 #@! TO.P,J1,3*
G04 #@! TO.N,Net-(J1-Pad3)*
X114935000Y-71120000D03*
G04 #@! TO.P,J1,2*
G04 #@! TO.N,Net-(J1-Pad2)*
X112395000Y-71120000D03*
D16*
G04 #@! TO.P,J1,1*
G04 #@! TO.N,Net-(J1-Pad1)*
X109855000Y-71120000D03*
G04 #@! TD*
D10*
G04 #@! TO.P,U2,16*
G04 #@! TO.N,VCC*
X128270000Y-113030000D03*
G04 #@! TO.P,U2,8*
G04 #@! TO.N,GND*
X110490000Y-105410000D03*
G04 #@! TO.P,U2,15*
G04 #@! TO.N,/A0*
X125730000Y-113030000D03*
G04 #@! TO.P,U2,7*
G04 #@! TO.N,/A7*
X113030000Y-105410000D03*
G04 #@! TO.P,U2,14*
G04 #@! TO.N,Net-(U1-Pad9)*
X123190000Y-113030000D03*
G04 #@! TO.P,U2,6*
G04 #@! TO.N,/A6*
X115570000Y-105410000D03*
G04 #@! TO.P,U2,13*
G04 #@! TO.N,Net-(J1-Pad6)*
X120650000Y-113030000D03*
G04 #@! TO.P,U2,5*
G04 #@! TO.N,/A5*
X118110000Y-105410000D03*
G04 #@! TO.P,U2,12*
G04 #@! TO.N,Net-(J1-Pad5)*
X118110000Y-113030000D03*
G04 #@! TO.P,U2,4*
G04 #@! TO.N,/A4*
X120650000Y-105410000D03*
G04 #@! TO.P,U2,11*
G04 #@! TO.N,Net-(J1-Pad4)*
X115570000Y-113030000D03*
G04 #@! TO.P,U2,3*
G04 #@! TO.N,/A3*
X123190000Y-105410000D03*
G04 #@! TO.P,U2,10*
G04 #@! TO.N,VCC*
X113030000Y-113030000D03*
G04 #@! TO.P,U2,2*
G04 #@! TO.N,/A2*
X125730000Y-105410000D03*
G04 #@! TO.P,U2,9*
G04 #@! TO.N,Net-(U2-Pad9)*
X110490000Y-113030000D03*
D11*
G04 #@! TO.P,U2,1*
G04 #@! TO.N,/A1*
X128270000Y-105410000D03*
G04 #@! TD*
D17*
G04 #@! TO.P,U1,16*
G04 #@! TO.N,VCC*
X93980000Y-102870000D03*
G04 #@! TO.P,U1,8*
G04 #@! TO.N,GND*
X101600000Y-85090000D03*
G04 #@! TO.P,U1,15*
G04 #@! TO.N,/A8*
X93980000Y-100330000D03*
G04 #@! TO.P,U1,7*
G04 #@! TO.N,/CS*
X101600000Y-87630000D03*
G04 #@! TO.P,U1,14*
G04 #@! TO.N,Net-(J1-Pad7)*
X93980000Y-97790000D03*
G04 #@! TO.P,U1,6*
G04 #@! TO.N,/OE*
X101600000Y-90170000D03*
G04 #@! TO.P,U1,13*
G04 #@! TO.N,Net-(J1-Pad6)*
X93980000Y-95250000D03*
G04 #@! TO.P,U1,5*
G04 #@! TO.N,/WE*
X101600000Y-92710000D03*
G04 #@! TO.P,U1,12*
G04 #@! TO.N,Net-(J1-Pad5)*
X93980000Y-92710000D03*
G04 #@! TO.P,U1,4*
G04 #@! TO.N,/A12*
X101600000Y-95250000D03*
G04 #@! TO.P,U1,11*
G04 #@! TO.N,Net-(J1-Pad4)*
X93980000Y-90170000D03*
G04 #@! TO.P,U1,3*
G04 #@! TO.N,/A11*
X101600000Y-97790000D03*
G04 #@! TO.P,U1,10*
G04 #@! TO.N,VCC*
X93980000Y-87630000D03*
G04 #@! TO.P,U1,2*
G04 #@! TO.N,/A10*
X101600000Y-100330000D03*
G04 #@! TO.P,U1,9*
G04 #@! TO.N,Net-(U1-Pad9)*
X93980000Y-85090000D03*
D18*
G04 #@! TO.P,U1,1*
G04 #@! TO.N,/A9*
X101600000Y-102870000D03*
G04 #@! TD*
D19*
G04 #@! TO.P,R9,2*
G04 #@! TO.N,Net-(R9-Pad2)*
X147320000Y-77470000D03*
D20*
G04 #@! TO.P,R9,1*
G04 #@! TO.N,/D7*
X147320000Y-74930000D03*
G04 #@! TD*
D19*
G04 #@! TO.P,R8,2*
G04 #@! TO.N,Net-(R8-Pad2)*
X144780000Y-77470000D03*
D20*
G04 #@! TO.P,R8,1*
G04 #@! TO.N,/D6*
X144780000Y-74930000D03*
G04 #@! TD*
D19*
G04 #@! TO.P,R7,2*
G04 #@! TO.N,Net-(R7-Pad2)*
X142240000Y-77470000D03*
D20*
G04 #@! TO.P,R7,1*
G04 #@! TO.N,/D5*
X142240000Y-74930000D03*
G04 #@! TD*
D19*
G04 #@! TO.P,R6,2*
G04 #@! TO.N,Net-(R6-Pad2)*
X139700000Y-77470000D03*
D20*
G04 #@! TO.P,R6,1*
G04 #@! TO.N,/D4*
X139700000Y-74930000D03*
G04 #@! TD*
D19*
G04 #@! TO.P,R5,2*
G04 #@! TO.N,Net-(R5-Pad2)*
X137160000Y-77470000D03*
D20*
G04 #@! TO.P,R5,1*
G04 #@! TO.N,/D3*
X137160000Y-74930000D03*
G04 #@! TD*
D19*
G04 #@! TO.P,R4,2*
G04 #@! TO.N,Net-(R4-Pad2)*
X134620000Y-77470000D03*
D20*
G04 #@! TO.P,R4,1*
G04 #@! TO.N,/D2*
X134620000Y-74930000D03*
G04 #@! TD*
D19*
G04 #@! TO.P,R3,2*
G04 #@! TO.N,Net-(R3-Pad2)*
X132080000Y-77470000D03*
D20*
G04 #@! TO.P,R3,1*
G04 #@! TO.N,/D1*
X132080000Y-74930000D03*
G04 #@! TD*
D19*
G04 #@! TO.P,R2,2*
G04 #@! TO.N,Net-(R2-Pad2)*
X129540000Y-77470000D03*
D20*
G04 #@! TO.P,R2,1*
G04 #@! TO.N,/D0*
X129540000Y-74930000D03*
G04 #@! TD*
D15*
G04 #@! TO.P,JP2,3*
G04 #@! TO.N,VCC*
X93980000Y-109220000D03*
G04 #@! TO.P,JP2,2*
G04 #@! TO.N,/A14*
X96520000Y-109220000D03*
D16*
G04 #@! TO.P,JP2,1*
G04 #@! TO.N,GND*
X99060000Y-109220000D03*
G04 #@! TD*
D15*
G04 #@! TO.P,JP1,3*
G04 #@! TO.N,VCC*
X115570000Y-80010000D03*
G04 #@! TO.P,JP1,2*
G04 #@! TO.N,/A13*
X113030000Y-80010000D03*
D16*
G04 #@! TO.P,JP1,1*
G04 #@! TO.N,GND*
X110490000Y-80010000D03*
G04 #@! TD*
D15*
G04 #@! TO.P,J4,6*
G04 #@! TO.N,Net-(J4-Pad6)*
X147320000Y-120650000D03*
G04 #@! TO.P,J4,5*
G04 #@! TO.N,Net-(J4-Pad5)*
X144780000Y-120650000D03*
G04 #@! TO.P,J4,4*
G04 #@! TO.N,Net-(J4-Pad4)*
X142240000Y-120650000D03*
G04 #@! TO.P,J4,3*
G04 #@! TO.N,Net-(J4-Pad3)*
X139700000Y-120650000D03*
G04 #@! TO.P,J4,2*
G04 #@! TO.N,Net-(J4-Pad2)*
X137160000Y-120650000D03*
D16*
G04 #@! TO.P,J4,1*
G04 #@! TO.N,Net-(J4-Pad1)*
X134620000Y-120650000D03*
G04 #@! TD*
D15*
G04 #@! TO.P,J3,8*
G04 #@! TO.N,/D0*
X129540000Y-71120000D03*
G04 #@! TO.P,J3,7*
G04 #@! TO.N,/D1*
X132080000Y-71120000D03*
G04 #@! TO.P,J3,6*
G04 #@! TO.N,/D2*
X134620000Y-71120000D03*
G04 #@! TO.P,J3,5*
G04 #@! TO.N,/D3*
X137160000Y-71120000D03*
G04 #@! TO.P,J3,4*
G04 #@! TO.N,/D4*
X139700000Y-71120000D03*
G04 #@! TO.P,J3,3*
G04 #@! TO.N,/D5*
X142240000Y-71120000D03*
G04 #@! TO.P,J3,2*
G04 #@! TO.N,/D6*
X144780000Y-71120000D03*
D16*
G04 #@! TO.P,J3,1*
G04 #@! TO.N,/D7*
X147320000Y-71120000D03*
G04 #@! TD*
D15*
G04 #@! TO.P,J2,6*
G04 #@! TO.N,Net-(J2-Pad6)*
X116840000Y-120650000D03*
G04 #@! TO.P,J2,5*
G04 #@! TO.N,Net-(J2-Pad5)*
X119380000Y-120650000D03*
G04 #@! TO.P,J2,4*
G04 #@! TO.N,VCC*
X121920000Y-120650000D03*
G04 #@! TO.P,J2,3*
G04 #@! TO.N,GND*
X124460000Y-120650000D03*
G04 #@! TO.P,J2,2*
X127000000Y-120650000D03*
D16*
G04 #@! TO.P,J2,1*
G04 #@! TO.N,Net-(J2-Pad1)*
X129540000Y-120650000D03*
G04 #@! TD*
D21*
G04 #@! TO.N,/A8*
X109220000Y-90170000D03*
G04 #@! TO.N,/A9*
X106680000Y-92710000D03*
G04 #@! TD*
D22*
G04 #@! TO.N,Net-(J1-Pad7)*
X93980000Y-97790000D02*
X95250000Y-97790000D01*
X95250000Y-97790000D02*
X97790000Y-95250000D01*
X97790000Y-95250000D02*
X97790000Y-73660000D01*
X97790000Y-73660000D02*
X99060000Y-72390000D01*
X99060000Y-72390000D02*
X104140000Y-72390000D01*
X104140000Y-72390000D02*
X106680000Y-74930000D01*
X123190000Y-74930000D02*
X123190000Y-77470000D01*
X123190000Y-77470000D02*
X121920000Y-78740000D01*
X121920000Y-78740000D02*
X119380000Y-78740000D01*
X119380000Y-78740000D02*
X115570000Y-74930000D01*
X115570000Y-74930000D02*
X106680000Y-74930000D01*
X123190000Y-74930000D02*
X125095000Y-73025000D01*
X125095000Y-73025000D02*
X125095000Y-71120000D01*
G04 #@! TO.N,Net-(J1-Pad6)*
X122555000Y-72390000D02*
X122555000Y-71120000D01*
X105410000Y-71120000D02*
X107950000Y-73660000D01*
X121285000Y-73660000D02*
X122555000Y-72390000D01*
X97790000Y-71120000D02*
X105410000Y-71120000D01*
X96520000Y-72390000D02*
X97790000Y-71120000D01*
X96520000Y-93980000D02*
X96520000Y-72390000D01*
X95250000Y-95250000D02*
X96520000Y-93980000D01*
X107950000Y-73660000D02*
X121285000Y-73660000D01*
X93980000Y-95250000D02*
X95250000Y-95250000D01*
D23*
G04 #@! TO.N,VCC*
X101600000Y-82550000D02*
X102870000Y-81280000D01*
X100330000Y-82550000D02*
X101600000Y-82550000D01*
X99060000Y-99060000D02*
X99060000Y-83820000D01*
X95250000Y-102870000D02*
X99060000Y-99060000D01*
X99060000Y-83820000D02*
X100330000Y-82550000D01*
X93980000Y-102870000D02*
X95250000Y-102870000D01*
X102870000Y-81280000D02*
X102870000Y-78740000D01*
X102870000Y-78740000D02*
X104140000Y-77470000D01*
X104140000Y-77470000D02*
X105410000Y-77470000D01*
D22*
X93980000Y-109220000D02*
X90170000Y-105410000D01*
X90170000Y-105410000D02*
X90170000Y-90170000D01*
X92710000Y-87630000D02*
X93980000Y-87630000D01*
X90170000Y-90170000D02*
X92710000Y-87630000D01*
D23*
X93980000Y-109220000D02*
X93980000Y-110490000D01*
X93980000Y-110490000D02*
X95250000Y-111760000D01*
X95250000Y-111760000D02*
X106680000Y-111760000D01*
X106680000Y-111760000D02*
X107950000Y-110490000D01*
X107950000Y-110490000D02*
X113030000Y-110490000D01*
X113030000Y-110490000D02*
X113030000Y-113030000D01*
X113030000Y-110490000D02*
X127000000Y-110490000D01*
X128270000Y-111760000D02*
X128270000Y-113030000D01*
X127000000Y-110490000D02*
X128270000Y-111760000D01*
G04 #@! TO.N,GND*
X110450000Y-79970000D02*
X110490000Y-80010000D01*
X105410000Y-79970000D02*
X110450000Y-79970000D01*
X132160000Y-107950000D02*
X133350000Y-106760000D01*
X111760000Y-107950000D02*
X132160000Y-107950000D01*
X110490000Y-106680000D02*
X111760000Y-107950000D01*
X110490000Y-105410000D02*
X110490000Y-106680000D01*
D22*
G04 #@! TO.N,/A14*
X96520000Y-109220000D02*
X96520000Y-107950000D01*
X96520000Y-107950000D02*
X97790000Y-106680000D01*
X97790000Y-106680000D02*
X104140000Y-106680000D01*
X104140000Y-106680000D02*
X107950000Y-102870000D01*
X107950000Y-102870000D02*
X107950000Y-100330000D01*
G04 #@! TO.N,Net-(R2-Pad2)*
X129540000Y-77470000D02*
X129540000Y-78740000D01*
X129540000Y-78740000D02*
X133350000Y-82550000D01*
X133350000Y-82550000D02*
X142240000Y-82550000D01*
X142240000Y-82550000D02*
X143510000Y-83820000D01*
X143510000Y-83820000D02*
X143510000Y-88900000D01*
X143510000Y-88900000D02*
X133350000Y-99060000D01*
X133350000Y-99060000D02*
X133350000Y-100330000D01*
G04 #@! TO.N,Net-(R3-Pad2)*
X135890000Y-100330000D02*
X135890000Y-99060000D01*
X135890000Y-99060000D02*
X144780000Y-90170000D01*
X144780000Y-90170000D02*
X144780000Y-82550000D01*
X144780000Y-82550000D02*
X143510000Y-81280000D01*
X143510000Y-81280000D02*
X134620000Y-81280000D01*
X134620000Y-81280000D02*
X132080000Y-78740000D01*
X132080000Y-78740000D02*
X132080000Y-77470000D01*
G04 #@! TO.N,Net-(R4-Pad2)*
X134620000Y-77470000D02*
X134620000Y-78740000D01*
X134620000Y-78740000D02*
X135890000Y-80010000D01*
X135890000Y-80010000D02*
X144780000Y-80010000D01*
X144780000Y-80010000D02*
X146050000Y-81280000D01*
X146050000Y-81280000D02*
X146050000Y-91440000D01*
X138430000Y-99060000D02*
X138430000Y-100330000D01*
X146050000Y-91440000D02*
X138430000Y-99060000D01*
G04 #@! TO.N,/A8*
X109220000Y-90170000D02*
X109220000Y-93980000D01*
X109220000Y-93980000D02*
X105410000Y-97790000D01*
X105410000Y-97790000D02*
X105410000Y-102870000D01*
X105410000Y-102870000D02*
X102870000Y-105410000D01*
X102870000Y-105410000D02*
X92710000Y-105410000D01*
X92710000Y-105410000D02*
X91440000Y-104140000D01*
X91440000Y-104140000D02*
X91440000Y-101600000D01*
X91440000Y-101600000D02*
X92710000Y-100330000D01*
X92710000Y-100330000D02*
X93980000Y-100330000D01*
G04 #@! TO.N,/CS*
X101600000Y-87630000D02*
X102870000Y-87630000D01*
X102870000Y-87630000D02*
X105410000Y-85090000D01*
X105410000Y-85090000D02*
X105410000Y-83820000D01*
X105410000Y-83820000D02*
X106680000Y-82550000D01*
X106680000Y-82550000D02*
X127000000Y-82550000D01*
X127000000Y-82550000D02*
X128270000Y-83820000D01*
X128270000Y-83820000D02*
X128270000Y-85090000D01*
G04 #@! TO.N,/OE*
X101600000Y-90170000D02*
X102870000Y-90170000D01*
X102870000Y-90170000D02*
X105410000Y-87630000D01*
X105410000Y-87630000D02*
X121920000Y-87630000D01*
X121920000Y-87630000D02*
X123190000Y-86360000D01*
X123190000Y-86360000D02*
X123190000Y-85090000D01*
G04 #@! TO.N,Net-(U1-Pad9)*
X123190000Y-113030000D02*
X123190000Y-114300000D01*
X88900000Y-88900000D02*
X92710000Y-85090000D01*
X92710000Y-85090000D02*
X93980000Y-85090000D01*
X121920000Y-115570000D02*
X96520000Y-115570000D01*
X96520000Y-115570000D02*
X88900000Y-107950000D01*
X123190000Y-114300000D02*
X121920000Y-115570000D01*
X88900000Y-107950000D02*
X88900000Y-88900000D01*
G04 #@! TO.N,/A9*
X101600000Y-102870000D02*
X102870000Y-102870000D01*
X102870000Y-102870000D02*
X103250010Y-102489990D01*
X103250010Y-102489990D02*
X104140000Y-101600000D01*
X104140000Y-95250000D02*
X106680000Y-92710000D01*
X104140000Y-101600000D02*
X104140000Y-95250000D01*
G04 #@! TD*
D24*
G04 #@! TO.N,GND*
X149175001Y-122505000D02*
X87045000Y-122505000D01*
X87045000Y-120503740D01*
X115355000Y-120503740D01*
X115355000Y-120796260D01*
X115412068Y-121083158D01*
X115524010Y-121353411D01*
X115686525Y-121596632D01*
X115893368Y-121803475D01*
X116136589Y-121965990D01*
X116406842Y-122077932D01*
X116693740Y-122135000D01*
X116986260Y-122135000D01*
X117273158Y-122077932D01*
X117543411Y-121965990D01*
X117786632Y-121803475D01*
X117993475Y-121596632D01*
X118110000Y-121422240D01*
X118226525Y-121596632D01*
X118433368Y-121803475D01*
X118676589Y-121965990D01*
X118946842Y-122077932D01*
X119233740Y-122135000D01*
X119526260Y-122135000D01*
X119813158Y-122077932D01*
X120083411Y-121965990D01*
X120326632Y-121803475D01*
X120533475Y-121596632D01*
X120650000Y-121422240D01*
X120766525Y-121596632D01*
X120973368Y-121803475D01*
X121216589Y-121965990D01*
X121486842Y-122077932D01*
X121773740Y-122135000D01*
X122066260Y-122135000D01*
X122353158Y-122077932D01*
X122623411Y-121965990D01*
X122866632Y-121803475D01*
X123073475Y-121596632D01*
X123195195Y-121414466D01*
X123264822Y-121531355D01*
X123459731Y-121747588D01*
X123693080Y-121921641D01*
X123955901Y-122046825D01*
X124103110Y-122091476D01*
X124333000Y-121970155D01*
X124333000Y-120777000D01*
X124587000Y-120777000D01*
X124587000Y-121970155D01*
X124816890Y-122091476D01*
X124964099Y-122046825D01*
X125226920Y-121921641D01*
X125460269Y-121747588D01*
X125655178Y-121531355D01*
X125730000Y-121405745D01*
X125804822Y-121531355D01*
X125999731Y-121747588D01*
X126233080Y-121921641D01*
X126495901Y-122046825D01*
X126643110Y-122091476D01*
X126873000Y-121970155D01*
X126873000Y-120777000D01*
X124587000Y-120777000D01*
X124333000Y-120777000D01*
X124313000Y-120777000D01*
X124313000Y-120523000D01*
X124333000Y-120523000D01*
X124333000Y-119329845D01*
X124587000Y-119329845D01*
X124587000Y-120523000D01*
X126873000Y-120523000D01*
X126873000Y-119329845D01*
X127127000Y-119329845D01*
X127127000Y-120523000D01*
X127147000Y-120523000D01*
X127147000Y-120777000D01*
X127127000Y-120777000D01*
X127127000Y-121970155D01*
X127356890Y-122091476D01*
X127504099Y-122046825D01*
X127766920Y-121921641D01*
X128000269Y-121747588D01*
X128076034Y-121663534D01*
X128100498Y-121744180D01*
X128159463Y-121854494D01*
X128238815Y-121951185D01*
X128335506Y-122030537D01*
X128445820Y-122089502D01*
X128565518Y-122125812D01*
X128690000Y-122138072D01*
X130390000Y-122138072D01*
X130514482Y-122125812D01*
X130634180Y-122089502D01*
X130744494Y-122030537D01*
X130841185Y-121951185D01*
X130920537Y-121854494D01*
X130979502Y-121744180D01*
X131015812Y-121624482D01*
X131028072Y-121500000D01*
X131028072Y-119800000D01*
X133131928Y-119800000D01*
X133131928Y-121500000D01*
X133144188Y-121624482D01*
X133180498Y-121744180D01*
X133239463Y-121854494D01*
X133318815Y-121951185D01*
X133415506Y-122030537D01*
X133525820Y-122089502D01*
X133645518Y-122125812D01*
X133770000Y-122138072D01*
X135470000Y-122138072D01*
X135594482Y-122125812D01*
X135714180Y-122089502D01*
X135824494Y-122030537D01*
X135921185Y-121951185D01*
X136000537Y-121854494D01*
X136059502Y-121744180D01*
X136081513Y-121671620D01*
X136213368Y-121803475D01*
X136456589Y-121965990D01*
X136726842Y-122077932D01*
X137013740Y-122135000D01*
X137306260Y-122135000D01*
X137593158Y-122077932D01*
X137863411Y-121965990D01*
X138106632Y-121803475D01*
X138313475Y-121596632D01*
X138430000Y-121422240D01*
X138546525Y-121596632D01*
X138753368Y-121803475D01*
X138996589Y-121965990D01*
X139266842Y-122077932D01*
X139553740Y-122135000D01*
X139846260Y-122135000D01*
X140133158Y-122077932D01*
X140403411Y-121965990D01*
X140646632Y-121803475D01*
X140853475Y-121596632D01*
X140970000Y-121422240D01*
X141086525Y-121596632D01*
X141293368Y-121803475D01*
X141536589Y-121965990D01*
X141806842Y-122077932D01*
X142093740Y-122135000D01*
X142386260Y-122135000D01*
X142673158Y-122077932D01*
X142943411Y-121965990D01*
X143186632Y-121803475D01*
X143393475Y-121596632D01*
X143510000Y-121422240D01*
X143626525Y-121596632D01*
X143833368Y-121803475D01*
X144076589Y-121965990D01*
X144346842Y-122077932D01*
X144633740Y-122135000D01*
X144926260Y-122135000D01*
X145213158Y-122077932D01*
X145483411Y-121965990D01*
X145726632Y-121803475D01*
X145933475Y-121596632D01*
X146050000Y-121422240D01*
X146166525Y-121596632D01*
X146373368Y-121803475D01*
X146616589Y-121965990D01*
X146886842Y-122077932D01*
X147173740Y-122135000D01*
X147466260Y-122135000D01*
X147753158Y-122077932D01*
X148023411Y-121965990D01*
X148266632Y-121803475D01*
X148473475Y-121596632D01*
X148635990Y-121353411D01*
X148747932Y-121083158D01*
X148805000Y-120796260D01*
X148805000Y-120503740D01*
X148747932Y-120216842D01*
X148635990Y-119946589D01*
X148473475Y-119703368D01*
X148266632Y-119496525D01*
X148023411Y-119334010D01*
X147753158Y-119222068D01*
X147466260Y-119165000D01*
X147173740Y-119165000D01*
X146886842Y-119222068D01*
X146616589Y-119334010D01*
X146373368Y-119496525D01*
X146166525Y-119703368D01*
X146050000Y-119877760D01*
X145933475Y-119703368D01*
X145726632Y-119496525D01*
X145483411Y-119334010D01*
X145213158Y-119222068D01*
X144926260Y-119165000D01*
X144633740Y-119165000D01*
X144346842Y-119222068D01*
X144076589Y-119334010D01*
X143833368Y-119496525D01*
X143626525Y-119703368D01*
X143510000Y-119877760D01*
X143393475Y-119703368D01*
X143186632Y-119496525D01*
X142943411Y-119334010D01*
X142673158Y-119222068D01*
X142386260Y-119165000D01*
X142093740Y-119165000D01*
X141806842Y-119222068D01*
X141536589Y-119334010D01*
X141293368Y-119496525D01*
X141086525Y-119703368D01*
X140970000Y-119877760D01*
X140853475Y-119703368D01*
X140646632Y-119496525D01*
X140403411Y-119334010D01*
X140133158Y-119222068D01*
X139846260Y-119165000D01*
X139553740Y-119165000D01*
X139266842Y-119222068D01*
X138996589Y-119334010D01*
X138753368Y-119496525D01*
X138546525Y-119703368D01*
X138430000Y-119877760D01*
X138313475Y-119703368D01*
X138106632Y-119496525D01*
X137863411Y-119334010D01*
X137593158Y-119222068D01*
X137306260Y-119165000D01*
X137013740Y-119165000D01*
X136726842Y-119222068D01*
X136456589Y-119334010D01*
X136213368Y-119496525D01*
X136081513Y-119628380D01*
X136059502Y-119555820D01*
X136000537Y-119445506D01*
X135921185Y-119348815D01*
X135824494Y-119269463D01*
X135714180Y-119210498D01*
X135594482Y-119174188D01*
X135470000Y-119161928D01*
X133770000Y-119161928D01*
X133645518Y-119174188D01*
X133525820Y-119210498D01*
X133415506Y-119269463D01*
X133318815Y-119348815D01*
X133239463Y-119445506D01*
X133180498Y-119555820D01*
X133144188Y-119675518D01*
X133131928Y-119800000D01*
X131028072Y-119800000D01*
X131015812Y-119675518D01*
X130979502Y-119555820D01*
X130920537Y-119445506D01*
X130841185Y-119348815D01*
X130744494Y-119269463D01*
X130634180Y-119210498D01*
X130514482Y-119174188D01*
X130390000Y-119161928D01*
X128690000Y-119161928D01*
X128565518Y-119174188D01*
X128445820Y-119210498D01*
X128335506Y-119269463D01*
X128238815Y-119348815D01*
X128159463Y-119445506D01*
X128100498Y-119555820D01*
X128076034Y-119636466D01*
X128000269Y-119552412D01*
X127766920Y-119378359D01*
X127504099Y-119253175D01*
X127356890Y-119208524D01*
X127127000Y-119329845D01*
X126873000Y-119329845D01*
X126643110Y-119208524D01*
X126495901Y-119253175D01*
X126233080Y-119378359D01*
X125999731Y-119552412D01*
X125804822Y-119768645D01*
X125730000Y-119894255D01*
X125655178Y-119768645D01*
X125460269Y-119552412D01*
X125226920Y-119378359D01*
X124964099Y-119253175D01*
X124816890Y-119208524D01*
X124587000Y-119329845D01*
X124333000Y-119329845D01*
X124103110Y-119208524D01*
X123955901Y-119253175D01*
X123693080Y-119378359D01*
X123459731Y-119552412D01*
X123264822Y-119768645D01*
X123195195Y-119885534D01*
X123073475Y-119703368D01*
X122866632Y-119496525D01*
X122623411Y-119334010D01*
X122353158Y-119222068D01*
X122066260Y-119165000D01*
X121773740Y-119165000D01*
X121486842Y-119222068D01*
X121216589Y-119334010D01*
X120973368Y-119496525D01*
X120766525Y-119703368D01*
X120650000Y-119877760D01*
X120533475Y-119703368D01*
X120326632Y-119496525D01*
X120083411Y-119334010D01*
X119813158Y-119222068D01*
X119526260Y-119165000D01*
X119233740Y-119165000D01*
X118946842Y-119222068D01*
X118676589Y-119334010D01*
X118433368Y-119496525D01*
X118226525Y-119703368D01*
X118110000Y-119877760D01*
X117993475Y-119703368D01*
X117786632Y-119496525D01*
X117543411Y-119334010D01*
X117273158Y-119222068D01*
X116986260Y-119165000D01*
X116693740Y-119165000D01*
X116406842Y-119222068D01*
X116136589Y-119334010D01*
X115893368Y-119496525D01*
X115686525Y-119703368D01*
X115524010Y-119946589D01*
X115412068Y-120216842D01*
X115355000Y-120503740D01*
X87045000Y-120503740D01*
X87045000Y-88900000D01*
X88010719Y-88900000D01*
X88015001Y-88943477D01*
X88015000Y-107906531D01*
X88010719Y-107950000D01*
X88015000Y-107993469D01*
X88015000Y-107993476D01*
X88027805Y-108123489D01*
X88078411Y-108290312D01*
X88160589Y-108444058D01*
X88271183Y-108578817D01*
X88304954Y-108606532D01*
X95863470Y-116165049D01*
X95891183Y-116198817D01*
X95924951Y-116226530D01*
X95924953Y-116226532D01*
X95996452Y-116285210D01*
X96025941Y-116309411D01*
X96179687Y-116391589D01*
X96346510Y-116442195D01*
X96476523Y-116455000D01*
X96476533Y-116455000D01*
X96519999Y-116459281D01*
X96563465Y-116455000D01*
X121876531Y-116455000D01*
X121920000Y-116459281D01*
X121963469Y-116455000D01*
X121963477Y-116455000D01*
X122093490Y-116442195D01*
X122260313Y-116391589D01*
X122414059Y-116309411D01*
X122548817Y-116198817D01*
X122576534Y-116165044D01*
X123785049Y-114956530D01*
X123818817Y-114928817D01*
X123888232Y-114844236D01*
X123929410Y-114794060D01*
X123980859Y-114697805D01*
X124011589Y-114640313D01*
X124022977Y-114602771D01*
X124209607Y-114449608D01*
X124388932Y-114231101D01*
X124460000Y-114098142D01*
X124531068Y-114231100D01*
X124710392Y-114449607D01*
X124928899Y-114628932D01*
X125178192Y-114762182D01*
X125448691Y-114844236D01*
X125730000Y-114871943D01*
X126011308Y-114844236D01*
X126281807Y-114762182D01*
X126531100Y-114628932D01*
X126749607Y-114449608D01*
X126928932Y-114231101D01*
X127000000Y-114098142D01*
X127071068Y-114231100D01*
X127250392Y-114449607D01*
X127468899Y-114628932D01*
X127718192Y-114762182D01*
X127988691Y-114844236D01*
X128270000Y-114871943D01*
X128551308Y-114844236D01*
X128821807Y-114762182D01*
X129071100Y-114628932D01*
X129289607Y-114449608D01*
X129468932Y-114231101D01*
X129602182Y-113981808D01*
X129684236Y-113711309D01*
X129705000Y-113500492D01*
X129705000Y-112559509D01*
X129684236Y-112348691D01*
X129602182Y-112078192D01*
X129468932Y-111828899D01*
X129296398Y-111618665D01*
X131915000Y-111618665D01*
X131915000Y-111901335D01*
X131970147Y-112178574D01*
X132078320Y-112439727D01*
X132235363Y-112674759D01*
X132435241Y-112874637D01*
X132670273Y-113031680D01*
X132931426Y-113139853D01*
X133208665Y-113195000D01*
X133491335Y-113195000D01*
X133768574Y-113139853D01*
X134029727Y-113031680D01*
X134264759Y-112874637D01*
X134464637Y-112674759D01*
X134621680Y-112439727D01*
X134729853Y-112178574D01*
X134785000Y-111901335D01*
X134785000Y-111618665D01*
X134729853Y-111341426D01*
X134621680Y-111080273D01*
X134464637Y-110845241D01*
X134264759Y-110645363D01*
X134029727Y-110488320D01*
X133768574Y-110380147D01*
X133491335Y-110325000D01*
X133208665Y-110325000D01*
X132931426Y-110380147D01*
X132670273Y-110488320D01*
X132435241Y-110645363D01*
X132235363Y-110845241D01*
X132078320Y-111080273D01*
X131970147Y-111341426D01*
X131915000Y-111618665D01*
X129296398Y-111618665D01*
X129289608Y-111610392D01*
X129268440Y-111593020D01*
X129265385Y-111562006D01*
X129207632Y-111371620D01*
X129113847Y-111196160D01*
X128987633Y-111042367D01*
X128949094Y-111010739D01*
X127749261Y-109810906D01*
X127717633Y-109772367D01*
X127563840Y-109646153D01*
X127388380Y-109552368D01*
X127197994Y-109494615D01*
X127049608Y-109480000D01*
X127000000Y-109475114D01*
X126950392Y-109480000D01*
X113079607Y-109480000D01*
X113030000Y-109475114D01*
X112980392Y-109480000D01*
X107999604Y-109480000D01*
X107949999Y-109475114D01*
X107900394Y-109480000D01*
X107900392Y-109480000D01*
X107752006Y-109494615D01*
X107561620Y-109552368D01*
X107386160Y-109646153D01*
X107232367Y-109772367D01*
X107200739Y-109810906D01*
X106261645Y-110750000D01*
X95668355Y-110750000D01*
X95109231Y-110190876D01*
X95133475Y-110166632D01*
X95250000Y-109992240D01*
X95366525Y-110166632D01*
X95573368Y-110373475D01*
X95816589Y-110535990D01*
X96086842Y-110647932D01*
X96373740Y-110705000D01*
X96666260Y-110705000D01*
X96953158Y-110647932D01*
X97223411Y-110535990D01*
X97466632Y-110373475D01*
X97598487Y-110241620D01*
X97620498Y-110314180D01*
X97679463Y-110424494D01*
X97758815Y-110521185D01*
X97855506Y-110600537D01*
X97965820Y-110659502D01*
X98085518Y-110695812D01*
X98210000Y-110708072D01*
X98774250Y-110705000D01*
X98933000Y-110546250D01*
X98933000Y-109347000D01*
X99187000Y-109347000D01*
X99187000Y-110546250D01*
X99345750Y-110705000D01*
X99910000Y-110708072D01*
X100034482Y-110695812D01*
X100154180Y-110659502D01*
X100264494Y-110600537D01*
X100361185Y-110521185D01*
X100440537Y-110424494D01*
X100499502Y-110314180D01*
X100535812Y-110194482D01*
X100548072Y-110070000D01*
X100545000Y-109505750D01*
X100386250Y-109347000D01*
X99187000Y-109347000D01*
X98933000Y-109347000D01*
X98913000Y-109347000D01*
X98913000Y-109093000D01*
X98933000Y-109093000D01*
X98933000Y-107893750D01*
X99187000Y-107893750D01*
X99187000Y-109093000D01*
X100386250Y-109093000D01*
X100545000Y-108934250D01*
X100548072Y-108370000D01*
X100535812Y-108245518D01*
X100499502Y-108125820D01*
X100440537Y-108015506D01*
X100361185Y-107918815D01*
X100264494Y-107839463D01*
X100154180Y-107780498D01*
X100062549Y-107752702D01*
X132536903Y-107752702D01*
X132608486Y-107996671D01*
X132863996Y-108117571D01*
X133138184Y-108186300D01*
X133420512Y-108200217D01*
X133700130Y-108158787D01*
X133966292Y-108063603D01*
X134091514Y-107996671D01*
X134163097Y-107752702D01*
X133350000Y-106939605D01*
X132536903Y-107752702D01*
X100062549Y-107752702D01*
X100034482Y-107744188D01*
X99910000Y-107731928D01*
X99345750Y-107735000D01*
X99187000Y-107893750D01*
X98933000Y-107893750D01*
X98774250Y-107735000D01*
X98210000Y-107731928D01*
X98085518Y-107744188D01*
X97965820Y-107780498D01*
X97912672Y-107808907D01*
X98156579Y-107565000D01*
X104096531Y-107565000D01*
X104140000Y-107569281D01*
X104183469Y-107565000D01*
X104183477Y-107565000D01*
X104313490Y-107552195D01*
X104480313Y-107501589D01*
X104634059Y-107419411D01*
X104768817Y-107308817D01*
X104796534Y-107275044D01*
X106534578Y-105537000D01*
X109055000Y-105537000D01*
X109055000Y-105937000D01*
X109107350Y-106214514D01*
X109212834Y-106476483D01*
X109367399Y-106712839D01*
X109565105Y-106914500D01*
X109798354Y-107073715D01*
X110058182Y-107184367D01*
X110140961Y-107201904D01*
X110363000Y-107079915D01*
X110363000Y-105537000D01*
X109055000Y-105537000D01*
X106534578Y-105537000D01*
X107188578Y-104883000D01*
X109055000Y-104883000D01*
X109055000Y-105283000D01*
X110363000Y-105283000D01*
X110363000Y-103740085D01*
X110617000Y-103740085D01*
X110617000Y-105283000D01*
X110637000Y-105283000D01*
X110637000Y-105537000D01*
X110617000Y-105537000D01*
X110617000Y-107079915D01*
X110839039Y-107201904D01*
X110921818Y-107184367D01*
X111181646Y-107073715D01*
X111414895Y-106914500D01*
X111612601Y-106712839D01*
X111762735Y-106483258D01*
X111831068Y-106611100D01*
X112010392Y-106829607D01*
X112228899Y-107008932D01*
X112478192Y-107142182D01*
X112748691Y-107224236D01*
X113030000Y-107251943D01*
X113311308Y-107224236D01*
X113581807Y-107142182D01*
X113831100Y-107008932D01*
X114049607Y-106829608D01*
X114228932Y-106611101D01*
X114300000Y-106478142D01*
X114371068Y-106611100D01*
X114550392Y-106829607D01*
X114768899Y-107008932D01*
X115018192Y-107142182D01*
X115288691Y-107224236D01*
X115570000Y-107251943D01*
X115851308Y-107224236D01*
X116121807Y-107142182D01*
X116371100Y-107008932D01*
X116589607Y-106829608D01*
X116768932Y-106611101D01*
X116840000Y-106478142D01*
X116911068Y-106611100D01*
X117090392Y-106829607D01*
X117308899Y-107008932D01*
X117558192Y-107142182D01*
X117828691Y-107224236D01*
X118110000Y-107251943D01*
X118391308Y-107224236D01*
X118661807Y-107142182D01*
X118911100Y-107008932D01*
X119129607Y-106829608D01*
X119308932Y-106611101D01*
X119380000Y-106478142D01*
X119451068Y-106611100D01*
X119630392Y-106829607D01*
X119848899Y-107008932D01*
X120098192Y-107142182D01*
X120368691Y-107224236D01*
X120650000Y-107251943D01*
X120931308Y-107224236D01*
X121201807Y-107142182D01*
X121451100Y-107008932D01*
X121669607Y-106829608D01*
X121848932Y-106611101D01*
X121920000Y-106478142D01*
X121991068Y-106611100D01*
X122170392Y-106829607D01*
X122388899Y-107008932D01*
X122638192Y-107142182D01*
X122908691Y-107224236D01*
X123190000Y-107251943D01*
X123471308Y-107224236D01*
X123741807Y-107142182D01*
X123991100Y-107008932D01*
X124209607Y-106829608D01*
X124388932Y-106611101D01*
X124460000Y-106478142D01*
X124531068Y-106611100D01*
X124710392Y-106829607D01*
X124928899Y-107008932D01*
X125178192Y-107142182D01*
X125448691Y-107224236D01*
X125730000Y-107251943D01*
X126011308Y-107224236D01*
X126281807Y-107142182D01*
X126531100Y-107008932D01*
X126749607Y-106829608D01*
X126842419Y-106716517D01*
X126844188Y-106734482D01*
X126880498Y-106854180D01*
X126939463Y-106964494D01*
X127018815Y-107061185D01*
X127115506Y-107140537D01*
X127225820Y-107199502D01*
X127345518Y-107235812D01*
X127470000Y-107248072D01*
X129070000Y-107248072D01*
X129194482Y-107235812D01*
X129314180Y-107199502D01*
X129424494Y-107140537D01*
X129521185Y-107061185D01*
X129600537Y-106964494D01*
X129659502Y-106854180D01*
X129666681Y-106830512D01*
X131909783Y-106830512D01*
X131951213Y-107110130D01*
X132046397Y-107376292D01*
X132113329Y-107501514D01*
X132357298Y-107573097D01*
X133170395Y-106760000D01*
X133529605Y-106760000D01*
X134342702Y-107573097D01*
X134586671Y-107501514D01*
X134707571Y-107246004D01*
X134776300Y-106971816D01*
X134790217Y-106689488D01*
X134748787Y-106409870D01*
X134653603Y-106143708D01*
X134586671Y-106018486D01*
X134342702Y-105946903D01*
X133529605Y-106760000D01*
X133170395Y-106760000D01*
X132357298Y-105946903D01*
X132113329Y-106018486D01*
X131992429Y-106273996D01*
X131923700Y-106548184D01*
X131909783Y-106830512D01*
X129666681Y-106830512D01*
X129695812Y-106734482D01*
X129708072Y-106610000D01*
X129708072Y-105767298D01*
X132536903Y-105767298D01*
X133350000Y-106580395D01*
X134163097Y-105767298D01*
X134091514Y-105523329D01*
X133836004Y-105402429D01*
X133561816Y-105333700D01*
X133279488Y-105319783D01*
X132999870Y-105361213D01*
X132733708Y-105456397D01*
X132608486Y-105523329D01*
X132536903Y-105767298D01*
X129708072Y-105767298D01*
X129708072Y-104210000D01*
X129695812Y-104085518D01*
X129659502Y-103965820D01*
X129600537Y-103855506D01*
X129521185Y-103758815D01*
X129424494Y-103679463D01*
X129314180Y-103620498D01*
X129194482Y-103584188D01*
X129070000Y-103571928D01*
X127470000Y-103571928D01*
X127345518Y-103584188D01*
X127225820Y-103620498D01*
X127115506Y-103679463D01*
X127018815Y-103758815D01*
X126939463Y-103855506D01*
X126880498Y-103965820D01*
X126844188Y-104085518D01*
X126842419Y-104103482D01*
X126749608Y-103990392D01*
X126531101Y-103811068D01*
X126281808Y-103677818D01*
X126011309Y-103595764D01*
X125730000Y-103568057D01*
X125448692Y-103595764D01*
X125178193Y-103677818D01*
X124928900Y-103811068D01*
X124710393Y-103990392D01*
X124531068Y-104208899D01*
X124460000Y-104341858D01*
X124388932Y-104208899D01*
X124209608Y-103990392D01*
X123991101Y-103811068D01*
X123741808Y-103677818D01*
X123471309Y-103595764D01*
X123190000Y-103568057D01*
X122908692Y-103595764D01*
X122638193Y-103677818D01*
X122388900Y-103811068D01*
X122170393Y-103990392D01*
X121991068Y-104208899D01*
X121920000Y-104341858D01*
X121848932Y-104208899D01*
X121669608Y-103990392D01*
X121451101Y-103811068D01*
X121201808Y-103677818D01*
X120931309Y-103595764D01*
X120650000Y-103568057D01*
X120368692Y-103595764D01*
X120098193Y-103677818D01*
X119848900Y-103811068D01*
X119630393Y-103990392D01*
X119451068Y-104208899D01*
X119380000Y-104341858D01*
X119308932Y-104208899D01*
X119129608Y-103990392D01*
X118911101Y-103811068D01*
X118661808Y-103677818D01*
X118391309Y-103595764D01*
X118110000Y-103568057D01*
X117828692Y-103595764D01*
X117558193Y-103677818D01*
X117308900Y-103811068D01*
X117090393Y-103990392D01*
X116911068Y-104208899D01*
X116840000Y-104341858D01*
X116768932Y-104208899D01*
X116589608Y-103990392D01*
X116371101Y-103811068D01*
X116121808Y-103677818D01*
X115851309Y-103595764D01*
X115570000Y-103568057D01*
X115288692Y-103595764D01*
X115018193Y-103677818D01*
X114768900Y-103811068D01*
X114550393Y-103990392D01*
X114371068Y-104208899D01*
X114300000Y-104341858D01*
X114228932Y-104208899D01*
X114049608Y-103990392D01*
X113831101Y-103811068D01*
X113581808Y-103677818D01*
X113311309Y-103595764D01*
X113030000Y-103568057D01*
X112748692Y-103595764D01*
X112478193Y-103677818D01*
X112228900Y-103811068D01*
X112010393Y-103990392D01*
X111831068Y-104208899D01*
X111762735Y-104336741D01*
X111612601Y-104107161D01*
X111414895Y-103905500D01*
X111181646Y-103746285D01*
X110921818Y-103635633D01*
X110839039Y-103618096D01*
X110617000Y-103740085D01*
X110363000Y-103740085D01*
X110140961Y-103618096D01*
X110058182Y-103635633D01*
X109798354Y-103746285D01*
X109565105Y-103905500D01*
X109367399Y-104107161D01*
X109212834Y-104343517D01*
X109107350Y-104605486D01*
X109055000Y-104883000D01*
X107188578Y-104883000D01*
X108545050Y-103526529D01*
X108578817Y-103498817D01*
X108689411Y-103364059D01*
X108713810Y-103318412D01*
X108771589Y-103210314D01*
X108822195Y-103043490D01*
X108828049Y-102984049D01*
X108835000Y-102913477D01*
X108835000Y-102913469D01*
X108839281Y-102870000D01*
X108835000Y-102826531D01*
X108835000Y-102159701D01*
X108874482Y-102155812D01*
X108994180Y-102119502D01*
X109104494Y-102060537D01*
X109201185Y-101981185D01*
X109280537Y-101884494D01*
X109339502Y-101774180D01*
X109375812Y-101654482D01*
X109377581Y-101636517D01*
X109470393Y-101749608D01*
X109688900Y-101928932D01*
X109938193Y-102062182D01*
X110208692Y-102144236D01*
X110490000Y-102171943D01*
X110771309Y-102144236D01*
X111041808Y-102062182D01*
X111291101Y-101928932D01*
X111509608Y-101749608D01*
X111688932Y-101531101D01*
X111760000Y-101398142D01*
X111831068Y-101531101D01*
X112010393Y-101749608D01*
X112228900Y-101928932D01*
X112478193Y-102062182D01*
X112748692Y-102144236D01*
X113030000Y-102171943D01*
X113311309Y-102144236D01*
X113581808Y-102062182D01*
X113831101Y-101928932D01*
X114049608Y-101749608D01*
X114228932Y-101531101D01*
X114300000Y-101398142D01*
X114371068Y-101531101D01*
X114550393Y-101749608D01*
X114768900Y-101928932D01*
X115018193Y-102062182D01*
X115288692Y-102144236D01*
X115570000Y-102171943D01*
X115851309Y-102144236D01*
X116121808Y-102062182D01*
X116371101Y-101928932D01*
X116589608Y-101749608D01*
X116768932Y-101531101D01*
X116840000Y-101398142D01*
X116911068Y-101531101D01*
X117090393Y-101749608D01*
X117308900Y-101928932D01*
X117558193Y-102062182D01*
X117828692Y-102144236D01*
X118110000Y-102171943D01*
X118391309Y-102144236D01*
X118661808Y-102062182D01*
X118911101Y-101928932D01*
X119129608Y-101749608D01*
X119308932Y-101531101D01*
X119380000Y-101398142D01*
X119451068Y-101531101D01*
X119630393Y-101749608D01*
X119848900Y-101928932D01*
X120098193Y-102062182D01*
X120368692Y-102144236D01*
X120650000Y-102171943D01*
X120931309Y-102144236D01*
X121201808Y-102062182D01*
X121451101Y-101928932D01*
X121669608Y-101749608D01*
X121848932Y-101531101D01*
X121920000Y-101398142D01*
X121991068Y-101531101D01*
X122170393Y-101749608D01*
X122388900Y-101928932D01*
X122638193Y-102062182D01*
X122908692Y-102144236D01*
X123190000Y-102171943D01*
X123471309Y-102144236D01*
X123741808Y-102062182D01*
X123991101Y-101928932D01*
X124209608Y-101749608D01*
X124388932Y-101531101D01*
X124460000Y-101398142D01*
X124531068Y-101531101D01*
X124710393Y-101749608D01*
X124928900Y-101928932D01*
X125178193Y-102062182D01*
X125448692Y-102144236D01*
X125730000Y-102171943D01*
X126011309Y-102144236D01*
X126281808Y-102062182D01*
X126531101Y-101928932D01*
X126749608Y-101749608D01*
X126928932Y-101531101D01*
X127000000Y-101398142D01*
X127071068Y-101531101D01*
X127250393Y-101749608D01*
X127468900Y-101928932D01*
X127718193Y-102062182D01*
X127988692Y-102144236D01*
X128270000Y-102171943D01*
X128551309Y-102144236D01*
X128821808Y-102062182D01*
X129071101Y-101928932D01*
X129289608Y-101749608D01*
X129468932Y-101531101D01*
X129540000Y-101398142D01*
X129611068Y-101531101D01*
X129790393Y-101749608D01*
X130008900Y-101928932D01*
X130258193Y-102062182D01*
X130528692Y-102144236D01*
X130810000Y-102171943D01*
X131091309Y-102144236D01*
X131361808Y-102062182D01*
X131611101Y-101928932D01*
X131829608Y-101749608D01*
X132008932Y-101531101D01*
X132080000Y-101398142D01*
X132151068Y-101531101D01*
X132330393Y-101749608D01*
X132548900Y-101928932D01*
X132798193Y-102062182D01*
X133068692Y-102144236D01*
X133350000Y-102171943D01*
X133631309Y-102144236D01*
X133901808Y-102062182D01*
X134151101Y-101928932D01*
X134369608Y-101749608D01*
X134548932Y-101531101D01*
X134620000Y-101398142D01*
X134691068Y-101531101D01*
X134870393Y-101749608D01*
X135088900Y-101928932D01*
X135338193Y-102062182D01*
X135608692Y-102144236D01*
X135890000Y-102171943D01*
X136171309Y-102144236D01*
X136441808Y-102062182D01*
X136691101Y-101928932D01*
X136909608Y-101749608D01*
X137088932Y-101531101D01*
X137160000Y-101398142D01*
X137231068Y-101531101D01*
X137410393Y-101749608D01*
X137628900Y-101928932D01*
X137878193Y-102062182D01*
X138148692Y-102144236D01*
X138430000Y-102171943D01*
X138711309Y-102144236D01*
X138981808Y-102062182D01*
X139231101Y-101928932D01*
X139449608Y-101749608D01*
X139628932Y-101531101D01*
X139697265Y-101403259D01*
X139847399Y-101632839D01*
X140045105Y-101834500D01*
X140278354Y-101993715D01*
X140538182Y-102104367D01*
X140620961Y-102121904D01*
X140843000Y-101999915D01*
X140843000Y-100457000D01*
X141097000Y-100457000D01*
X141097000Y-101999915D01*
X141319039Y-102121904D01*
X141401818Y-102104367D01*
X141661646Y-101993715D01*
X141894895Y-101834500D01*
X142092601Y-101632839D01*
X142247166Y-101396483D01*
X142352650Y-101134514D01*
X142405000Y-100857000D01*
X142405000Y-100457000D01*
X141097000Y-100457000D01*
X140843000Y-100457000D01*
X140823000Y-100457000D01*
X140823000Y-100203000D01*
X140843000Y-100203000D01*
X140843000Y-98660085D01*
X141097000Y-98660085D01*
X141097000Y-100203000D01*
X142405000Y-100203000D01*
X142405000Y-99803000D01*
X142352650Y-99525486D01*
X142247166Y-99263517D01*
X142092601Y-99027161D01*
X141894895Y-98825500D01*
X141661646Y-98666285D01*
X141401818Y-98555633D01*
X141319039Y-98538096D01*
X141097000Y-98660085D01*
X140843000Y-98660085D01*
X140620961Y-98538096D01*
X140538182Y-98555633D01*
X140278354Y-98666285D01*
X140045105Y-98825500D01*
X139847399Y-99027161D01*
X139697265Y-99256741D01*
X139628932Y-99128899D01*
X139621606Y-99119972D01*
X146645049Y-92096530D01*
X146678817Y-92068817D01*
X146789411Y-91934059D01*
X146871589Y-91780313D01*
X146922195Y-91613490D01*
X146935000Y-91483477D01*
X146935000Y-91483467D01*
X146939281Y-91440001D01*
X146935000Y-91396535D01*
X146935000Y-81323465D01*
X146939281Y-81279999D01*
X146935000Y-81236533D01*
X146935000Y-81236523D01*
X146922195Y-81106510D01*
X146871589Y-80939687D01*
X146789411Y-80785941D01*
X146678817Y-80651183D01*
X146645050Y-80623471D01*
X145436534Y-79414956D01*
X145408817Y-79381183D01*
X145274059Y-79270589D01*
X145120313Y-79188411D01*
X144953490Y-79137805D01*
X144823477Y-79125000D01*
X144823469Y-79125000D01*
X144780000Y-79120719D01*
X144736531Y-79125000D01*
X136256579Y-79125000D01*
X135554777Y-78423198D01*
X135656962Y-78321013D01*
X135803061Y-78102359D01*
X135890000Y-77892470D01*
X135976939Y-78102359D01*
X136123038Y-78321013D01*
X136308987Y-78506962D01*
X136527641Y-78653061D01*
X136770595Y-78753696D01*
X137028514Y-78805000D01*
X137291486Y-78805000D01*
X137549405Y-78753696D01*
X137792359Y-78653061D01*
X138011013Y-78506962D01*
X138196962Y-78321013D01*
X138343061Y-78102359D01*
X138430000Y-77892470D01*
X138516939Y-78102359D01*
X138663038Y-78321013D01*
X138848987Y-78506962D01*
X139067641Y-78653061D01*
X139310595Y-78753696D01*
X139568514Y-78805000D01*
X139831486Y-78805000D01*
X140089405Y-78753696D01*
X140332359Y-78653061D01*
X140551013Y-78506962D01*
X140736962Y-78321013D01*
X140883061Y-78102359D01*
X140970000Y-77892470D01*
X141056939Y-78102359D01*
X141203038Y-78321013D01*
X141388987Y-78506962D01*
X141607641Y-78653061D01*
X141850595Y-78753696D01*
X142108514Y-78805000D01*
X142371486Y-78805000D01*
X142629405Y-78753696D01*
X142872359Y-78653061D01*
X143091013Y-78506962D01*
X143276962Y-78321013D01*
X143423061Y-78102359D01*
X143510000Y-77892470D01*
X143596939Y-78102359D01*
X143743038Y-78321013D01*
X143928987Y-78506962D01*
X144147641Y-78653061D01*
X144390595Y-78753696D01*
X144648514Y-78805000D01*
X144911486Y-78805000D01*
X145169405Y-78753696D01*
X145412359Y-78653061D01*
X145631013Y-78506962D01*
X145816962Y-78321013D01*
X145963061Y-78102359D01*
X146050000Y-77892470D01*
X146136939Y-78102359D01*
X146283038Y-78321013D01*
X146468987Y-78506962D01*
X146687641Y-78653061D01*
X146930595Y-78753696D01*
X147188514Y-78805000D01*
X147451486Y-78805000D01*
X147709405Y-78753696D01*
X147952359Y-78653061D01*
X148171013Y-78506962D01*
X148356962Y-78321013D01*
X148503061Y-78102359D01*
X148603696Y-77859405D01*
X148655000Y-77601486D01*
X148655000Y-77338514D01*
X148603696Y-77080595D01*
X148503061Y-76837641D01*
X148356962Y-76618987D01*
X148171013Y-76433038D01*
X147952359Y-76286939D01*
X147742470Y-76200000D01*
X147952359Y-76113061D01*
X148171013Y-75966962D01*
X148356962Y-75781013D01*
X148503061Y-75562359D01*
X148603696Y-75319405D01*
X148655000Y-75061486D01*
X148655000Y-74798514D01*
X148603696Y-74540595D01*
X148503061Y-74297641D01*
X148356962Y-74078987D01*
X148171013Y-73893038D01*
X147952359Y-73746939D01*
X147709405Y-73646304D01*
X147451486Y-73595000D01*
X147188514Y-73595000D01*
X146930595Y-73646304D01*
X146687641Y-73746939D01*
X146468987Y-73893038D01*
X146283038Y-74078987D01*
X146136939Y-74297641D01*
X146050000Y-74507530D01*
X145963061Y-74297641D01*
X145816962Y-74078987D01*
X145631013Y-73893038D01*
X145412359Y-73746939D01*
X145169405Y-73646304D01*
X144911486Y-73595000D01*
X144648514Y-73595000D01*
X144390595Y-73646304D01*
X144147641Y-73746939D01*
X143928987Y-73893038D01*
X143743038Y-74078987D01*
X143596939Y-74297641D01*
X143510000Y-74507530D01*
X143423061Y-74297641D01*
X143276962Y-74078987D01*
X143091013Y-73893038D01*
X142872359Y-73746939D01*
X142629405Y-73646304D01*
X142371486Y-73595000D01*
X142108514Y-73595000D01*
X141850595Y-73646304D01*
X141607641Y-73746939D01*
X141388987Y-73893038D01*
X141203038Y-74078987D01*
X141056939Y-74297641D01*
X140970000Y-74507530D01*
X140883061Y-74297641D01*
X140736962Y-74078987D01*
X140551013Y-73893038D01*
X140332359Y-73746939D01*
X140089405Y-73646304D01*
X139831486Y-73595000D01*
X139568514Y-73595000D01*
X139310595Y-73646304D01*
X139067641Y-73746939D01*
X138848987Y-73893038D01*
X138663038Y-74078987D01*
X138516939Y-74297641D01*
X138430000Y-74507530D01*
X138343061Y-74297641D01*
X138196962Y-74078987D01*
X138011013Y-73893038D01*
X137792359Y-73746939D01*
X137549405Y-73646304D01*
X137291486Y-73595000D01*
X137028514Y-73595000D01*
X136770595Y-73646304D01*
X136527641Y-73746939D01*
X136308987Y-73893038D01*
X136123038Y-74078987D01*
X135976939Y-74297641D01*
X135890000Y-74507530D01*
X135803061Y-74297641D01*
X135656962Y-74078987D01*
X135471013Y-73893038D01*
X135252359Y-73746939D01*
X135009405Y-73646304D01*
X134751486Y-73595000D01*
X134488514Y-73595000D01*
X134230595Y-73646304D01*
X133987641Y-73746939D01*
X133768987Y-73893038D01*
X133583038Y-74078987D01*
X133436939Y-74297641D01*
X133350000Y-74507530D01*
X133263061Y-74297641D01*
X133116962Y-74078987D01*
X132931013Y-73893038D01*
X132712359Y-73746939D01*
X132469405Y-73646304D01*
X132211486Y-73595000D01*
X131948514Y-73595000D01*
X131690595Y-73646304D01*
X131447641Y-73746939D01*
X131228987Y-73893038D01*
X131043038Y-74078987D01*
X130896939Y-74297641D01*
X130810000Y-74507530D01*
X130723061Y-74297641D01*
X130576962Y-74078987D01*
X130391013Y-73893038D01*
X130172359Y-73746939D01*
X129929405Y-73646304D01*
X129671486Y-73595000D01*
X129408514Y-73595000D01*
X129150595Y-73646304D01*
X128907641Y-73746939D01*
X128688987Y-73893038D01*
X128503038Y-74078987D01*
X128356939Y-74297641D01*
X128256304Y-74540595D01*
X128205000Y-74798514D01*
X128205000Y-75061486D01*
X128256304Y-75319405D01*
X128356939Y-75562359D01*
X128503038Y-75781013D01*
X128688987Y-75966962D01*
X128907641Y-76113061D01*
X129117530Y-76200000D01*
X128907641Y-76286939D01*
X128688987Y-76433038D01*
X128503038Y-76618987D01*
X128356939Y-76837641D01*
X128256304Y-77080595D01*
X128205000Y-77338514D01*
X128205000Y-77601486D01*
X128256304Y-77859405D01*
X128356939Y-78102359D01*
X128503038Y-78321013D01*
X128655001Y-78472976D01*
X128655001Y-78696522D01*
X128650719Y-78740000D01*
X128667805Y-78913490D01*
X128718412Y-79080313D01*
X128800590Y-79234059D01*
X128883468Y-79335046D01*
X128883471Y-79335049D01*
X128911184Y-79368817D01*
X128944951Y-79396530D01*
X132693468Y-83145047D01*
X132721183Y-83178817D01*
X132754951Y-83206530D01*
X132754953Y-83206532D01*
X132855941Y-83289411D01*
X132916679Y-83321876D01*
X132798192Y-83357818D01*
X132548899Y-83491068D01*
X132330392Y-83670393D01*
X132151068Y-83888900D01*
X132080000Y-84021858D01*
X132008932Y-83888899D01*
X131829607Y-83670392D01*
X131611100Y-83491068D01*
X131361807Y-83357818D01*
X131091308Y-83275764D01*
X130810000Y-83248057D01*
X130528691Y-83275764D01*
X130258192Y-83357818D01*
X130008899Y-83491068D01*
X129790392Y-83670393D01*
X129611068Y-83888900D01*
X129540000Y-84021858D01*
X129468932Y-83888899D01*
X129289607Y-83670392D01*
X129102977Y-83517229D01*
X129091589Y-83479687D01*
X129009411Y-83325941D01*
X128979431Y-83289410D01*
X128926532Y-83224953D01*
X128926530Y-83224951D01*
X128898817Y-83191183D01*
X128865050Y-83163471D01*
X127656534Y-81954956D01*
X127628817Y-81921183D01*
X127494059Y-81810589D01*
X127340313Y-81728411D01*
X127173490Y-81677805D01*
X127043477Y-81665000D01*
X127043469Y-81665000D01*
X127000000Y-81660719D01*
X126956531Y-81665000D01*
X106723465Y-81665000D01*
X106679999Y-81660719D01*
X106636533Y-81665000D01*
X106636523Y-81665000D01*
X106506510Y-81677805D01*
X106339687Y-81728411D01*
X106185941Y-81810589D01*
X106185939Y-81810590D01*
X106185940Y-81810590D01*
X106084953Y-81893468D01*
X106084951Y-81893470D01*
X106051183Y-81921183D01*
X106023470Y-81954951D01*
X104814951Y-83163471D01*
X104781184Y-83191183D01*
X104753471Y-83224951D01*
X104753468Y-83224954D01*
X104670590Y-83325941D01*
X104588412Y-83479687D01*
X104537805Y-83646510D01*
X104520719Y-83820000D01*
X104525001Y-83863478D01*
X104525000Y-84723421D01*
X102810028Y-86438394D01*
X102801101Y-86431068D01*
X102673259Y-86362735D01*
X102902839Y-86212601D01*
X103104500Y-86014895D01*
X103263715Y-85781646D01*
X103374367Y-85521818D01*
X103391904Y-85439039D01*
X103269915Y-85217000D01*
X101727000Y-85217000D01*
X101727000Y-85237000D01*
X101473000Y-85237000D01*
X101473000Y-85217000D01*
X101453000Y-85217000D01*
X101453000Y-84963000D01*
X101473000Y-84963000D01*
X101473000Y-83655000D01*
X101727000Y-83655000D01*
X101727000Y-84963000D01*
X103269915Y-84963000D01*
X103391904Y-84740961D01*
X103374367Y-84658182D01*
X103263715Y-84398354D01*
X103104500Y-84165105D01*
X102902839Y-83967399D01*
X102666483Y-83812834D01*
X102404514Y-83707350D01*
X102127000Y-83655000D01*
X101727000Y-83655000D01*
X101473000Y-83655000D01*
X101073000Y-83655000D01*
X100795486Y-83707350D01*
X100533517Y-83812834D01*
X100423718Y-83884637D01*
X100748355Y-83560000D01*
X101550392Y-83560000D01*
X101600000Y-83564886D01*
X101797994Y-83545385D01*
X101988380Y-83487632D01*
X102163840Y-83393847D01*
X102317633Y-83267633D01*
X102349261Y-83229094D01*
X103549094Y-82029261D01*
X103587633Y-81997633D01*
X103713847Y-81843840D01*
X103807632Y-81668380D01*
X103865385Y-81477994D01*
X103880000Y-81329608D01*
X103880000Y-81329606D01*
X103884886Y-81280001D01*
X103880000Y-81230396D01*
X103880000Y-80962702D01*
X104596903Y-80962702D01*
X104668486Y-81206671D01*
X104923996Y-81327571D01*
X105198184Y-81396300D01*
X105480512Y-81410217D01*
X105760130Y-81368787D01*
X106026292Y-81273603D01*
X106151514Y-81206671D01*
X106223097Y-80962702D01*
X106120395Y-80860000D01*
X109001928Y-80860000D01*
X109014188Y-80984482D01*
X109050498Y-81104180D01*
X109109463Y-81214494D01*
X109188815Y-81311185D01*
X109285506Y-81390537D01*
X109395820Y-81449502D01*
X109515518Y-81485812D01*
X109640000Y-81498072D01*
X110204250Y-81495000D01*
X110363000Y-81336250D01*
X110363000Y-80137000D01*
X109163750Y-80137000D01*
X109005000Y-80295750D01*
X109001928Y-80860000D01*
X106120395Y-80860000D01*
X105410000Y-80149605D01*
X104596903Y-80962702D01*
X103880000Y-80962702D01*
X103880000Y-80040512D01*
X103969783Y-80040512D01*
X104011213Y-80320130D01*
X104106397Y-80586292D01*
X104173329Y-80711514D01*
X104417298Y-80783097D01*
X105230395Y-79970000D01*
X105589605Y-79970000D01*
X106402702Y-80783097D01*
X106646671Y-80711514D01*
X106767571Y-80456004D01*
X106836300Y-80181816D01*
X106850217Y-79899488D01*
X106808787Y-79619870D01*
X106713603Y-79353708D01*
X106646671Y-79228486D01*
X106413258Y-79160000D01*
X109001928Y-79160000D01*
X109005000Y-79724250D01*
X109163750Y-79883000D01*
X110363000Y-79883000D01*
X110363000Y-78683750D01*
X110617000Y-78683750D01*
X110617000Y-79883000D01*
X110637000Y-79883000D01*
X110637000Y-80137000D01*
X110617000Y-80137000D01*
X110617000Y-81336250D01*
X110775750Y-81495000D01*
X111340000Y-81498072D01*
X111464482Y-81485812D01*
X111584180Y-81449502D01*
X111694494Y-81390537D01*
X111791185Y-81311185D01*
X111870537Y-81214494D01*
X111929502Y-81104180D01*
X111951513Y-81031620D01*
X112083368Y-81163475D01*
X112326589Y-81325990D01*
X112596842Y-81437932D01*
X112883740Y-81495000D01*
X113176260Y-81495000D01*
X113463158Y-81437932D01*
X113733411Y-81325990D01*
X113976632Y-81163475D01*
X114183475Y-80956632D01*
X114300000Y-80782240D01*
X114416525Y-80956632D01*
X114623368Y-81163475D01*
X114866589Y-81325990D01*
X115136842Y-81437932D01*
X115423740Y-81495000D01*
X115716260Y-81495000D01*
X116003158Y-81437932D01*
X116273411Y-81325990D01*
X116516632Y-81163475D01*
X116723475Y-80956632D01*
X116885990Y-80713411D01*
X116997932Y-80443158D01*
X117055000Y-80156260D01*
X117055000Y-79863740D01*
X116997932Y-79576842D01*
X116885990Y-79306589D01*
X116723475Y-79063368D01*
X116516632Y-78856525D01*
X116273411Y-78694010D01*
X116003158Y-78582068D01*
X115716260Y-78525000D01*
X115423740Y-78525000D01*
X115136842Y-78582068D01*
X114866589Y-78694010D01*
X114623368Y-78856525D01*
X114416525Y-79063368D01*
X114300000Y-79237760D01*
X114183475Y-79063368D01*
X113976632Y-78856525D01*
X113733411Y-78694010D01*
X113463158Y-78582068D01*
X113176260Y-78525000D01*
X112883740Y-78525000D01*
X112596842Y-78582068D01*
X112326589Y-78694010D01*
X112083368Y-78856525D01*
X111951513Y-78988380D01*
X111929502Y-78915820D01*
X111870537Y-78805506D01*
X111791185Y-78708815D01*
X111694494Y-78629463D01*
X111584180Y-78570498D01*
X111464482Y-78534188D01*
X111340000Y-78521928D01*
X110775750Y-78525000D01*
X110617000Y-78683750D01*
X110363000Y-78683750D01*
X110204250Y-78525000D01*
X109640000Y-78521928D01*
X109515518Y-78534188D01*
X109395820Y-78570498D01*
X109285506Y-78629463D01*
X109188815Y-78708815D01*
X109109463Y-78805506D01*
X109050498Y-78915820D01*
X109014188Y-79035518D01*
X109001928Y-79160000D01*
X106413258Y-79160000D01*
X106402702Y-79156903D01*
X105589605Y-79970000D01*
X105230395Y-79970000D01*
X104417298Y-79156903D01*
X104173329Y-79228486D01*
X104052429Y-79483996D01*
X103983700Y-79758184D01*
X103969783Y-80040512D01*
X103880000Y-80040512D01*
X103880000Y-79158355D01*
X104245791Y-78792564D01*
X104255506Y-78800537D01*
X104365820Y-78859502D01*
X104485518Y-78895812D01*
X104610000Y-78908072D01*
X104617215Y-78908072D01*
X104596903Y-78977298D01*
X105410000Y-79790395D01*
X106223097Y-78977298D01*
X106202785Y-78908072D01*
X106210000Y-78908072D01*
X106334482Y-78895812D01*
X106454180Y-78859502D01*
X106564494Y-78800537D01*
X106661185Y-78721185D01*
X106740537Y-78624494D01*
X106799502Y-78514180D01*
X106835812Y-78394482D01*
X106848072Y-78270000D01*
X106848072Y-76670000D01*
X106835812Y-76545518D01*
X106799502Y-76425820D01*
X106740537Y-76315506D01*
X106661185Y-76218815D01*
X106564494Y-76139463D01*
X106454180Y-76080498D01*
X106334482Y-76044188D01*
X106210000Y-76031928D01*
X104610000Y-76031928D01*
X104485518Y-76044188D01*
X104365820Y-76080498D01*
X104255506Y-76139463D01*
X104158815Y-76218815D01*
X104079463Y-76315506D01*
X104020498Y-76425820D01*
X104007658Y-76468149D01*
X103942006Y-76474615D01*
X103751620Y-76532368D01*
X103576160Y-76626153D01*
X103422367Y-76752367D01*
X103390739Y-76790906D01*
X102190901Y-77990744D01*
X102152368Y-78022367D01*
X102120745Y-78060900D01*
X102120744Y-78060901D01*
X102026154Y-78176160D01*
X101932368Y-78351621D01*
X101874615Y-78542006D01*
X101855114Y-78740000D01*
X101860001Y-78789617D01*
X101860000Y-80861645D01*
X101181645Y-81540000D01*
X100379604Y-81540000D01*
X100329999Y-81535114D01*
X100280394Y-81540000D01*
X100280392Y-81540000D01*
X100132006Y-81554615D01*
X99941620Y-81612368D01*
X99766160Y-81706153D01*
X99612367Y-81832367D01*
X99580739Y-81870906D01*
X98675000Y-82776645D01*
X98675000Y-80922702D01*
X99516903Y-80922702D01*
X99588486Y-81166671D01*
X99843996Y-81287571D01*
X100118184Y-81356300D01*
X100400512Y-81370217D01*
X100680130Y-81328787D01*
X100946292Y-81233603D01*
X101071514Y-81166671D01*
X101143097Y-80922702D01*
X100330000Y-80109605D01*
X99516903Y-80922702D01*
X98675000Y-80922702D01*
X98675000Y-80000512D01*
X98889783Y-80000512D01*
X98931213Y-80280130D01*
X99026397Y-80546292D01*
X99093329Y-80671514D01*
X99337298Y-80743097D01*
X100150395Y-79930000D01*
X100509605Y-79930000D01*
X101322702Y-80743097D01*
X101566671Y-80671514D01*
X101687571Y-80416004D01*
X101756300Y-80141816D01*
X101770217Y-79859488D01*
X101728787Y-79579870D01*
X101633603Y-79313708D01*
X101566671Y-79188486D01*
X101322702Y-79116903D01*
X100509605Y-79930000D01*
X100150395Y-79930000D01*
X99337298Y-79116903D01*
X99093329Y-79188486D01*
X98972429Y-79443996D01*
X98903700Y-79718184D01*
X98889783Y-80000512D01*
X98675000Y-80000512D01*
X98675000Y-78937298D01*
X99516903Y-78937298D01*
X100330000Y-79750395D01*
X101143097Y-78937298D01*
X101071514Y-78693329D01*
X100816004Y-78572429D01*
X100541816Y-78503700D01*
X100259488Y-78489783D01*
X99979870Y-78531213D01*
X99713708Y-78626397D01*
X99588486Y-78693329D01*
X99516903Y-78937298D01*
X98675000Y-78937298D01*
X98675000Y-74788665D01*
X98895000Y-74788665D01*
X98895000Y-75071335D01*
X98950147Y-75348574D01*
X99058320Y-75609727D01*
X99215363Y-75844759D01*
X99415241Y-76044637D01*
X99650273Y-76201680D01*
X99911426Y-76309853D01*
X100188665Y-76365000D01*
X100471335Y-76365000D01*
X100748574Y-76309853D01*
X101009727Y-76201680D01*
X101244759Y-76044637D01*
X101444637Y-75844759D01*
X101601680Y-75609727D01*
X101709853Y-75348574D01*
X101765000Y-75071335D01*
X101765000Y-74788665D01*
X101709853Y-74511426D01*
X101601680Y-74250273D01*
X101444637Y-74015241D01*
X101244759Y-73815363D01*
X101009727Y-73658320D01*
X100748574Y-73550147D01*
X100471335Y-73495000D01*
X100188665Y-73495000D01*
X99911426Y-73550147D01*
X99650273Y-73658320D01*
X99415241Y-73815363D01*
X99215363Y-74015241D01*
X99058320Y-74250273D01*
X98950147Y-74511426D01*
X98895000Y-74788665D01*
X98675000Y-74788665D01*
X98675000Y-74026578D01*
X99426579Y-73275000D01*
X103773422Y-73275000D01*
X106023470Y-75525049D01*
X106051183Y-75558817D01*
X106084951Y-75586530D01*
X106084953Y-75586532D01*
X106113216Y-75609727D01*
X106185941Y-75669411D01*
X106339687Y-75751589D01*
X106506510Y-75802195D01*
X106636523Y-75815000D01*
X106636533Y-75815000D01*
X106679999Y-75819281D01*
X106723465Y-75815000D01*
X115203422Y-75815000D01*
X118723470Y-79335049D01*
X118751183Y-79368817D01*
X118784951Y-79396530D01*
X118784953Y-79396532D01*
X118885941Y-79479411D01*
X119039686Y-79561589D01*
X119099950Y-79579870D01*
X119206510Y-79612195D01*
X119336523Y-79625000D01*
X119336531Y-79625000D01*
X119380000Y-79629281D01*
X119423469Y-79625000D01*
X121876531Y-79625000D01*
X121920000Y-79629281D01*
X121963469Y-79625000D01*
X121963477Y-79625000D01*
X122093490Y-79612195D01*
X122260313Y-79561589D01*
X122414059Y-79479411D01*
X122548817Y-79368817D01*
X122576534Y-79335044D01*
X123785049Y-78126530D01*
X123818817Y-78098817D01*
X123849935Y-78060901D01*
X123929410Y-77964060D01*
X123929411Y-77964059D01*
X124011589Y-77810313D01*
X124062195Y-77643490D01*
X124075000Y-77513477D01*
X124075000Y-77513467D01*
X124079281Y-77470001D01*
X124075000Y-77426535D01*
X124075000Y-76058665D01*
X124295000Y-76058665D01*
X124295000Y-76341335D01*
X124350147Y-76618574D01*
X124458320Y-76879727D01*
X124615363Y-77114759D01*
X124815241Y-77314637D01*
X125050273Y-77471680D01*
X125311426Y-77579853D01*
X125588665Y-77635000D01*
X125871335Y-77635000D01*
X126148574Y-77579853D01*
X126409727Y-77471680D01*
X126644759Y-77314637D01*
X126844637Y-77114759D01*
X127001680Y-76879727D01*
X127109853Y-76618574D01*
X127165000Y-76341335D01*
X127165000Y-76058665D01*
X127109853Y-75781426D01*
X127001680Y-75520273D01*
X126844637Y-75285241D01*
X126644759Y-75085363D01*
X126409727Y-74928320D01*
X126148574Y-74820147D01*
X125871335Y-74765000D01*
X125588665Y-74765000D01*
X125311426Y-74820147D01*
X125050273Y-74928320D01*
X124815241Y-75085363D01*
X124615363Y-75285241D01*
X124458320Y-75520273D01*
X124350147Y-75781426D01*
X124295000Y-76058665D01*
X124075000Y-76058665D01*
X124075000Y-75296578D01*
X125690050Y-73681529D01*
X125723817Y-73653817D01*
X125772088Y-73595000D01*
X125834411Y-73519059D01*
X125916588Y-73365314D01*
X125916589Y-73365313D01*
X125967195Y-73198490D01*
X125980000Y-73068477D01*
X125980000Y-73068469D01*
X125984281Y-73025000D01*
X125980000Y-72981531D01*
X125980000Y-72314656D01*
X126041632Y-72273475D01*
X126248475Y-72066632D01*
X126410990Y-71823411D01*
X126522932Y-71553158D01*
X126580000Y-71266260D01*
X126580000Y-70973740D01*
X128055000Y-70973740D01*
X128055000Y-71266260D01*
X128112068Y-71553158D01*
X128224010Y-71823411D01*
X128386525Y-72066632D01*
X128593368Y-72273475D01*
X128836589Y-72435990D01*
X129106842Y-72547932D01*
X129393740Y-72605000D01*
X129686260Y-72605000D01*
X129973158Y-72547932D01*
X130243411Y-72435990D01*
X130486632Y-72273475D01*
X130693475Y-72066632D01*
X130810000Y-71892240D01*
X130926525Y-72066632D01*
X131133368Y-72273475D01*
X131376589Y-72435990D01*
X131646842Y-72547932D01*
X131933740Y-72605000D01*
X132226260Y-72605000D01*
X132513158Y-72547932D01*
X132783411Y-72435990D01*
X133026632Y-72273475D01*
X133233475Y-72066632D01*
X133350000Y-71892240D01*
X133466525Y-72066632D01*
X133673368Y-72273475D01*
X133916589Y-72435990D01*
X134186842Y-72547932D01*
X134473740Y-72605000D01*
X134766260Y-72605000D01*
X135053158Y-72547932D01*
X135323411Y-72435990D01*
X135566632Y-72273475D01*
X135773475Y-72066632D01*
X135890000Y-71892240D01*
X136006525Y-72066632D01*
X136213368Y-72273475D01*
X136456589Y-72435990D01*
X136726842Y-72547932D01*
X137013740Y-72605000D01*
X137306260Y-72605000D01*
X137593158Y-72547932D01*
X137863411Y-72435990D01*
X138106632Y-72273475D01*
X138313475Y-72066632D01*
X138430000Y-71892240D01*
X138546525Y-72066632D01*
X138753368Y-72273475D01*
X138996589Y-72435990D01*
X139266842Y-72547932D01*
X139553740Y-72605000D01*
X139846260Y-72605000D01*
X140133158Y-72547932D01*
X140403411Y-72435990D01*
X140646632Y-72273475D01*
X140853475Y-72066632D01*
X140970000Y-71892240D01*
X141086525Y-72066632D01*
X141293368Y-72273475D01*
X141536589Y-72435990D01*
X141806842Y-72547932D01*
X142093740Y-72605000D01*
X142386260Y-72605000D01*
X142673158Y-72547932D01*
X142943411Y-72435990D01*
X143186632Y-72273475D01*
X143393475Y-72066632D01*
X143510000Y-71892240D01*
X143626525Y-72066632D01*
X143833368Y-72273475D01*
X144076589Y-72435990D01*
X144346842Y-72547932D01*
X144633740Y-72605000D01*
X144926260Y-72605000D01*
X145213158Y-72547932D01*
X145483411Y-72435990D01*
X145726632Y-72273475D01*
X145858487Y-72141620D01*
X145880498Y-72214180D01*
X145939463Y-72324494D01*
X146018815Y-72421185D01*
X146115506Y-72500537D01*
X146225820Y-72559502D01*
X146345518Y-72595812D01*
X146470000Y-72608072D01*
X148170000Y-72608072D01*
X148294482Y-72595812D01*
X148414180Y-72559502D01*
X148524494Y-72500537D01*
X148621185Y-72421185D01*
X148700537Y-72324494D01*
X148759502Y-72214180D01*
X148795812Y-72094482D01*
X148808072Y-71970000D01*
X148808072Y-70270000D01*
X148795812Y-70145518D01*
X148759502Y-70025820D01*
X148700537Y-69915506D01*
X148621185Y-69818815D01*
X148524494Y-69739463D01*
X148414180Y-69680498D01*
X148294482Y-69644188D01*
X148170000Y-69631928D01*
X146470000Y-69631928D01*
X146345518Y-69644188D01*
X146225820Y-69680498D01*
X146115506Y-69739463D01*
X146018815Y-69818815D01*
X145939463Y-69915506D01*
X145880498Y-70025820D01*
X145858487Y-70098380D01*
X145726632Y-69966525D01*
X145483411Y-69804010D01*
X145213158Y-69692068D01*
X144926260Y-69635000D01*
X144633740Y-69635000D01*
X144346842Y-69692068D01*
X144076589Y-69804010D01*
X143833368Y-69966525D01*
X143626525Y-70173368D01*
X143510000Y-70347760D01*
X143393475Y-70173368D01*
X143186632Y-69966525D01*
X142943411Y-69804010D01*
X142673158Y-69692068D01*
X142386260Y-69635000D01*
X142093740Y-69635000D01*
X141806842Y-69692068D01*
X141536589Y-69804010D01*
X141293368Y-69966525D01*
X141086525Y-70173368D01*
X140970000Y-70347760D01*
X140853475Y-70173368D01*
X140646632Y-69966525D01*
X140403411Y-69804010D01*
X140133158Y-69692068D01*
X139846260Y-69635000D01*
X139553740Y-69635000D01*
X139266842Y-69692068D01*
X138996589Y-69804010D01*
X138753368Y-69966525D01*
X138546525Y-70173368D01*
X138430000Y-70347760D01*
X138313475Y-70173368D01*
X138106632Y-69966525D01*
X137863411Y-69804010D01*
X137593158Y-69692068D01*
X137306260Y-69635000D01*
X137013740Y-69635000D01*
X136726842Y-69692068D01*
X136456589Y-69804010D01*
X136213368Y-69966525D01*
X136006525Y-70173368D01*
X135890000Y-70347760D01*
X135773475Y-70173368D01*
X135566632Y-69966525D01*
X135323411Y-69804010D01*
X135053158Y-69692068D01*
X134766260Y-69635000D01*
X134473740Y-69635000D01*
X134186842Y-69692068D01*
X133916589Y-69804010D01*
X133673368Y-69966525D01*
X133466525Y-70173368D01*
X133350000Y-70347760D01*
X133233475Y-70173368D01*
X133026632Y-69966525D01*
X132783411Y-69804010D01*
X132513158Y-69692068D01*
X132226260Y-69635000D01*
X131933740Y-69635000D01*
X131646842Y-69692068D01*
X131376589Y-69804010D01*
X131133368Y-69966525D01*
X130926525Y-70173368D01*
X130810000Y-70347760D01*
X130693475Y-70173368D01*
X130486632Y-69966525D01*
X130243411Y-69804010D01*
X129973158Y-69692068D01*
X129686260Y-69635000D01*
X129393740Y-69635000D01*
X129106842Y-69692068D01*
X128836589Y-69804010D01*
X128593368Y-69966525D01*
X128386525Y-70173368D01*
X128224010Y-70416589D01*
X128112068Y-70686842D01*
X128055000Y-70973740D01*
X126580000Y-70973740D01*
X126522932Y-70686842D01*
X126410990Y-70416589D01*
X126248475Y-70173368D01*
X126041632Y-69966525D01*
X125798411Y-69804010D01*
X125528158Y-69692068D01*
X125241260Y-69635000D01*
X124948740Y-69635000D01*
X124661842Y-69692068D01*
X124391589Y-69804010D01*
X124148368Y-69966525D01*
X123941525Y-70173368D01*
X123825000Y-70347760D01*
X123708475Y-70173368D01*
X123501632Y-69966525D01*
X123258411Y-69804010D01*
X122988158Y-69692068D01*
X122701260Y-69635000D01*
X122408740Y-69635000D01*
X122121842Y-69692068D01*
X121851589Y-69804010D01*
X121608368Y-69966525D01*
X121401525Y-70173368D01*
X121285000Y-70347760D01*
X121168475Y-70173368D01*
X120961632Y-69966525D01*
X120718411Y-69804010D01*
X120448158Y-69692068D01*
X120161260Y-69635000D01*
X119868740Y-69635000D01*
X119581842Y-69692068D01*
X119311589Y-69804010D01*
X119068368Y-69966525D01*
X118861525Y-70173368D01*
X118745000Y-70347760D01*
X118628475Y-70173368D01*
X118421632Y-69966525D01*
X118178411Y-69804010D01*
X117908158Y-69692068D01*
X117621260Y-69635000D01*
X117328740Y-69635000D01*
X117041842Y-69692068D01*
X116771589Y-69804010D01*
X116528368Y-69966525D01*
X116321525Y-70173368D01*
X116205000Y-70347760D01*
X116088475Y-70173368D01*
X115881632Y-69966525D01*
X115638411Y-69804010D01*
X115368158Y-69692068D01*
X115081260Y-69635000D01*
X114788740Y-69635000D01*
X114501842Y-69692068D01*
X114231589Y-69804010D01*
X113988368Y-69966525D01*
X113781525Y-70173368D01*
X113665000Y-70347760D01*
X113548475Y-70173368D01*
X113341632Y-69966525D01*
X113098411Y-69804010D01*
X112828158Y-69692068D01*
X112541260Y-69635000D01*
X112248740Y-69635000D01*
X111961842Y-69692068D01*
X111691589Y-69804010D01*
X111448368Y-69966525D01*
X111316513Y-70098380D01*
X111294502Y-70025820D01*
X111235537Y-69915506D01*
X111156185Y-69818815D01*
X111059494Y-69739463D01*
X110949180Y-69680498D01*
X110829482Y-69644188D01*
X110705000Y-69631928D01*
X109005000Y-69631928D01*
X108880518Y-69644188D01*
X108760820Y-69680498D01*
X108650506Y-69739463D01*
X108553815Y-69818815D01*
X108474463Y-69915506D01*
X108415498Y-70025820D01*
X108379188Y-70145518D01*
X108366928Y-70270000D01*
X108366928Y-71970000D01*
X108379188Y-72094482D01*
X108415498Y-72214180D01*
X108474463Y-72324494D01*
X108553815Y-72421185D01*
X108650506Y-72500537D01*
X108760820Y-72559502D01*
X108880518Y-72595812D01*
X109005000Y-72608072D01*
X110705000Y-72608072D01*
X110829482Y-72595812D01*
X110949180Y-72559502D01*
X111059494Y-72500537D01*
X111156185Y-72421185D01*
X111235537Y-72324494D01*
X111294502Y-72214180D01*
X111316513Y-72141620D01*
X111448368Y-72273475D01*
X111691589Y-72435990D01*
X111961842Y-72547932D01*
X112248740Y-72605000D01*
X112541260Y-72605000D01*
X112828158Y-72547932D01*
X113098411Y-72435990D01*
X113341632Y-72273475D01*
X113548475Y-72066632D01*
X113665000Y-71892240D01*
X113781525Y-72066632D01*
X113988368Y-72273475D01*
X114231589Y-72435990D01*
X114501842Y-72547932D01*
X114788740Y-72605000D01*
X115081260Y-72605000D01*
X115368158Y-72547932D01*
X115638411Y-72435990D01*
X115881632Y-72273475D01*
X116088475Y-72066632D01*
X116205000Y-71892240D01*
X116321525Y-72066632D01*
X116528368Y-72273475D01*
X116771589Y-72435990D01*
X117041842Y-72547932D01*
X117328740Y-72605000D01*
X117621260Y-72605000D01*
X117908158Y-72547932D01*
X118178411Y-72435990D01*
X118421632Y-72273475D01*
X118628475Y-72066632D01*
X118745000Y-71892240D01*
X118861525Y-72066632D01*
X119068368Y-72273475D01*
X119311589Y-72435990D01*
X119581842Y-72547932D01*
X119868740Y-72605000D01*
X120161260Y-72605000D01*
X120448158Y-72547932D01*
X120718411Y-72435990D01*
X120961632Y-72273475D01*
X121168475Y-72066632D01*
X121285000Y-71892240D01*
X121401525Y-72066632D01*
X121514157Y-72179264D01*
X120918422Y-72775000D01*
X108316579Y-72775000D01*
X106066534Y-70524956D01*
X106038817Y-70491183D01*
X105904059Y-70380589D01*
X105750313Y-70298411D01*
X105583490Y-70247805D01*
X105453477Y-70235000D01*
X105453469Y-70235000D01*
X105410000Y-70230719D01*
X105366531Y-70235000D01*
X97833465Y-70235000D01*
X97789999Y-70230719D01*
X97746533Y-70235000D01*
X97746523Y-70235000D01*
X97616510Y-70247805D01*
X97449687Y-70298411D01*
X97295941Y-70380589D01*
X97295939Y-70380590D01*
X97295940Y-70380590D01*
X97194953Y-70463468D01*
X97194951Y-70463470D01*
X97161183Y-70491183D01*
X97133470Y-70524951D01*
X95924951Y-71733471D01*
X95891184Y-71761183D01*
X95863471Y-71794951D01*
X95863468Y-71794954D01*
X95780590Y-71895941D01*
X95698412Y-72049687D01*
X95647805Y-72216510D01*
X95630719Y-72390000D01*
X95635001Y-72433476D01*
X95635000Y-84393796D01*
X95578932Y-84288899D01*
X95399608Y-84070392D01*
X95181101Y-83891068D01*
X94931808Y-83757818D01*
X94661309Y-83675764D01*
X94450492Y-83655000D01*
X93509508Y-83655000D01*
X93298691Y-83675764D01*
X93028192Y-83757818D01*
X92778899Y-83891068D01*
X92560392Y-84070392D01*
X92407228Y-84257023D01*
X92369686Y-84268411D01*
X92215941Y-84350589D01*
X92114953Y-84433468D01*
X92114951Y-84433470D01*
X92081183Y-84461183D01*
X92053470Y-84494951D01*
X88304951Y-88243470D01*
X88271184Y-88271183D01*
X88243471Y-88304951D01*
X88243468Y-88304954D01*
X88160590Y-88405941D01*
X88078412Y-88559687D01*
X88027805Y-88726510D01*
X88010719Y-88900000D01*
X87045000Y-88900000D01*
X87045000Y-69265000D01*
X149175000Y-69265000D01*
X149175001Y-122505000D01*
G04 #@! TA.AperFunction,Conductor*
D25*
G36*
X149175001Y-122505000D02*
G01*
X87045000Y-122505000D01*
X87045000Y-120503740D01*
X115355000Y-120503740D01*
X115355000Y-120796260D01*
X115412068Y-121083158D01*
X115524010Y-121353411D01*
X115686525Y-121596632D01*
X115893368Y-121803475D01*
X116136589Y-121965990D01*
X116406842Y-122077932D01*
X116693740Y-122135000D01*
X116986260Y-122135000D01*
X117273158Y-122077932D01*
X117543411Y-121965990D01*
X117786632Y-121803475D01*
X117993475Y-121596632D01*
X118110000Y-121422240D01*
X118226525Y-121596632D01*
X118433368Y-121803475D01*
X118676589Y-121965990D01*
X118946842Y-122077932D01*
X119233740Y-122135000D01*
X119526260Y-122135000D01*
X119813158Y-122077932D01*
X120083411Y-121965990D01*
X120326632Y-121803475D01*
X120533475Y-121596632D01*
X120650000Y-121422240D01*
X120766525Y-121596632D01*
X120973368Y-121803475D01*
X121216589Y-121965990D01*
X121486842Y-122077932D01*
X121773740Y-122135000D01*
X122066260Y-122135000D01*
X122353158Y-122077932D01*
X122623411Y-121965990D01*
X122866632Y-121803475D01*
X123073475Y-121596632D01*
X123195195Y-121414466D01*
X123264822Y-121531355D01*
X123459731Y-121747588D01*
X123693080Y-121921641D01*
X123955901Y-122046825D01*
X124103110Y-122091476D01*
X124333000Y-121970155D01*
X124333000Y-120777000D01*
X124587000Y-120777000D01*
X124587000Y-121970155D01*
X124816890Y-122091476D01*
X124964099Y-122046825D01*
X125226920Y-121921641D01*
X125460269Y-121747588D01*
X125655178Y-121531355D01*
X125730000Y-121405745D01*
X125804822Y-121531355D01*
X125999731Y-121747588D01*
X126233080Y-121921641D01*
X126495901Y-122046825D01*
X126643110Y-122091476D01*
X126873000Y-121970155D01*
X126873000Y-120777000D01*
X124587000Y-120777000D01*
X124333000Y-120777000D01*
X124313000Y-120777000D01*
X124313000Y-120523000D01*
X124333000Y-120523000D01*
X124333000Y-119329845D01*
X124587000Y-119329845D01*
X124587000Y-120523000D01*
X126873000Y-120523000D01*
X126873000Y-119329845D01*
X127127000Y-119329845D01*
X127127000Y-120523000D01*
X127147000Y-120523000D01*
X127147000Y-120777000D01*
X127127000Y-120777000D01*
X127127000Y-121970155D01*
X127356890Y-122091476D01*
X127504099Y-122046825D01*
X127766920Y-121921641D01*
X128000269Y-121747588D01*
X128076034Y-121663534D01*
X128100498Y-121744180D01*
X128159463Y-121854494D01*
X128238815Y-121951185D01*
X128335506Y-122030537D01*
X128445820Y-122089502D01*
X128565518Y-122125812D01*
X128690000Y-122138072D01*
X130390000Y-122138072D01*
X130514482Y-122125812D01*
X130634180Y-122089502D01*
X130744494Y-122030537D01*
X130841185Y-121951185D01*
X130920537Y-121854494D01*
X130979502Y-121744180D01*
X131015812Y-121624482D01*
X131028072Y-121500000D01*
X131028072Y-119800000D01*
X133131928Y-119800000D01*
X133131928Y-121500000D01*
X133144188Y-121624482D01*
X133180498Y-121744180D01*
X133239463Y-121854494D01*
X133318815Y-121951185D01*
X133415506Y-122030537D01*
X133525820Y-122089502D01*
X133645518Y-122125812D01*
X133770000Y-122138072D01*
X135470000Y-122138072D01*
X135594482Y-122125812D01*
X135714180Y-122089502D01*
X135824494Y-122030537D01*
X135921185Y-121951185D01*
X136000537Y-121854494D01*
X136059502Y-121744180D01*
X136081513Y-121671620D01*
X136213368Y-121803475D01*
X136456589Y-121965990D01*
X136726842Y-122077932D01*
X137013740Y-122135000D01*
X137306260Y-122135000D01*
X137593158Y-122077932D01*
X137863411Y-121965990D01*
X138106632Y-121803475D01*
X138313475Y-121596632D01*
X138430000Y-121422240D01*
X138546525Y-121596632D01*
X138753368Y-121803475D01*
X138996589Y-121965990D01*
X139266842Y-122077932D01*
X139553740Y-122135000D01*
X139846260Y-122135000D01*
X140133158Y-122077932D01*
X140403411Y-121965990D01*
X140646632Y-121803475D01*
X140853475Y-121596632D01*
X140970000Y-121422240D01*
X141086525Y-121596632D01*
X141293368Y-121803475D01*
X141536589Y-121965990D01*
X141806842Y-122077932D01*
X142093740Y-122135000D01*
X142386260Y-122135000D01*
X142673158Y-122077932D01*
X142943411Y-121965990D01*
X143186632Y-121803475D01*
X143393475Y-121596632D01*
X143510000Y-121422240D01*
X143626525Y-121596632D01*
X143833368Y-121803475D01*
X144076589Y-121965990D01*
X144346842Y-122077932D01*
X144633740Y-122135000D01*
X144926260Y-122135000D01*
X145213158Y-122077932D01*
X145483411Y-121965990D01*
X145726632Y-121803475D01*
X145933475Y-121596632D01*
X146050000Y-121422240D01*
X146166525Y-121596632D01*
X146373368Y-121803475D01*
X146616589Y-121965990D01*
X146886842Y-122077932D01*
X147173740Y-122135000D01*
X147466260Y-122135000D01*
X147753158Y-122077932D01*
X148023411Y-121965990D01*
X148266632Y-121803475D01*
X148473475Y-121596632D01*
X148635990Y-121353411D01*
X148747932Y-121083158D01*
X148805000Y-120796260D01*
X148805000Y-120503740D01*
X148747932Y-120216842D01*
X148635990Y-119946589D01*
X148473475Y-119703368D01*
X148266632Y-119496525D01*
X148023411Y-119334010D01*
X147753158Y-119222068D01*
X147466260Y-119165000D01*
X147173740Y-119165000D01*
X146886842Y-119222068D01*
X146616589Y-119334010D01*
X146373368Y-119496525D01*
X146166525Y-119703368D01*
X146050000Y-119877760D01*
X145933475Y-119703368D01*
X145726632Y-119496525D01*
X145483411Y-119334010D01*
X145213158Y-119222068D01*
X144926260Y-119165000D01*
X144633740Y-119165000D01*
X144346842Y-119222068D01*
X144076589Y-119334010D01*
X143833368Y-119496525D01*
X143626525Y-119703368D01*
X143510000Y-119877760D01*
X143393475Y-119703368D01*
X143186632Y-119496525D01*
X142943411Y-119334010D01*
X142673158Y-119222068D01*
X142386260Y-119165000D01*
X142093740Y-119165000D01*
X141806842Y-119222068D01*
X141536589Y-119334010D01*
X141293368Y-119496525D01*
X141086525Y-119703368D01*
X140970000Y-119877760D01*
X140853475Y-119703368D01*
X140646632Y-119496525D01*
X140403411Y-119334010D01*
X140133158Y-119222068D01*
X139846260Y-119165000D01*
X139553740Y-119165000D01*
X139266842Y-119222068D01*
X138996589Y-119334010D01*
X138753368Y-119496525D01*
X138546525Y-119703368D01*
X138430000Y-119877760D01*
X138313475Y-119703368D01*
X138106632Y-119496525D01*
X137863411Y-119334010D01*
X137593158Y-119222068D01*
X137306260Y-119165000D01*
X137013740Y-119165000D01*
X136726842Y-119222068D01*
X136456589Y-119334010D01*
X136213368Y-119496525D01*
X136081513Y-119628380D01*
X136059502Y-119555820D01*
X136000537Y-119445506D01*
X135921185Y-119348815D01*
X135824494Y-119269463D01*
X135714180Y-119210498D01*
X135594482Y-119174188D01*
X135470000Y-119161928D01*
X133770000Y-119161928D01*
X133645518Y-119174188D01*
X133525820Y-119210498D01*
X133415506Y-119269463D01*
X133318815Y-119348815D01*
X133239463Y-119445506D01*
X133180498Y-119555820D01*
X133144188Y-119675518D01*
X133131928Y-119800000D01*
X131028072Y-119800000D01*
X131015812Y-119675518D01*
X130979502Y-119555820D01*
X130920537Y-119445506D01*
X130841185Y-119348815D01*
X130744494Y-119269463D01*
X130634180Y-119210498D01*
X130514482Y-119174188D01*
X130390000Y-119161928D01*
X128690000Y-119161928D01*
X128565518Y-119174188D01*
X128445820Y-119210498D01*
X128335506Y-119269463D01*
X128238815Y-119348815D01*
X128159463Y-119445506D01*
X128100498Y-119555820D01*
X128076034Y-119636466D01*
X128000269Y-119552412D01*
X127766920Y-119378359D01*
X127504099Y-119253175D01*
X127356890Y-119208524D01*
X127127000Y-119329845D01*
X126873000Y-119329845D01*
X126643110Y-119208524D01*
X126495901Y-119253175D01*
X126233080Y-119378359D01*
X125999731Y-119552412D01*
X125804822Y-119768645D01*
X125730000Y-119894255D01*
X125655178Y-119768645D01*
X125460269Y-119552412D01*
X125226920Y-119378359D01*
X124964099Y-119253175D01*
X124816890Y-119208524D01*
X124587000Y-119329845D01*
X124333000Y-119329845D01*
X124103110Y-119208524D01*
X123955901Y-119253175D01*
X123693080Y-119378359D01*
X123459731Y-119552412D01*
X123264822Y-119768645D01*
X123195195Y-119885534D01*
X123073475Y-119703368D01*
X122866632Y-119496525D01*
X122623411Y-119334010D01*
X122353158Y-119222068D01*
X122066260Y-119165000D01*
X121773740Y-119165000D01*
X121486842Y-119222068D01*
X121216589Y-119334010D01*
X120973368Y-119496525D01*
X120766525Y-119703368D01*
X120650000Y-119877760D01*
X120533475Y-119703368D01*
X120326632Y-119496525D01*
X120083411Y-119334010D01*
X119813158Y-119222068D01*
X119526260Y-119165000D01*
X119233740Y-119165000D01*
X118946842Y-119222068D01*
X118676589Y-119334010D01*
X118433368Y-119496525D01*
X118226525Y-119703368D01*
X118110000Y-119877760D01*
X117993475Y-119703368D01*
X117786632Y-119496525D01*
X117543411Y-119334010D01*
X117273158Y-119222068D01*
X116986260Y-119165000D01*
X116693740Y-119165000D01*
X116406842Y-119222068D01*
X116136589Y-119334010D01*
X115893368Y-119496525D01*
X115686525Y-119703368D01*
X115524010Y-119946589D01*
X115412068Y-120216842D01*
X115355000Y-120503740D01*
X87045000Y-120503740D01*
X87045000Y-88900000D01*
X88010719Y-88900000D01*
X88015001Y-88943477D01*
X88015000Y-107906531D01*
X88010719Y-107950000D01*
X88015000Y-107993469D01*
X88015000Y-107993476D01*
X88027805Y-108123489D01*
X88078411Y-108290312D01*
X88160589Y-108444058D01*
X88271183Y-108578817D01*
X88304954Y-108606532D01*
X95863470Y-116165049D01*
X95891183Y-116198817D01*
X95924951Y-116226530D01*
X95924953Y-116226532D01*
X95996452Y-116285210D01*
X96025941Y-116309411D01*
X96179687Y-116391589D01*
X96346510Y-116442195D01*
X96476523Y-116455000D01*
X96476533Y-116455000D01*
X96519999Y-116459281D01*
X96563465Y-116455000D01*
X121876531Y-116455000D01*
X121920000Y-116459281D01*
X121963469Y-116455000D01*
X121963477Y-116455000D01*
X122093490Y-116442195D01*
X122260313Y-116391589D01*
X122414059Y-116309411D01*
X122548817Y-116198817D01*
X122576534Y-116165044D01*
X123785049Y-114956530D01*
X123818817Y-114928817D01*
X123888232Y-114844236D01*
X123929410Y-114794060D01*
X123980859Y-114697805D01*
X124011589Y-114640313D01*
X124022977Y-114602771D01*
X124209607Y-114449608D01*
X124388932Y-114231101D01*
X124460000Y-114098142D01*
X124531068Y-114231100D01*
X124710392Y-114449607D01*
X124928899Y-114628932D01*
X125178192Y-114762182D01*
X125448691Y-114844236D01*
X125730000Y-114871943D01*
X126011308Y-114844236D01*
X126281807Y-114762182D01*
X126531100Y-114628932D01*
X126749607Y-114449608D01*
X126928932Y-114231101D01*
X127000000Y-114098142D01*
X127071068Y-114231100D01*
X127250392Y-114449607D01*
X127468899Y-114628932D01*
X127718192Y-114762182D01*
X127988691Y-114844236D01*
X128270000Y-114871943D01*
X128551308Y-114844236D01*
X128821807Y-114762182D01*
X129071100Y-114628932D01*
X129289607Y-114449608D01*
X129468932Y-114231101D01*
X129602182Y-113981808D01*
X129684236Y-113711309D01*
X129705000Y-113500492D01*
X129705000Y-112559509D01*
X129684236Y-112348691D01*
X129602182Y-112078192D01*
X129468932Y-111828899D01*
X129296398Y-111618665D01*
X131915000Y-111618665D01*
X131915000Y-111901335D01*
X131970147Y-112178574D01*
X132078320Y-112439727D01*
X132235363Y-112674759D01*
X132435241Y-112874637D01*
X132670273Y-113031680D01*
X132931426Y-113139853D01*
X133208665Y-113195000D01*
X133491335Y-113195000D01*
X133768574Y-113139853D01*
X134029727Y-113031680D01*
X134264759Y-112874637D01*
X134464637Y-112674759D01*
X134621680Y-112439727D01*
X134729853Y-112178574D01*
X134785000Y-111901335D01*
X134785000Y-111618665D01*
X134729853Y-111341426D01*
X134621680Y-111080273D01*
X134464637Y-110845241D01*
X134264759Y-110645363D01*
X134029727Y-110488320D01*
X133768574Y-110380147D01*
X133491335Y-110325000D01*
X133208665Y-110325000D01*
X132931426Y-110380147D01*
X132670273Y-110488320D01*
X132435241Y-110645363D01*
X132235363Y-110845241D01*
X132078320Y-111080273D01*
X131970147Y-111341426D01*
X131915000Y-111618665D01*
X129296398Y-111618665D01*
X129289608Y-111610392D01*
X129268440Y-111593020D01*
X129265385Y-111562006D01*
X129207632Y-111371620D01*
X129113847Y-111196160D01*
X128987633Y-111042367D01*
X128949094Y-111010739D01*
X127749261Y-109810906D01*
X127717633Y-109772367D01*
X127563840Y-109646153D01*
X127388380Y-109552368D01*
X127197994Y-109494615D01*
X127049608Y-109480000D01*
X127000000Y-109475114D01*
X126950392Y-109480000D01*
X113079607Y-109480000D01*
X113030000Y-109475114D01*
X112980392Y-109480000D01*
X107999604Y-109480000D01*
X107949999Y-109475114D01*
X107900394Y-109480000D01*
X107900392Y-109480000D01*
X107752006Y-109494615D01*
X107561620Y-109552368D01*
X107386160Y-109646153D01*
X107232367Y-109772367D01*
X107200739Y-109810906D01*
X106261645Y-110750000D01*
X95668355Y-110750000D01*
X95109231Y-110190876D01*
X95133475Y-110166632D01*
X95250000Y-109992240D01*
X95366525Y-110166632D01*
X95573368Y-110373475D01*
X95816589Y-110535990D01*
X96086842Y-110647932D01*
X96373740Y-110705000D01*
X96666260Y-110705000D01*
X96953158Y-110647932D01*
X97223411Y-110535990D01*
X97466632Y-110373475D01*
X97598487Y-110241620D01*
X97620498Y-110314180D01*
X97679463Y-110424494D01*
X97758815Y-110521185D01*
X97855506Y-110600537D01*
X97965820Y-110659502D01*
X98085518Y-110695812D01*
X98210000Y-110708072D01*
X98774250Y-110705000D01*
X98933000Y-110546250D01*
X98933000Y-109347000D01*
X99187000Y-109347000D01*
X99187000Y-110546250D01*
X99345750Y-110705000D01*
X99910000Y-110708072D01*
X100034482Y-110695812D01*
X100154180Y-110659502D01*
X100264494Y-110600537D01*
X100361185Y-110521185D01*
X100440537Y-110424494D01*
X100499502Y-110314180D01*
X100535812Y-110194482D01*
X100548072Y-110070000D01*
X100545000Y-109505750D01*
X100386250Y-109347000D01*
X99187000Y-109347000D01*
X98933000Y-109347000D01*
X98913000Y-109347000D01*
X98913000Y-109093000D01*
X98933000Y-109093000D01*
X98933000Y-107893750D01*
X99187000Y-107893750D01*
X99187000Y-109093000D01*
X100386250Y-109093000D01*
X100545000Y-108934250D01*
X100548072Y-108370000D01*
X100535812Y-108245518D01*
X100499502Y-108125820D01*
X100440537Y-108015506D01*
X100361185Y-107918815D01*
X100264494Y-107839463D01*
X100154180Y-107780498D01*
X100062549Y-107752702D01*
X132536903Y-107752702D01*
X132608486Y-107996671D01*
X132863996Y-108117571D01*
X133138184Y-108186300D01*
X133420512Y-108200217D01*
X133700130Y-108158787D01*
X133966292Y-108063603D01*
X134091514Y-107996671D01*
X134163097Y-107752702D01*
X133350000Y-106939605D01*
X132536903Y-107752702D01*
X100062549Y-107752702D01*
X100034482Y-107744188D01*
X99910000Y-107731928D01*
X99345750Y-107735000D01*
X99187000Y-107893750D01*
X98933000Y-107893750D01*
X98774250Y-107735000D01*
X98210000Y-107731928D01*
X98085518Y-107744188D01*
X97965820Y-107780498D01*
X97912672Y-107808907D01*
X98156579Y-107565000D01*
X104096531Y-107565000D01*
X104140000Y-107569281D01*
X104183469Y-107565000D01*
X104183477Y-107565000D01*
X104313490Y-107552195D01*
X104480313Y-107501589D01*
X104634059Y-107419411D01*
X104768817Y-107308817D01*
X104796534Y-107275044D01*
X106534578Y-105537000D01*
X109055000Y-105537000D01*
X109055000Y-105937000D01*
X109107350Y-106214514D01*
X109212834Y-106476483D01*
X109367399Y-106712839D01*
X109565105Y-106914500D01*
X109798354Y-107073715D01*
X110058182Y-107184367D01*
X110140961Y-107201904D01*
X110363000Y-107079915D01*
X110363000Y-105537000D01*
X109055000Y-105537000D01*
X106534578Y-105537000D01*
X107188578Y-104883000D01*
X109055000Y-104883000D01*
X109055000Y-105283000D01*
X110363000Y-105283000D01*
X110363000Y-103740085D01*
X110617000Y-103740085D01*
X110617000Y-105283000D01*
X110637000Y-105283000D01*
X110637000Y-105537000D01*
X110617000Y-105537000D01*
X110617000Y-107079915D01*
X110839039Y-107201904D01*
X110921818Y-107184367D01*
X111181646Y-107073715D01*
X111414895Y-106914500D01*
X111612601Y-106712839D01*
X111762735Y-106483258D01*
X111831068Y-106611100D01*
X112010392Y-106829607D01*
X112228899Y-107008932D01*
X112478192Y-107142182D01*
X112748691Y-107224236D01*
X113030000Y-107251943D01*
X113311308Y-107224236D01*
X113581807Y-107142182D01*
X113831100Y-107008932D01*
X114049607Y-106829608D01*
X114228932Y-106611101D01*
X114300000Y-106478142D01*
X114371068Y-106611100D01*
X114550392Y-106829607D01*
X114768899Y-107008932D01*
X115018192Y-107142182D01*
X115288691Y-107224236D01*
X115570000Y-107251943D01*
X115851308Y-107224236D01*
X116121807Y-107142182D01*
X116371100Y-107008932D01*
X116589607Y-106829608D01*
X116768932Y-106611101D01*
X116840000Y-106478142D01*
X116911068Y-106611100D01*
X117090392Y-106829607D01*
X117308899Y-107008932D01*
X117558192Y-107142182D01*
X117828691Y-107224236D01*
X118110000Y-107251943D01*
X118391308Y-107224236D01*
X118661807Y-107142182D01*
X118911100Y-107008932D01*
X119129607Y-106829608D01*
X119308932Y-106611101D01*
X119380000Y-106478142D01*
X119451068Y-106611100D01*
X119630392Y-106829607D01*
X119848899Y-107008932D01*
X120098192Y-107142182D01*
X120368691Y-107224236D01*
X120650000Y-107251943D01*
X120931308Y-107224236D01*
X121201807Y-107142182D01*
X121451100Y-107008932D01*
X121669607Y-106829608D01*
X121848932Y-106611101D01*
X121920000Y-106478142D01*
X121991068Y-106611100D01*
X122170392Y-106829607D01*
X122388899Y-107008932D01*
X122638192Y-107142182D01*
X122908691Y-107224236D01*
X123190000Y-107251943D01*
X123471308Y-107224236D01*
X123741807Y-107142182D01*
X123991100Y-107008932D01*
X124209607Y-106829608D01*
X124388932Y-106611101D01*
X124460000Y-106478142D01*
X124531068Y-106611100D01*
X124710392Y-106829607D01*
X124928899Y-107008932D01*
X125178192Y-107142182D01*
X125448691Y-107224236D01*
X125730000Y-107251943D01*
X126011308Y-107224236D01*
X126281807Y-107142182D01*
X126531100Y-107008932D01*
X126749607Y-106829608D01*
X126842419Y-106716517D01*
X126844188Y-106734482D01*
X126880498Y-106854180D01*
X126939463Y-106964494D01*
X127018815Y-107061185D01*
X127115506Y-107140537D01*
X127225820Y-107199502D01*
X127345518Y-107235812D01*
X127470000Y-107248072D01*
X129070000Y-107248072D01*
X129194482Y-107235812D01*
X129314180Y-107199502D01*
X129424494Y-107140537D01*
X129521185Y-107061185D01*
X129600537Y-106964494D01*
X129659502Y-106854180D01*
X129666681Y-106830512D01*
X131909783Y-106830512D01*
X131951213Y-107110130D01*
X132046397Y-107376292D01*
X132113329Y-107501514D01*
X132357298Y-107573097D01*
X133170395Y-106760000D01*
X133529605Y-106760000D01*
X134342702Y-107573097D01*
X134586671Y-107501514D01*
X134707571Y-107246004D01*
X134776300Y-106971816D01*
X134790217Y-106689488D01*
X134748787Y-106409870D01*
X134653603Y-106143708D01*
X134586671Y-106018486D01*
X134342702Y-105946903D01*
X133529605Y-106760000D01*
X133170395Y-106760000D01*
X132357298Y-105946903D01*
X132113329Y-106018486D01*
X131992429Y-106273996D01*
X131923700Y-106548184D01*
X131909783Y-106830512D01*
X129666681Y-106830512D01*
X129695812Y-106734482D01*
X129708072Y-106610000D01*
X129708072Y-105767298D01*
X132536903Y-105767298D01*
X133350000Y-106580395D01*
X134163097Y-105767298D01*
X134091514Y-105523329D01*
X133836004Y-105402429D01*
X133561816Y-105333700D01*
X133279488Y-105319783D01*
X132999870Y-105361213D01*
X132733708Y-105456397D01*
X132608486Y-105523329D01*
X132536903Y-105767298D01*
X129708072Y-105767298D01*
X129708072Y-104210000D01*
X129695812Y-104085518D01*
X129659502Y-103965820D01*
X129600537Y-103855506D01*
X129521185Y-103758815D01*
X129424494Y-103679463D01*
X129314180Y-103620498D01*
X129194482Y-103584188D01*
X129070000Y-103571928D01*
X127470000Y-103571928D01*
X127345518Y-103584188D01*
X127225820Y-103620498D01*
X127115506Y-103679463D01*
X127018815Y-103758815D01*
X126939463Y-103855506D01*
X126880498Y-103965820D01*
X126844188Y-104085518D01*
X126842419Y-104103482D01*
X126749608Y-103990392D01*
X126531101Y-103811068D01*
X126281808Y-103677818D01*
X126011309Y-103595764D01*
X125730000Y-103568057D01*
X125448692Y-103595764D01*
X125178193Y-103677818D01*
X124928900Y-103811068D01*
X124710393Y-103990392D01*
X124531068Y-104208899D01*
X124460000Y-104341858D01*
X124388932Y-104208899D01*
X124209608Y-103990392D01*
X123991101Y-103811068D01*
X123741808Y-103677818D01*
X123471309Y-103595764D01*
X123190000Y-103568057D01*
X122908692Y-103595764D01*
X122638193Y-103677818D01*
X122388900Y-103811068D01*
X122170393Y-103990392D01*
X121991068Y-104208899D01*
X121920000Y-104341858D01*
X121848932Y-104208899D01*
X121669608Y-103990392D01*
X121451101Y-103811068D01*
X121201808Y-103677818D01*
X120931309Y-103595764D01*
X120650000Y-103568057D01*
X120368692Y-103595764D01*
X120098193Y-103677818D01*
X119848900Y-103811068D01*
X119630393Y-103990392D01*
X119451068Y-104208899D01*
X119380000Y-104341858D01*
X119308932Y-104208899D01*
X119129608Y-103990392D01*
X118911101Y-103811068D01*
X118661808Y-103677818D01*
X118391309Y-103595764D01*
X118110000Y-103568057D01*
X117828692Y-103595764D01*
X117558193Y-103677818D01*
X117308900Y-103811068D01*
X117090393Y-103990392D01*
X116911068Y-104208899D01*
X116840000Y-104341858D01*
X116768932Y-104208899D01*
X116589608Y-103990392D01*
X116371101Y-103811068D01*
X116121808Y-103677818D01*
X115851309Y-103595764D01*
X115570000Y-103568057D01*
X115288692Y-103595764D01*
X115018193Y-103677818D01*
X114768900Y-103811068D01*
X114550393Y-103990392D01*
X114371068Y-104208899D01*
X114300000Y-104341858D01*
X114228932Y-104208899D01*
X114049608Y-103990392D01*
X113831101Y-103811068D01*
X113581808Y-103677818D01*
X113311309Y-103595764D01*
X113030000Y-103568057D01*
X112748692Y-103595764D01*
X112478193Y-103677818D01*
X112228900Y-103811068D01*
X112010393Y-103990392D01*
X111831068Y-104208899D01*
X111762735Y-104336741D01*
X111612601Y-104107161D01*
X111414895Y-103905500D01*
X111181646Y-103746285D01*
X110921818Y-103635633D01*
X110839039Y-103618096D01*
X110617000Y-103740085D01*
X110363000Y-103740085D01*
X110140961Y-103618096D01*
X110058182Y-103635633D01*
X109798354Y-103746285D01*
X109565105Y-103905500D01*
X109367399Y-104107161D01*
X109212834Y-104343517D01*
X109107350Y-104605486D01*
X109055000Y-104883000D01*
X107188578Y-104883000D01*
X108545050Y-103526529D01*
X108578817Y-103498817D01*
X108689411Y-103364059D01*
X108713810Y-103318412D01*
X108771589Y-103210314D01*
X108822195Y-103043490D01*
X108828049Y-102984049D01*
X108835000Y-102913477D01*
X108835000Y-102913469D01*
X108839281Y-102870000D01*
X108835000Y-102826531D01*
X108835000Y-102159701D01*
X108874482Y-102155812D01*
X108994180Y-102119502D01*
X109104494Y-102060537D01*
X109201185Y-101981185D01*
X109280537Y-101884494D01*
X109339502Y-101774180D01*
X109375812Y-101654482D01*
X109377581Y-101636517D01*
X109470393Y-101749608D01*
X109688900Y-101928932D01*
X109938193Y-102062182D01*
X110208692Y-102144236D01*
X110490000Y-102171943D01*
X110771309Y-102144236D01*
X111041808Y-102062182D01*
X111291101Y-101928932D01*
X111509608Y-101749608D01*
X111688932Y-101531101D01*
X111760000Y-101398142D01*
X111831068Y-101531101D01*
X112010393Y-101749608D01*
X112228900Y-101928932D01*
X112478193Y-102062182D01*
X112748692Y-102144236D01*
X113030000Y-102171943D01*
X113311309Y-102144236D01*
X113581808Y-102062182D01*
X113831101Y-101928932D01*
X114049608Y-101749608D01*
X114228932Y-101531101D01*
X114300000Y-101398142D01*
X114371068Y-101531101D01*
X114550393Y-101749608D01*
X114768900Y-101928932D01*
X115018193Y-102062182D01*
X115288692Y-102144236D01*
X115570000Y-102171943D01*
X115851309Y-102144236D01*
X116121808Y-102062182D01*
X116371101Y-101928932D01*
X116589608Y-101749608D01*
X116768932Y-101531101D01*
X116840000Y-101398142D01*
X116911068Y-101531101D01*
X117090393Y-101749608D01*
X117308900Y-101928932D01*
X117558193Y-102062182D01*
X117828692Y-102144236D01*
X118110000Y-102171943D01*
X118391309Y-102144236D01*
X118661808Y-102062182D01*
X118911101Y-101928932D01*
X119129608Y-101749608D01*
X119308932Y-101531101D01*
X119380000Y-101398142D01*
X119451068Y-101531101D01*
X119630393Y-101749608D01*
X119848900Y-101928932D01*
X120098193Y-102062182D01*
X120368692Y-102144236D01*
X120650000Y-102171943D01*
X120931309Y-102144236D01*
X121201808Y-102062182D01*
X121451101Y-101928932D01*
X121669608Y-101749608D01*
X121848932Y-101531101D01*
X121920000Y-101398142D01*
X121991068Y-101531101D01*
X122170393Y-101749608D01*
X122388900Y-101928932D01*
X122638193Y-102062182D01*
X122908692Y-102144236D01*
X123190000Y-102171943D01*
X123471309Y-102144236D01*
X123741808Y-102062182D01*
X123991101Y-101928932D01*
X124209608Y-101749608D01*
X124388932Y-101531101D01*
X124460000Y-101398142D01*
X124531068Y-101531101D01*
X124710393Y-101749608D01*
X124928900Y-101928932D01*
X125178193Y-102062182D01*
X125448692Y-102144236D01*
X125730000Y-102171943D01*
X126011309Y-102144236D01*
X126281808Y-102062182D01*
X126531101Y-101928932D01*
X126749608Y-101749608D01*
X126928932Y-101531101D01*
X127000000Y-101398142D01*
X127071068Y-101531101D01*
X127250393Y-101749608D01*
X127468900Y-101928932D01*
X127718193Y-102062182D01*
X127988692Y-102144236D01*
X128270000Y-102171943D01*
X128551309Y-102144236D01*
X128821808Y-102062182D01*
X129071101Y-101928932D01*
X129289608Y-101749608D01*
X129468932Y-101531101D01*
X129540000Y-101398142D01*
X129611068Y-101531101D01*
X129790393Y-101749608D01*
X130008900Y-101928932D01*
X130258193Y-102062182D01*
X130528692Y-102144236D01*
X130810000Y-102171943D01*
X131091309Y-102144236D01*
X131361808Y-102062182D01*
X131611101Y-101928932D01*
X131829608Y-101749608D01*
X132008932Y-101531101D01*
X132080000Y-101398142D01*
X132151068Y-101531101D01*
X132330393Y-101749608D01*
X132548900Y-101928932D01*
X132798193Y-102062182D01*
X133068692Y-102144236D01*
X133350000Y-102171943D01*
X133631309Y-102144236D01*
X133901808Y-102062182D01*
X134151101Y-101928932D01*
X134369608Y-101749608D01*
X134548932Y-101531101D01*
X134620000Y-101398142D01*
X134691068Y-101531101D01*
X134870393Y-101749608D01*
X135088900Y-101928932D01*
X135338193Y-102062182D01*
X135608692Y-102144236D01*
X135890000Y-102171943D01*
X136171309Y-102144236D01*
X136441808Y-102062182D01*
X136691101Y-101928932D01*
X136909608Y-101749608D01*
X137088932Y-101531101D01*
X137160000Y-101398142D01*
X137231068Y-101531101D01*
X137410393Y-101749608D01*
X137628900Y-101928932D01*
X137878193Y-102062182D01*
X138148692Y-102144236D01*
X138430000Y-102171943D01*
X138711309Y-102144236D01*
X138981808Y-102062182D01*
X139231101Y-101928932D01*
X139449608Y-101749608D01*
X139628932Y-101531101D01*
X139697265Y-101403259D01*
X139847399Y-101632839D01*
X140045105Y-101834500D01*
X140278354Y-101993715D01*
X140538182Y-102104367D01*
X140620961Y-102121904D01*
X140843000Y-101999915D01*
X140843000Y-100457000D01*
X141097000Y-100457000D01*
X141097000Y-101999915D01*
X141319039Y-102121904D01*
X141401818Y-102104367D01*
X141661646Y-101993715D01*
X141894895Y-101834500D01*
X142092601Y-101632839D01*
X142247166Y-101396483D01*
X142352650Y-101134514D01*
X142405000Y-100857000D01*
X142405000Y-100457000D01*
X141097000Y-100457000D01*
X140843000Y-100457000D01*
X140823000Y-100457000D01*
X140823000Y-100203000D01*
X140843000Y-100203000D01*
X140843000Y-98660085D01*
X141097000Y-98660085D01*
X141097000Y-100203000D01*
X142405000Y-100203000D01*
X142405000Y-99803000D01*
X142352650Y-99525486D01*
X142247166Y-99263517D01*
X142092601Y-99027161D01*
X141894895Y-98825500D01*
X141661646Y-98666285D01*
X141401818Y-98555633D01*
X141319039Y-98538096D01*
X141097000Y-98660085D01*
X140843000Y-98660085D01*
X140620961Y-98538096D01*
X140538182Y-98555633D01*
X140278354Y-98666285D01*
X140045105Y-98825500D01*
X139847399Y-99027161D01*
X139697265Y-99256741D01*
X139628932Y-99128899D01*
X139621606Y-99119972D01*
X146645049Y-92096530D01*
X146678817Y-92068817D01*
X146789411Y-91934059D01*
X146871589Y-91780313D01*
X146922195Y-91613490D01*
X146935000Y-91483477D01*
X146935000Y-91483467D01*
X146939281Y-91440001D01*
X146935000Y-91396535D01*
X146935000Y-81323465D01*
X146939281Y-81279999D01*
X146935000Y-81236533D01*
X146935000Y-81236523D01*
X146922195Y-81106510D01*
X146871589Y-80939687D01*
X146789411Y-80785941D01*
X146678817Y-80651183D01*
X146645050Y-80623471D01*
X145436534Y-79414956D01*
X145408817Y-79381183D01*
X145274059Y-79270589D01*
X145120313Y-79188411D01*
X144953490Y-79137805D01*
X144823477Y-79125000D01*
X144823469Y-79125000D01*
X144780000Y-79120719D01*
X144736531Y-79125000D01*
X136256579Y-79125000D01*
X135554777Y-78423198D01*
X135656962Y-78321013D01*
X135803061Y-78102359D01*
X135890000Y-77892470D01*
X135976939Y-78102359D01*
X136123038Y-78321013D01*
X136308987Y-78506962D01*
X136527641Y-78653061D01*
X136770595Y-78753696D01*
X137028514Y-78805000D01*
X137291486Y-78805000D01*
X137549405Y-78753696D01*
X137792359Y-78653061D01*
X138011013Y-78506962D01*
X138196962Y-78321013D01*
X138343061Y-78102359D01*
X138430000Y-77892470D01*
X138516939Y-78102359D01*
X138663038Y-78321013D01*
X138848987Y-78506962D01*
X139067641Y-78653061D01*
X139310595Y-78753696D01*
X139568514Y-78805000D01*
X139831486Y-78805000D01*
X140089405Y-78753696D01*
X140332359Y-78653061D01*
X140551013Y-78506962D01*
X140736962Y-78321013D01*
X140883061Y-78102359D01*
X140970000Y-77892470D01*
X141056939Y-78102359D01*
X141203038Y-78321013D01*
X141388987Y-78506962D01*
X141607641Y-78653061D01*
X141850595Y-78753696D01*
X142108514Y-78805000D01*
X142371486Y-78805000D01*
X142629405Y-78753696D01*
X142872359Y-78653061D01*
X143091013Y-78506962D01*
X143276962Y-78321013D01*
X143423061Y-78102359D01*
X143510000Y-77892470D01*
X143596939Y-78102359D01*
X143743038Y-78321013D01*
X143928987Y-78506962D01*
X144147641Y-78653061D01*
X144390595Y-78753696D01*
X144648514Y-78805000D01*
X144911486Y-78805000D01*
X145169405Y-78753696D01*
X145412359Y-78653061D01*
X145631013Y-78506962D01*
X145816962Y-78321013D01*
X145963061Y-78102359D01*
X146050000Y-77892470D01*
X146136939Y-78102359D01*
X146283038Y-78321013D01*
X146468987Y-78506962D01*
X146687641Y-78653061D01*
X146930595Y-78753696D01*
X147188514Y-78805000D01*
X147451486Y-78805000D01*
X147709405Y-78753696D01*
X147952359Y-78653061D01*
X148171013Y-78506962D01*
X148356962Y-78321013D01*
X148503061Y-78102359D01*
X148603696Y-77859405D01*
X148655000Y-77601486D01*
X148655000Y-77338514D01*
X148603696Y-77080595D01*
X148503061Y-76837641D01*
X148356962Y-76618987D01*
X148171013Y-76433038D01*
X147952359Y-76286939D01*
X147742470Y-76200000D01*
X147952359Y-76113061D01*
X148171013Y-75966962D01*
X148356962Y-75781013D01*
X148503061Y-75562359D01*
X148603696Y-75319405D01*
X148655000Y-75061486D01*
X148655000Y-74798514D01*
X148603696Y-74540595D01*
X148503061Y-74297641D01*
X148356962Y-74078987D01*
X148171013Y-73893038D01*
X147952359Y-73746939D01*
X147709405Y-73646304D01*
X147451486Y-73595000D01*
X147188514Y-73595000D01*
X146930595Y-73646304D01*
X146687641Y-73746939D01*
X146468987Y-73893038D01*
X146283038Y-74078987D01*
X146136939Y-74297641D01*
X146050000Y-74507530D01*
X145963061Y-74297641D01*
X145816962Y-74078987D01*
X145631013Y-73893038D01*
X145412359Y-73746939D01*
X145169405Y-73646304D01*
X144911486Y-73595000D01*
X144648514Y-73595000D01*
X144390595Y-73646304D01*
X144147641Y-73746939D01*
X143928987Y-73893038D01*
X143743038Y-74078987D01*
X143596939Y-74297641D01*
X143510000Y-74507530D01*
X143423061Y-74297641D01*
X143276962Y-74078987D01*
X143091013Y-73893038D01*
X142872359Y-73746939D01*
X142629405Y-73646304D01*
X142371486Y-73595000D01*
X142108514Y-73595000D01*
X141850595Y-73646304D01*
X141607641Y-73746939D01*
X141388987Y-73893038D01*
X141203038Y-74078987D01*
X141056939Y-74297641D01*
X140970000Y-74507530D01*
X140883061Y-74297641D01*
X140736962Y-74078987D01*
X140551013Y-73893038D01*
X140332359Y-73746939D01*
X140089405Y-73646304D01*
X139831486Y-73595000D01*
X139568514Y-73595000D01*
X139310595Y-73646304D01*
X139067641Y-73746939D01*
X138848987Y-73893038D01*
X138663038Y-74078987D01*
X138516939Y-74297641D01*
X138430000Y-74507530D01*
X138343061Y-74297641D01*
X138196962Y-74078987D01*
X138011013Y-73893038D01*
X137792359Y-73746939D01*
X137549405Y-73646304D01*
X137291486Y-73595000D01*
X137028514Y-73595000D01*
X136770595Y-73646304D01*
X136527641Y-73746939D01*
X136308987Y-73893038D01*
X136123038Y-74078987D01*
X135976939Y-74297641D01*
X135890000Y-74507530D01*
X135803061Y-74297641D01*
X135656962Y-74078987D01*
X135471013Y-73893038D01*
X135252359Y-73746939D01*
X135009405Y-73646304D01*
X134751486Y-73595000D01*
X134488514Y-73595000D01*
X134230595Y-73646304D01*
X133987641Y-73746939D01*
X133768987Y-73893038D01*
X133583038Y-74078987D01*
X133436939Y-74297641D01*
X133350000Y-74507530D01*
X133263061Y-74297641D01*
X133116962Y-74078987D01*
X132931013Y-73893038D01*
X132712359Y-73746939D01*
X132469405Y-73646304D01*
X132211486Y-73595000D01*
X131948514Y-73595000D01*
X131690595Y-73646304D01*
X131447641Y-73746939D01*
X131228987Y-73893038D01*
X131043038Y-74078987D01*
X130896939Y-74297641D01*
X130810000Y-74507530D01*
X130723061Y-74297641D01*
X130576962Y-74078987D01*
X130391013Y-73893038D01*
X130172359Y-73746939D01*
X129929405Y-73646304D01*
X129671486Y-73595000D01*
X129408514Y-73595000D01*
X129150595Y-73646304D01*
X128907641Y-73746939D01*
X128688987Y-73893038D01*
X128503038Y-74078987D01*
X128356939Y-74297641D01*
X128256304Y-74540595D01*
X128205000Y-74798514D01*
X128205000Y-75061486D01*
X128256304Y-75319405D01*
X128356939Y-75562359D01*
X128503038Y-75781013D01*
X128688987Y-75966962D01*
X128907641Y-76113061D01*
X129117530Y-76200000D01*
X128907641Y-76286939D01*
X128688987Y-76433038D01*
X128503038Y-76618987D01*
X128356939Y-76837641D01*
X128256304Y-77080595D01*
X128205000Y-77338514D01*
X128205000Y-77601486D01*
X128256304Y-77859405D01*
X128356939Y-78102359D01*
X128503038Y-78321013D01*
X128655001Y-78472976D01*
X128655001Y-78696522D01*
X128650719Y-78740000D01*
X128667805Y-78913490D01*
X128718412Y-79080313D01*
X128800590Y-79234059D01*
X128883468Y-79335046D01*
X128883471Y-79335049D01*
X128911184Y-79368817D01*
X128944951Y-79396530D01*
X132693468Y-83145047D01*
X132721183Y-83178817D01*
X132754951Y-83206530D01*
X132754953Y-83206532D01*
X132855941Y-83289411D01*
X132916679Y-83321876D01*
X132798192Y-83357818D01*
X132548899Y-83491068D01*
X132330392Y-83670393D01*
X132151068Y-83888900D01*
X132080000Y-84021858D01*
X132008932Y-83888899D01*
X131829607Y-83670392D01*
X131611100Y-83491068D01*
X131361807Y-83357818D01*
X131091308Y-83275764D01*
X130810000Y-83248057D01*
X130528691Y-83275764D01*
X130258192Y-83357818D01*
X130008899Y-83491068D01*
X129790392Y-83670393D01*
X129611068Y-83888900D01*
X129540000Y-84021858D01*
X129468932Y-83888899D01*
X129289607Y-83670392D01*
X129102977Y-83517229D01*
X129091589Y-83479687D01*
X129009411Y-83325941D01*
X128979431Y-83289410D01*
X128926532Y-83224953D01*
X128926530Y-83224951D01*
X128898817Y-83191183D01*
X128865050Y-83163471D01*
X127656534Y-81954956D01*
X127628817Y-81921183D01*
X127494059Y-81810589D01*
X127340313Y-81728411D01*
X127173490Y-81677805D01*
X127043477Y-81665000D01*
X127043469Y-81665000D01*
X127000000Y-81660719D01*
X126956531Y-81665000D01*
X106723465Y-81665000D01*
X106679999Y-81660719D01*
X106636533Y-81665000D01*
X106636523Y-81665000D01*
X106506510Y-81677805D01*
X106339687Y-81728411D01*
X106185941Y-81810589D01*
X106185939Y-81810590D01*
X106185940Y-81810590D01*
X106084953Y-81893468D01*
X106084951Y-81893470D01*
X106051183Y-81921183D01*
X106023470Y-81954951D01*
X104814951Y-83163471D01*
X104781184Y-83191183D01*
X104753471Y-83224951D01*
X104753468Y-83224954D01*
X104670590Y-83325941D01*
X104588412Y-83479687D01*
X104537805Y-83646510D01*
X104520719Y-83820000D01*
X104525001Y-83863478D01*
X104525000Y-84723421D01*
X102810028Y-86438394D01*
X102801101Y-86431068D01*
X102673259Y-86362735D01*
X102902839Y-86212601D01*
X103104500Y-86014895D01*
X103263715Y-85781646D01*
X103374367Y-85521818D01*
X103391904Y-85439039D01*
X103269915Y-85217000D01*
X101727000Y-85217000D01*
X101727000Y-85237000D01*
X101473000Y-85237000D01*
X101473000Y-85217000D01*
X101453000Y-85217000D01*
X101453000Y-84963000D01*
X101473000Y-84963000D01*
X101473000Y-83655000D01*
X101727000Y-83655000D01*
X101727000Y-84963000D01*
X103269915Y-84963000D01*
X103391904Y-84740961D01*
X103374367Y-84658182D01*
X103263715Y-84398354D01*
X103104500Y-84165105D01*
X102902839Y-83967399D01*
X102666483Y-83812834D01*
X102404514Y-83707350D01*
X102127000Y-83655000D01*
X101727000Y-83655000D01*
X101473000Y-83655000D01*
X101073000Y-83655000D01*
X100795486Y-83707350D01*
X100533517Y-83812834D01*
X100423718Y-83884637D01*
X100748355Y-83560000D01*
X101550392Y-83560000D01*
X101600000Y-83564886D01*
X101797994Y-83545385D01*
X101988380Y-83487632D01*
X102163840Y-83393847D01*
X102317633Y-83267633D01*
X102349261Y-83229094D01*
X103549094Y-82029261D01*
X103587633Y-81997633D01*
X103713847Y-81843840D01*
X103807632Y-81668380D01*
X103865385Y-81477994D01*
X103880000Y-81329608D01*
X103880000Y-81329606D01*
X103884886Y-81280001D01*
X103880000Y-81230396D01*
X103880000Y-80962702D01*
X104596903Y-80962702D01*
X104668486Y-81206671D01*
X104923996Y-81327571D01*
X105198184Y-81396300D01*
X105480512Y-81410217D01*
X105760130Y-81368787D01*
X106026292Y-81273603D01*
X106151514Y-81206671D01*
X106223097Y-80962702D01*
X106120395Y-80860000D01*
X109001928Y-80860000D01*
X109014188Y-80984482D01*
X109050498Y-81104180D01*
X109109463Y-81214494D01*
X109188815Y-81311185D01*
X109285506Y-81390537D01*
X109395820Y-81449502D01*
X109515518Y-81485812D01*
X109640000Y-81498072D01*
X110204250Y-81495000D01*
X110363000Y-81336250D01*
X110363000Y-80137000D01*
X109163750Y-80137000D01*
X109005000Y-80295750D01*
X109001928Y-80860000D01*
X106120395Y-80860000D01*
X105410000Y-80149605D01*
X104596903Y-80962702D01*
X103880000Y-80962702D01*
X103880000Y-80040512D01*
X103969783Y-80040512D01*
X104011213Y-80320130D01*
X104106397Y-80586292D01*
X104173329Y-80711514D01*
X104417298Y-80783097D01*
X105230395Y-79970000D01*
X105589605Y-79970000D01*
X106402702Y-80783097D01*
X106646671Y-80711514D01*
X106767571Y-80456004D01*
X106836300Y-80181816D01*
X106850217Y-79899488D01*
X106808787Y-79619870D01*
X106713603Y-79353708D01*
X106646671Y-79228486D01*
X106413258Y-79160000D01*
X109001928Y-79160000D01*
X109005000Y-79724250D01*
X109163750Y-79883000D01*
X110363000Y-79883000D01*
X110363000Y-78683750D01*
X110617000Y-78683750D01*
X110617000Y-79883000D01*
X110637000Y-79883000D01*
X110637000Y-80137000D01*
X110617000Y-80137000D01*
X110617000Y-81336250D01*
X110775750Y-81495000D01*
X111340000Y-81498072D01*
X111464482Y-81485812D01*
X111584180Y-81449502D01*
X111694494Y-81390537D01*
X111791185Y-81311185D01*
X111870537Y-81214494D01*
X111929502Y-81104180D01*
X111951513Y-81031620D01*
X112083368Y-81163475D01*
X112326589Y-81325990D01*
X112596842Y-81437932D01*
X112883740Y-81495000D01*
X113176260Y-81495000D01*
X113463158Y-81437932D01*
X113733411Y-81325990D01*
X113976632Y-81163475D01*
X114183475Y-80956632D01*
X114300000Y-80782240D01*
X114416525Y-80956632D01*
X114623368Y-81163475D01*
X114866589Y-81325990D01*
X115136842Y-81437932D01*
X115423740Y-81495000D01*
X115716260Y-81495000D01*
X116003158Y-81437932D01*
X116273411Y-81325990D01*
X116516632Y-81163475D01*
X116723475Y-80956632D01*
X116885990Y-80713411D01*
X116997932Y-80443158D01*
X117055000Y-80156260D01*
X117055000Y-79863740D01*
X116997932Y-79576842D01*
X116885990Y-79306589D01*
X116723475Y-79063368D01*
X116516632Y-78856525D01*
X116273411Y-78694010D01*
X116003158Y-78582068D01*
X115716260Y-78525000D01*
X115423740Y-78525000D01*
X115136842Y-78582068D01*
X114866589Y-78694010D01*
X114623368Y-78856525D01*
X114416525Y-79063368D01*
X114300000Y-79237760D01*
X114183475Y-79063368D01*
X113976632Y-78856525D01*
X113733411Y-78694010D01*
X113463158Y-78582068D01*
X113176260Y-78525000D01*
X112883740Y-78525000D01*
X112596842Y-78582068D01*
X112326589Y-78694010D01*
X112083368Y-78856525D01*
X111951513Y-78988380D01*
X111929502Y-78915820D01*
X111870537Y-78805506D01*
X111791185Y-78708815D01*
X111694494Y-78629463D01*
X111584180Y-78570498D01*
X111464482Y-78534188D01*
X111340000Y-78521928D01*
X110775750Y-78525000D01*
X110617000Y-78683750D01*
X110363000Y-78683750D01*
X110204250Y-78525000D01*
X109640000Y-78521928D01*
X109515518Y-78534188D01*
X109395820Y-78570498D01*
X109285506Y-78629463D01*
X109188815Y-78708815D01*
X109109463Y-78805506D01*
X109050498Y-78915820D01*
X109014188Y-79035518D01*
X109001928Y-79160000D01*
X106413258Y-79160000D01*
X106402702Y-79156903D01*
X105589605Y-79970000D01*
X105230395Y-79970000D01*
X104417298Y-79156903D01*
X104173329Y-79228486D01*
X104052429Y-79483996D01*
X103983700Y-79758184D01*
X103969783Y-80040512D01*
X103880000Y-80040512D01*
X103880000Y-79158355D01*
X104245791Y-78792564D01*
X104255506Y-78800537D01*
X104365820Y-78859502D01*
X104485518Y-78895812D01*
X104610000Y-78908072D01*
X104617215Y-78908072D01*
X104596903Y-78977298D01*
X105410000Y-79790395D01*
X106223097Y-78977298D01*
X106202785Y-78908072D01*
X106210000Y-78908072D01*
X106334482Y-78895812D01*
X106454180Y-78859502D01*
X106564494Y-78800537D01*
X106661185Y-78721185D01*
X106740537Y-78624494D01*
X106799502Y-78514180D01*
X106835812Y-78394482D01*
X106848072Y-78270000D01*
X106848072Y-76670000D01*
X106835812Y-76545518D01*
X106799502Y-76425820D01*
X106740537Y-76315506D01*
X106661185Y-76218815D01*
X106564494Y-76139463D01*
X106454180Y-76080498D01*
X106334482Y-76044188D01*
X106210000Y-76031928D01*
X104610000Y-76031928D01*
X104485518Y-76044188D01*
X104365820Y-76080498D01*
X104255506Y-76139463D01*
X104158815Y-76218815D01*
X104079463Y-76315506D01*
X104020498Y-76425820D01*
X104007658Y-76468149D01*
X103942006Y-76474615D01*
X103751620Y-76532368D01*
X103576160Y-76626153D01*
X103422367Y-76752367D01*
X103390739Y-76790906D01*
X102190901Y-77990744D01*
X102152368Y-78022367D01*
X102120745Y-78060900D01*
X102120744Y-78060901D01*
X102026154Y-78176160D01*
X101932368Y-78351621D01*
X101874615Y-78542006D01*
X101855114Y-78740000D01*
X101860001Y-78789617D01*
X101860000Y-80861645D01*
X101181645Y-81540000D01*
X100379604Y-81540000D01*
X100329999Y-81535114D01*
X100280394Y-81540000D01*
X100280392Y-81540000D01*
X100132006Y-81554615D01*
X99941620Y-81612368D01*
X99766160Y-81706153D01*
X99612367Y-81832367D01*
X99580739Y-81870906D01*
X98675000Y-82776645D01*
X98675000Y-80922702D01*
X99516903Y-80922702D01*
X99588486Y-81166671D01*
X99843996Y-81287571D01*
X100118184Y-81356300D01*
X100400512Y-81370217D01*
X100680130Y-81328787D01*
X100946292Y-81233603D01*
X101071514Y-81166671D01*
X101143097Y-80922702D01*
X100330000Y-80109605D01*
X99516903Y-80922702D01*
X98675000Y-80922702D01*
X98675000Y-80000512D01*
X98889783Y-80000512D01*
X98931213Y-80280130D01*
X99026397Y-80546292D01*
X99093329Y-80671514D01*
X99337298Y-80743097D01*
X100150395Y-79930000D01*
X100509605Y-79930000D01*
X101322702Y-80743097D01*
X101566671Y-80671514D01*
X101687571Y-80416004D01*
X101756300Y-80141816D01*
X101770217Y-79859488D01*
X101728787Y-79579870D01*
X101633603Y-79313708D01*
X101566671Y-79188486D01*
X101322702Y-79116903D01*
X100509605Y-79930000D01*
X100150395Y-79930000D01*
X99337298Y-79116903D01*
X99093329Y-79188486D01*
X98972429Y-79443996D01*
X98903700Y-79718184D01*
X98889783Y-80000512D01*
X98675000Y-80000512D01*
X98675000Y-78937298D01*
X99516903Y-78937298D01*
X100330000Y-79750395D01*
X101143097Y-78937298D01*
X101071514Y-78693329D01*
X100816004Y-78572429D01*
X100541816Y-78503700D01*
X100259488Y-78489783D01*
X99979870Y-78531213D01*
X99713708Y-78626397D01*
X99588486Y-78693329D01*
X99516903Y-78937298D01*
X98675000Y-78937298D01*
X98675000Y-74788665D01*
X98895000Y-74788665D01*
X98895000Y-75071335D01*
X98950147Y-75348574D01*
X99058320Y-75609727D01*
X99215363Y-75844759D01*
X99415241Y-76044637D01*
X99650273Y-76201680D01*
X99911426Y-76309853D01*
X100188665Y-76365000D01*
X100471335Y-76365000D01*
X100748574Y-76309853D01*
X101009727Y-76201680D01*
X101244759Y-76044637D01*
X101444637Y-75844759D01*
X101601680Y-75609727D01*
X101709853Y-75348574D01*
X101765000Y-75071335D01*
X101765000Y-74788665D01*
X101709853Y-74511426D01*
X101601680Y-74250273D01*
X101444637Y-74015241D01*
X101244759Y-73815363D01*
X101009727Y-73658320D01*
X100748574Y-73550147D01*
X100471335Y-73495000D01*
X100188665Y-73495000D01*
X99911426Y-73550147D01*
X99650273Y-73658320D01*
X99415241Y-73815363D01*
X99215363Y-74015241D01*
X99058320Y-74250273D01*
X98950147Y-74511426D01*
X98895000Y-74788665D01*
X98675000Y-74788665D01*
X98675000Y-74026578D01*
X99426579Y-73275000D01*
X103773422Y-73275000D01*
X106023470Y-75525049D01*
X106051183Y-75558817D01*
X106084951Y-75586530D01*
X106084953Y-75586532D01*
X106113216Y-75609727D01*
X106185941Y-75669411D01*
X106339687Y-75751589D01*
X106506510Y-75802195D01*
X106636523Y-75815000D01*
X106636533Y-75815000D01*
X106679999Y-75819281D01*
X106723465Y-75815000D01*
X115203422Y-75815000D01*
X118723470Y-79335049D01*
X118751183Y-79368817D01*
X118784951Y-79396530D01*
X118784953Y-79396532D01*
X118885941Y-79479411D01*
X119039686Y-79561589D01*
X119099950Y-79579870D01*
X119206510Y-79612195D01*
X119336523Y-79625000D01*
X119336531Y-79625000D01*
X119380000Y-79629281D01*
X119423469Y-79625000D01*
X121876531Y-79625000D01*
X121920000Y-79629281D01*
X121963469Y-79625000D01*
X121963477Y-79625000D01*
X122093490Y-79612195D01*
X122260313Y-79561589D01*
X122414059Y-79479411D01*
X122548817Y-79368817D01*
X122576534Y-79335044D01*
X123785049Y-78126530D01*
X123818817Y-78098817D01*
X123849935Y-78060901D01*
X123929410Y-77964060D01*
X123929411Y-77964059D01*
X124011589Y-77810313D01*
X124062195Y-77643490D01*
X124075000Y-77513477D01*
X124075000Y-77513467D01*
X124079281Y-77470001D01*
X124075000Y-77426535D01*
X124075000Y-76058665D01*
X124295000Y-76058665D01*
X124295000Y-76341335D01*
X124350147Y-76618574D01*
X124458320Y-76879727D01*
X124615363Y-77114759D01*
X124815241Y-77314637D01*
X125050273Y-77471680D01*
X125311426Y-77579853D01*
X125588665Y-77635000D01*
X125871335Y-77635000D01*
X126148574Y-77579853D01*
X126409727Y-77471680D01*
X126644759Y-77314637D01*
X126844637Y-77114759D01*
X127001680Y-76879727D01*
X127109853Y-76618574D01*
X127165000Y-76341335D01*
X127165000Y-76058665D01*
X127109853Y-75781426D01*
X127001680Y-75520273D01*
X126844637Y-75285241D01*
X126644759Y-75085363D01*
X126409727Y-74928320D01*
X126148574Y-74820147D01*
X125871335Y-74765000D01*
X125588665Y-74765000D01*
X125311426Y-74820147D01*
X125050273Y-74928320D01*
X124815241Y-75085363D01*
X124615363Y-75285241D01*
X124458320Y-75520273D01*
X124350147Y-75781426D01*
X124295000Y-76058665D01*
X124075000Y-76058665D01*
X124075000Y-75296578D01*
X125690050Y-73681529D01*
X125723817Y-73653817D01*
X125772088Y-73595000D01*
X125834411Y-73519059D01*
X125916588Y-73365314D01*
X125916589Y-73365313D01*
X125967195Y-73198490D01*
X125980000Y-73068477D01*
X125980000Y-73068469D01*
X125984281Y-73025000D01*
X125980000Y-72981531D01*
X125980000Y-72314656D01*
X126041632Y-72273475D01*
X126248475Y-72066632D01*
X126410990Y-71823411D01*
X126522932Y-71553158D01*
X126580000Y-71266260D01*
X126580000Y-70973740D01*
X128055000Y-70973740D01*
X128055000Y-71266260D01*
X128112068Y-71553158D01*
X128224010Y-71823411D01*
X128386525Y-72066632D01*
X128593368Y-72273475D01*
X128836589Y-72435990D01*
X129106842Y-72547932D01*
X129393740Y-72605000D01*
X129686260Y-72605000D01*
X129973158Y-72547932D01*
X130243411Y-72435990D01*
X130486632Y-72273475D01*
X130693475Y-72066632D01*
X130810000Y-71892240D01*
X130926525Y-72066632D01*
X131133368Y-72273475D01*
X131376589Y-72435990D01*
X131646842Y-72547932D01*
X131933740Y-72605000D01*
X132226260Y-72605000D01*
X132513158Y-72547932D01*
X132783411Y-72435990D01*
X133026632Y-72273475D01*
X133233475Y-72066632D01*
X133350000Y-71892240D01*
X133466525Y-72066632D01*
X133673368Y-72273475D01*
X133916589Y-72435990D01*
X134186842Y-72547932D01*
X134473740Y-72605000D01*
X134766260Y-72605000D01*
X135053158Y-72547932D01*
X135323411Y-72435990D01*
X135566632Y-72273475D01*
X135773475Y-72066632D01*
X135890000Y-71892240D01*
X136006525Y-72066632D01*
X136213368Y-72273475D01*
X136456589Y-72435990D01*
X136726842Y-72547932D01*
X137013740Y-72605000D01*
X137306260Y-72605000D01*
X137593158Y-72547932D01*
X137863411Y-72435990D01*
X138106632Y-72273475D01*
X138313475Y-72066632D01*
X138430000Y-71892240D01*
X138546525Y-72066632D01*
X138753368Y-72273475D01*
X138996589Y-72435990D01*
X139266842Y-72547932D01*
X139553740Y-72605000D01*
X139846260Y-72605000D01*
X140133158Y-72547932D01*
X140403411Y-72435990D01*
X140646632Y-72273475D01*
X140853475Y-72066632D01*
X140970000Y-71892240D01*
X141086525Y-72066632D01*
X141293368Y-72273475D01*
X141536589Y-72435990D01*
X141806842Y-72547932D01*
X142093740Y-72605000D01*
X142386260Y-72605000D01*
X142673158Y-72547932D01*
X142943411Y-72435990D01*
X143186632Y-72273475D01*
X143393475Y-72066632D01*
X143510000Y-71892240D01*
X143626525Y-72066632D01*
X143833368Y-72273475D01*
X144076589Y-72435990D01*
X144346842Y-72547932D01*
X144633740Y-72605000D01*
X144926260Y-72605000D01*
X145213158Y-72547932D01*
X145483411Y-72435990D01*
X145726632Y-72273475D01*
X145858487Y-72141620D01*
X145880498Y-72214180D01*
X145939463Y-72324494D01*
X146018815Y-72421185D01*
X146115506Y-72500537D01*
X146225820Y-72559502D01*
X146345518Y-72595812D01*
X146470000Y-72608072D01*
X148170000Y-72608072D01*
X148294482Y-72595812D01*
X148414180Y-72559502D01*
X148524494Y-72500537D01*
X148621185Y-72421185D01*
X148700537Y-72324494D01*
X148759502Y-72214180D01*
X148795812Y-72094482D01*
X148808072Y-71970000D01*
X148808072Y-70270000D01*
X148795812Y-70145518D01*
X148759502Y-70025820D01*
X148700537Y-69915506D01*
X148621185Y-69818815D01*
X148524494Y-69739463D01*
X148414180Y-69680498D01*
X148294482Y-69644188D01*
X148170000Y-69631928D01*
X146470000Y-69631928D01*
X146345518Y-69644188D01*
X146225820Y-69680498D01*
X146115506Y-69739463D01*
X146018815Y-69818815D01*
X145939463Y-69915506D01*
X145880498Y-70025820D01*
X145858487Y-70098380D01*
X145726632Y-69966525D01*
X145483411Y-69804010D01*
X145213158Y-69692068D01*
X144926260Y-69635000D01*
X144633740Y-69635000D01*
X144346842Y-69692068D01*
X144076589Y-69804010D01*
X143833368Y-69966525D01*
X143626525Y-70173368D01*
X143510000Y-70347760D01*
X143393475Y-70173368D01*
X143186632Y-69966525D01*
X142943411Y-69804010D01*
X142673158Y-69692068D01*
X142386260Y-69635000D01*
X142093740Y-69635000D01*
X141806842Y-69692068D01*
X141536589Y-69804010D01*
X141293368Y-69966525D01*
X141086525Y-70173368D01*
X140970000Y-70347760D01*
X140853475Y-70173368D01*
X140646632Y-69966525D01*
X140403411Y-69804010D01*
X140133158Y-69692068D01*
X139846260Y-69635000D01*
X139553740Y-69635000D01*
X139266842Y-69692068D01*
X138996589Y-69804010D01*
X138753368Y-69966525D01*
X138546525Y-70173368D01*
X138430000Y-70347760D01*
X138313475Y-70173368D01*
X138106632Y-69966525D01*
X137863411Y-69804010D01*
X137593158Y-69692068D01*
X137306260Y-69635000D01*
X137013740Y-69635000D01*
X136726842Y-69692068D01*
X136456589Y-69804010D01*
X136213368Y-69966525D01*
X136006525Y-70173368D01*
X135890000Y-70347760D01*
X135773475Y-70173368D01*
X135566632Y-69966525D01*
X135323411Y-69804010D01*
X135053158Y-69692068D01*
X134766260Y-69635000D01*
X134473740Y-69635000D01*
X134186842Y-69692068D01*
X133916589Y-69804010D01*
X133673368Y-69966525D01*
X133466525Y-70173368D01*
X133350000Y-70347760D01*
X133233475Y-70173368D01*
X133026632Y-69966525D01*
X132783411Y-69804010D01*
X132513158Y-69692068D01*
X132226260Y-69635000D01*
X131933740Y-69635000D01*
X131646842Y-69692068D01*
X131376589Y-69804010D01*
X131133368Y-69966525D01*
X130926525Y-70173368D01*
X130810000Y-70347760D01*
X130693475Y-70173368D01*
X130486632Y-69966525D01*
X130243411Y-69804010D01*
X129973158Y-69692068D01*
X129686260Y-69635000D01*
X129393740Y-69635000D01*
X129106842Y-69692068D01*
X128836589Y-69804010D01*
X128593368Y-69966525D01*
X128386525Y-70173368D01*
X128224010Y-70416589D01*
X128112068Y-70686842D01*
X128055000Y-70973740D01*
X126580000Y-70973740D01*
X126522932Y-70686842D01*
X126410990Y-70416589D01*
X126248475Y-70173368D01*
X126041632Y-69966525D01*
X125798411Y-69804010D01*
X125528158Y-69692068D01*
X125241260Y-69635000D01*
X124948740Y-69635000D01*
X124661842Y-69692068D01*
X124391589Y-69804010D01*
X124148368Y-69966525D01*
X123941525Y-70173368D01*
X123825000Y-70347760D01*
X123708475Y-70173368D01*
X123501632Y-69966525D01*
X123258411Y-69804010D01*
X122988158Y-69692068D01*
X122701260Y-69635000D01*
X122408740Y-69635000D01*
X122121842Y-69692068D01*
X121851589Y-69804010D01*
X121608368Y-69966525D01*
X121401525Y-70173368D01*
X121285000Y-70347760D01*
X121168475Y-70173368D01*
X120961632Y-69966525D01*
X120718411Y-69804010D01*
X120448158Y-69692068D01*
X120161260Y-69635000D01*
X119868740Y-69635000D01*
X119581842Y-69692068D01*
X119311589Y-69804010D01*
X119068368Y-69966525D01*
X118861525Y-70173368D01*
X118745000Y-70347760D01*
X118628475Y-70173368D01*
X118421632Y-69966525D01*
X118178411Y-69804010D01*
X117908158Y-69692068D01*
X117621260Y-69635000D01*
X117328740Y-69635000D01*
X117041842Y-69692068D01*
X116771589Y-69804010D01*
X116528368Y-69966525D01*
X116321525Y-70173368D01*
X116205000Y-70347760D01*
X116088475Y-70173368D01*
X115881632Y-69966525D01*
X115638411Y-69804010D01*
X115368158Y-69692068D01*
X115081260Y-69635000D01*
X114788740Y-69635000D01*
X114501842Y-69692068D01*
X114231589Y-69804010D01*
X113988368Y-69966525D01*
X113781525Y-70173368D01*
X113665000Y-70347760D01*
X113548475Y-70173368D01*
X113341632Y-69966525D01*
X113098411Y-69804010D01*
X112828158Y-69692068D01*
X112541260Y-69635000D01*
X112248740Y-69635000D01*
X111961842Y-69692068D01*
X111691589Y-69804010D01*
X111448368Y-69966525D01*
X111316513Y-70098380D01*
X111294502Y-70025820D01*
X111235537Y-69915506D01*
X111156185Y-69818815D01*
X111059494Y-69739463D01*
X110949180Y-69680498D01*
X110829482Y-69644188D01*
X110705000Y-69631928D01*
X109005000Y-69631928D01*
X108880518Y-69644188D01*
X108760820Y-69680498D01*
X108650506Y-69739463D01*
X108553815Y-69818815D01*
X108474463Y-69915506D01*
X108415498Y-70025820D01*
X108379188Y-70145518D01*
X108366928Y-70270000D01*
X108366928Y-71970000D01*
X108379188Y-72094482D01*
X108415498Y-72214180D01*
X108474463Y-72324494D01*
X108553815Y-72421185D01*
X108650506Y-72500537D01*
X108760820Y-72559502D01*
X108880518Y-72595812D01*
X109005000Y-72608072D01*
X110705000Y-72608072D01*
X110829482Y-72595812D01*
X110949180Y-72559502D01*
X111059494Y-72500537D01*
X111156185Y-72421185D01*
X111235537Y-72324494D01*
X111294502Y-72214180D01*
X111316513Y-72141620D01*
X111448368Y-72273475D01*
X111691589Y-72435990D01*
X111961842Y-72547932D01*
X112248740Y-72605000D01*
X112541260Y-72605000D01*
X112828158Y-72547932D01*
X113098411Y-72435990D01*
X113341632Y-72273475D01*
X113548475Y-72066632D01*
X113665000Y-71892240D01*
X113781525Y-72066632D01*
X113988368Y-72273475D01*
X114231589Y-72435990D01*
X114501842Y-72547932D01*
X114788740Y-72605000D01*
X115081260Y-72605000D01*
X115368158Y-72547932D01*
X115638411Y-72435990D01*
X115881632Y-72273475D01*
X116088475Y-72066632D01*
X116205000Y-71892240D01*
X116321525Y-72066632D01*
X116528368Y-72273475D01*
X116771589Y-72435990D01*
X117041842Y-72547932D01*
X117328740Y-72605000D01*
X117621260Y-72605000D01*
X117908158Y-72547932D01*
X118178411Y-72435990D01*
X118421632Y-72273475D01*
X118628475Y-72066632D01*
X118745000Y-71892240D01*
X118861525Y-72066632D01*
X119068368Y-72273475D01*
X119311589Y-72435990D01*
X119581842Y-72547932D01*
X119868740Y-72605000D01*
X120161260Y-72605000D01*
X120448158Y-72547932D01*
X120718411Y-72435990D01*
X120961632Y-72273475D01*
X121168475Y-72066632D01*
X121285000Y-71892240D01*
X121401525Y-72066632D01*
X121514157Y-72179264D01*
X120918422Y-72775000D01*
X108316579Y-72775000D01*
X106066534Y-70524956D01*
X106038817Y-70491183D01*
X105904059Y-70380589D01*
X105750313Y-70298411D01*
X105583490Y-70247805D01*
X105453477Y-70235000D01*
X105453469Y-70235000D01*
X105410000Y-70230719D01*
X105366531Y-70235000D01*
X97833465Y-70235000D01*
X97789999Y-70230719D01*
X97746533Y-70235000D01*
X97746523Y-70235000D01*
X97616510Y-70247805D01*
X97449687Y-70298411D01*
X97295941Y-70380589D01*
X97295939Y-70380590D01*
X97295940Y-70380590D01*
X97194953Y-70463468D01*
X97194951Y-70463470D01*
X97161183Y-70491183D01*
X97133470Y-70524951D01*
X95924951Y-71733471D01*
X95891184Y-71761183D01*
X95863471Y-71794951D01*
X95863468Y-71794954D01*
X95780590Y-71895941D01*
X95698412Y-72049687D01*
X95647805Y-72216510D01*
X95630719Y-72390000D01*
X95635001Y-72433476D01*
X95635000Y-84393796D01*
X95578932Y-84288899D01*
X95399608Y-84070392D01*
X95181101Y-83891068D01*
X94931808Y-83757818D01*
X94661309Y-83675764D01*
X94450492Y-83655000D01*
X93509508Y-83655000D01*
X93298691Y-83675764D01*
X93028192Y-83757818D01*
X92778899Y-83891068D01*
X92560392Y-84070392D01*
X92407228Y-84257023D01*
X92369686Y-84268411D01*
X92215941Y-84350589D01*
X92114953Y-84433468D01*
X92114951Y-84433470D01*
X92081183Y-84461183D01*
X92053470Y-84494951D01*
X88304951Y-88243470D01*
X88271184Y-88271183D01*
X88243471Y-88304951D01*
X88243468Y-88304954D01*
X88160590Y-88405941D01*
X88078412Y-88559687D01*
X88027805Y-88726510D01*
X88010719Y-88900000D01*
X87045000Y-88900000D01*
X87045000Y-69265000D01*
X149175000Y-69265000D01*
X149175001Y-122505000D01*
G37*
G04 #@! TD.AperFunction*
G04 #@! TD*
M02*
