G04 #@! TF.GenerationSoftware,KiCad,Pcbnew,(5.1.12)-1*
G04 #@! TF.CreationDate,2022-05-09T21:24:08+02:00*
G04 #@! TF.ProjectId,EPROM-Shield,4550524f-4d2d-4536-9869-656c642e6b69,rev?*
G04 #@! TF.SameCoordinates,Original*
G04 #@! TF.FileFunction,Legend,Top*
G04 #@! TF.FilePolarity,Positive*
%FSLAX46Y46*%
G04 Gerber Fmt 4.6, Leading zero omitted, Abs format (unit mm)*
G04 Created by KiCad (PCBNEW (5.1.12)-1) date 2022-05-09 21:24:08*
%MOMM*%
%LPD*%
G01*
G04 APERTURE LIST*
%ADD10C,0.120000*%
%ADD11C,0.150000*%
%ADD12O,1.700000X1.700000*%
%ADD13R,1.700000X1.700000*%
%ADD14O,1.400000X1.400000*%
%ADD15C,1.400000*%
%ADD16O,1.600000X1.600000*%
%ADD17C,1.600000*%
%ADD18O,1.600000X2.400000*%
%ADD19R,1.600000X2.400000*%
%ADD20R,1.600000X1.600000*%
%ADD21O,2.400000X1.600000*%
%ADD22R,2.400000X1.600000*%
G04 APERTURE END LIST*
D10*
G04 #@! TO.C,J3*
X125670000Y-69790000D02*
X125670000Y-72450000D01*
X143510000Y-69790000D02*
X125670000Y-69790000D01*
X143510000Y-72450000D02*
X125670000Y-72450000D01*
X143510000Y-69790000D02*
X143510000Y-72450000D01*
X144780000Y-69790000D02*
X146110000Y-69790000D01*
X146110000Y-69790000D02*
X146110000Y-71120000D01*
G04 #@! TO.C,J4*
X146110000Y-121980000D02*
X146110000Y-119320000D01*
X133350000Y-121980000D02*
X146110000Y-121980000D01*
X133350000Y-119320000D02*
X146110000Y-119320000D01*
X133350000Y-121980000D02*
X133350000Y-119320000D01*
X132080000Y-121980000D02*
X130750000Y-121980000D01*
X130750000Y-121980000D02*
X130750000Y-120650000D01*
G04 #@! TO.C,J2*
X112970000Y-119320000D02*
X112970000Y-121980000D01*
X125730000Y-119320000D02*
X112970000Y-119320000D01*
X125730000Y-121980000D02*
X112970000Y-121980000D01*
X125730000Y-119320000D02*
X125730000Y-121980000D01*
X127000000Y-119320000D02*
X128330000Y-119320000D01*
X128330000Y-119320000D02*
X128330000Y-120650000D01*
G04 #@! TO.C,R4*
X140620000Y-74930000D02*
G75*
G03*
X140620000Y-74930000I-920000J0D01*
G01*
X139700000Y-75850000D02*
X139700000Y-76470000D01*
G04 #@! TO.C,R3*
X143160000Y-74930000D02*
G75*
G03*
X143160000Y-74930000I-920000J0D01*
G01*
X142240000Y-75850000D02*
X142240000Y-76470000D01*
G04 #@! TO.C,R2*
X145700000Y-74930000D02*
G75*
G03*
X145700000Y-74930000I-920000J0D01*
G01*
X144780000Y-75850000D02*
X144780000Y-76470000D01*
G04 #@! TO.C,J1*
X123885000Y-72450000D02*
X123885000Y-69790000D01*
X108585000Y-72450000D02*
X123885000Y-72450000D01*
X108585000Y-69790000D02*
X123885000Y-69790000D01*
X108585000Y-72450000D02*
X108585000Y-69790000D01*
X107315000Y-72450000D02*
X105985000Y-72450000D01*
X105985000Y-72450000D02*
X105985000Y-71120000D01*
G04 #@! TO.C,R6*
X135540000Y-74930000D02*
G75*
G03*
X135540000Y-74930000I-920000J0D01*
G01*
X134620000Y-75850000D02*
X134620000Y-76470000D01*
G04 #@! TO.C,R8*
X130460000Y-74930000D02*
G75*
G03*
X130460000Y-74930000I-920000J0D01*
G01*
X129540000Y-75850000D02*
X129540000Y-76470000D01*
G04 #@! TO.C,R9*
X127920000Y-74930000D02*
G75*
G03*
X127920000Y-74930000I-920000J0D01*
G01*
X127000000Y-75850000D02*
X127000000Y-76470000D01*
G04 #@! TO.C,R7*
X133000000Y-74930000D02*
G75*
G03*
X133000000Y-74930000I-920000J0D01*
G01*
X132080000Y-75850000D02*
X132080000Y-76470000D01*
G04 #@! TO.C,R5*
X138080000Y-74930000D02*
G75*
G03*
X138080000Y-74930000I-920000J0D01*
G01*
X137160000Y-75850000D02*
X137160000Y-76470000D01*
G04 #@! TO.C,R1*
X120115000Y-76200000D02*
X122725000Y-76200000D01*
X120115000Y-76200000D02*
G75*
G03*
X120115000Y-76200000I-1370000J0D01*
G01*
G04 #@! TO.C,U3*
X106560000Y-83650000D02*
X106560000Y-101770000D01*
X142360000Y-83650000D02*
X106560000Y-83650000D01*
X142360000Y-101770000D02*
X142360000Y-83650000D01*
X106560000Y-101770000D02*
X142360000Y-101770000D01*
X106620000Y-86650000D02*
X106620000Y-91710000D01*
X142300000Y-86650000D02*
X106620000Y-86650000D01*
X142300000Y-98770000D02*
X142300000Y-86650000D01*
X106620000Y-98770000D02*
X142300000Y-98770000D01*
X106620000Y-93710000D02*
X106620000Y-98770000D01*
X106620000Y-91710000D02*
G75*
G02*
X106620000Y-93710000I0J-1000000D01*
G01*
G04 #@! TO.C,C3*
X107564000Y-75534759D02*
X106934000Y-75534759D01*
X107249000Y-75219759D02*
X107249000Y-75849759D01*
X105812000Y-81961000D02*
X105008000Y-81961000D01*
X106043000Y-81921000D02*
X104777000Y-81921000D01*
X106212000Y-81881000D02*
X104608000Y-81881000D01*
X106350000Y-81841000D02*
X104470000Y-81841000D01*
X106469000Y-81801000D02*
X104351000Y-81801000D01*
X106575000Y-81761000D02*
X104245000Y-81761000D01*
X106672000Y-81721000D02*
X104148000Y-81721000D01*
X106760000Y-81681000D02*
X104060000Y-81681000D01*
X106842000Y-81641000D02*
X103978000Y-81641000D01*
X106919000Y-81601000D02*
X103901000Y-81601000D01*
X106991000Y-81561000D02*
X103829000Y-81561000D01*
X107060000Y-81521000D02*
X103760000Y-81521000D01*
X107124000Y-81481000D02*
X103696000Y-81481000D01*
X107186000Y-81441000D02*
X103634000Y-81441000D01*
X107244000Y-81401000D02*
X103576000Y-81401000D01*
X107300000Y-81361000D02*
X103520000Y-81361000D01*
X107354000Y-81321000D02*
X103466000Y-81321000D01*
X107405000Y-81281000D02*
X103415000Y-81281000D01*
X107454000Y-81241000D02*
X103366000Y-81241000D01*
X107502000Y-81201000D02*
X103318000Y-81201000D01*
X107547000Y-81161000D02*
X103273000Y-81161000D01*
X107592000Y-81121000D02*
X103228000Y-81121000D01*
X107634000Y-81081000D02*
X103186000Y-81081000D01*
X107675000Y-81041000D02*
X103145000Y-81041000D01*
X104370000Y-81001000D02*
X103105000Y-81001000D01*
X107715000Y-81001000D02*
X106450000Y-81001000D01*
X104370000Y-80961000D02*
X103067000Y-80961000D01*
X107753000Y-80961000D02*
X106450000Y-80961000D01*
X104370000Y-80921000D02*
X103030000Y-80921000D01*
X107790000Y-80921000D02*
X106450000Y-80921000D01*
X104370000Y-80881000D02*
X102994000Y-80881000D01*
X107826000Y-80881000D02*
X106450000Y-80881000D01*
X104370000Y-80841000D02*
X102960000Y-80841000D01*
X107860000Y-80841000D02*
X106450000Y-80841000D01*
X104370000Y-80801000D02*
X102926000Y-80801000D01*
X107894000Y-80801000D02*
X106450000Y-80801000D01*
X104370000Y-80761000D02*
X102894000Y-80761000D01*
X107926000Y-80761000D02*
X106450000Y-80761000D01*
X104370000Y-80721000D02*
X102862000Y-80721000D01*
X107958000Y-80721000D02*
X106450000Y-80721000D01*
X104370000Y-80681000D02*
X102832000Y-80681000D01*
X107988000Y-80681000D02*
X106450000Y-80681000D01*
X104370000Y-80641000D02*
X102803000Y-80641000D01*
X108017000Y-80641000D02*
X106450000Y-80641000D01*
X104370000Y-80601000D02*
X102774000Y-80601000D01*
X108046000Y-80601000D02*
X106450000Y-80601000D01*
X104370000Y-80561000D02*
X102746000Y-80561000D01*
X108074000Y-80561000D02*
X106450000Y-80561000D01*
X104370000Y-80521000D02*
X102720000Y-80521000D01*
X108100000Y-80521000D02*
X106450000Y-80521000D01*
X104370000Y-80481000D02*
X102694000Y-80481000D01*
X108126000Y-80481000D02*
X106450000Y-80481000D01*
X104370000Y-80441000D02*
X102668000Y-80441000D01*
X108152000Y-80441000D02*
X106450000Y-80441000D01*
X104370000Y-80401000D02*
X102644000Y-80401000D01*
X108176000Y-80401000D02*
X106450000Y-80401000D01*
X104370000Y-80361000D02*
X102620000Y-80361000D01*
X108200000Y-80361000D02*
X106450000Y-80361000D01*
X104370000Y-80321000D02*
X102598000Y-80321000D01*
X108222000Y-80321000D02*
X106450000Y-80321000D01*
X104370000Y-80281000D02*
X102576000Y-80281000D01*
X108244000Y-80281000D02*
X106450000Y-80281000D01*
X104370000Y-80241000D02*
X102554000Y-80241000D01*
X108266000Y-80241000D02*
X106450000Y-80241000D01*
X104370000Y-80201000D02*
X102534000Y-80201000D01*
X108286000Y-80201000D02*
X106450000Y-80201000D01*
X104370000Y-80161000D02*
X102514000Y-80161000D01*
X108306000Y-80161000D02*
X106450000Y-80161000D01*
X104370000Y-80121000D02*
X102494000Y-80121000D01*
X108326000Y-80121000D02*
X106450000Y-80121000D01*
X104370000Y-80081000D02*
X102476000Y-80081000D01*
X108344000Y-80081000D02*
X106450000Y-80081000D01*
X104370000Y-80041000D02*
X102458000Y-80041000D01*
X108362000Y-80041000D02*
X106450000Y-80041000D01*
X104370000Y-80001000D02*
X102440000Y-80001000D01*
X108380000Y-80001000D02*
X106450000Y-80001000D01*
X104370000Y-79961000D02*
X102424000Y-79961000D01*
X108396000Y-79961000D02*
X106450000Y-79961000D01*
X104370000Y-79921000D02*
X102408000Y-79921000D01*
X108412000Y-79921000D02*
X106450000Y-79921000D01*
X104370000Y-79881000D02*
X102392000Y-79881000D01*
X108428000Y-79881000D02*
X106450000Y-79881000D01*
X104370000Y-79841000D02*
X102377000Y-79841000D01*
X108443000Y-79841000D02*
X106450000Y-79841000D01*
X104370000Y-79801000D02*
X102363000Y-79801000D01*
X108457000Y-79801000D02*
X106450000Y-79801000D01*
X104370000Y-79761000D02*
X102349000Y-79761000D01*
X108471000Y-79761000D02*
X106450000Y-79761000D01*
X104370000Y-79721000D02*
X102336000Y-79721000D01*
X108484000Y-79721000D02*
X106450000Y-79721000D01*
X104370000Y-79681000D02*
X102324000Y-79681000D01*
X108496000Y-79681000D02*
X106450000Y-79681000D01*
X104370000Y-79641000D02*
X102312000Y-79641000D01*
X108508000Y-79641000D02*
X106450000Y-79641000D01*
X104370000Y-79601000D02*
X102300000Y-79601000D01*
X108520000Y-79601000D02*
X106450000Y-79601000D01*
X104370000Y-79561000D02*
X102289000Y-79561000D01*
X108531000Y-79561000D02*
X106450000Y-79561000D01*
X104370000Y-79521000D02*
X102279000Y-79521000D01*
X108541000Y-79521000D02*
X106450000Y-79521000D01*
X104370000Y-79481000D02*
X102269000Y-79481000D01*
X108551000Y-79481000D02*
X106450000Y-79481000D01*
X104370000Y-79441000D02*
X102260000Y-79441000D01*
X108560000Y-79441000D02*
X106450000Y-79441000D01*
X104370000Y-79400000D02*
X102251000Y-79400000D01*
X108569000Y-79400000D02*
X106450000Y-79400000D01*
X104370000Y-79360000D02*
X102243000Y-79360000D01*
X108577000Y-79360000D02*
X106450000Y-79360000D01*
X104370000Y-79320000D02*
X102235000Y-79320000D01*
X108585000Y-79320000D02*
X106450000Y-79320000D01*
X104370000Y-79280000D02*
X102228000Y-79280000D01*
X108592000Y-79280000D02*
X106450000Y-79280000D01*
X104370000Y-79240000D02*
X102221000Y-79240000D01*
X108599000Y-79240000D02*
X106450000Y-79240000D01*
X104370000Y-79200000D02*
X102215000Y-79200000D01*
X108605000Y-79200000D02*
X106450000Y-79200000D01*
X104370000Y-79160000D02*
X102209000Y-79160000D01*
X108611000Y-79160000D02*
X106450000Y-79160000D01*
X104370000Y-79120000D02*
X102204000Y-79120000D01*
X108616000Y-79120000D02*
X106450000Y-79120000D01*
X104370000Y-79080000D02*
X102199000Y-79080000D01*
X108621000Y-79080000D02*
X106450000Y-79080000D01*
X104370000Y-79040000D02*
X102195000Y-79040000D01*
X108625000Y-79040000D02*
X106450000Y-79040000D01*
X104370000Y-79000000D02*
X102192000Y-79000000D01*
X108628000Y-79000000D02*
X106450000Y-79000000D01*
X104370000Y-78960000D02*
X102188000Y-78960000D01*
X108632000Y-78960000D02*
X106450000Y-78960000D01*
X108634000Y-78920000D02*
X102186000Y-78920000D01*
X108637000Y-78880000D02*
X102183000Y-78880000D01*
X108638000Y-78840000D02*
X102182000Y-78840000D01*
X108640000Y-78800000D02*
X102180000Y-78800000D01*
X108640000Y-78760000D02*
X102180000Y-78760000D01*
X108640000Y-78720000D02*
X102180000Y-78720000D01*
X108680000Y-78720000D02*
G75*
G03*
X108680000Y-78720000I-3270000J0D01*
G01*
G04 #@! TO.C,C2*
X101700000Y-82550000D02*
X98960000Y-82550000D01*
X101700000Y-72310000D02*
X98960000Y-72310000D01*
X98960000Y-72310000D02*
X98960000Y-82550000D01*
X101700000Y-72310000D02*
X101700000Y-82550000D01*
G04 #@! TO.C,C1*
X131980000Y-104140000D02*
X134720000Y-104140000D01*
X131980000Y-114380000D02*
X134720000Y-114380000D01*
X134720000Y-114380000D02*
X134720000Y-104140000D01*
X131980000Y-114380000D02*
X131980000Y-104140000D01*
G04 #@! TO.C,U2*
X129600000Y-108220000D02*
X129600000Y-106970000D01*
X129600000Y-106970000D02*
X109160000Y-106970000D01*
X109160000Y-106970000D02*
X109160000Y-111470000D01*
X109160000Y-111470000D02*
X129600000Y-111470000D01*
X129600000Y-111470000D02*
X129600000Y-110220000D01*
X129600000Y-110220000D02*
G75*
G02*
X129600000Y-108220000I0J1000000D01*
G01*
G04 #@! TO.C,U1*
X98790000Y-104200000D02*
X100040000Y-104200000D01*
X100040000Y-104200000D02*
X100040000Y-83760000D01*
X100040000Y-83760000D02*
X95540000Y-83760000D01*
X95540000Y-83760000D02*
X95540000Y-104200000D01*
X95540000Y-104200000D02*
X96790000Y-104200000D01*
X96790000Y-104200000D02*
G75*
G02*
X98790000Y-104200000I1000000J0D01*
G01*
G04 #@! TO.C,JP2*
X92650000Y-107890000D02*
X92650000Y-110550000D01*
X97790000Y-107890000D02*
X92650000Y-107890000D01*
X97790000Y-110550000D02*
X92650000Y-110550000D01*
X97790000Y-107890000D02*
X97790000Y-110550000D01*
X99060000Y-107890000D02*
X100390000Y-107890000D01*
X100390000Y-107890000D02*
X100390000Y-109220000D01*
G04 #@! TO.C,JP1*
X116900000Y-81340000D02*
X116900000Y-78680000D01*
X111760000Y-81340000D02*
X116900000Y-81340000D01*
X111760000Y-78680000D02*
X116900000Y-78680000D01*
X111760000Y-81340000D02*
X111760000Y-78680000D01*
X110490000Y-81340000D02*
X109160000Y-81340000D01*
X109160000Y-81340000D02*
X109160000Y-80010000D01*
G04 #@! TO.C,J3*
D11*
X134286666Y-70572380D02*
X134286666Y-71286666D01*
X134239047Y-71429523D01*
X134143809Y-71524761D01*
X134000952Y-71572380D01*
X133905714Y-71572380D01*
X134667619Y-70572380D02*
X135286666Y-70572380D01*
X134953333Y-70953333D01*
X135096190Y-70953333D01*
X135191428Y-71000952D01*
X135239047Y-71048571D01*
X135286666Y-71143809D01*
X135286666Y-71381904D01*
X135239047Y-71477142D01*
X135191428Y-71524761D01*
X135096190Y-71572380D01*
X134810476Y-71572380D01*
X134715238Y-71524761D01*
X134667619Y-71477142D01*
G04 #@! TO.C,J4*
X139366666Y-117562380D02*
X139366666Y-118276666D01*
X139319047Y-118419523D01*
X139223809Y-118514761D01*
X139080952Y-118562380D01*
X138985714Y-118562380D01*
X140271428Y-117895714D02*
X140271428Y-118562380D01*
X140033333Y-117514761D02*
X139795238Y-118229047D01*
X140414285Y-118229047D01*
G04 #@! TO.C,J2*
X120316666Y-117562380D02*
X120316666Y-118276666D01*
X120269047Y-118419523D01*
X120173809Y-118514761D01*
X120030952Y-118562380D01*
X119935714Y-118562380D01*
X120745238Y-117657619D02*
X120792857Y-117610000D01*
X120888095Y-117562380D01*
X121126190Y-117562380D01*
X121221428Y-117610000D01*
X121269047Y-117657619D01*
X121316666Y-117752857D01*
X121316666Y-117848095D01*
X121269047Y-117990952D01*
X120697619Y-118562380D01*
X121316666Y-118562380D01*
G04 #@! TO.C,R4*
X140152380Y-80176666D02*
X139676190Y-80510000D01*
X140152380Y-80748095D02*
X139152380Y-80748095D01*
X139152380Y-80367142D01*
X139200000Y-80271904D01*
X139247619Y-80224285D01*
X139342857Y-80176666D01*
X139485714Y-80176666D01*
X139580952Y-80224285D01*
X139628571Y-80271904D01*
X139676190Y-80367142D01*
X139676190Y-80748095D01*
X139485714Y-79319523D02*
X140152380Y-79319523D01*
X139104761Y-79557619D02*
X139819047Y-79795714D01*
X139819047Y-79176666D01*
G04 #@! TO.C,R3*
X142692380Y-80176666D02*
X142216190Y-80510000D01*
X142692380Y-80748095D02*
X141692380Y-80748095D01*
X141692380Y-80367142D01*
X141740000Y-80271904D01*
X141787619Y-80224285D01*
X141882857Y-80176666D01*
X142025714Y-80176666D01*
X142120952Y-80224285D01*
X142168571Y-80271904D01*
X142216190Y-80367142D01*
X142216190Y-80748095D01*
X141692380Y-79843333D02*
X141692380Y-79224285D01*
X142073333Y-79557619D01*
X142073333Y-79414761D01*
X142120952Y-79319523D01*
X142168571Y-79271904D01*
X142263809Y-79224285D01*
X142501904Y-79224285D01*
X142597142Y-79271904D01*
X142644761Y-79319523D01*
X142692380Y-79414761D01*
X142692380Y-79700476D01*
X142644761Y-79795714D01*
X142597142Y-79843333D01*
G04 #@! TO.C,R2*
X145232380Y-80176666D02*
X144756190Y-80510000D01*
X145232380Y-80748095D02*
X144232380Y-80748095D01*
X144232380Y-80367142D01*
X144280000Y-80271904D01*
X144327619Y-80224285D01*
X144422857Y-80176666D01*
X144565714Y-80176666D01*
X144660952Y-80224285D01*
X144708571Y-80271904D01*
X144756190Y-80367142D01*
X144756190Y-80748095D01*
X144327619Y-79795714D02*
X144280000Y-79748095D01*
X144232380Y-79652857D01*
X144232380Y-79414761D01*
X144280000Y-79319523D01*
X144327619Y-79271904D01*
X144422857Y-79224285D01*
X144518095Y-79224285D01*
X144660952Y-79271904D01*
X145232380Y-79843333D01*
X145232380Y-79224285D01*
G04 #@! TO.C,J1*
X115871666Y-70572380D02*
X115871666Y-71286666D01*
X115824047Y-71429523D01*
X115728809Y-71524761D01*
X115585952Y-71572380D01*
X115490714Y-71572380D01*
X116871666Y-71572380D02*
X116300238Y-71572380D01*
X116585952Y-71572380D02*
X116585952Y-70572380D01*
X116490714Y-70715238D01*
X116395476Y-70810476D01*
X116300238Y-70858095D01*
G04 #@! TO.C,R6*
X135072380Y-80176666D02*
X134596190Y-80510000D01*
X135072380Y-80748095D02*
X134072380Y-80748095D01*
X134072380Y-80367142D01*
X134120000Y-80271904D01*
X134167619Y-80224285D01*
X134262857Y-80176666D01*
X134405714Y-80176666D01*
X134500952Y-80224285D01*
X134548571Y-80271904D01*
X134596190Y-80367142D01*
X134596190Y-80748095D01*
X134072380Y-79319523D02*
X134072380Y-79510000D01*
X134120000Y-79605238D01*
X134167619Y-79652857D01*
X134310476Y-79748095D01*
X134500952Y-79795714D01*
X134881904Y-79795714D01*
X134977142Y-79748095D01*
X135024761Y-79700476D01*
X135072380Y-79605238D01*
X135072380Y-79414761D01*
X135024761Y-79319523D01*
X134977142Y-79271904D01*
X134881904Y-79224285D01*
X134643809Y-79224285D01*
X134548571Y-79271904D01*
X134500952Y-79319523D01*
X134453333Y-79414761D01*
X134453333Y-79605238D01*
X134500952Y-79700476D01*
X134548571Y-79748095D01*
X134643809Y-79795714D01*
G04 #@! TO.C,R8*
X129992380Y-80176666D02*
X129516190Y-80510000D01*
X129992380Y-80748095D02*
X128992380Y-80748095D01*
X128992380Y-80367142D01*
X129040000Y-80271904D01*
X129087619Y-80224285D01*
X129182857Y-80176666D01*
X129325714Y-80176666D01*
X129420952Y-80224285D01*
X129468571Y-80271904D01*
X129516190Y-80367142D01*
X129516190Y-80748095D01*
X129420952Y-79605238D02*
X129373333Y-79700476D01*
X129325714Y-79748095D01*
X129230476Y-79795714D01*
X129182857Y-79795714D01*
X129087619Y-79748095D01*
X129040000Y-79700476D01*
X128992380Y-79605238D01*
X128992380Y-79414761D01*
X129040000Y-79319523D01*
X129087619Y-79271904D01*
X129182857Y-79224285D01*
X129230476Y-79224285D01*
X129325714Y-79271904D01*
X129373333Y-79319523D01*
X129420952Y-79414761D01*
X129420952Y-79605238D01*
X129468571Y-79700476D01*
X129516190Y-79748095D01*
X129611428Y-79795714D01*
X129801904Y-79795714D01*
X129897142Y-79748095D01*
X129944761Y-79700476D01*
X129992380Y-79605238D01*
X129992380Y-79414761D01*
X129944761Y-79319523D01*
X129897142Y-79271904D01*
X129801904Y-79224285D01*
X129611428Y-79224285D01*
X129516190Y-79271904D01*
X129468571Y-79319523D01*
X129420952Y-79414761D01*
G04 #@! TO.C,R9*
X127452380Y-80176666D02*
X126976190Y-80510000D01*
X127452380Y-80748095D02*
X126452380Y-80748095D01*
X126452380Y-80367142D01*
X126500000Y-80271904D01*
X126547619Y-80224285D01*
X126642857Y-80176666D01*
X126785714Y-80176666D01*
X126880952Y-80224285D01*
X126928571Y-80271904D01*
X126976190Y-80367142D01*
X126976190Y-80748095D01*
X127452380Y-79700476D02*
X127452380Y-79510000D01*
X127404761Y-79414761D01*
X127357142Y-79367142D01*
X127214285Y-79271904D01*
X127023809Y-79224285D01*
X126642857Y-79224285D01*
X126547619Y-79271904D01*
X126500000Y-79319523D01*
X126452380Y-79414761D01*
X126452380Y-79605238D01*
X126500000Y-79700476D01*
X126547619Y-79748095D01*
X126642857Y-79795714D01*
X126880952Y-79795714D01*
X126976190Y-79748095D01*
X127023809Y-79700476D01*
X127071428Y-79605238D01*
X127071428Y-79414761D01*
X127023809Y-79319523D01*
X126976190Y-79271904D01*
X126880952Y-79224285D01*
G04 #@! TO.C,R7*
X132532380Y-80176666D02*
X132056190Y-80510000D01*
X132532380Y-80748095D02*
X131532380Y-80748095D01*
X131532380Y-80367142D01*
X131580000Y-80271904D01*
X131627619Y-80224285D01*
X131722857Y-80176666D01*
X131865714Y-80176666D01*
X131960952Y-80224285D01*
X132008571Y-80271904D01*
X132056190Y-80367142D01*
X132056190Y-80748095D01*
X131532380Y-79843333D02*
X131532380Y-79176666D01*
X132532380Y-79605238D01*
G04 #@! TO.C,R5*
X137612380Y-80176666D02*
X137136190Y-80510000D01*
X137612380Y-80748095D02*
X136612380Y-80748095D01*
X136612380Y-80367142D01*
X136660000Y-80271904D01*
X136707619Y-80224285D01*
X136802857Y-80176666D01*
X136945714Y-80176666D01*
X137040952Y-80224285D01*
X137088571Y-80271904D01*
X137136190Y-80367142D01*
X137136190Y-80748095D01*
X136612380Y-79271904D02*
X136612380Y-79748095D01*
X137088571Y-79795714D01*
X137040952Y-79748095D01*
X136993333Y-79652857D01*
X136993333Y-79414761D01*
X137040952Y-79319523D01*
X137088571Y-79271904D01*
X137183809Y-79224285D01*
X137421904Y-79224285D01*
X137517142Y-79271904D01*
X137564761Y-79319523D01*
X137612380Y-79414761D01*
X137612380Y-79652857D01*
X137564761Y-79748095D01*
X137517142Y-79795714D01*
G04 #@! TO.C,R1*
X121118333Y-77922380D02*
X120785000Y-77446190D01*
X120546904Y-77922380D02*
X120546904Y-76922380D01*
X120927857Y-76922380D01*
X121023095Y-76970000D01*
X121070714Y-77017619D01*
X121118333Y-77112857D01*
X121118333Y-77255714D01*
X121070714Y-77350952D01*
X121023095Y-77398571D01*
X120927857Y-77446190D01*
X120546904Y-77446190D01*
X122070714Y-77922380D02*
X121499285Y-77922380D01*
X121785000Y-77922380D02*
X121785000Y-76922380D01*
X121689761Y-77065238D01*
X121594523Y-77160476D01*
X121499285Y-77208095D01*
G04 #@! TO.C,U3*
X123698095Y-92162380D02*
X123698095Y-92971904D01*
X123745714Y-93067142D01*
X123793333Y-93114761D01*
X123888571Y-93162380D01*
X124079047Y-93162380D01*
X124174285Y-93114761D01*
X124221904Y-93067142D01*
X124269523Y-92971904D01*
X124269523Y-92162380D01*
X124650476Y-92162380D02*
X125269523Y-92162380D01*
X124936190Y-92543333D01*
X125079047Y-92543333D01*
X125174285Y-92590952D01*
X125221904Y-92638571D01*
X125269523Y-92733809D01*
X125269523Y-92971904D01*
X125221904Y-93067142D01*
X125174285Y-93114761D01*
X125079047Y-93162380D01*
X124793333Y-93162380D01*
X124698095Y-93114761D01*
X124650476Y-93067142D01*
G04 #@! TO.C,C3*
X107037142Y-77636666D02*
X107084761Y-77684285D01*
X107132380Y-77827142D01*
X107132380Y-77922380D01*
X107084761Y-78065238D01*
X106989523Y-78160476D01*
X106894285Y-78208095D01*
X106703809Y-78255714D01*
X106560952Y-78255714D01*
X106370476Y-78208095D01*
X106275238Y-78160476D01*
X106180000Y-78065238D01*
X106132380Y-77922380D01*
X106132380Y-77827142D01*
X106180000Y-77684285D01*
X106227619Y-77636666D01*
X106132380Y-77303333D02*
X106132380Y-76684285D01*
X106513333Y-77017619D01*
X106513333Y-76874761D01*
X106560952Y-76779523D01*
X106608571Y-76731904D01*
X106703809Y-76684285D01*
X106941904Y-76684285D01*
X107037142Y-76731904D01*
X107084761Y-76779523D01*
X107132380Y-76874761D01*
X107132380Y-77160476D01*
X107084761Y-77255714D01*
X107037142Y-77303333D01*
G04 #@! TO.C,C2*
X100687142Y-77596666D02*
X100734761Y-77644285D01*
X100782380Y-77787142D01*
X100782380Y-77882380D01*
X100734761Y-78025238D01*
X100639523Y-78120476D01*
X100544285Y-78168095D01*
X100353809Y-78215714D01*
X100210952Y-78215714D01*
X100020476Y-78168095D01*
X99925238Y-78120476D01*
X99830000Y-78025238D01*
X99782380Y-77882380D01*
X99782380Y-77787142D01*
X99830000Y-77644285D01*
X99877619Y-77596666D01*
X99877619Y-77215714D02*
X99830000Y-77168095D01*
X99782380Y-77072857D01*
X99782380Y-76834761D01*
X99830000Y-76739523D01*
X99877619Y-76691904D01*
X99972857Y-76644285D01*
X100068095Y-76644285D01*
X100210952Y-76691904D01*
X100782380Y-77263333D01*
X100782380Y-76644285D01*
G04 #@! TO.C,C1*
X133707142Y-109426666D02*
X133754761Y-109474285D01*
X133802380Y-109617142D01*
X133802380Y-109712380D01*
X133754761Y-109855238D01*
X133659523Y-109950476D01*
X133564285Y-109998095D01*
X133373809Y-110045714D01*
X133230952Y-110045714D01*
X133040476Y-109998095D01*
X132945238Y-109950476D01*
X132850000Y-109855238D01*
X132802380Y-109712380D01*
X132802380Y-109617142D01*
X132850000Y-109474285D01*
X132897619Y-109426666D01*
X133802380Y-108474285D02*
X133802380Y-109045714D01*
X133802380Y-108760000D02*
X132802380Y-108760000D01*
X132945238Y-108855238D01*
X133040476Y-108950476D01*
X133088095Y-109045714D01*
G04 #@! TO.C,U2*
X118618095Y-108672380D02*
X118618095Y-109481904D01*
X118665714Y-109577142D01*
X118713333Y-109624761D01*
X118808571Y-109672380D01*
X118999047Y-109672380D01*
X119094285Y-109624761D01*
X119141904Y-109577142D01*
X119189523Y-109481904D01*
X119189523Y-108672380D01*
X119618095Y-108767619D02*
X119665714Y-108720000D01*
X119760952Y-108672380D01*
X119999047Y-108672380D01*
X120094285Y-108720000D01*
X120141904Y-108767619D01*
X120189523Y-108862857D01*
X120189523Y-108958095D01*
X120141904Y-109100952D01*
X119570476Y-109672380D01*
X120189523Y-109672380D01*
G04 #@! TO.C,U1*
X97242380Y-94741904D02*
X98051904Y-94741904D01*
X98147142Y-94694285D01*
X98194761Y-94646666D01*
X98242380Y-94551428D01*
X98242380Y-94360952D01*
X98194761Y-94265714D01*
X98147142Y-94218095D01*
X98051904Y-94170476D01*
X97242380Y-94170476D01*
X98242380Y-93170476D02*
X98242380Y-93741904D01*
X98242380Y-93456190D02*
X97242380Y-93456190D01*
X97385238Y-93551428D01*
X97480476Y-93646666D01*
X97528095Y-93741904D01*
G04 #@! TO.C,JP2*
X100842380Y-110053333D02*
X101556666Y-110053333D01*
X101699523Y-110100952D01*
X101794761Y-110196190D01*
X101842380Y-110339047D01*
X101842380Y-110434285D01*
X101842380Y-109577142D02*
X100842380Y-109577142D01*
X100842380Y-109196190D01*
X100890000Y-109100952D01*
X100937619Y-109053333D01*
X101032857Y-109005714D01*
X101175714Y-109005714D01*
X101270952Y-109053333D01*
X101318571Y-109100952D01*
X101366190Y-109196190D01*
X101366190Y-109577142D01*
X100937619Y-108624761D02*
X100890000Y-108577142D01*
X100842380Y-108481904D01*
X100842380Y-108243809D01*
X100890000Y-108148571D01*
X100937619Y-108100952D01*
X101032857Y-108053333D01*
X101128095Y-108053333D01*
X101270952Y-108100952D01*
X101842380Y-108672380D01*
X101842380Y-108053333D01*
G04 #@! TO.C,JP1*
X112196666Y-76922380D02*
X112196666Y-77636666D01*
X112149047Y-77779523D01*
X112053809Y-77874761D01*
X111910952Y-77922380D01*
X111815714Y-77922380D01*
X112672857Y-77922380D02*
X112672857Y-76922380D01*
X113053809Y-76922380D01*
X113149047Y-76970000D01*
X113196666Y-77017619D01*
X113244285Y-77112857D01*
X113244285Y-77255714D01*
X113196666Y-77350952D01*
X113149047Y-77398571D01*
X113053809Y-77446190D01*
X112672857Y-77446190D01*
X114196666Y-77922380D02*
X113625238Y-77922380D01*
X113910952Y-77922380D02*
X113910952Y-76922380D01*
X113815714Y-77065238D01*
X113720476Y-77160476D01*
X113625238Y-77208095D01*
G04 #@! TD*
%LPC*%
D12*
G04 #@! TO.C,J3*
X127000000Y-71120000D03*
X129540000Y-71120000D03*
X132080000Y-71120000D03*
X134620000Y-71120000D03*
X137160000Y-71120000D03*
X139700000Y-71120000D03*
X142240000Y-71120000D03*
D13*
X144780000Y-71120000D03*
G04 #@! TD*
D12*
G04 #@! TO.C,J4*
X144780000Y-120650000D03*
X142240000Y-120650000D03*
X139700000Y-120650000D03*
X137160000Y-120650000D03*
X134620000Y-120650000D03*
D13*
X132080000Y-120650000D03*
G04 #@! TD*
D12*
G04 #@! TO.C,J2*
X114300000Y-120650000D03*
X116840000Y-120650000D03*
X119380000Y-120650000D03*
X121920000Y-120650000D03*
X124460000Y-120650000D03*
D13*
X127000000Y-120650000D03*
G04 #@! TD*
D14*
G04 #@! TO.C,R4*
X139700000Y-77470000D03*
D15*
X139700000Y-74930000D03*
G04 #@! TD*
D14*
G04 #@! TO.C,R3*
X142240000Y-77470000D03*
D15*
X142240000Y-74930000D03*
G04 #@! TD*
D14*
G04 #@! TO.C,R2*
X144780000Y-77470000D03*
D15*
X144780000Y-74930000D03*
G04 #@! TD*
D12*
G04 #@! TO.C,J1*
X122555000Y-71120000D03*
X120015000Y-71120000D03*
X117475000Y-71120000D03*
X114935000Y-71120000D03*
X112395000Y-71120000D03*
X109855000Y-71120000D03*
D13*
X107315000Y-71120000D03*
G04 #@! TD*
D14*
G04 #@! TO.C,R6*
X134620000Y-77470000D03*
D15*
X134620000Y-74930000D03*
G04 #@! TD*
D14*
G04 #@! TO.C,R8*
X129540000Y-77470000D03*
D15*
X129540000Y-74930000D03*
G04 #@! TD*
D14*
G04 #@! TO.C,R9*
X127000000Y-77470000D03*
D15*
X127000000Y-74930000D03*
G04 #@! TD*
D14*
G04 #@! TO.C,R7*
X132080000Y-77470000D03*
D15*
X132080000Y-74930000D03*
G04 #@! TD*
D14*
G04 #@! TO.C,R5*
X137160000Y-77470000D03*
D15*
X137160000Y-74930000D03*
G04 #@! TD*
D16*
G04 #@! TO.C,R1*
X123825000Y-76200000D03*
D17*
X118745000Y-76200000D03*
G04 #@! TD*
D18*
G04 #@! TO.C,U3*
X107950000Y-85090000D03*
X140970000Y-100330000D03*
X110490000Y-85090000D03*
X138430000Y-100330000D03*
X113030000Y-85090000D03*
X135890000Y-100330000D03*
X115570000Y-85090000D03*
X133350000Y-100330000D03*
X118110000Y-85090000D03*
X130810000Y-100330000D03*
X120650000Y-85090000D03*
X128270000Y-100330000D03*
X123190000Y-85090000D03*
X125730000Y-100330000D03*
X125730000Y-85090000D03*
X123190000Y-100330000D03*
X128270000Y-85090000D03*
X120650000Y-100330000D03*
X130810000Y-85090000D03*
X118110000Y-100330000D03*
X133350000Y-85090000D03*
X115570000Y-100330000D03*
X135890000Y-85090000D03*
X113030000Y-100330000D03*
X138430000Y-85090000D03*
X110490000Y-100330000D03*
X140970000Y-85090000D03*
D19*
X107950000Y-100330000D03*
G04 #@! TD*
D17*
G04 #@! TO.C,C3*
X105410000Y-79970000D03*
D20*
X105410000Y-77470000D03*
G04 #@! TD*
D17*
G04 #@! TO.C,C2*
X100330000Y-79930000D03*
X100330000Y-74930000D03*
G04 #@! TD*
G04 #@! TO.C,C1*
X133350000Y-106760000D03*
X133350000Y-111760000D03*
G04 #@! TD*
D18*
G04 #@! TO.C,U2*
X128270000Y-113030000D03*
X110490000Y-105410000D03*
X125730000Y-113030000D03*
X113030000Y-105410000D03*
X123190000Y-113030000D03*
X115570000Y-105410000D03*
X120650000Y-113030000D03*
X118110000Y-105410000D03*
X118110000Y-113030000D03*
X120650000Y-105410000D03*
X115570000Y-113030000D03*
X123190000Y-105410000D03*
X113030000Y-113030000D03*
X125730000Y-105410000D03*
X110490000Y-113030000D03*
D19*
X128270000Y-105410000D03*
G04 #@! TD*
D21*
G04 #@! TO.C,U1*
X93980000Y-102870000D03*
X101600000Y-85090000D03*
X93980000Y-100330000D03*
X101600000Y-87630000D03*
X93980000Y-97790000D03*
X101600000Y-90170000D03*
X93980000Y-95250000D03*
X101600000Y-92710000D03*
X93980000Y-92710000D03*
X101600000Y-95250000D03*
X93980000Y-90170000D03*
X101600000Y-97790000D03*
X93980000Y-87630000D03*
X101600000Y-100330000D03*
X93980000Y-85090000D03*
D22*
X101600000Y-102870000D03*
G04 #@! TD*
D12*
G04 #@! TO.C,JP2*
X93980000Y-109220000D03*
X96520000Y-109220000D03*
D13*
X99060000Y-109220000D03*
G04 #@! TD*
D12*
G04 #@! TO.C,JP1*
X115570000Y-80010000D03*
X113030000Y-80010000D03*
D13*
X110490000Y-80010000D03*
G04 #@! TD*
M02*
