G04 #@! TF.GenerationSoftware,KiCad,Pcbnew,(5.1.12)-1*
G04 #@! TF.CreationDate,2022-05-08T19:14:48+02:00*
G04 #@! TF.ProjectId,EPROM-Shield,4550524f-4d2d-4536-9869-656c642e6b69,rev?*
G04 #@! TF.SameCoordinates,Original*
G04 #@! TF.FileFunction,Copper,L2,Bot*
G04 #@! TF.FilePolarity,Positive*
%FSLAX46Y46*%
G04 Gerber Fmt 4.6, Leading zero omitted, Abs format (unit mm)*
G04 Created by KiCad (PCBNEW (5.1.12)-1) date 2022-05-08 19:14:48*
%MOMM*%
%LPD*%
G01*
G04 APERTURE LIST*
G04 #@! TA.AperFunction,ComponentPad*
%ADD10O,1.600000X2.400000*%
G04 #@! TD*
G04 #@! TA.AperFunction,ComponentPad*
%ADD11R,1.600000X2.400000*%
G04 #@! TD*
G04 #@! TA.AperFunction,ComponentPad*
%ADD12C,1.600000*%
G04 #@! TD*
G04 #@! TA.AperFunction,ComponentPad*
%ADD13R,1.600000X1.600000*%
G04 #@! TD*
G04 #@! TA.AperFunction,ComponentPad*
%ADD14O,1.600000X1.600000*%
G04 #@! TD*
G04 #@! TA.AperFunction,ComponentPad*
%ADD15O,1.700000X1.700000*%
G04 #@! TD*
G04 #@! TA.AperFunction,ComponentPad*
%ADD16R,1.700000X1.700000*%
G04 #@! TD*
G04 #@! TA.AperFunction,ComponentPad*
%ADD17O,2.400000X1.600000*%
G04 #@! TD*
G04 #@! TA.AperFunction,ComponentPad*
%ADD18R,2.400000X1.600000*%
G04 #@! TD*
G04 #@! TA.AperFunction,ComponentPad*
%ADD19O,1.400000X1.400000*%
G04 #@! TD*
G04 #@! TA.AperFunction,ComponentPad*
%ADD20C,1.400000*%
G04 #@! TD*
G04 #@! TA.AperFunction,ViaPad*
%ADD21C,0.800000*%
G04 #@! TD*
G04 #@! TA.AperFunction,Conductor*
%ADD22C,0.500000*%
G04 #@! TD*
G04 #@! TA.AperFunction,Conductor*
%ADD23C,0.750000*%
G04 #@! TD*
G04 #@! TA.AperFunction,Conductor*
%ADD24C,0.254000*%
G04 #@! TD*
G04 #@! TA.AperFunction,Conductor*
%ADD25C,0.100000*%
G04 #@! TD*
G04 APERTURE END LIST*
D10*
G04 #@! TO.P,U3,28*
G04 #@! TO.N,VCC*
X107950000Y-85090000D03*
G04 #@! TO.P,U3,14*
G04 #@! TO.N,GND*
X140970000Y-100330000D03*
G04 #@! TO.P,U3,27*
G04 #@! TO.N,/WE*
X110490000Y-85090000D03*
G04 #@! TO.P,U3,13*
G04 #@! TO.N,Net-(R4-Pad2)*
X138430000Y-100330000D03*
G04 #@! TO.P,U3,26*
G04 #@! TO.N,/A13*
X113030000Y-85090000D03*
G04 #@! TO.P,U3,12*
G04 #@! TO.N,Net-(R3-Pad2)*
X135890000Y-100330000D03*
G04 #@! TO.P,U3,25*
G04 #@! TO.N,/A8*
X115570000Y-85090000D03*
G04 #@! TO.P,U3,11*
G04 #@! TO.N,Net-(R2-Pad2)*
X133350000Y-100330000D03*
G04 #@! TO.P,U3,24*
G04 #@! TO.N,/A9*
X118110000Y-85090000D03*
G04 #@! TO.P,U3,10*
G04 #@! TO.N,/A0*
X130810000Y-100330000D03*
G04 #@! TO.P,U3,23*
G04 #@! TO.N,/A11*
X120650000Y-85090000D03*
G04 #@! TO.P,U3,9*
G04 #@! TO.N,/A1*
X128270000Y-100330000D03*
G04 #@! TO.P,U3,22*
G04 #@! TO.N,/OE*
X123190000Y-85090000D03*
G04 #@! TO.P,U3,8*
G04 #@! TO.N,/A2*
X125730000Y-100330000D03*
G04 #@! TO.P,U3,21*
G04 #@! TO.N,/A10*
X125730000Y-85090000D03*
G04 #@! TO.P,U3,7*
G04 #@! TO.N,/A3*
X123190000Y-100330000D03*
G04 #@! TO.P,U3,20*
G04 #@! TO.N,/CS*
X128270000Y-85090000D03*
G04 #@! TO.P,U3,6*
G04 #@! TO.N,/A4*
X120650000Y-100330000D03*
G04 #@! TO.P,U3,19*
G04 #@! TO.N,Net-(R9-Pad2)*
X130810000Y-85090000D03*
G04 #@! TO.P,U3,5*
G04 #@! TO.N,/A5*
X118110000Y-100330000D03*
G04 #@! TO.P,U3,18*
G04 #@! TO.N,Net-(R8-Pad2)*
X133350000Y-85090000D03*
G04 #@! TO.P,U3,4*
G04 #@! TO.N,/A6*
X115570000Y-100330000D03*
G04 #@! TO.P,U3,17*
G04 #@! TO.N,Net-(R7-Pad2)*
X135890000Y-85090000D03*
G04 #@! TO.P,U3,3*
G04 #@! TO.N,/A7*
X113030000Y-100330000D03*
G04 #@! TO.P,U3,16*
G04 #@! TO.N,Net-(R6-Pad2)*
X138430000Y-85090000D03*
G04 #@! TO.P,U3,2*
G04 #@! TO.N,/A12*
X110490000Y-100330000D03*
G04 #@! TO.P,U3,15*
G04 #@! TO.N,Net-(R5-Pad2)*
X140970000Y-85090000D03*
D11*
G04 #@! TO.P,U3,1*
G04 #@! TO.N,/A14*
X107950000Y-100330000D03*
G04 #@! TD*
D12*
G04 #@! TO.P,C3,2*
G04 #@! TO.N,GND*
X105410000Y-79970000D03*
D13*
G04 #@! TO.P,C3,1*
G04 #@! TO.N,VCC*
X105410000Y-77470000D03*
G04 #@! TD*
D14*
G04 #@! TO.P,R1,2*
G04 #@! TO.N,VCC*
X125730000Y-76200000D03*
D12*
G04 #@! TO.P,R1,1*
G04 #@! TO.N,Net-(J1-Pad6)*
X120650000Y-76200000D03*
G04 #@! TD*
G04 #@! TO.P,C2,2*
G04 #@! TO.N,GND*
X100330000Y-79930000D03*
G04 #@! TO.P,C2,1*
G04 #@! TO.N,VCC*
X100330000Y-74930000D03*
G04 #@! TD*
G04 #@! TO.P,C1,2*
G04 #@! TO.N,GND*
X133350000Y-106760000D03*
G04 #@! TO.P,C1,1*
G04 #@! TO.N,VCC*
X133350000Y-111760000D03*
G04 #@! TD*
D15*
G04 #@! TO.P,J1,7*
G04 #@! TO.N,Net-(J1-Pad7)*
X125095000Y-71120000D03*
G04 #@! TO.P,J1,6*
G04 #@! TO.N,Net-(J1-Pad6)*
X122555000Y-71120000D03*
G04 #@! TO.P,J1,5*
G04 #@! TO.N,Net-(J1-Pad5)*
X120015000Y-71120000D03*
G04 #@! TO.P,J1,4*
G04 #@! TO.N,Net-(J1-Pad4)*
X117475000Y-71120000D03*
G04 #@! TO.P,J1,3*
G04 #@! TO.N,Net-(J1-Pad3)*
X114935000Y-71120000D03*
G04 #@! TO.P,J1,2*
G04 #@! TO.N,Net-(J1-Pad2)*
X112395000Y-71120000D03*
D16*
G04 #@! TO.P,J1,1*
G04 #@! TO.N,Net-(J1-Pad1)*
X109855000Y-71120000D03*
G04 #@! TD*
D10*
G04 #@! TO.P,U2,16*
G04 #@! TO.N,VCC*
X128270000Y-113030000D03*
G04 #@! TO.P,U2,8*
G04 #@! TO.N,GND*
X110490000Y-105410000D03*
G04 #@! TO.P,U2,15*
G04 #@! TO.N,/A0*
X125730000Y-113030000D03*
G04 #@! TO.P,U2,7*
G04 #@! TO.N,/A7*
X113030000Y-105410000D03*
G04 #@! TO.P,U2,14*
G04 #@! TO.N,Net-(U1-Pad9)*
X123190000Y-113030000D03*
G04 #@! TO.P,U2,6*
G04 #@! TO.N,/A6*
X115570000Y-105410000D03*
G04 #@! TO.P,U2,13*
G04 #@! TO.N,Net-(J1-Pad6)*
X120650000Y-113030000D03*
G04 #@! TO.P,U2,5*
G04 #@! TO.N,/A5*
X118110000Y-105410000D03*
G04 #@! TO.P,U2,12*
G04 #@! TO.N,Net-(J1-Pad5)*
X118110000Y-113030000D03*
G04 #@! TO.P,U2,4*
G04 #@! TO.N,/A4*
X120650000Y-105410000D03*
G04 #@! TO.P,U2,11*
G04 #@! TO.N,Net-(J1-Pad4)*
X115570000Y-113030000D03*
G04 #@! TO.P,U2,3*
G04 #@! TO.N,/A3*
X123190000Y-105410000D03*
G04 #@! TO.P,U2,10*
G04 #@! TO.N,VCC*
X113030000Y-113030000D03*
G04 #@! TO.P,U2,2*
G04 #@! TO.N,/A2*
X125730000Y-105410000D03*
G04 #@! TO.P,U2,9*
G04 #@! TO.N,Net-(U2-Pad9)*
X110490000Y-113030000D03*
D11*
G04 #@! TO.P,U2,1*
G04 #@! TO.N,/A1*
X128270000Y-105410000D03*
G04 #@! TD*
D17*
G04 #@! TO.P,U1,16*
G04 #@! TO.N,VCC*
X93980000Y-102870000D03*
G04 #@! TO.P,U1,8*
G04 #@! TO.N,GND*
X101600000Y-85090000D03*
G04 #@! TO.P,U1,15*
G04 #@! TO.N,/A8*
X93980000Y-100330000D03*
G04 #@! TO.P,U1,7*
G04 #@! TO.N,/CS*
X101600000Y-87630000D03*
G04 #@! TO.P,U1,14*
G04 #@! TO.N,Net-(J1-Pad7)*
X93980000Y-97790000D03*
G04 #@! TO.P,U1,6*
G04 #@! TO.N,/OE*
X101600000Y-90170000D03*
G04 #@! TO.P,U1,13*
G04 #@! TO.N,Net-(J1-Pad6)*
X93980000Y-95250000D03*
G04 #@! TO.P,U1,5*
G04 #@! TO.N,/WE*
X101600000Y-92710000D03*
G04 #@! TO.P,U1,12*
G04 #@! TO.N,Net-(J1-Pad5)*
X93980000Y-92710000D03*
G04 #@! TO.P,U1,4*
G04 #@! TO.N,/A12*
X101600000Y-95250000D03*
G04 #@! TO.P,U1,11*
G04 #@! TO.N,Net-(J1-Pad4)*
X93980000Y-90170000D03*
G04 #@! TO.P,U1,3*
G04 #@! TO.N,/A11*
X101600000Y-97790000D03*
G04 #@! TO.P,U1,10*
G04 #@! TO.N,VCC*
X93980000Y-87630000D03*
G04 #@! TO.P,U1,2*
G04 #@! TO.N,/A10*
X101600000Y-100330000D03*
G04 #@! TO.P,U1,9*
G04 #@! TO.N,Net-(U1-Pad9)*
X93980000Y-85090000D03*
D18*
G04 #@! TO.P,U1,1*
G04 #@! TO.N,/A9*
X101600000Y-102870000D03*
G04 #@! TD*
D19*
G04 #@! TO.P,R9,2*
G04 #@! TO.N,Net-(R9-Pad2)*
X147320000Y-77470000D03*
D20*
G04 #@! TO.P,R9,1*
G04 #@! TO.N,/D7*
X147320000Y-74930000D03*
G04 #@! TD*
D19*
G04 #@! TO.P,R8,2*
G04 #@! TO.N,Net-(R8-Pad2)*
X144780000Y-77470000D03*
D20*
G04 #@! TO.P,R8,1*
G04 #@! TO.N,/D6*
X144780000Y-74930000D03*
G04 #@! TD*
D19*
G04 #@! TO.P,R7,2*
G04 #@! TO.N,Net-(R7-Pad2)*
X142240000Y-77470000D03*
D20*
G04 #@! TO.P,R7,1*
G04 #@! TO.N,/D5*
X142240000Y-74930000D03*
G04 #@! TD*
D19*
G04 #@! TO.P,R6,2*
G04 #@! TO.N,Net-(R6-Pad2)*
X139700000Y-77470000D03*
D20*
G04 #@! TO.P,R6,1*
G04 #@! TO.N,/D4*
X139700000Y-74930000D03*
G04 #@! TD*
D19*
G04 #@! TO.P,R5,2*
G04 #@! TO.N,Net-(R5-Pad2)*
X137160000Y-77470000D03*
D20*
G04 #@! TO.P,R5,1*
G04 #@! TO.N,/D3*
X137160000Y-74930000D03*
G04 #@! TD*
D19*
G04 #@! TO.P,R4,2*
G04 #@! TO.N,Net-(R4-Pad2)*
X134620000Y-77470000D03*
D20*
G04 #@! TO.P,R4,1*
G04 #@! TO.N,/D2*
X134620000Y-74930000D03*
G04 #@! TD*
D19*
G04 #@! TO.P,R3,2*
G04 #@! TO.N,Net-(R3-Pad2)*
X132080000Y-77470000D03*
D20*
G04 #@! TO.P,R3,1*
G04 #@! TO.N,/D1*
X132080000Y-74930000D03*
G04 #@! TD*
D19*
G04 #@! TO.P,R2,2*
G04 #@! TO.N,Net-(R2-Pad2)*
X129540000Y-77470000D03*
D20*
G04 #@! TO.P,R2,1*
G04 #@! TO.N,/D0*
X129540000Y-74930000D03*
G04 #@! TD*
D15*
G04 #@! TO.P,JP2,3*
G04 #@! TO.N,VCC*
X93980000Y-109220000D03*
G04 #@! TO.P,JP2,2*
G04 #@! TO.N,/A14*
X96520000Y-109220000D03*
D16*
G04 #@! TO.P,JP2,1*
G04 #@! TO.N,GND*
X99060000Y-109220000D03*
G04 #@! TD*
D15*
G04 #@! TO.P,JP1,3*
G04 #@! TO.N,VCC*
X115570000Y-80010000D03*
G04 #@! TO.P,JP1,2*
G04 #@! TO.N,/A13*
X113030000Y-80010000D03*
D16*
G04 #@! TO.P,JP1,1*
G04 #@! TO.N,GND*
X110490000Y-80010000D03*
G04 #@! TD*
D15*
G04 #@! TO.P,J4,6*
G04 #@! TO.N,Net-(J4-Pad6)*
X147320000Y-120650000D03*
G04 #@! TO.P,J4,5*
G04 #@! TO.N,Net-(J4-Pad5)*
X144780000Y-120650000D03*
G04 #@! TO.P,J4,4*
G04 #@! TO.N,Net-(J4-Pad4)*
X142240000Y-120650000D03*
G04 #@! TO.P,J4,3*
G04 #@! TO.N,Net-(J4-Pad3)*
X139700000Y-120650000D03*
G04 #@! TO.P,J4,2*
G04 #@! TO.N,Net-(J4-Pad2)*
X137160000Y-120650000D03*
D16*
G04 #@! TO.P,J4,1*
G04 #@! TO.N,Net-(J4-Pad1)*
X134620000Y-120650000D03*
G04 #@! TD*
D15*
G04 #@! TO.P,J3,8*
G04 #@! TO.N,/D0*
X129540000Y-71120000D03*
G04 #@! TO.P,J3,7*
G04 #@! TO.N,/D1*
X132080000Y-71120000D03*
G04 #@! TO.P,J3,6*
G04 #@! TO.N,/D2*
X134620000Y-71120000D03*
G04 #@! TO.P,J3,5*
G04 #@! TO.N,/D3*
X137160000Y-71120000D03*
G04 #@! TO.P,J3,4*
G04 #@! TO.N,/D4*
X139700000Y-71120000D03*
G04 #@! TO.P,J3,3*
G04 #@! TO.N,/D5*
X142240000Y-71120000D03*
G04 #@! TO.P,J3,2*
G04 #@! TO.N,/D6*
X144780000Y-71120000D03*
D16*
G04 #@! TO.P,J3,1*
G04 #@! TO.N,/D7*
X147320000Y-71120000D03*
G04 #@! TD*
D15*
G04 #@! TO.P,J2,6*
G04 #@! TO.N,Net-(J2-Pad6)*
X116840000Y-120650000D03*
G04 #@! TO.P,J2,5*
G04 #@! TO.N,Net-(J2-Pad5)*
X119380000Y-120650000D03*
G04 #@! TO.P,J2,4*
G04 #@! TO.N,VCC*
X121920000Y-120650000D03*
G04 #@! TO.P,J2,3*
G04 #@! TO.N,GND*
X124460000Y-120650000D03*
G04 #@! TO.P,J2,2*
X127000000Y-120650000D03*
D16*
G04 #@! TO.P,J2,1*
G04 #@! TO.N,Net-(J2-Pad1)*
X129540000Y-120650000D03*
G04 #@! TD*
D21*
G04 #@! TO.N,/A8*
X109220000Y-90170000D03*
G04 #@! TO.N,/A9*
X106680000Y-92710000D03*
G04 #@! TD*
D22*
G04 #@! TO.N,Net-(J1-Pad6)*
X101600000Y-111760000D02*
X92710000Y-111760000D01*
X92710000Y-111760000D02*
X91440000Y-110490000D01*
X91440000Y-110490000D02*
X91440000Y-96520000D01*
X92710000Y-95250000D02*
X93980000Y-95250000D01*
X91440000Y-96520000D02*
X92710000Y-95250000D01*
X101600000Y-111760000D02*
X105410000Y-107950000D01*
X105410000Y-107950000D02*
X116840000Y-107950000D01*
X116840000Y-107950000D02*
X120650000Y-111760000D01*
X120650000Y-111760000D02*
X120650000Y-113030000D01*
X120650000Y-76200000D02*
X122555000Y-74295000D01*
X122555000Y-74295000D02*
X122555000Y-71120000D01*
G04 #@! TO.N,Net-(J1-Pad5)*
X93980000Y-92710000D02*
X95250000Y-92710000D01*
X95250000Y-92710000D02*
X97790000Y-90170000D01*
X97790000Y-90170000D02*
X97790000Y-73660000D01*
X97790000Y-73660000D02*
X99060000Y-72390000D01*
X99060000Y-72390000D02*
X104140000Y-72390000D01*
X104140000Y-72390000D02*
X106680000Y-74930000D01*
X102870000Y-113030000D02*
X91440000Y-113030000D01*
X91440000Y-113030000D02*
X90170000Y-111760000D01*
X90170000Y-111760000D02*
X90170000Y-95250000D01*
X92710000Y-92710000D02*
X93980000Y-92710000D01*
X90170000Y-95250000D02*
X92710000Y-92710000D01*
X102870000Y-113030000D02*
X106680000Y-109220000D01*
X106680000Y-109220000D02*
X115570000Y-109220000D01*
X115570000Y-109220000D02*
X118110000Y-111760000D01*
X118110000Y-111760000D02*
X118110000Y-113030000D01*
X106680000Y-74930000D02*
X117475000Y-74930000D01*
X117475000Y-74930000D02*
X120015000Y-72390000D01*
X120015000Y-72390000D02*
X120015000Y-71120000D01*
G04 #@! TO.N,Net-(J1-Pad4)*
X93980000Y-90170000D02*
X95250000Y-90170000D01*
X95250000Y-90170000D02*
X96520000Y-88900000D01*
X96520000Y-88900000D02*
X96520000Y-72390000D01*
X96520000Y-72390000D02*
X97790000Y-71120000D01*
X97790000Y-71120000D02*
X105410000Y-71120000D01*
X105410000Y-71120000D02*
X107950000Y-73660000D01*
X115570000Y-113030000D02*
X115570000Y-111760000D01*
X92710000Y-90170000D02*
X93980000Y-90170000D01*
X115570000Y-111760000D02*
X114300000Y-110490000D01*
X88900000Y-93980000D02*
X92710000Y-90170000D01*
X114300000Y-110490000D02*
X107950000Y-110490000D01*
X107950000Y-110490000D02*
X104140000Y-114300000D01*
X88900000Y-113030000D02*
X88900000Y-93980000D01*
X104140000Y-114300000D02*
X90170000Y-114300000D01*
X90170000Y-114300000D02*
X88900000Y-113030000D01*
X107950000Y-73660000D02*
X116205000Y-73660000D01*
X117475000Y-72390000D02*
X117475000Y-71120000D01*
X116205000Y-73660000D02*
X117475000Y-72390000D01*
D23*
G04 #@! TO.N,VCC*
X115570000Y-80010000D02*
X115570000Y-78740000D01*
X115570000Y-78740000D02*
X114300000Y-77470000D01*
X114300000Y-77470000D02*
X105410000Y-77470000D01*
X107950000Y-85090000D02*
X107950000Y-77470000D01*
X102870000Y-77470000D02*
X100330000Y-74930000D01*
X105410000Y-77470000D02*
X102870000Y-77470000D01*
D22*
X121920000Y-80010000D02*
X125730000Y-76200000D01*
X115570000Y-80010000D02*
X121920000Y-80010000D01*
D23*
X93980000Y-109220000D02*
X93980000Y-102870000D01*
X132080000Y-113030000D02*
X133350000Y-111760000D01*
X128270000Y-113030000D02*
X132080000Y-113030000D01*
X128270000Y-114300000D02*
X128270000Y-113030000D01*
X128270000Y-114300000D02*
X125730000Y-116840000D01*
X125730000Y-116840000D02*
X124460000Y-116840000D01*
X124460000Y-116840000D02*
X121920000Y-119380000D01*
X121920000Y-119380000D02*
X121920000Y-120650000D01*
G04 #@! TO.N,GND*
X105370000Y-79930000D02*
X105410000Y-79970000D01*
X100330000Y-79930000D02*
X105370000Y-79930000D01*
X100330000Y-83820000D02*
X101600000Y-85090000D01*
X100330000Y-79930000D02*
X100330000Y-83820000D01*
X133350000Y-106760000D02*
X135810000Y-106760000D01*
X140970000Y-101600000D02*
X140970000Y-100330000D01*
X135810000Y-106760000D02*
X140970000Y-101600000D01*
X133350000Y-116840000D02*
X135890000Y-114300000D01*
X135890000Y-114300000D02*
X135890000Y-106680000D01*
X110490000Y-105410000D02*
X109220000Y-106680000D01*
X109220000Y-106680000D02*
X99060000Y-106680000D01*
X99060000Y-106680000D02*
X99060000Y-109220000D01*
X99060000Y-106680000D02*
X97790000Y-105410000D01*
X97790000Y-105410000D02*
X97790000Y-93980000D01*
X97790000Y-93980000D02*
X99060000Y-92710000D01*
X99060000Y-92710000D02*
X99060000Y-86360000D01*
X99060000Y-86360000D02*
X100330000Y-85090000D01*
X100330000Y-85090000D02*
X101600000Y-85090000D01*
X124460000Y-120650000D02*
X127000000Y-120650000D01*
X127000000Y-120650000D02*
X127000000Y-119380000D01*
X127000000Y-119380000D02*
X129540000Y-116840000D01*
X129540000Y-116840000D02*
X133350000Y-116840000D01*
D22*
G04 #@! TO.N,/D0*
X129540000Y-74930000D02*
X129540000Y-71120000D01*
G04 #@! TO.N,/D1*
X132080000Y-71120000D02*
X132080000Y-74930000D01*
G04 #@! TO.N,/D2*
X134620000Y-74930000D02*
X134620000Y-71120000D01*
G04 #@! TO.N,/D3*
X137160000Y-71120000D02*
X137160000Y-74930000D01*
G04 #@! TO.N,/D4*
X139700000Y-74930000D02*
X139700000Y-71120000D01*
G04 #@! TO.N,/D5*
X142240000Y-71120000D02*
X142240000Y-74930000D01*
G04 #@! TO.N,/D6*
X144780000Y-74930000D02*
X144780000Y-71120000D01*
G04 #@! TO.N,/D7*
X147320000Y-71120000D02*
X147320000Y-74930000D01*
G04 #@! TO.N,/A13*
X113030000Y-80010000D02*
X113030000Y-85090000D01*
G04 #@! TO.N,Net-(R5-Pad2)*
X137160000Y-77470000D02*
X137160000Y-80010000D01*
X137160000Y-80010000D02*
X140970000Y-83820000D01*
X140970000Y-83820000D02*
X140970000Y-85090000D01*
G04 #@! TO.N,Net-(R6-Pad2)*
X139700000Y-77470000D02*
X139700000Y-78740000D01*
X139700000Y-78740000D02*
X143510000Y-82550000D01*
X143510000Y-82550000D02*
X143510000Y-86360000D01*
X143510000Y-86360000D02*
X142240000Y-87630000D01*
X142240000Y-87630000D02*
X139700000Y-87630000D01*
X138430000Y-86360000D02*
X138430000Y-85090000D01*
X139700000Y-87630000D02*
X138430000Y-86360000D01*
G04 #@! TO.N,Net-(R7-Pad2)*
X142240000Y-77470000D02*
X142240000Y-78740000D01*
X142240000Y-78740000D02*
X144780000Y-81280000D01*
X144780000Y-81280000D02*
X144780000Y-87630000D01*
X144780000Y-87630000D02*
X143510000Y-88900000D01*
X143510000Y-88900000D02*
X138430000Y-88900000D01*
X138430000Y-88900000D02*
X135890000Y-86360000D01*
X135890000Y-86360000D02*
X135890000Y-85090000D01*
G04 #@! TO.N,Net-(R8-Pad2)*
X137160000Y-90170000D02*
X133350000Y-86360000D01*
X144780000Y-90170000D02*
X137160000Y-90170000D01*
X146050000Y-88900000D02*
X144780000Y-90170000D01*
X133350000Y-86360000D02*
X133350000Y-85090000D01*
X146050000Y-88900000D02*
X146050000Y-80010000D01*
X146050000Y-80010000D02*
X144780000Y-78740000D01*
X144780000Y-78740000D02*
X144780000Y-77470000D01*
G04 #@! TO.N,Net-(R9-Pad2)*
X147320000Y-77470000D02*
X147320000Y-90170000D01*
X147320000Y-90170000D02*
X146050000Y-91440000D01*
X130810000Y-86360000D02*
X130810000Y-85090000D01*
X130810000Y-86360000D02*
X135890000Y-91440000D01*
X135890000Y-91440000D02*
X146050000Y-91440000D01*
G04 #@! TO.N,/A8*
X115570000Y-85090000D02*
X115570000Y-86360000D01*
X115570000Y-86360000D02*
X111760000Y-90170000D01*
X111760000Y-90170000D02*
X109220000Y-90170000D01*
G04 #@! TO.N,/WE*
X101600000Y-92710000D02*
X102870000Y-92710000D01*
X102870000Y-92710000D02*
X107950000Y-87630000D01*
X107950000Y-87630000D02*
X109220000Y-87630000D01*
X109220000Y-87630000D02*
X110490000Y-86360000D01*
X110490000Y-86360000D02*
X110490000Y-85090000D01*
G04 #@! TO.N,/A12*
X110490000Y-100330000D02*
X110490000Y-101600000D01*
X110490000Y-101600000D02*
X106680000Y-105410000D01*
X106680000Y-105410000D02*
X100330000Y-105410000D01*
X100330000Y-105410000D02*
X99060000Y-104140000D01*
X99060000Y-104140000D02*
X99060000Y-96520000D01*
X99060000Y-96520000D02*
X100330000Y-95250000D01*
X100330000Y-95250000D02*
X101600000Y-95250000D01*
G04 #@! TO.N,/A11*
X120650000Y-86360000D02*
X120650000Y-85090000D01*
X111760000Y-95250000D02*
X120650000Y-86360000D01*
X101600000Y-97790000D02*
X102870000Y-97790000D01*
X102870000Y-97790000D02*
X105410000Y-95250000D01*
X105410000Y-95250000D02*
X111760000Y-95250000D01*
G04 #@! TO.N,/A10*
X125730000Y-86360000D02*
X125730000Y-85090000D01*
X115570000Y-96520000D02*
X125730000Y-86360000D01*
X101600000Y-100330000D02*
X102870000Y-100330000D01*
X102870000Y-100330000D02*
X106680000Y-96520000D01*
X106680000Y-96520000D02*
X115570000Y-96520000D01*
G04 #@! TO.N,/A9*
X118110000Y-86360000D02*
X118110000Y-85090000D01*
X111760000Y-92710000D02*
X118110000Y-86360000D01*
X106680000Y-92710000D02*
X111760000Y-92710000D01*
G04 #@! TO.N,/A0*
X130810000Y-100330000D02*
X130810000Y-106680000D01*
X130810000Y-106680000D02*
X125730000Y-111760000D01*
X125730000Y-111760000D02*
X125730000Y-113030000D01*
G04 #@! TO.N,/A7*
X113030000Y-105410000D02*
X113030000Y-100330000D01*
G04 #@! TO.N,/A6*
X115570000Y-105410000D02*
X115570000Y-100330000D01*
G04 #@! TO.N,/A5*
X118110000Y-105410000D02*
X118110000Y-100330000D01*
G04 #@! TO.N,/A4*
X120650000Y-105410000D02*
X120650000Y-100330000D01*
G04 #@! TO.N,/A3*
X123190000Y-105410000D02*
X123190000Y-100330000D01*
G04 #@! TO.N,/A2*
X125730000Y-105410000D02*
X125730000Y-100330000D01*
G04 #@! TO.N,/A1*
X128270000Y-105410000D02*
X128270000Y-100330000D01*
G04 #@! TD*
D24*
G04 #@! TO.N,GND*
X149175001Y-122505000D02*
X87045000Y-122505000D01*
X87045000Y-93980000D01*
X88010719Y-93980000D01*
X88015001Y-94023479D01*
X88015000Y-112986531D01*
X88010719Y-113030000D01*
X88015000Y-113073469D01*
X88015000Y-113073476D01*
X88026212Y-113187314D01*
X88027805Y-113203490D01*
X88043157Y-113254096D01*
X88078411Y-113370312D01*
X88160589Y-113524058D01*
X88271183Y-113658817D01*
X88304954Y-113686532D01*
X89513470Y-114895049D01*
X89541183Y-114928817D01*
X89574951Y-114956530D01*
X89574953Y-114956532D01*
X89646452Y-115015210D01*
X89675941Y-115039411D01*
X89829687Y-115121589D01*
X89996510Y-115172195D01*
X90126523Y-115185000D01*
X90126533Y-115185000D01*
X90169999Y-115189281D01*
X90213465Y-115185000D01*
X104096531Y-115185000D01*
X104140000Y-115189281D01*
X104183469Y-115185000D01*
X104183477Y-115185000D01*
X104313490Y-115172195D01*
X104480313Y-115121589D01*
X104634059Y-115039411D01*
X104768817Y-114928817D01*
X104796534Y-114895044D01*
X108316579Y-111375000D01*
X109793796Y-111375000D01*
X109688900Y-111431068D01*
X109470393Y-111610392D01*
X109291068Y-111828899D01*
X109157818Y-112078192D01*
X109075764Y-112348691D01*
X109055000Y-112559508D01*
X109055000Y-113500491D01*
X109075764Y-113711308D01*
X109157818Y-113981807D01*
X109291068Y-114231100D01*
X109470392Y-114449607D01*
X109688899Y-114628932D01*
X109938192Y-114762182D01*
X110208691Y-114844236D01*
X110490000Y-114871943D01*
X110771308Y-114844236D01*
X111041807Y-114762182D01*
X111291100Y-114628932D01*
X111509607Y-114449608D01*
X111688932Y-114231101D01*
X111760000Y-114098142D01*
X111831068Y-114231100D01*
X112010392Y-114449607D01*
X112228899Y-114628932D01*
X112478192Y-114762182D01*
X112748691Y-114844236D01*
X113030000Y-114871943D01*
X113311308Y-114844236D01*
X113581807Y-114762182D01*
X113831100Y-114628932D01*
X114049607Y-114449608D01*
X114228932Y-114231101D01*
X114300000Y-114098142D01*
X114371068Y-114231100D01*
X114550392Y-114449607D01*
X114768899Y-114628932D01*
X115018192Y-114762182D01*
X115288691Y-114844236D01*
X115570000Y-114871943D01*
X115851308Y-114844236D01*
X116121807Y-114762182D01*
X116371100Y-114628932D01*
X116589607Y-114449608D01*
X116768932Y-114231101D01*
X116840000Y-114098142D01*
X116911068Y-114231100D01*
X117090392Y-114449607D01*
X117308899Y-114628932D01*
X117558192Y-114762182D01*
X117828691Y-114844236D01*
X118110000Y-114871943D01*
X118391308Y-114844236D01*
X118661807Y-114762182D01*
X118911100Y-114628932D01*
X119129607Y-114449608D01*
X119308932Y-114231101D01*
X119380000Y-114098142D01*
X119451068Y-114231100D01*
X119630392Y-114449607D01*
X119848899Y-114628932D01*
X120098192Y-114762182D01*
X120368691Y-114844236D01*
X120650000Y-114871943D01*
X120931308Y-114844236D01*
X121201807Y-114762182D01*
X121451100Y-114628932D01*
X121669607Y-114449608D01*
X121848932Y-114231101D01*
X121920000Y-114098142D01*
X121991068Y-114231100D01*
X122170392Y-114449607D01*
X122388899Y-114628932D01*
X122638192Y-114762182D01*
X122908691Y-114844236D01*
X123190000Y-114871943D01*
X123471308Y-114844236D01*
X123741807Y-114762182D01*
X123991100Y-114628932D01*
X124209607Y-114449608D01*
X124388932Y-114231101D01*
X124460000Y-114098142D01*
X124531068Y-114231100D01*
X124710392Y-114449607D01*
X124928899Y-114628932D01*
X125178192Y-114762182D01*
X125448691Y-114844236D01*
X125730000Y-114871943D01*
X126011308Y-114844236D01*
X126281807Y-114762182D01*
X126491598Y-114650046D01*
X125311645Y-115830000D01*
X124509604Y-115830000D01*
X124459999Y-115825114D01*
X124410394Y-115830000D01*
X124410392Y-115830000D01*
X124262006Y-115844615D01*
X124071620Y-115902368D01*
X123896160Y-115996153D01*
X123742367Y-116122367D01*
X123710744Y-116160900D01*
X121240906Y-118630739D01*
X121202367Y-118662367D01*
X121076153Y-118816160D01*
X120982369Y-118991620D01*
X120982368Y-118991621D01*
X120924615Y-119182006D01*
X120905114Y-119380000D01*
X120910000Y-119429608D01*
X120910000Y-119559893D01*
X120766525Y-119703368D01*
X120650000Y-119877760D01*
X120533475Y-119703368D01*
X120326632Y-119496525D01*
X120083411Y-119334010D01*
X119813158Y-119222068D01*
X119526260Y-119165000D01*
X119233740Y-119165000D01*
X118946842Y-119222068D01*
X118676589Y-119334010D01*
X118433368Y-119496525D01*
X118226525Y-119703368D01*
X118110000Y-119877760D01*
X117993475Y-119703368D01*
X117786632Y-119496525D01*
X117543411Y-119334010D01*
X117273158Y-119222068D01*
X116986260Y-119165000D01*
X116693740Y-119165000D01*
X116406842Y-119222068D01*
X116136589Y-119334010D01*
X115893368Y-119496525D01*
X115686525Y-119703368D01*
X115524010Y-119946589D01*
X115412068Y-120216842D01*
X115355000Y-120503740D01*
X115355000Y-120796260D01*
X115412068Y-121083158D01*
X115524010Y-121353411D01*
X115686525Y-121596632D01*
X115893368Y-121803475D01*
X116136589Y-121965990D01*
X116406842Y-122077932D01*
X116693740Y-122135000D01*
X116986260Y-122135000D01*
X117273158Y-122077932D01*
X117543411Y-121965990D01*
X117786632Y-121803475D01*
X117993475Y-121596632D01*
X118110000Y-121422240D01*
X118226525Y-121596632D01*
X118433368Y-121803475D01*
X118676589Y-121965990D01*
X118946842Y-122077932D01*
X119233740Y-122135000D01*
X119526260Y-122135000D01*
X119813158Y-122077932D01*
X120083411Y-121965990D01*
X120326632Y-121803475D01*
X120533475Y-121596632D01*
X120650000Y-121422240D01*
X120766525Y-121596632D01*
X120973368Y-121803475D01*
X121216589Y-121965990D01*
X121486842Y-122077932D01*
X121773740Y-122135000D01*
X122066260Y-122135000D01*
X122353158Y-122077932D01*
X122623411Y-121965990D01*
X122866632Y-121803475D01*
X123073475Y-121596632D01*
X123195195Y-121414466D01*
X123264822Y-121531355D01*
X123459731Y-121747588D01*
X123693080Y-121921641D01*
X123955901Y-122046825D01*
X124103110Y-122091476D01*
X124333000Y-121970155D01*
X124333000Y-120777000D01*
X124587000Y-120777000D01*
X124587000Y-121970155D01*
X124816890Y-122091476D01*
X124964099Y-122046825D01*
X125226920Y-121921641D01*
X125460269Y-121747588D01*
X125655178Y-121531355D01*
X125730000Y-121405745D01*
X125804822Y-121531355D01*
X125999731Y-121747588D01*
X126233080Y-121921641D01*
X126495901Y-122046825D01*
X126643110Y-122091476D01*
X126873000Y-121970155D01*
X126873000Y-120777000D01*
X124587000Y-120777000D01*
X124333000Y-120777000D01*
X124313000Y-120777000D01*
X124313000Y-120523000D01*
X124333000Y-120523000D01*
X124333000Y-119329845D01*
X124587000Y-119329845D01*
X124587000Y-120523000D01*
X126873000Y-120523000D01*
X126873000Y-119329845D01*
X127127000Y-119329845D01*
X127127000Y-120523000D01*
X127147000Y-120523000D01*
X127147000Y-120777000D01*
X127127000Y-120777000D01*
X127127000Y-121970155D01*
X127356890Y-122091476D01*
X127504099Y-122046825D01*
X127766920Y-121921641D01*
X128000269Y-121747588D01*
X128076034Y-121663534D01*
X128100498Y-121744180D01*
X128159463Y-121854494D01*
X128238815Y-121951185D01*
X128335506Y-122030537D01*
X128445820Y-122089502D01*
X128565518Y-122125812D01*
X128690000Y-122138072D01*
X130390000Y-122138072D01*
X130514482Y-122125812D01*
X130634180Y-122089502D01*
X130744494Y-122030537D01*
X130841185Y-121951185D01*
X130920537Y-121854494D01*
X130979502Y-121744180D01*
X131015812Y-121624482D01*
X131028072Y-121500000D01*
X131028072Y-119800000D01*
X133131928Y-119800000D01*
X133131928Y-121500000D01*
X133144188Y-121624482D01*
X133180498Y-121744180D01*
X133239463Y-121854494D01*
X133318815Y-121951185D01*
X133415506Y-122030537D01*
X133525820Y-122089502D01*
X133645518Y-122125812D01*
X133770000Y-122138072D01*
X135470000Y-122138072D01*
X135594482Y-122125812D01*
X135714180Y-122089502D01*
X135824494Y-122030537D01*
X135921185Y-121951185D01*
X136000537Y-121854494D01*
X136059502Y-121744180D01*
X136081513Y-121671620D01*
X136213368Y-121803475D01*
X136456589Y-121965990D01*
X136726842Y-122077932D01*
X137013740Y-122135000D01*
X137306260Y-122135000D01*
X137593158Y-122077932D01*
X137863411Y-121965990D01*
X138106632Y-121803475D01*
X138313475Y-121596632D01*
X138430000Y-121422240D01*
X138546525Y-121596632D01*
X138753368Y-121803475D01*
X138996589Y-121965990D01*
X139266842Y-122077932D01*
X139553740Y-122135000D01*
X139846260Y-122135000D01*
X140133158Y-122077932D01*
X140403411Y-121965990D01*
X140646632Y-121803475D01*
X140853475Y-121596632D01*
X140970000Y-121422240D01*
X141086525Y-121596632D01*
X141293368Y-121803475D01*
X141536589Y-121965990D01*
X141806842Y-122077932D01*
X142093740Y-122135000D01*
X142386260Y-122135000D01*
X142673158Y-122077932D01*
X142943411Y-121965990D01*
X143186632Y-121803475D01*
X143393475Y-121596632D01*
X143510000Y-121422240D01*
X143626525Y-121596632D01*
X143833368Y-121803475D01*
X144076589Y-121965990D01*
X144346842Y-122077932D01*
X144633740Y-122135000D01*
X144926260Y-122135000D01*
X145213158Y-122077932D01*
X145483411Y-121965990D01*
X145726632Y-121803475D01*
X145933475Y-121596632D01*
X146050000Y-121422240D01*
X146166525Y-121596632D01*
X146373368Y-121803475D01*
X146616589Y-121965990D01*
X146886842Y-122077932D01*
X147173740Y-122135000D01*
X147466260Y-122135000D01*
X147753158Y-122077932D01*
X148023411Y-121965990D01*
X148266632Y-121803475D01*
X148473475Y-121596632D01*
X148635990Y-121353411D01*
X148747932Y-121083158D01*
X148805000Y-120796260D01*
X148805000Y-120503740D01*
X148747932Y-120216842D01*
X148635990Y-119946589D01*
X148473475Y-119703368D01*
X148266632Y-119496525D01*
X148023411Y-119334010D01*
X147753158Y-119222068D01*
X147466260Y-119165000D01*
X147173740Y-119165000D01*
X146886842Y-119222068D01*
X146616589Y-119334010D01*
X146373368Y-119496525D01*
X146166525Y-119703368D01*
X146050000Y-119877760D01*
X145933475Y-119703368D01*
X145726632Y-119496525D01*
X145483411Y-119334010D01*
X145213158Y-119222068D01*
X144926260Y-119165000D01*
X144633740Y-119165000D01*
X144346842Y-119222068D01*
X144076589Y-119334010D01*
X143833368Y-119496525D01*
X143626525Y-119703368D01*
X143510000Y-119877760D01*
X143393475Y-119703368D01*
X143186632Y-119496525D01*
X142943411Y-119334010D01*
X142673158Y-119222068D01*
X142386260Y-119165000D01*
X142093740Y-119165000D01*
X141806842Y-119222068D01*
X141536589Y-119334010D01*
X141293368Y-119496525D01*
X141086525Y-119703368D01*
X140970000Y-119877760D01*
X140853475Y-119703368D01*
X140646632Y-119496525D01*
X140403411Y-119334010D01*
X140133158Y-119222068D01*
X139846260Y-119165000D01*
X139553740Y-119165000D01*
X139266842Y-119222068D01*
X138996589Y-119334010D01*
X138753368Y-119496525D01*
X138546525Y-119703368D01*
X138430000Y-119877760D01*
X138313475Y-119703368D01*
X138106632Y-119496525D01*
X137863411Y-119334010D01*
X137593158Y-119222068D01*
X137306260Y-119165000D01*
X137013740Y-119165000D01*
X136726842Y-119222068D01*
X136456589Y-119334010D01*
X136213368Y-119496525D01*
X136081513Y-119628380D01*
X136059502Y-119555820D01*
X136000537Y-119445506D01*
X135921185Y-119348815D01*
X135824494Y-119269463D01*
X135714180Y-119210498D01*
X135594482Y-119174188D01*
X135470000Y-119161928D01*
X133770000Y-119161928D01*
X133645518Y-119174188D01*
X133525820Y-119210498D01*
X133415506Y-119269463D01*
X133318815Y-119348815D01*
X133239463Y-119445506D01*
X133180498Y-119555820D01*
X133144188Y-119675518D01*
X133131928Y-119800000D01*
X131028072Y-119800000D01*
X131015812Y-119675518D01*
X130979502Y-119555820D01*
X130920537Y-119445506D01*
X130841185Y-119348815D01*
X130744494Y-119269463D01*
X130634180Y-119210498D01*
X130514482Y-119174188D01*
X130390000Y-119161928D01*
X128690000Y-119161928D01*
X128565518Y-119174188D01*
X128445820Y-119210498D01*
X128335506Y-119269463D01*
X128238815Y-119348815D01*
X128159463Y-119445506D01*
X128100498Y-119555820D01*
X128076034Y-119636466D01*
X128000269Y-119552412D01*
X127766920Y-119378359D01*
X127504099Y-119253175D01*
X127356890Y-119208524D01*
X127127000Y-119329845D01*
X126873000Y-119329845D01*
X126643110Y-119208524D01*
X126495901Y-119253175D01*
X126233080Y-119378359D01*
X125999731Y-119552412D01*
X125804822Y-119768645D01*
X125730000Y-119894255D01*
X125655178Y-119768645D01*
X125460269Y-119552412D01*
X125226920Y-119378359D01*
X124964099Y-119253175D01*
X124816890Y-119208524D01*
X124587000Y-119329845D01*
X124333000Y-119329845D01*
X124103110Y-119208524D01*
X123955901Y-119253175D01*
X123693080Y-119378359D01*
X123459731Y-119552412D01*
X123264822Y-119768645D01*
X123195195Y-119885534D01*
X123073475Y-119703368D01*
X123049231Y-119679124D01*
X124878356Y-117850000D01*
X125680392Y-117850000D01*
X125730000Y-117854886D01*
X125927994Y-117835385D01*
X126118380Y-117777632D01*
X126293840Y-117683847D01*
X126447633Y-117557633D01*
X126479261Y-117519094D01*
X128949100Y-115049256D01*
X128987633Y-115017633D01*
X129113847Y-114863840D01*
X129207632Y-114688380D01*
X129265385Y-114497994D01*
X129268440Y-114466980D01*
X129289607Y-114449608D01*
X129468932Y-114231101D01*
X129571078Y-114040000D01*
X132030392Y-114040000D01*
X132080000Y-114044886D01*
X132277994Y-114025385D01*
X132468380Y-113967632D01*
X132643840Y-113873847D01*
X132797633Y-113747633D01*
X132829261Y-113709094D01*
X133343355Y-113195000D01*
X133491335Y-113195000D01*
X133768574Y-113139853D01*
X134029727Y-113031680D01*
X134264759Y-112874637D01*
X134464637Y-112674759D01*
X134621680Y-112439727D01*
X134729853Y-112178574D01*
X134785000Y-111901335D01*
X134785000Y-111618665D01*
X134729853Y-111341426D01*
X134621680Y-111080273D01*
X134464637Y-110845241D01*
X134264759Y-110645363D01*
X134029727Y-110488320D01*
X133768574Y-110380147D01*
X133491335Y-110325000D01*
X133208665Y-110325000D01*
X132931426Y-110380147D01*
X132670273Y-110488320D01*
X132435241Y-110645363D01*
X132235363Y-110845241D01*
X132078320Y-111080273D01*
X131970147Y-111341426D01*
X131915000Y-111618665D01*
X131915000Y-111766645D01*
X131661645Y-112020000D01*
X129571078Y-112020000D01*
X129468932Y-111828899D01*
X129289608Y-111610392D01*
X129071101Y-111431068D01*
X128821808Y-111297818D01*
X128551309Y-111215764D01*
X128270000Y-111188057D01*
X127988692Y-111215764D01*
X127718193Y-111297818D01*
X127468900Y-111431068D01*
X127250393Y-111610392D01*
X127071068Y-111828899D01*
X127000000Y-111961858D01*
X126928932Y-111828899D01*
X126921606Y-111819972D01*
X130988876Y-107752702D01*
X132536903Y-107752702D01*
X132608486Y-107996671D01*
X132863996Y-108117571D01*
X133138184Y-108186300D01*
X133420512Y-108200217D01*
X133700130Y-108158787D01*
X133966292Y-108063603D01*
X134091514Y-107996671D01*
X134163097Y-107752702D01*
X133350000Y-106939605D01*
X132536903Y-107752702D01*
X130988876Y-107752702D01*
X131405049Y-107336530D01*
X131438817Y-107308817D01*
X131508232Y-107224236D01*
X131549411Y-107174059D01*
X131567329Y-107140537D01*
X131631589Y-107020313D01*
X131682195Y-106853490D01*
X131684458Y-106830512D01*
X131909783Y-106830512D01*
X131951213Y-107110130D01*
X132046397Y-107376292D01*
X132113329Y-107501514D01*
X132357298Y-107573097D01*
X133170395Y-106760000D01*
X133529605Y-106760000D01*
X134342702Y-107573097D01*
X134586671Y-107501514D01*
X134707571Y-107246004D01*
X134776300Y-106971816D01*
X134790217Y-106689488D01*
X134748787Y-106409870D01*
X134653603Y-106143708D01*
X134586671Y-106018486D01*
X134342702Y-105946903D01*
X133529605Y-106760000D01*
X133170395Y-106760000D01*
X132357298Y-105946903D01*
X132113329Y-106018486D01*
X131992429Y-106273996D01*
X131923700Y-106548184D01*
X131909783Y-106830512D01*
X131684458Y-106830512D01*
X131695000Y-106723477D01*
X131695000Y-106723469D01*
X131699281Y-106680000D01*
X131695000Y-106636531D01*
X131695000Y-105767298D01*
X132536903Y-105767298D01*
X133350000Y-106580395D01*
X134163097Y-105767298D01*
X134091514Y-105523329D01*
X133836004Y-105402429D01*
X133561816Y-105333700D01*
X133279488Y-105319783D01*
X132999870Y-105361213D01*
X132733708Y-105456397D01*
X132608486Y-105523329D01*
X132536903Y-105767298D01*
X131695000Y-105767298D01*
X131695000Y-101860078D01*
X131829608Y-101749608D01*
X132008932Y-101531101D01*
X132080000Y-101398142D01*
X132151068Y-101531101D01*
X132330393Y-101749608D01*
X132548900Y-101928932D01*
X132798193Y-102062182D01*
X133068692Y-102144236D01*
X133350000Y-102171943D01*
X133631309Y-102144236D01*
X133901808Y-102062182D01*
X134151101Y-101928932D01*
X134369608Y-101749608D01*
X134548932Y-101531101D01*
X134620000Y-101398142D01*
X134691068Y-101531101D01*
X134870393Y-101749608D01*
X135088900Y-101928932D01*
X135338193Y-102062182D01*
X135608692Y-102144236D01*
X135890000Y-102171943D01*
X136171309Y-102144236D01*
X136441808Y-102062182D01*
X136691101Y-101928932D01*
X136909608Y-101749608D01*
X137088932Y-101531101D01*
X137160000Y-101398142D01*
X137231068Y-101531101D01*
X137410393Y-101749608D01*
X137628900Y-101928932D01*
X137878193Y-102062182D01*
X138148692Y-102144236D01*
X138430000Y-102171943D01*
X138711309Y-102144236D01*
X138981808Y-102062182D01*
X139231101Y-101928932D01*
X139449608Y-101749608D01*
X139628932Y-101531101D01*
X139697265Y-101403259D01*
X139847399Y-101632839D01*
X140045105Y-101834500D01*
X140278354Y-101993715D01*
X140538182Y-102104367D01*
X140620961Y-102121904D01*
X140843000Y-101999915D01*
X140843000Y-100457000D01*
X141097000Y-100457000D01*
X141097000Y-101999915D01*
X141319039Y-102121904D01*
X141401818Y-102104367D01*
X141661646Y-101993715D01*
X141894895Y-101834500D01*
X142092601Y-101632839D01*
X142247166Y-101396483D01*
X142352650Y-101134514D01*
X142405000Y-100857000D01*
X142405000Y-100457000D01*
X141097000Y-100457000D01*
X140843000Y-100457000D01*
X140823000Y-100457000D01*
X140823000Y-100203000D01*
X140843000Y-100203000D01*
X140843000Y-98660085D01*
X141097000Y-98660085D01*
X141097000Y-100203000D01*
X142405000Y-100203000D01*
X142405000Y-99803000D01*
X142352650Y-99525486D01*
X142247166Y-99263517D01*
X142092601Y-99027161D01*
X141894895Y-98825500D01*
X141661646Y-98666285D01*
X141401818Y-98555633D01*
X141319039Y-98538096D01*
X141097000Y-98660085D01*
X140843000Y-98660085D01*
X140620961Y-98538096D01*
X140538182Y-98555633D01*
X140278354Y-98666285D01*
X140045105Y-98825500D01*
X139847399Y-99027161D01*
X139697265Y-99256741D01*
X139628932Y-99128899D01*
X139449607Y-98910392D01*
X139231100Y-98731068D01*
X138981807Y-98597818D01*
X138711308Y-98515764D01*
X138430000Y-98488057D01*
X138148691Y-98515764D01*
X137878192Y-98597818D01*
X137628899Y-98731068D01*
X137410392Y-98910393D01*
X137231068Y-99128900D01*
X137160000Y-99261858D01*
X137088932Y-99128899D01*
X136909607Y-98910392D01*
X136691100Y-98731068D01*
X136441807Y-98597818D01*
X136171308Y-98515764D01*
X135890000Y-98488057D01*
X135608691Y-98515764D01*
X135338192Y-98597818D01*
X135088899Y-98731068D01*
X134870392Y-98910393D01*
X134691068Y-99128900D01*
X134620000Y-99261858D01*
X134548932Y-99128899D01*
X134369607Y-98910392D01*
X134151100Y-98731068D01*
X133901807Y-98597818D01*
X133631308Y-98515764D01*
X133350000Y-98488057D01*
X133068691Y-98515764D01*
X132798192Y-98597818D01*
X132548899Y-98731068D01*
X132330392Y-98910393D01*
X132151068Y-99128900D01*
X132080000Y-99261858D01*
X132008932Y-99128899D01*
X131829607Y-98910392D01*
X131611100Y-98731068D01*
X131361807Y-98597818D01*
X131091308Y-98515764D01*
X130810000Y-98488057D01*
X130528691Y-98515764D01*
X130258192Y-98597818D01*
X130008899Y-98731068D01*
X129790392Y-98910393D01*
X129611068Y-99128900D01*
X129540000Y-99261858D01*
X129468932Y-99128899D01*
X129289607Y-98910392D01*
X129071100Y-98731068D01*
X128821807Y-98597818D01*
X128551308Y-98515764D01*
X128270000Y-98488057D01*
X127988691Y-98515764D01*
X127718192Y-98597818D01*
X127468899Y-98731068D01*
X127250392Y-98910393D01*
X127071068Y-99128900D01*
X127000000Y-99261858D01*
X126928932Y-99128899D01*
X126749607Y-98910392D01*
X126531100Y-98731068D01*
X126281807Y-98597818D01*
X126011308Y-98515764D01*
X125730000Y-98488057D01*
X125448691Y-98515764D01*
X125178192Y-98597818D01*
X124928899Y-98731068D01*
X124710392Y-98910393D01*
X124531068Y-99128900D01*
X124460000Y-99261858D01*
X124388932Y-99128899D01*
X124209607Y-98910392D01*
X123991100Y-98731068D01*
X123741807Y-98597818D01*
X123471308Y-98515764D01*
X123190000Y-98488057D01*
X122908691Y-98515764D01*
X122638192Y-98597818D01*
X122388899Y-98731068D01*
X122170392Y-98910393D01*
X121991068Y-99128900D01*
X121920000Y-99261858D01*
X121848932Y-99128899D01*
X121669607Y-98910392D01*
X121451100Y-98731068D01*
X121201807Y-98597818D01*
X120931308Y-98515764D01*
X120650000Y-98488057D01*
X120368691Y-98515764D01*
X120098192Y-98597818D01*
X119848899Y-98731068D01*
X119630392Y-98910393D01*
X119451068Y-99128900D01*
X119380000Y-99261858D01*
X119308932Y-99128899D01*
X119129607Y-98910392D01*
X118911100Y-98731068D01*
X118661807Y-98597818D01*
X118391308Y-98515764D01*
X118110000Y-98488057D01*
X117828691Y-98515764D01*
X117558192Y-98597818D01*
X117308899Y-98731068D01*
X117090392Y-98910393D01*
X116911068Y-99128900D01*
X116840000Y-99261858D01*
X116768932Y-99128899D01*
X116589607Y-98910392D01*
X116371100Y-98731068D01*
X116121807Y-98597818D01*
X115851308Y-98515764D01*
X115570000Y-98488057D01*
X115288691Y-98515764D01*
X115018192Y-98597818D01*
X114768899Y-98731068D01*
X114550392Y-98910393D01*
X114371068Y-99128900D01*
X114300000Y-99261858D01*
X114228932Y-99128899D01*
X114049607Y-98910392D01*
X113831100Y-98731068D01*
X113581807Y-98597818D01*
X113311308Y-98515764D01*
X113030000Y-98488057D01*
X112748691Y-98515764D01*
X112478192Y-98597818D01*
X112228899Y-98731068D01*
X112010392Y-98910393D01*
X111831068Y-99128900D01*
X111760000Y-99261858D01*
X111688932Y-99128899D01*
X111509607Y-98910392D01*
X111291100Y-98731068D01*
X111041807Y-98597818D01*
X110771308Y-98515764D01*
X110490000Y-98488057D01*
X110208691Y-98515764D01*
X109938192Y-98597818D01*
X109688899Y-98731068D01*
X109470392Y-98910393D01*
X109377581Y-99023483D01*
X109375812Y-99005518D01*
X109339502Y-98885820D01*
X109280537Y-98775506D01*
X109201185Y-98678815D01*
X109104494Y-98599463D01*
X108994180Y-98540498D01*
X108874482Y-98504188D01*
X108750000Y-98491928D01*
X107150000Y-98491928D01*
X107025518Y-98504188D01*
X106905820Y-98540498D01*
X106795506Y-98599463D01*
X106698815Y-98678815D01*
X106619463Y-98775506D01*
X106560498Y-98885820D01*
X106524188Y-99005518D01*
X106511928Y-99130000D01*
X106511928Y-101530000D01*
X106524188Y-101654482D01*
X106560498Y-101774180D01*
X106619463Y-101884494D01*
X106698815Y-101981185D01*
X106795506Y-102060537D01*
X106905820Y-102119502D01*
X107025518Y-102155812D01*
X107150000Y-102168072D01*
X108670349Y-102168072D01*
X106313422Y-104525000D01*
X100696579Y-104525000D01*
X100479651Y-104308072D01*
X102800000Y-104308072D01*
X102924482Y-104295812D01*
X103044180Y-104259502D01*
X103154494Y-104200537D01*
X103251185Y-104121185D01*
X103330537Y-104024494D01*
X103389502Y-103914180D01*
X103425812Y-103794482D01*
X103438072Y-103670000D01*
X103438072Y-102070000D01*
X103425812Y-101945518D01*
X103389502Y-101825820D01*
X103330537Y-101715506D01*
X103251185Y-101618815D01*
X103154494Y-101539463D01*
X103044180Y-101480498D01*
X102924482Y-101444188D01*
X102906518Y-101442419D01*
X103019608Y-101349608D01*
X103172772Y-101162977D01*
X103210313Y-101151589D01*
X103364059Y-101069411D01*
X103498817Y-100958817D01*
X103526534Y-100925044D01*
X107046579Y-97405000D01*
X115526531Y-97405000D01*
X115570000Y-97409281D01*
X115613469Y-97405000D01*
X115613477Y-97405000D01*
X115743490Y-97392195D01*
X115910313Y-97341589D01*
X116064059Y-97259411D01*
X116198817Y-97148817D01*
X116226534Y-97115044D01*
X126325051Y-87016528D01*
X126358817Y-86988817D01*
X126386533Y-86955046D01*
X126469411Y-86854059D01*
X126486449Y-86822182D01*
X126551589Y-86700313D01*
X126562977Y-86662772D01*
X126749608Y-86509608D01*
X126928932Y-86291101D01*
X127000000Y-86158142D01*
X127071068Y-86291101D01*
X127250393Y-86509608D01*
X127468900Y-86688932D01*
X127718193Y-86822182D01*
X127988692Y-86904236D01*
X128270000Y-86931943D01*
X128551309Y-86904236D01*
X128821808Y-86822182D01*
X129071101Y-86688932D01*
X129289608Y-86509608D01*
X129468932Y-86291101D01*
X129540000Y-86158142D01*
X129611068Y-86291101D01*
X129790393Y-86509608D01*
X129977023Y-86662771D01*
X129988411Y-86700312D01*
X130070589Y-86854058D01*
X130181183Y-86988817D01*
X130214956Y-87016534D01*
X135233470Y-92035049D01*
X135261183Y-92068817D01*
X135294951Y-92096530D01*
X135294953Y-92096532D01*
X135370086Y-92158192D01*
X135395941Y-92179411D01*
X135549687Y-92261589D01*
X135716510Y-92312195D01*
X135846523Y-92325000D01*
X135846531Y-92325000D01*
X135890000Y-92329281D01*
X135933469Y-92325000D01*
X146006531Y-92325000D01*
X146050000Y-92329281D01*
X146093469Y-92325000D01*
X146093477Y-92325000D01*
X146223490Y-92312195D01*
X146390313Y-92261589D01*
X146544059Y-92179411D01*
X146678817Y-92068817D01*
X146706534Y-92035044D01*
X147915049Y-90826530D01*
X147948817Y-90798817D01*
X148059411Y-90664059D01*
X148141589Y-90510313D01*
X148192195Y-90343490D01*
X148205000Y-90213477D01*
X148205000Y-90213467D01*
X148209281Y-90170001D01*
X148205000Y-90126535D01*
X148205000Y-78472975D01*
X148356962Y-78321013D01*
X148503061Y-78102359D01*
X148603696Y-77859405D01*
X148655000Y-77601486D01*
X148655000Y-77338514D01*
X148603696Y-77080595D01*
X148503061Y-76837641D01*
X148356962Y-76618987D01*
X148171013Y-76433038D01*
X147952359Y-76286939D01*
X147742470Y-76200000D01*
X147952359Y-76113061D01*
X148171013Y-75966962D01*
X148356962Y-75781013D01*
X148503061Y-75562359D01*
X148603696Y-75319405D01*
X148655000Y-75061486D01*
X148655000Y-74798514D01*
X148603696Y-74540595D01*
X148503061Y-74297641D01*
X148356962Y-74078987D01*
X148205000Y-73927025D01*
X148205000Y-72604625D01*
X148294482Y-72595812D01*
X148414180Y-72559502D01*
X148524494Y-72500537D01*
X148621185Y-72421185D01*
X148700537Y-72324494D01*
X148759502Y-72214180D01*
X148795812Y-72094482D01*
X148808072Y-71970000D01*
X148808072Y-70270000D01*
X148795812Y-70145518D01*
X148759502Y-70025820D01*
X148700537Y-69915506D01*
X148621185Y-69818815D01*
X148524494Y-69739463D01*
X148414180Y-69680498D01*
X148294482Y-69644188D01*
X148170000Y-69631928D01*
X146470000Y-69631928D01*
X146345518Y-69644188D01*
X146225820Y-69680498D01*
X146115506Y-69739463D01*
X146018815Y-69818815D01*
X145939463Y-69915506D01*
X145880498Y-70025820D01*
X145858487Y-70098380D01*
X145726632Y-69966525D01*
X145483411Y-69804010D01*
X145213158Y-69692068D01*
X144926260Y-69635000D01*
X144633740Y-69635000D01*
X144346842Y-69692068D01*
X144076589Y-69804010D01*
X143833368Y-69966525D01*
X143626525Y-70173368D01*
X143510000Y-70347760D01*
X143393475Y-70173368D01*
X143186632Y-69966525D01*
X142943411Y-69804010D01*
X142673158Y-69692068D01*
X142386260Y-69635000D01*
X142093740Y-69635000D01*
X141806842Y-69692068D01*
X141536589Y-69804010D01*
X141293368Y-69966525D01*
X141086525Y-70173368D01*
X140970000Y-70347760D01*
X140853475Y-70173368D01*
X140646632Y-69966525D01*
X140403411Y-69804010D01*
X140133158Y-69692068D01*
X139846260Y-69635000D01*
X139553740Y-69635000D01*
X139266842Y-69692068D01*
X138996589Y-69804010D01*
X138753368Y-69966525D01*
X138546525Y-70173368D01*
X138430000Y-70347760D01*
X138313475Y-70173368D01*
X138106632Y-69966525D01*
X137863411Y-69804010D01*
X137593158Y-69692068D01*
X137306260Y-69635000D01*
X137013740Y-69635000D01*
X136726842Y-69692068D01*
X136456589Y-69804010D01*
X136213368Y-69966525D01*
X136006525Y-70173368D01*
X135890000Y-70347760D01*
X135773475Y-70173368D01*
X135566632Y-69966525D01*
X135323411Y-69804010D01*
X135053158Y-69692068D01*
X134766260Y-69635000D01*
X134473740Y-69635000D01*
X134186842Y-69692068D01*
X133916589Y-69804010D01*
X133673368Y-69966525D01*
X133466525Y-70173368D01*
X133350000Y-70347760D01*
X133233475Y-70173368D01*
X133026632Y-69966525D01*
X132783411Y-69804010D01*
X132513158Y-69692068D01*
X132226260Y-69635000D01*
X131933740Y-69635000D01*
X131646842Y-69692068D01*
X131376589Y-69804010D01*
X131133368Y-69966525D01*
X130926525Y-70173368D01*
X130810000Y-70347760D01*
X130693475Y-70173368D01*
X130486632Y-69966525D01*
X130243411Y-69804010D01*
X129973158Y-69692068D01*
X129686260Y-69635000D01*
X129393740Y-69635000D01*
X129106842Y-69692068D01*
X128836589Y-69804010D01*
X128593368Y-69966525D01*
X128386525Y-70173368D01*
X128224010Y-70416589D01*
X128112068Y-70686842D01*
X128055000Y-70973740D01*
X128055000Y-71266260D01*
X128112068Y-71553158D01*
X128224010Y-71823411D01*
X128386525Y-72066632D01*
X128593368Y-72273475D01*
X128655001Y-72314657D01*
X128655000Y-73927025D01*
X128503038Y-74078987D01*
X128356939Y-74297641D01*
X128256304Y-74540595D01*
X128205000Y-74798514D01*
X128205000Y-75061486D01*
X128256304Y-75319405D01*
X128356939Y-75562359D01*
X128503038Y-75781013D01*
X128688987Y-75966962D01*
X128907641Y-76113061D01*
X129117530Y-76200000D01*
X128907641Y-76286939D01*
X128688987Y-76433038D01*
X128503038Y-76618987D01*
X128356939Y-76837641D01*
X128256304Y-77080595D01*
X128205000Y-77338514D01*
X128205000Y-77601486D01*
X128256304Y-77859405D01*
X128356939Y-78102359D01*
X128503038Y-78321013D01*
X128688987Y-78506962D01*
X128907641Y-78653061D01*
X129150595Y-78753696D01*
X129408514Y-78805000D01*
X129671486Y-78805000D01*
X129929405Y-78753696D01*
X130172359Y-78653061D01*
X130391013Y-78506962D01*
X130576962Y-78321013D01*
X130723061Y-78102359D01*
X130810000Y-77892470D01*
X130896939Y-78102359D01*
X131043038Y-78321013D01*
X131228987Y-78506962D01*
X131447641Y-78653061D01*
X131690595Y-78753696D01*
X131948514Y-78805000D01*
X132211486Y-78805000D01*
X132469405Y-78753696D01*
X132712359Y-78653061D01*
X132931013Y-78506962D01*
X133116962Y-78321013D01*
X133263061Y-78102359D01*
X133350000Y-77892470D01*
X133436939Y-78102359D01*
X133583038Y-78321013D01*
X133768987Y-78506962D01*
X133987641Y-78653061D01*
X134230595Y-78753696D01*
X134488514Y-78805000D01*
X134751486Y-78805000D01*
X135009405Y-78753696D01*
X135252359Y-78653061D01*
X135471013Y-78506962D01*
X135656962Y-78321013D01*
X135803061Y-78102359D01*
X135890000Y-77892470D01*
X135976939Y-78102359D01*
X136123038Y-78321013D01*
X136275000Y-78472975D01*
X136275001Y-79966521D01*
X136270719Y-80010000D01*
X136287805Y-80183490D01*
X136338412Y-80350313D01*
X136420590Y-80504059D01*
X136503468Y-80605046D01*
X136503471Y-80605049D01*
X136531184Y-80638817D01*
X136564951Y-80666530D01*
X139778394Y-83879973D01*
X139771068Y-83888900D01*
X139700000Y-84021858D01*
X139628932Y-83888899D01*
X139449607Y-83670392D01*
X139231100Y-83491068D01*
X138981807Y-83357818D01*
X138711308Y-83275764D01*
X138430000Y-83248057D01*
X138148691Y-83275764D01*
X137878192Y-83357818D01*
X137628899Y-83491068D01*
X137410392Y-83670393D01*
X137231068Y-83888900D01*
X137160000Y-84021858D01*
X137088932Y-83888899D01*
X136909607Y-83670392D01*
X136691100Y-83491068D01*
X136441807Y-83357818D01*
X136171308Y-83275764D01*
X135890000Y-83248057D01*
X135608691Y-83275764D01*
X135338192Y-83357818D01*
X135088899Y-83491068D01*
X134870392Y-83670393D01*
X134691068Y-83888900D01*
X134620000Y-84021858D01*
X134548932Y-83888899D01*
X134369607Y-83670392D01*
X134151100Y-83491068D01*
X133901807Y-83357818D01*
X133631308Y-83275764D01*
X133350000Y-83248057D01*
X133068691Y-83275764D01*
X132798192Y-83357818D01*
X132548899Y-83491068D01*
X132330392Y-83670393D01*
X132151068Y-83888900D01*
X132080000Y-84021858D01*
X132008932Y-83888899D01*
X131829607Y-83670392D01*
X131611100Y-83491068D01*
X131361807Y-83357818D01*
X131091308Y-83275764D01*
X130810000Y-83248057D01*
X130528691Y-83275764D01*
X130258192Y-83357818D01*
X130008899Y-83491068D01*
X129790392Y-83670393D01*
X129611068Y-83888900D01*
X129540000Y-84021858D01*
X129468932Y-83888899D01*
X129289607Y-83670392D01*
X129071100Y-83491068D01*
X128821807Y-83357818D01*
X128551308Y-83275764D01*
X128270000Y-83248057D01*
X127988691Y-83275764D01*
X127718192Y-83357818D01*
X127468899Y-83491068D01*
X127250392Y-83670393D01*
X127071068Y-83888900D01*
X127000000Y-84021858D01*
X126928932Y-83888899D01*
X126749607Y-83670392D01*
X126531100Y-83491068D01*
X126281807Y-83357818D01*
X126011308Y-83275764D01*
X125730000Y-83248057D01*
X125448691Y-83275764D01*
X125178192Y-83357818D01*
X124928899Y-83491068D01*
X124710392Y-83670393D01*
X124531068Y-83888900D01*
X124460000Y-84021858D01*
X124388932Y-83888899D01*
X124209607Y-83670392D01*
X123991100Y-83491068D01*
X123741807Y-83357818D01*
X123471308Y-83275764D01*
X123190000Y-83248057D01*
X122908691Y-83275764D01*
X122638192Y-83357818D01*
X122388899Y-83491068D01*
X122170392Y-83670393D01*
X121991068Y-83888900D01*
X121920000Y-84021858D01*
X121848932Y-83888899D01*
X121669607Y-83670392D01*
X121451100Y-83491068D01*
X121201807Y-83357818D01*
X120931308Y-83275764D01*
X120650000Y-83248057D01*
X120368691Y-83275764D01*
X120098192Y-83357818D01*
X119848899Y-83491068D01*
X119630392Y-83670393D01*
X119451068Y-83888900D01*
X119380000Y-84021858D01*
X119308932Y-83888899D01*
X119129607Y-83670392D01*
X118911100Y-83491068D01*
X118661807Y-83357818D01*
X118391308Y-83275764D01*
X118110000Y-83248057D01*
X117828691Y-83275764D01*
X117558192Y-83357818D01*
X117308899Y-83491068D01*
X117090392Y-83670393D01*
X116911068Y-83888900D01*
X116840000Y-84021858D01*
X116768932Y-83888899D01*
X116589607Y-83670392D01*
X116371100Y-83491068D01*
X116121807Y-83357818D01*
X115851308Y-83275764D01*
X115570000Y-83248057D01*
X115288691Y-83275764D01*
X115018192Y-83357818D01*
X114768899Y-83491068D01*
X114550392Y-83670393D01*
X114371068Y-83888900D01*
X114300000Y-84021858D01*
X114228932Y-83888899D01*
X114049607Y-83670392D01*
X113915000Y-83559923D01*
X113915000Y-81204656D01*
X113976632Y-81163475D01*
X114183475Y-80956632D01*
X114300000Y-80782240D01*
X114416525Y-80956632D01*
X114623368Y-81163475D01*
X114866589Y-81325990D01*
X115136842Y-81437932D01*
X115423740Y-81495000D01*
X115716260Y-81495000D01*
X116003158Y-81437932D01*
X116273411Y-81325990D01*
X116516632Y-81163475D01*
X116723475Y-80956632D01*
X116764656Y-80895000D01*
X121876531Y-80895000D01*
X121920000Y-80899281D01*
X121963469Y-80895000D01*
X121963477Y-80895000D01*
X122093490Y-80882195D01*
X122260313Y-80831589D01*
X122414059Y-80749411D01*
X122548817Y-80638817D01*
X122576534Y-80605044D01*
X125553561Y-77628017D01*
X125588665Y-77635000D01*
X125871335Y-77635000D01*
X126148574Y-77579853D01*
X126409727Y-77471680D01*
X126644759Y-77314637D01*
X126844637Y-77114759D01*
X127001680Y-76879727D01*
X127109853Y-76618574D01*
X127165000Y-76341335D01*
X127165000Y-76058665D01*
X127109853Y-75781426D01*
X127001680Y-75520273D01*
X126844637Y-75285241D01*
X126644759Y-75085363D01*
X126409727Y-74928320D01*
X126148574Y-74820147D01*
X125871335Y-74765000D01*
X125588665Y-74765000D01*
X125311426Y-74820147D01*
X125050273Y-74928320D01*
X124815241Y-75085363D01*
X124615363Y-75285241D01*
X124458320Y-75520273D01*
X124350147Y-75781426D01*
X124295000Y-76058665D01*
X124295000Y-76341335D01*
X124301983Y-76376439D01*
X121553422Y-79125000D01*
X116764656Y-79125000D01*
X116723475Y-79063368D01*
X116580000Y-78919893D01*
X116580000Y-78789604D01*
X116584886Y-78739999D01*
X116579346Y-78683750D01*
X116565385Y-78542006D01*
X116507632Y-78351620D01*
X116413847Y-78176160D01*
X116287633Y-78022367D01*
X116249094Y-77990739D01*
X115049261Y-76790906D01*
X115017633Y-76752367D01*
X114863840Y-76626153D01*
X114688380Y-76532368D01*
X114497994Y-76474615D01*
X114349608Y-76460000D01*
X114300000Y-76455114D01*
X114250392Y-76460000D01*
X107999608Y-76460000D01*
X107950000Y-76455114D01*
X107900393Y-76460000D01*
X106809870Y-76460000D01*
X106799502Y-76425820D01*
X106740537Y-76315506D01*
X106661185Y-76218815D01*
X106564494Y-76139463D01*
X106454180Y-76080498D01*
X106334482Y-76044188D01*
X106210000Y-76031928D01*
X104610000Y-76031928D01*
X104485518Y-76044188D01*
X104365820Y-76080498D01*
X104255506Y-76139463D01*
X104158815Y-76218815D01*
X104079463Y-76315506D01*
X104020498Y-76425820D01*
X104010130Y-76460000D01*
X103288356Y-76460000D01*
X101765000Y-74936645D01*
X101765000Y-74788665D01*
X101709853Y-74511426D01*
X101601680Y-74250273D01*
X101444637Y-74015241D01*
X101244759Y-73815363D01*
X101009727Y-73658320D01*
X100748574Y-73550147D01*
X100471335Y-73495000D01*
X100188665Y-73495000D01*
X99911426Y-73550147D01*
X99650273Y-73658320D01*
X99415241Y-73815363D01*
X99215363Y-74015241D01*
X99058320Y-74250273D01*
X98950147Y-74511426D01*
X98895000Y-74788665D01*
X98895000Y-75071335D01*
X98950147Y-75348574D01*
X99058320Y-75609727D01*
X99215363Y-75844759D01*
X99415241Y-76044637D01*
X99650273Y-76201680D01*
X99911426Y-76309853D01*
X100188665Y-76365000D01*
X100336645Y-76365000D01*
X102120743Y-78149099D01*
X102152367Y-78187633D01*
X102306160Y-78313847D01*
X102481620Y-78407632D01*
X102672006Y-78465385D01*
X102820392Y-78480000D01*
X102820394Y-78480000D01*
X102869999Y-78484886D01*
X102919604Y-78480000D01*
X104010130Y-78480000D01*
X104020498Y-78514180D01*
X104079463Y-78624494D01*
X104158815Y-78721185D01*
X104255506Y-78800537D01*
X104365820Y-78859502D01*
X104485518Y-78895812D01*
X104610000Y-78908072D01*
X104617215Y-78908072D01*
X104596903Y-78977298D01*
X105410000Y-79790395D01*
X106223097Y-78977298D01*
X106202785Y-78908072D01*
X106210000Y-78908072D01*
X106334482Y-78895812D01*
X106454180Y-78859502D01*
X106564494Y-78800537D01*
X106661185Y-78721185D01*
X106740537Y-78624494D01*
X106799502Y-78514180D01*
X106809870Y-78480000D01*
X106940001Y-78480000D01*
X106940000Y-83662508D01*
X106930392Y-83670393D01*
X106751068Y-83888900D01*
X106617818Y-84138193D01*
X106535764Y-84408692D01*
X106515000Y-84619509D01*
X106515000Y-85560492D01*
X106535764Y-85771309D01*
X106617818Y-86041808D01*
X106751068Y-86291101D01*
X106930393Y-86509608D01*
X107148900Y-86688932D01*
X107398193Y-86822182D01*
X107516680Y-86858124D01*
X107455941Y-86890589D01*
X107354953Y-86973468D01*
X107354951Y-86973470D01*
X107321183Y-87001183D01*
X107293470Y-87034951D01*
X102810028Y-91518394D01*
X102801101Y-91511068D01*
X102668142Y-91440000D01*
X102801101Y-91368932D01*
X103019608Y-91189608D01*
X103198932Y-90971101D01*
X103332182Y-90721808D01*
X103414236Y-90451309D01*
X103441943Y-90170000D01*
X103414236Y-89888691D01*
X103332182Y-89618192D01*
X103198932Y-89368899D01*
X103019608Y-89150392D01*
X102801101Y-88971068D01*
X102668142Y-88900000D01*
X102801101Y-88828932D01*
X103019608Y-88649608D01*
X103198932Y-88431101D01*
X103332182Y-88181808D01*
X103414236Y-87911309D01*
X103441943Y-87630000D01*
X103414236Y-87348691D01*
X103332182Y-87078192D01*
X103198932Y-86828899D01*
X103019608Y-86610392D01*
X102801101Y-86431068D01*
X102673259Y-86362735D01*
X102902839Y-86212601D01*
X103104500Y-86014895D01*
X103263715Y-85781646D01*
X103374367Y-85521818D01*
X103391904Y-85439039D01*
X103269915Y-85217000D01*
X101727000Y-85217000D01*
X101727000Y-85237000D01*
X101473000Y-85237000D01*
X101473000Y-85217000D01*
X99930085Y-85217000D01*
X99808096Y-85439039D01*
X99825633Y-85521818D01*
X99936285Y-85781646D01*
X100095500Y-86014895D01*
X100297161Y-86212601D01*
X100526741Y-86362735D01*
X100398899Y-86431068D01*
X100180392Y-86610392D01*
X100001068Y-86828899D01*
X99867818Y-87078192D01*
X99785764Y-87348691D01*
X99758057Y-87630000D01*
X99785764Y-87911309D01*
X99867818Y-88181808D01*
X100001068Y-88431101D01*
X100180392Y-88649608D01*
X100398899Y-88828932D01*
X100531858Y-88900000D01*
X100398899Y-88971068D01*
X100180392Y-89150392D01*
X100001068Y-89368899D01*
X99867818Y-89618192D01*
X99785764Y-89888691D01*
X99758057Y-90170000D01*
X99785764Y-90451309D01*
X99867818Y-90721808D01*
X100001068Y-90971101D01*
X100180392Y-91189608D01*
X100398899Y-91368932D01*
X100531858Y-91440000D01*
X100398899Y-91511068D01*
X100180392Y-91690392D01*
X100001068Y-91908899D01*
X99867818Y-92158192D01*
X99785764Y-92428691D01*
X99758057Y-92710000D01*
X99785764Y-92991309D01*
X99867818Y-93261808D01*
X100001068Y-93511101D01*
X100180392Y-93729608D01*
X100398899Y-93908932D01*
X100531858Y-93980000D01*
X100398899Y-94051068D01*
X100180392Y-94230392D01*
X100027228Y-94417023D01*
X99989687Y-94428411D01*
X99835941Y-94510589D01*
X99835939Y-94510590D01*
X99835940Y-94510590D01*
X99734953Y-94593468D01*
X99734951Y-94593470D01*
X99701183Y-94621183D01*
X99673470Y-94654951D01*
X98464951Y-95863471D01*
X98431184Y-95891183D01*
X98403471Y-95924951D01*
X98403468Y-95924954D01*
X98320590Y-96025941D01*
X98238412Y-96179687D01*
X98187805Y-96346510D01*
X98170719Y-96520000D01*
X98175001Y-96563479D01*
X98175000Y-104096531D01*
X98170719Y-104140000D01*
X98175000Y-104183469D01*
X98175000Y-104183476D01*
X98187805Y-104313489D01*
X98238411Y-104480312D01*
X98320589Y-104634058D01*
X98431183Y-104768817D01*
X98464956Y-104796534D01*
X99673470Y-106005049D01*
X99701183Y-106038817D01*
X99734951Y-106066530D01*
X99734953Y-106066532D01*
X99765143Y-106091308D01*
X99835941Y-106149411D01*
X99989687Y-106231589D01*
X100156510Y-106282195D01*
X100286523Y-106295000D01*
X100286533Y-106295000D01*
X100329999Y-106299281D01*
X100373465Y-106295000D01*
X106636531Y-106295000D01*
X106680000Y-106299281D01*
X106723469Y-106295000D01*
X106723477Y-106295000D01*
X106853490Y-106282195D01*
X107020313Y-106231589D01*
X107174059Y-106149411D01*
X107308817Y-106038817D01*
X107336534Y-106005044D01*
X108458578Y-104883000D01*
X109055000Y-104883000D01*
X109055000Y-105283000D01*
X110363000Y-105283000D01*
X110363000Y-103740085D01*
X110140961Y-103618096D01*
X110058182Y-103635633D01*
X109798354Y-103746285D01*
X109565105Y-103905500D01*
X109367399Y-104107161D01*
X109212834Y-104343517D01*
X109107350Y-104605486D01*
X109055000Y-104883000D01*
X108458578Y-104883000D01*
X111085049Y-102256530D01*
X111118817Y-102228817D01*
X111181559Y-102152367D01*
X111229411Y-102094059D01*
X111311589Y-101940314D01*
X111322977Y-101902772D01*
X111509608Y-101749608D01*
X111688932Y-101531101D01*
X111760000Y-101398142D01*
X111831068Y-101531101D01*
X112010393Y-101749608D01*
X112145001Y-101860078D01*
X112145000Y-103879923D01*
X112010393Y-103990392D01*
X111831068Y-104208899D01*
X111762735Y-104336741D01*
X111612601Y-104107161D01*
X111414895Y-103905500D01*
X111181646Y-103746285D01*
X110921818Y-103635633D01*
X110839039Y-103618096D01*
X110617000Y-103740085D01*
X110617000Y-105283000D01*
X110637000Y-105283000D01*
X110637000Y-105537000D01*
X110617000Y-105537000D01*
X110617000Y-105557000D01*
X110363000Y-105557000D01*
X110363000Y-105537000D01*
X109055000Y-105537000D01*
X109055000Y-105937000D01*
X109107350Y-106214514D01*
X109212834Y-106476483D01*
X109367399Y-106712839D01*
X109565105Y-106914500D01*
X109785587Y-107065000D01*
X105453469Y-107065000D01*
X105410000Y-107060719D01*
X105366531Y-107065000D01*
X105366523Y-107065000D01*
X105236510Y-107077805D01*
X105069686Y-107128411D01*
X104915941Y-107210589D01*
X104814953Y-107293468D01*
X104814951Y-107293470D01*
X104781183Y-107321183D01*
X104753470Y-107354951D01*
X101233422Y-110875000D01*
X93076579Y-110875000D01*
X92325000Y-110123422D01*
X92325000Y-103566205D01*
X92381068Y-103671101D01*
X92560392Y-103889608D01*
X92778899Y-104068932D01*
X92970001Y-104171078D01*
X92970000Y-108129893D01*
X92826525Y-108273368D01*
X92664010Y-108516589D01*
X92552068Y-108786842D01*
X92495000Y-109073740D01*
X92495000Y-109366260D01*
X92552068Y-109653158D01*
X92664010Y-109923411D01*
X92826525Y-110166632D01*
X93033368Y-110373475D01*
X93276589Y-110535990D01*
X93546842Y-110647932D01*
X93833740Y-110705000D01*
X94126260Y-110705000D01*
X94413158Y-110647932D01*
X94683411Y-110535990D01*
X94926632Y-110373475D01*
X95133475Y-110166632D01*
X95250000Y-109992240D01*
X95366525Y-110166632D01*
X95573368Y-110373475D01*
X95816589Y-110535990D01*
X96086842Y-110647932D01*
X96373740Y-110705000D01*
X96666260Y-110705000D01*
X96953158Y-110647932D01*
X97223411Y-110535990D01*
X97466632Y-110373475D01*
X97598487Y-110241620D01*
X97620498Y-110314180D01*
X97679463Y-110424494D01*
X97758815Y-110521185D01*
X97855506Y-110600537D01*
X97965820Y-110659502D01*
X98085518Y-110695812D01*
X98210000Y-110708072D01*
X98774250Y-110705000D01*
X98933000Y-110546250D01*
X98933000Y-109347000D01*
X99187000Y-109347000D01*
X99187000Y-110546250D01*
X99345750Y-110705000D01*
X99910000Y-110708072D01*
X100034482Y-110695812D01*
X100154180Y-110659502D01*
X100264494Y-110600537D01*
X100361185Y-110521185D01*
X100440537Y-110424494D01*
X100499502Y-110314180D01*
X100535812Y-110194482D01*
X100548072Y-110070000D01*
X100545000Y-109505750D01*
X100386250Y-109347000D01*
X99187000Y-109347000D01*
X98933000Y-109347000D01*
X98913000Y-109347000D01*
X98913000Y-109093000D01*
X98933000Y-109093000D01*
X98933000Y-107893750D01*
X99187000Y-107893750D01*
X99187000Y-109093000D01*
X100386250Y-109093000D01*
X100545000Y-108934250D01*
X100548072Y-108370000D01*
X100535812Y-108245518D01*
X100499502Y-108125820D01*
X100440537Y-108015506D01*
X100361185Y-107918815D01*
X100264494Y-107839463D01*
X100154180Y-107780498D01*
X100034482Y-107744188D01*
X99910000Y-107731928D01*
X99345750Y-107735000D01*
X99187000Y-107893750D01*
X98933000Y-107893750D01*
X98774250Y-107735000D01*
X98210000Y-107731928D01*
X98085518Y-107744188D01*
X97965820Y-107780498D01*
X97855506Y-107839463D01*
X97758815Y-107918815D01*
X97679463Y-108015506D01*
X97620498Y-108125820D01*
X97598487Y-108198380D01*
X97466632Y-108066525D01*
X97223411Y-107904010D01*
X96953158Y-107792068D01*
X96666260Y-107735000D01*
X96373740Y-107735000D01*
X96086842Y-107792068D01*
X95816589Y-107904010D01*
X95573368Y-108066525D01*
X95366525Y-108273368D01*
X95250000Y-108447760D01*
X95133475Y-108273368D01*
X94990000Y-108129893D01*
X94990000Y-104171078D01*
X95181101Y-104068932D01*
X95399608Y-103889608D01*
X95578932Y-103671101D01*
X95712182Y-103421808D01*
X95794236Y-103151309D01*
X95821943Y-102870000D01*
X95794236Y-102588691D01*
X95712182Y-102318192D01*
X95578932Y-102068899D01*
X95399608Y-101850392D01*
X95181101Y-101671068D01*
X95048142Y-101600000D01*
X95181101Y-101528932D01*
X95399608Y-101349608D01*
X95578932Y-101131101D01*
X95712182Y-100881808D01*
X95794236Y-100611309D01*
X95821943Y-100330000D01*
X95794236Y-100048691D01*
X95712182Y-99778192D01*
X95578932Y-99528899D01*
X95399608Y-99310392D01*
X95181101Y-99131068D01*
X95048142Y-99060000D01*
X95181101Y-98988932D01*
X95399608Y-98809608D01*
X95578932Y-98591101D01*
X95712182Y-98341808D01*
X95794236Y-98071309D01*
X95821943Y-97790000D01*
X95794236Y-97508691D01*
X95712182Y-97238192D01*
X95578932Y-96988899D01*
X95399608Y-96770392D01*
X95181101Y-96591068D01*
X95048142Y-96520000D01*
X95181101Y-96448932D01*
X95399608Y-96269608D01*
X95578932Y-96051101D01*
X95712182Y-95801808D01*
X95794236Y-95531309D01*
X95821943Y-95250000D01*
X95794236Y-94968691D01*
X95712182Y-94698192D01*
X95578932Y-94448899D01*
X95399608Y-94230392D01*
X95181101Y-94051068D01*
X95048142Y-93980000D01*
X95181101Y-93908932D01*
X95399608Y-93729608D01*
X95552772Y-93542977D01*
X95590313Y-93531589D01*
X95744059Y-93449411D01*
X95878817Y-93338817D01*
X95906534Y-93305044D01*
X98385050Y-90826529D01*
X98418817Y-90798817D01*
X98529411Y-90664059D01*
X98611589Y-90510313D01*
X98662195Y-90343490D01*
X98675000Y-90213477D01*
X98675000Y-90213467D01*
X98679281Y-90170001D01*
X98675000Y-90126535D01*
X98675000Y-84740961D01*
X99808096Y-84740961D01*
X99930085Y-84963000D01*
X101473000Y-84963000D01*
X101473000Y-83655000D01*
X101727000Y-83655000D01*
X101727000Y-84963000D01*
X103269915Y-84963000D01*
X103391904Y-84740961D01*
X103374367Y-84658182D01*
X103263715Y-84398354D01*
X103104500Y-84165105D01*
X102902839Y-83967399D01*
X102666483Y-83812834D01*
X102404514Y-83707350D01*
X102127000Y-83655000D01*
X101727000Y-83655000D01*
X101473000Y-83655000D01*
X101073000Y-83655000D01*
X100795486Y-83707350D01*
X100533517Y-83812834D01*
X100297161Y-83967399D01*
X100095500Y-84165105D01*
X99936285Y-84398354D01*
X99825633Y-84658182D01*
X99808096Y-84740961D01*
X98675000Y-84740961D01*
X98675000Y-80922702D01*
X99516903Y-80922702D01*
X99588486Y-81166671D01*
X99843996Y-81287571D01*
X100118184Y-81356300D01*
X100400512Y-81370217D01*
X100680130Y-81328787D01*
X100946292Y-81233603D01*
X101071514Y-81166671D01*
X101131360Y-80962702D01*
X104596903Y-80962702D01*
X104668486Y-81206671D01*
X104923996Y-81327571D01*
X105198184Y-81396300D01*
X105480512Y-81410217D01*
X105760130Y-81368787D01*
X106026292Y-81273603D01*
X106151514Y-81206671D01*
X106223097Y-80962702D01*
X105410000Y-80149605D01*
X104596903Y-80962702D01*
X101131360Y-80962702D01*
X101143097Y-80922702D01*
X100330000Y-80109605D01*
X99516903Y-80922702D01*
X98675000Y-80922702D01*
X98675000Y-80000512D01*
X98889783Y-80000512D01*
X98931213Y-80280130D01*
X99026397Y-80546292D01*
X99093329Y-80671514D01*
X99337298Y-80743097D01*
X100150395Y-79930000D01*
X100509605Y-79930000D01*
X101322702Y-80743097D01*
X101566671Y-80671514D01*
X101687571Y-80416004D01*
X101756300Y-80141816D01*
X101761293Y-80040512D01*
X103969783Y-80040512D01*
X104011213Y-80320130D01*
X104106397Y-80586292D01*
X104173329Y-80711514D01*
X104417298Y-80783097D01*
X105230395Y-79970000D01*
X105589605Y-79970000D01*
X106402702Y-80783097D01*
X106646671Y-80711514D01*
X106767571Y-80456004D01*
X106836300Y-80181816D01*
X106850217Y-79899488D01*
X106808787Y-79619870D01*
X106713603Y-79353708D01*
X106646671Y-79228486D01*
X106402702Y-79156903D01*
X105589605Y-79970000D01*
X105230395Y-79970000D01*
X104417298Y-79156903D01*
X104173329Y-79228486D01*
X104052429Y-79483996D01*
X103983700Y-79758184D01*
X103969783Y-80040512D01*
X101761293Y-80040512D01*
X101770217Y-79859488D01*
X101728787Y-79579870D01*
X101633603Y-79313708D01*
X101566671Y-79188486D01*
X101322702Y-79116903D01*
X100509605Y-79930000D01*
X100150395Y-79930000D01*
X99337298Y-79116903D01*
X99093329Y-79188486D01*
X98972429Y-79443996D01*
X98903700Y-79718184D01*
X98889783Y-80000512D01*
X98675000Y-80000512D01*
X98675000Y-78937298D01*
X99516903Y-78937298D01*
X100330000Y-79750395D01*
X101143097Y-78937298D01*
X101071514Y-78693329D01*
X100816004Y-78572429D01*
X100541816Y-78503700D01*
X100259488Y-78489783D01*
X99979870Y-78531213D01*
X99713708Y-78626397D01*
X99588486Y-78693329D01*
X99516903Y-78937298D01*
X98675000Y-78937298D01*
X98675000Y-74026578D01*
X99426579Y-73275000D01*
X103773422Y-73275000D01*
X106023470Y-75525049D01*
X106051183Y-75558817D01*
X106084951Y-75586530D01*
X106084953Y-75586532D01*
X106112451Y-75609099D01*
X106185941Y-75669411D01*
X106339687Y-75751589D01*
X106506510Y-75802195D01*
X106636523Y-75815000D01*
X106636533Y-75815000D01*
X106679999Y-75819281D01*
X106723465Y-75815000D01*
X117431531Y-75815000D01*
X117475000Y-75819281D01*
X117518469Y-75815000D01*
X117518477Y-75815000D01*
X117648490Y-75802195D01*
X117815313Y-75751589D01*
X117969059Y-75669411D01*
X118103817Y-75558817D01*
X118131534Y-75525044D01*
X120610050Y-73046529D01*
X120643817Y-73018817D01*
X120671533Y-72985046D01*
X120754410Y-72884060D01*
X120754411Y-72884059D01*
X120836589Y-72730313D01*
X120887195Y-72563490D01*
X120900000Y-72433477D01*
X120900000Y-72433467D01*
X120904281Y-72390001D01*
X120900000Y-72346535D01*
X120900000Y-72314656D01*
X120961632Y-72273475D01*
X121168475Y-72066632D01*
X121285000Y-71892240D01*
X121401525Y-72066632D01*
X121608368Y-72273475D01*
X121670001Y-72314657D01*
X121670000Y-73928421D01*
X120826439Y-74771983D01*
X120791335Y-74765000D01*
X120508665Y-74765000D01*
X120231426Y-74820147D01*
X119970273Y-74928320D01*
X119735241Y-75085363D01*
X119535363Y-75285241D01*
X119378320Y-75520273D01*
X119270147Y-75781426D01*
X119215000Y-76058665D01*
X119215000Y-76341335D01*
X119270147Y-76618574D01*
X119378320Y-76879727D01*
X119535363Y-77114759D01*
X119735241Y-77314637D01*
X119970273Y-77471680D01*
X120231426Y-77579853D01*
X120508665Y-77635000D01*
X120791335Y-77635000D01*
X121068574Y-77579853D01*
X121329727Y-77471680D01*
X121564759Y-77314637D01*
X121764637Y-77114759D01*
X121921680Y-76879727D01*
X122029853Y-76618574D01*
X122085000Y-76341335D01*
X122085000Y-76058665D01*
X122078017Y-76023561D01*
X123150050Y-74951529D01*
X123183817Y-74923817D01*
X123294411Y-74789059D01*
X123376589Y-74635313D01*
X123427195Y-74468490D01*
X123440000Y-74338477D01*
X123440000Y-74338469D01*
X123444281Y-74295000D01*
X123440000Y-74251531D01*
X123440000Y-72314656D01*
X123501632Y-72273475D01*
X123708475Y-72066632D01*
X123825000Y-71892240D01*
X123941525Y-72066632D01*
X124148368Y-72273475D01*
X124391589Y-72435990D01*
X124661842Y-72547932D01*
X124948740Y-72605000D01*
X125241260Y-72605000D01*
X125528158Y-72547932D01*
X125798411Y-72435990D01*
X126041632Y-72273475D01*
X126248475Y-72066632D01*
X126410990Y-71823411D01*
X126522932Y-71553158D01*
X126580000Y-71266260D01*
X126580000Y-70973740D01*
X126522932Y-70686842D01*
X126410990Y-70416589D01*
X126248475Y-70173368D01*
X126041632Y-69966525D01*
X125798411Y-69804010D01*
X125528158Y-69692068D01*
X125241260Y-69635000D01*
X124948740Y-69635000D01*
X124661842Y-69692068D01*
X124391589Y-69804010D01*
X124148368Y-69966525D01*
X123941525Y-70173368D01*
X123825000Y-70347760D01*
X123708475Y-70173368D01*
X123501632Y-69966525D01*
X123258411Y-69804010D01*
X122988158Y-69692068D01*
X122701260Y-69635000D01*
X122408740Y-69635000D01*
X122121842Y-69692068D01*
X121851589Y-69804010D01*
X121608368Y-69966525D01*
X121401525Y-70173368D01*
X121285000Y-70347760D01*
X121168475Y-70173368D01*
X120961632Y-69966525D01*
X120718411Y-69804010D01*
X120448158Y-69692068D01*
X120161260Y-69635000D01*
X119868740Y-69635000D01*
X119581842Y-69692068D01*
X119311589Y-69804010D01*
X119068368Y-69966525D01*
X118861525Y-70173368D01*
X118745000Y-70347760D01*
X118628475Y-70173368D01*
X118421632Y-69966525D01*
X118178411Y-69804010D01*
X117908158Y-69692068D01*
X117621260Y-69635000D01*
X117328740Y-69635000D01*
X117041842Y-69692068D01*
X116771589Y-69804010D01*
X116528368Y-69966525D01*
X116321525Y-70173368D01*
X116205000Y-70347760D01*
X116088475Y-70173368D01*
X115881632Y-69966525D01*
X115638411Y-69804010D01*
X115368158Y-69692068D01*
X115081260Y-69635000D01*
X114788740Y-69635000D01*
X114501842Y-69692068D01*
X114231589Y-69804010D01*
X113988368Y-69966525D01*
X113781525Y-70173368D01*
X113665000Y-70347760D01*
X113548475Y-70173368D01*
X113341632Y-69966525D01*
X113098411Y-69804010D01*
X112828158Y-69692068D01*
X112541260Y-69635000D01*
X112248740Y-69635000D01*
X111961842Y-69692068D01*
X111691589Y-69804010D01*
X111448368Y-69966525D01*
X111316513Y-70098380D01*
X111294502Y-70025820D01*
X111235537Y-69915506D01*
X111156185Y-69818815D01*
X111059494Y-69739463D01*
X110949180Y-69680498D01*
X110829482Y-69644188D01*
X110705000Y-69631928D01*
X109005000Y-69631928D01*
X108880518Y-69644188D01*
X108760820Y-69680498D01*
X108650506Y-69739463D01*
X108553815Y-69818815D01*
X108474463Y-69915506D01*
X108415498Y-70025820D01*
X108379188Y-70145518D01*
X108366928Y-70270000D01*
X108366928Y-71970000D01*
X108379188Y-72094482D01*
X108415498Y-72214180D01*
X108474463Y-72324494D01*
X108553815Y-72421185D01*
X108650506Y-72500537D01*
X108760820Y-72559502D01*
X108880518Y-72595812D01*
X109005000Y-72608072D01*
X110705000Y-72608072D01*
X110829482Y-72595812D01*
X110949180Y-72559502D01*
X111059494Y-72500537D01*
X111156185Y-72421185D01*
X111235537Y-72324494D01*
X111294502Y-72214180D01*
X111316513Y-72141620D01*
X111448368Y-72273475D01*
X111691589Y-72435990D01*
X111961842Y-72547932D01*
X112248740Y-72605000D01*
X112541260Y-72605000D01*
X112828158Y-72547932D01*
X113098411Y-72435990D01*
X113341632Y-72273475D01*
X113548475Y-72066632D01*
X113665000Y-71892240D01*
X113781525Y-72066632D01*
X113988368Y-72273475D01*
X114231589Y-72435990D01*
X114501842Y-72547932D01*
X114788740Y-72605000D01*
X115081260Y-72605000D01*
X115368158Y-72547932D01*
X115638411Y-72435990D01*
X115881632Y-72273475D01*
X116088475Y-72066632D01*
X116205000Y-71892240D01*
X116321525Y-72066632D01*
X116434157Y-72179264D01*
X115838422Y-72775000D01*
X108316579Y-72775000D01*
X106066534Y-70524956D01*
X106038817Y-70491183D01*
X105904059Y-70380589D01*
X105750313Y-70298411D01*
X105583490Y-70247805D01*
X105453477Y-70235000D01*
X105453469Y-70235000D01*
X105410000Y-70230719D01*
X105366531Y-70235000D01*
X97833465Y-70235000D01*
X97789999Y-70230719D01*
X97746533Y-70235000D01*
X97746523Y-70235000D01*
X97616510Y-70247805D01*
X97449687Y-70298411D01*
X97295941Y-70380589D01*
X97295939Y-70380590D01*
X97295940Y-70380590D01*
X97194953Y-70463468D01*
X97194951Y-70463470D01*
X97161183Y-70491183D01*
X97133470Y-70524951D01*
X95924951Y-71733471D01*
X95891184Y-71761183D01*
X95863471Y-71794951D01*
X95863468Y-71794954D01*
X95780590Y-71895941D01*
X95698412Y-72049687D01*
X95647805Y-72216510D01*
X95630719Y-72390000D01*
X95635001Y-72433476D01*
X95635000Y-84393795D01*
X95578932Y-84288899D01*
X95399608Y-84070392D01*
X95181101Y-83891068D01*
X94931808Y-83757818D01*
X94661309Y-83675764D01*
X94450492Y-83655000D01*
X93509508Y-83655000D01*
X93298691Y-83675764D01*
X93028192Y-83757818D01*
X92778899Y-83891068D01*
X92560392Y-84070392D01*
X92381068Y-84288899D01*
X92247818Y-84538192D01*
X92165764Y-84808691D01*
X92138057Y-85090000D01*
X92165764Y-85371309D01*
X92247818Y-85641808D01*
X92381068Y-85891101D01*
X92560392Y-86109608D01*
X92778899Y-86288932D01*
X92911858Y-86360000D01*
X92778899Y-86431068D01*
X92560392Y-86610392D01*
X92381068Y-86828899D01*
X92247818Y-87078192D01*
X92165764Y-87348691D01*
X92138057Y-87630000D01*
X92165764Y-87911309D01*
X92247818Y-88181808D01*
X92381068Y-88431101D01*
X92560392Y-88649608D01*
X92778899Y-88828932D01*
X92911858Y-88900000D01*
X92778899Y-88971068D01*
X92560392Y-89150392D01*
X92407228Y-89337023D01*
X92369686Y-89348411D01*
X92215941Y-89430589D01*
X92114953Y-89513468D01*
X92114951Y-89513470D01*
X92081183Y-89541183D01*
X92053470Y-89574951D01*
X88304951Y-93323470D01*
X88271184Y-93351183D01*
X88243471Y-93384951D01*
X88243468Y-93384954D01*
X88160590Y-93485941D01*
X88078412Y-93639687D01*
X88027805Y-93806510D01*
X88010719Y-93980000D01*
X87045000Y-93980000D01*
X87045000Y-69265000D01*
X149175000Y-69265000D01*
X149175001Y-122505000D01*
G04 #@! TA.AperFunction,Conductor*
D25*
G36*
X149175001Y-122505000D02*
G01*
X87045000Y-122505000D01*
X87045000Y-93980000D01*
X88010719Y-93980000D01*
X88015001Y-94023479D01*
X88015000Y-112986531D01*
X88010719Y-113030000D01*
X88015000Y-113073469D01*
X88015000Y-113073476D01*
X88026212Y-113187314D01*
X88027805Y-113203490D01*
X88043157Y-113254096D01*
X88078411Y-113370312D01*
X88160589Y-113524058D01*
X88271183Y-113658817D01*
X88304954Y-113686532D01*
X89513470Y-114895049D01*
X89541183Y-114928817D01*
X89574951Y-114956530D01*
X89574953Y-114956532D01*
X89646452Y-115015210D01*
X89675941Y-115039411D01*
X89829687Y-115121589D01*
X89996510Y-115172195D01*
X90126523Y-115185000D01*
X90126533Y-115185000D01*
X90169999Y-115189281D01*
X90213465Y-115185000D01*
X104096531Y-115185000D01*
X104140000Y-115189281D01*
X104183469Y-115185000D01*
X104183477Y-115185000D01*
X104313490Y-115172195D01*
X104480313Y-115121589D01*
X104634059Y-115039411D01*
X104768817Y-114928817D01*
X104796534Y-114895044D01*
X108316579Y-111375000D01*
X109793796Y-111375000D01*
X109688900Y-111431068D01*
X109470393Y-111610392D01*
X109291068Y-111828899D01*
X109157818Y-112078192D01*
X109075764Y-112348691D01*
X109055000Y-112559508D01*
X109055000Y-113500491D01*
X109075764Y-113711308D01*
X109157818Y-113981807D01*
X109291068Y-114231100D01*
X109470392Y-114449607D01*
X109688899Y-114628932D01*
X109938192Y-114762182D01*
X110208691Y-114844236D01*
X110490000Y-114871943D01*
X110771308Y-114844236D01*
X111041807Y-114762182D01*
X111291100Y-114628932D01*
X111509607Y-114449608D01*
X111688932Y-114231101D01*
X111760000Y-114098142D01*
X111831068Y-114231100D01*
X112010392Y-114449607D01*
X112228899Y-114628932D01*
X112478192Y-114762182D01*
X112748691Y-114844236D01*
X113030000Y-114871943D01*
X113311308Y-114844236D01*
X113581807Y-114762182D01*
X113831100Y-114628932D01*
X114049607Y-114449608D01*
X114228932Y-114231101D01*
X114300000Y-114098142D01*
X114371068Y-114231100D01*
X114550392Y-114449607D01*
X114768899Y-114628932D01*
X115018192Y-114762182D01*
X115288691Y-114844236D01*
X115570000Y-114871943D01*
X115851308Y-114844236D01*
X116121807Y-114762182D01*
X116371100Y-114628932D01*
X116589607Y-114449608D01*
X116768932Y-114231101D01*
X116840000Y-114098142D01*
X116911068Y-114231100D01*
X117090392Y-114449607D01*
X117308899Y-114628932D01*
X117558192Y-114762182D01*
X117828691Y-114844236D01*
X118110000Y-114871943D01*
X118391308Y-114844236D01*
X118661807Y-114762182D01*
X118911100Y-114628932D01*
X119129607Y-114449608D01*
X119308932Y-114231101D01*
X119380000Y-114098142D01*
X119451068Y-114231100D01*
X119630392Y-114449607D01*
X119848899Y-114628932D01*
X120098192Y-114762182D01*
X120368691Y-114844236D01*
X120650000Y-114871943D01*
X120931308Y-114844236D01*
X121201807Y-114762182D01*
X121451100Y-114628932D01*
X121669607Y-114449608D01*
X121848932Y-114231101D01*
X121920000Y-114098142D01*
X121991068Y-114231100D01*
X122170392Y-114449607D01*
X122388899Y-114628932D01*
X122638192Y-114762182D01*
X122908691Y-114844236D01*
X123190000Y-114871943D01*
X123471308Y-114844236D01*
X123741807Y-114762182D01*
X123991100Y-114628932D01*
X124209607Y-114449608D01*
X124388932Y-114231101D01*
X124460000Y-114098142D01*
X124531068Y-114231100D01*
X124710392Y-114449607D01*
X124928899Y-114628932D01*
X125178192Y-114762182D01*
X125448691Y-114844236D01*
X125730000Y-114871943D01*
X126011308Y-114844236D01*
X126281807Y-114762182D01*
X126491598Y-114650046D01*
X125311645Y-115830000D01*
X124509604Y-115830000D01*
X124459999Y-115825114D01*
X124410394Y-115830000D01*
X124410392Y-115830000D01*
X124262006Y-115844615D01*
X124071620Y-115902368D01*
X123896160Y-115996153D01*
X123742367Y-116122367D01*
X123710744Y-116160900D01*
X121240906Y-118630739D01*
X121202367Y-118662367D01*
X121076153Y-118816160D01*
X120982369Y-118991620D01*
X120982368Y-118991621D01*
X120924615Y-119182006D01*
X120905114Y-119380000D01*
X120910000Y-119429608D01*
X120910000Y-119559893D01*
X120766525Y-119703368D01*
X120650000Y-119877760D01*
X120533475Y-119703368D01*
X120326632Y-119496525D01*
X120083411Y-119334010D01*
X119813158Y-119222068D01*
X119526260Y-119165000D01*
X119233740Y-119165000D01*
X118946842Y-119222068D01*
X118676589Y-119334010D01*
X118433368Y-119496525D01*
X118226525Y-119703368D01*
X118110000Y-119877760D01*
X117993475Y-119703368D01*
X117786632Y-119496525D01*
X117543411Y-119334010D01*
X117273158Y-119222068D01*
X116986260Y-119165000D01*
X116693740Y-119165000D01*
X116406842Y-119222068D01*
X116136589Y-119334010D01*
X115893368Y-119496525D01*
X115686525Y-119703368D01*
X115524010Y-119946589D01*
X115412068Y-120216842D01*
X115355000Y-120503740D01*
X115355000Y-120796260D01*
X115412068Y-121083158D01*
X115524010Y-121353411D01*
X115686525Y-121596632D01*
X115893368Y-121803475D01*
X116136589Y-121965990D01*
X116406842Y-122077932D01*
X116693740Y-122135000D01*
X116986260Y-122135000D01*
X117273158Y-122077932D01*
X117543411Y-121965990D01*
X117786632Y-121803475D01*
X117993475Y-121596632D01*
X118110000Y-121422240D01*
X118226525Y-121596632D01*
X118433368Y-121803475D01*
X118676589Y-121965990D01*
X118946842Y-122077932D01*
X119233740Y-122135000D01*
X119526260Y-122135000D01*
X119813158Y-122077932D01*
X120083411Y-121965990D01*
X120326632Y-121803475D01*
X120533475Y-121596632D01*
X120650000Y-121422240D01*
X120766525Y-121596632D01*
X120973368Y-121803475D01*
X121216589Y-121965990D01*
X121486842Y-122077932D01*
X121773740Y-122135000D01*
X122066260Y-122135000D01*
X122353158Y-122077932D01*
X122623411Y-121965990D01*
X122866632Y-121803475D01*
X123073475Y-121596632D01*
X123195195Y-121414466D01*
X123264822Y-121531355D01*
X123459731Y-121747588D01*
X123693080Y-121921641D01*
X123955901Y-122046825D01*
X124103110Y-122091476D01*
X124333000Y-121970155D01*
X124333000Y-120777000D01*
X124587000Y-120777000D01*
X124587000Y-121970155D01*
X124816890Y-122091476D01*
X124964099Y-122046825D01*
X125226920Y-121921641D01*
X125460269Y-121747588D01*
X125655178Y-121531355D01*
X125730000Y-121405745D01*
X125804822Y-121531355D01*
X125999731Y-121747588D01*
X126233080Y-121921641D01*
X126495901Y-122046825D01*
X126643110Y-122091476D01*
X126873000Y-121970155D01*
X126873000Y-120777000D01*
X124587000Y-120777000D01*
X124333000Y-120777000D01*
X124313000Y-120777000D01*
X124313000Y-120523000D01*
X124333000Y-120523000D01*
X124333000Y-119329845D01*
X124587000Y-119329845D01*
X124587000Y-120523000D01*
X126873000Y-120523000D01*
X126873000Y-119329845D01*
X127127000Y-119329845D01*
X127127000Y-120523000D01*
X127147000Y-120523000D01*
X127147000Y-120777000D01*
X127127000Y-120777000D01*
X127127000Y-121970155D01*
X127356890Y-122091476D01*
X127504099Y-122046825D01*
X127766920Y-121921641D01*
X128000269Y-121747588D01*
X128076034Y-121663534D01*
X128100498Y-121744180D01*
X128159463Y-121854494D01*
X128238815Y-121951185D01*
X128335506Y-122030537D01*
X128445820Y-122089502D01*
X128565518Y-122125812D01*
X128690000Y-122138072D01*
X130390000Y-122138072D01*
X130514482Y-122125812D01*
X130634180Y-122089502D01*
X130744494Y-122030537D01*
X130841185Y-121951185D01*
X130920537Y-121854494D01*
X130979502Y-121744180D01*
X131015812Y-121624482D01*
X131028072Y-121500000D01*
X131028072Y-119800000D01*
X133131928Y-119800000D01*
X133131928Y-121500000D01*
X133144188Y-121624482D01*
X133180498Y-121744180D01*
X133239463Y-121854494D01*
X133318815Y-121951185D01*
X133415506Y-122030537D01*
X133525820Y-122089502D01*
X133645518Y-122125812D01*
X133770000Y-122138072D01*
X135470000Y-122138072D01*
X135594482Y-122125812D01*
X135714180Y-122089502D01*
X135824494Y-122030537D01*
X135921185Y-121951185D01*
X136000537Y-121854494D01*
X136059502Y-121744180D01*
X136081513Y-121671620D01*
X136213368Y-121803475D01*
X136456589Y-121965990D01*
X136726842Y-122077932D01*
X137013740Y-122135000D01*
X137306260Y-122135000D01*
X137593158Y-122077932D01*
X137863411Y-121965990D01*
X138106632Y-121803475D01*
X138313475Y-121596632D01*
X138430000Y-121422240D01*
X138546525Y-121596632D01*
X138753368Y-121803475D01*
X138996589Y-121965990D01*
X139266842Y-122077932D01*
X139553740Y-122135000D01*
X139846260Y-122135000D01*
X140133158Y-122077932D01*
X140403411Y-121965990D01*
X140646632Y-121803475D01*
X140853475Y-121596632D01*
X140970000Y-121422240D01*
X141086525Y-121596632D01*
X141293368Y-121803475D01*
X141536589Y-121965990D01*
X141806842Y-122077932D01*
X142093740Y-122135000D01*
X142386260Y-122135000D01*
X142673158Y-122077932D01*
X142943411Y-121965990D01*
X143186632Y-121803475D01*
X143393475Y-121596632D01*
X143510000Y-121422240D01*
X143626525Y-121596632D01*
X143833368Y-121803475D01*
X144076589Y-121965990D01*
X144346842Y-122077932D01*
X144633740Y-122135000D01*
X144926260Y-122135000D01*
X145213158Y-122077932D01*
X145483411Y-121965990D01*
X145726632Y-121803475D01*
X145933475Y-121596632D01*
X146050000Y-121422240D01*
X146166525Y-121596632D01*
X146373368Y-121803475D01*
X146616589Y-121965990D01*
X146886842Y-122077932D01*
X147173740Y-122135000D01*
X147466260Y-122135000D01*
X147753158Y-122077932D01*
X148023411Y-121965990D01*
X148266632Y-121803475D01*
X148473475Y-121596632D01*
X148635990Y-121353411D01*
X148747932Y-121083158D01*
X148805000Y-120796260D01*
X148805000Y-120503740D01*
X148747932Y-120216842D01*
X148635990Y-119946589D01*
X148473475Y-119703368D01*
X148266632Y-119496525D01*
X148023411Y-119334010D01*
X147753158Y-119222068D01*
X147466260Y-119165000D01*
X147173740Y-119165000D01*
X146886842Y-119222068D01*
X146616589Y-119334010D01*
X146373368Y-119496525D01*
X146166525Y-119703368D01*
X146050000Y-119877760D01*
X145933475Y-119703368D01*
X145726632Y-119496525D01*
X145483411Y-119334010D01*
X145213158Y-119222068D01*
X144926260Y-119165000D01*
X144633740Y-119165000D01*
X144346842Y-119222068D01*
X144076589Y-119334010D01*
X143833368Y-119496525D01*
X143626525Y-119703368D01*
X143510000Y-119877760D01*
X143393475Y-119703368D01*
X143186632Y-119496525D01*
X142943411Y-119334010D01*
X142673158Y-119222068D01*
X142386260Y-119165000D01*
X142093740Y-119165000D01*
X141806842Y-119222068D01*
X141536589Y-119334010D01*
X141293368Y-119496525D01*
X141086525Y-119703368D01*
X140970000Y-119877760D01*
X140853475Y-119703368D01*
X140646632Y-119496525D01*
X140403411Y-119334010D01*
X140133158Y-119222068D01*
X139846260Y-119165000D01*
X139553740Y-119165000D01*
X139266842Y-119222068D01*
X138996589Y-119334010D01*
X138753368Y-119496525D01*
X138546525Y-119703368D01*
X138430000Y-119877760D01*
X138313475Y-119703368D01*
X138106632Y-119496525D01*
X137863411Y-119334010D01*
X137593158Y-119222068D01*
X137306260Y-119165000D01*
X137013740Y-119165000D01*
X136726842Y-119222068D01*
X136456589Y-119334010D01*
X136213368Y-119496525D01*
X136081513Y-119628380D01*
X136059502Y-119555820D01*
X136000537Y-119445506D01*
X135921185Y-119348815D01*
X135824494Y-119269463D01*
X135714180Y-119210498D01*
X135594482Y-119174188D01*
X135470000Y-119161928D01*
X133770000Y-119161928D01*
X133645518Y-119174188D01*
X133525820Y-119210498D01*
X133415506Y-119269463D01*
X133318815Y-119348815D01*
X133239463Y-119445506D01*
X133180498Y-119555820D01*
X133144188Y-119675518D01*
X133131928Y-119800000D01*
X131028072Y-119800000D01*
X131015812Y-119675518D01*
X130979502Y-119555820D01*
X130920537Y-119445506D01*
X130841185Y-119348815D01*
X130744494Y-119269463D01*
X130634180Y-119210498D01*
X130514482Y-119174188D01*
X130390000Y-119161928D01*
X128690000Y-119161928D01*
X128565518Y-119174188D01*
X128445820Y-119210498D01*
X128335506Y-119269463D01*
X128238815Y-119348815D01*
X128159463Y-119445506D01*
X128100498Y-119555820D01*
X128076034Y-119636466D01*
X128000269Y-119552412D01*
X127766920Y-119378359D01*
X127504099Y-119253175D01*
X127356890Y-119208524D01*
X127127000Y-119329845D01*
X126873000Y-119329845D01*
X126643110Y-119208524D01*
X126495901Y-119253175D01*
X126233080Y-119378359D01*
X125999731Y-119552412D01*
X125804822Y-119768645D01*
X125730000Y-119894255D01*
X125655178Y-119768645D01*
X125460269Y-119552412D01*
X125226920Y-119378359D01*
X124964099Y-119253175D01*
X124816890Y-119208524D01*
X124587000Y-119329845D01*
X124333000Y-119329845D01*
X124103110Y-119208524D01*
X123955901Y-119253175D01*
X123693080Y-119378359D01*
X123459731Y-119552412D01*
X123264822Y-119768645D01*
X123195195Y-119885534D01*
X123073475Y-119703368D01*
X123049231Y-119679124D01*
X124878356Y-117850000D01*
X125680392Y-117850000D01*
X125730000Y-117854886D01*
X125927994Y-117835385D01*
X126118380Y-117777632D01*
X126293840Y-117683847D01*
X126447633Y-117557633D01*
X126479261Y-117519094D01*
X128949100Y-115049256D01*
X128987633Y-115017633D01*
X129113847Y-114863840D01*
X129207632Y-114688380D01*
X129265385Y-114497994D01*
X129268440Y-114466980D01*
X129289607Y-114449608D01*
X129468932Y-114231101D01*
X129571078Y-114040000D01*
X132030392Y-114040000D01*
X132080000Y-114044886D01*
X132277994Y-114025385D01*
X132468380Y-113967632D01*
X132643840Y-113873847D01*
X132797633Y-113747633D01*
X132829261Y-113709094D01*
X133343355Y-113195000D01*
X133491335Y-113195000D01*
X133768574Y-113139853D01*
X134029727Y-113031680D01*
X134264759Y-112874637D01*
X134464637Y-112674759D01*
X134621680Y-112439727D01*
X134729853Y-112178574D01*
X134785000Y-111901335D01*
X134785000Y-111618665D01*
X134729853Y-111341426D01*
X134621680Y-111080273D01*
X134464637Y-110845241D01*
X134264759Y-110645363D01*
X134029727Y-110488320D01*
X133768574Y-110380147D01*
X133491335Y-110325000D01*
X133208665Y-110325000D01*
X132931426Y-110380147D01*
X132670273Y-110488320D01*
X132435241Y-110645363D01*
X132235363Y-110845241D01*
X132078320Y-111080273D01*
X131970147Y-111341426D01*
X131915000Y-111618665D01*
X131915000Y-111766645D01*
X131661645Y-112020000D01*
X129571078Y-112020000D01*
X129468932Y-111828899D01*
X129289608Y-111610392D01*
X129071101Y-111431068D01*
X128821808Y-111297818D01*
X128551309Y-111215764D01*
X128270000Y-111188057D01*
X127988692Y-111215764D01*
X127718193Y-111297818D01*
X127468900Y-111431068D01*
X127250393Y-111610392D01*
X127071068Y-111828899D01*
X127000000Y-111961858D01*
X126928932Y-111828899D01*
X126921606Y-111819972D01*
X130988876Y-107752702D01*
X132536903Y-107752702D01*
X132608486Y-107996671D01*
X132863996Y-108117571D01*
X133138184Y-108186300D01*
X133420512Y-108200217D01*
X133700130Y-108158787D01*
X133966292Y-108063603D01*
X134091514Y-107996671D01*
X134163097Y-107752702D01*
X133350000Y-106939605D01*
X132536903Y-107752702D01*
X130988876Y-107752702D01*
X131405049Y-107336530D01*
X131438817Y-107308817D01*
X131508232Y-107224236D01*
X131549411Y-107174059D01*
X131567329Y-107140537D01*
X131631589Y-107020313D01*
X131682195Y-106853490D01*
X131684458Y-106830512D01*
X131909783Y-106830512D01*
X131951213Y-107110130D01*
X132046397Y-107376292D01*
X132113329Y-107501514D01*
X132357298Y-107573097D01*
X133170395Y-106760000D01*
X133529605Y-106760000D01*
X134342702Y-107573097D01*
X134586671Y-107501514D01*
X134707571Y-107246004D01*
X134776300Y-106971816D01*
X134790217Y-106689488D01*
X134748787Y-106409870D01*
X134653603Y-106143708D01*
X134586671Y-106018486D01*
X134342702Y-105946903D01*
X133529605Y-106760000D01*
X133170395Y-106760000D01*
X132357298Y-105946903D01*
X132113329Y-106018486D01*
X131992429Y-106273996D01*
X131923700Y-106548184D01*
X131909783Y-106830512D01*
X131684458Y-106830512D01*
X131695000Y-106723477D01*
X131695000Y-106723469D01*
X131699281Y-106680000D01*
X131695000Y-106636531D01*
X131695000Y-105767298D01*
X132536903Y-105767298D01*
X133350000Y-106580395D01*
X134163097Y-105767298D01*
X134091514Y-105523329D01*
X133836004Y-105402429D01*
X133561816Y-105333700D01*
X133279488Y-105319783D01*
X132999870Y-105361213D01*
X132733708Y-105456397D01*
X132608486Y-105523329D01*
X132536903Y-105767298D01*
X131695000Y-105767298D01*
X131695000Y-101860078D01*
X131829608Y-101749608D01*
X132008932Y-101531101D01*
X132080000Y-101398142D01*
X132151068Y-101531101D01*
X132330393Y-101749608D01*
X132548900Y-101928932D01*
X132798193Y-102062182D01*
X133068692Y-102144236D01*
X133350000Y-102171943D01*
X133631309Y-102144236D01*
X133901808Y-102062182D01*
X134151101Y-101928932D01*
X134369608Y-101749608D01*
X134548932Y-101531101D01*
X134620000Y-101398142D01*
X134691068Y-101531101D01*
X134870393Y-101749608D01*
X135088900Y-101928932D01*
X135338193Y-102062182D01*
X135608692Y-102144236D01*
X135890000Y-102171943D01*
X136171309Y-102144236D01*
X136441808Y-102062182D01*
X136691101Y-101928932D01*
X136909608Y-101749608D01*
X137088932Y-101531101D01*
X137160000Y-101398142D01*
X137231068Y-101531101D01*
X137410393Y-101749608D01*
X137628900Y-101928932D01*
X137878193Y-102062182D01*
X138148692Y-102144236D01*
X138430000Y-102171943D01*
X138711309Y-102144236D01*
X138981808Y-102062182D01*
X139231101Y-101928932D01*
X139449608Y-101749608D01*
X139628932Y-101531101D01*
X139697265Y-101403259D01*
X139847399Y-101632839D01*
X140045105Y-101834500D01*
X140278354Y-101993715D01*
X140538182Y-102104367D01*
X140620961Y-102121904D01*
X140843000Y-101999915D01*
X140843000Y-100457000D01*
X141097000Y-100457000D01*
X141097000Y-101999915D01*
X141319039Y-102121904D01*
X141401818Y-102104367D01*
X141661646Y-101993715D01*
X141894895Y-101834500D01*
X142092601Y-101632839D01*
X142247166Y-101396483D01*
X142352650Y-101134514D01*
X142405000Y-100857000D01*
X142405000Y-100457000D01*
X141097000Y-100457000D01*
X140843000Y-100457000D01*
X140823000Y-100457000D01*
X140823000Y-100203000D01*
X140843000Y-100203000D01*
X140843000Y-98660085D01*
X141097000Y-98660085D01*
X141097000Y-100203000D01*
X142405000Y-100203000D01*
X142405000Y-99803000D01*
X142352650Y-99525486D01*
X142247166Y-99263517D01*
X142092601Y-99027161D01*
X141894895Y-98825500D01*
X141661646Y-98666285D01*
X141401818Y-98555633D01*
X141319039Y-98538096D01*
X141097000Y-98660085D01*
X140843000Y-98660085D01*
X140620961Y-98538096D01*
X140538182Y-98555633D01*
X140278354Y-98666285D01*
X140045105Y-98825500D01*
X139847399Y-99027161D01*
X139697265Y-99256741D01*
X139628932Y-99128899D01*
X139449607Y-98910392D01*
X139231100Y-98731068D01*
X138981807Y-98597818D01*
X138711308Y-98515764D01*
X138430000Y-98488057D01*
X138148691Y-98515764D01*
X137878192Y-98597818D01*
X137628899Y-98731068D01*
X137410392Y-98910393D01*
X137231068Y-99128900D01*
X137160000Y-99261858D01*
X137088932Y-99128899D01*
X136909607Y-98910392D01*
X136691100Y-98731068D01*
X136441807Y-98597818D01*
X136171308Y-98515764D01*
X135890000Y-98488057D01*
X135608691Y-98515764D01*
X135338192Y-98597818D01*
X135088899Y-98731068D01*
X134870392Y-98910393D01*
X134691068Y-99128900D01*
X134620000Y-99261858D01*
X134548932Y-99128899D01*
X134369607Y-98910392D01*
X134151100Y-98731068D01*
X133901807Y-98597818D01*
X133631308Y-98515764D01*
X133350000Y-98488057D01*
X133068691Y-98515764D01*
X132798192Y-98597818D01*
X132548899Y-98731068D01*
X132330392Y-98910393D01*
X132151068Y-99128900D01*
X132080000Y-99261858D01*
X132008932Y-99128899D01*
X131829607Y-98910392D01*
X131611100Y-98731068D01*
X131361807Y-98597818D01*
X131091308Y-98515764D01*
X130810000Y-98488057D01*
X130528691Y-98515764D01*
X130258192Y-98597818D01*
X130008899Y-98731068D01*
X129790392Y-98910393D01*
X129611068Y-99128900D01*
X129540000Y-99261858D01*
X129468932Y-99128899D01*
X129289607Y-98910392D01*
X129071100Y-98731068D01*
X128821807Y-98597818D01*
X128551308Y-98515764D01*
X128270000Y-98488057D01*
X127988691Y-98515764D01*
X127718192Y-98597818D01*
X127468899Y-98731068D01*
X127250392Y-98910393D01*
X127071068Y-99128900D01*
X127000000Y-99261858D01*
X126928932Y-99128899D01*
X126749607Y-98910392D01*
X126531100Y-98731068D01*
X126281807Y-98597818D01*
X126011308Y-98515764D01*
X125730000Y-98488057D01*
X125448691Y-98515764D01*
X125178192Y-98597818D01*
X124928899Y-98731068D01*
X124710392Y-98910393D01*
X124531068Y-99128900D01*
X124460000Y-99261858D01*
X124388932Y-99128899D01*
X124209607Y-98910392D01*
X123991100Y-98731068D01*
X123741807Y-98597818D01*
X123471308Y-98515764D01*
X123190000Y-98488057D01*
X122908691Y-98515764D01*
X122638192Y-98597818D01*
X122388899Y-98731068D01*
X122170392Y-98910393D01*
X121991068Y-99128900D01*
X121920000Y-99261858D01*
X121848932Y-99128899D01*
X121669607Y-98910392D01*
X121451100Y-98731068D01*
X121201807Y-98597818D01*
X120931308Y-98515764D01*
X120650000Y-98488057D01*
X120368691Y-98515764D01*
X120098192Y-98597818D01*
X119848899Y-98731068D01*
X119630392Y-98910393D01*
X119451068Y-99128900D01*
X119380000Y-99261858D01*
X119308932Y-99128899D01*
X119129607Y-98910392D01*
X118911100Y-98731068D01*
X118661807Y-98597818D01*
X118391308Y-98515764D01*
X118110000Y-98488057D01*
X117828691Y-98515764D01*
X117558192Y-98597818D01*
X117308899Y-98731068D01*
X117090392Y-98910393D01*
X116911068Y-99128900D01*
X116840000Y-99261858D01*
X116768932Y-99128899D01*
X116589607Y-98910392D01*
X116371100Y-98731068D01*
X116121807Y-98597818D01*
X115851308Y-98515764D01*
X115570000Y-98488057D01*
X115288691Y-98515764D01*
X115018192Y-98597818D01*
X114768899Y-98731068D01*
X114550392Y-98910393D01*
X114371068Y-99128900D01*
X114300000Y-99261858D01*
X114228932Y-99128899D01*
X114049607Y-98910392D01*
X113831100Y-98731068D01*
X113581807Y-98597818D01*
X113311308Y-98515764D01*
X113030000Y-98488057D01*
X112748691Y-98515764D01*
X112478192Y-98597818D01*
X112228899Y-98731068D01*
X112010392Y-98910393D01*
X111831068Y-99128900D01*
X111760000Y-99261858D01*
X111688932Y-99128899D01*
X111509607Y-98910392D01*
X111291100Y-98731068D01*
X111041807Y-98597818D01*
X110771308Y-98515764D01*
X110490000Y-98488057D01*
X110208691Y-98515764D01*
X109938192Y-98597818D01*
X109688899Y-98731068D01*
X109470392Y-98910393D01*
X109377581Y-99023483D01*
X109375812Y-99005518D01*
X109339502Y-98885820D01*
X109280537Y-98775506D01*
X109201185Y-98678815D01*
X109104494Y-98599463D01*
X108994180Y-98540498D01*
X108874482Y-98504188D01*
X108750000Y-98491928D01*
X107150000Y-98491928D01*
X107025518Y-98504188D01*
X106905820Y-98540498D01*
X106795506Y-98599463D01*
X106698815Y-98678815D01*
X106619463Y-98775506D01*
X106560498Y-98885820D01*
X106524188Y-99005518D01*
X106511928Y-99130000D01*
X106511928Y-101530000D01*
X106524188Y-101654482D01*
X106560498Y-101774180D01*
X106619463Y-101884494D01*
X106698815Y-101981185D01*
X106795506Y-102060537D01*
X106905820Y-102119502D01*
X107025518Y-102155812D01*
X107150000Y-102168072D01*
X108670349Y-102168072D01*
X106313422Y-104525000D01*
X100696579Y-104525000D01*
X100479651Y-104308072D01*
X102800000Y-104308072D01*
X102924482Y-104295812D01*
X103044180Y-104259502D01*
X103154494Y-104200537D01*
X103251185Y-104121185D01*
X103330537Y-104024494D01*
X103389502Y-103914180D01*
X103425812Y-103794482D01*
X103438072Y-103670000D01*
X103438072Y-102070000D01*
X103425812Y-101945518D01*
X103389502Y-101825820D01*
X103330537Y-101715506D01*
X103251185Y-101618815D01*
X103154494Y-101539463D01*
X103044180Y-101480498D01*
X102924482Y-101444188D01*
X102906518Y-101442419D01*
X103019608Y-101349608D01*
X103172772Y-101162977D01*
X103210313Y-101151589D01*
X103364059Y-101069411D01*
X103498817Y-100958817D01*
X103526534Y-100925044D01*
X107046579Y-97405000D01*
X115526531Y-97405000D01*
X115570000Y-97409281D01*
X115613469Y-97405000D01*
X115613477Y-97405000D01*
X115743490Y-97392195D01*
X115910313Y-97341589D01*
X116064059Y-97259411D01*
X116198817Y-97148817D01*
X116226534Y-97115044D01*
X126325051Y-87016528D01*
X126358817Y-86988817D01*
X126386533Y-86955046D01*
X126469411Y-86854059D01*
X126486449Y-86822182D01*
X126551589Y-86700313D01*
X126562977Y-86662772D01*
X126749608Y-86509608D01*
X126928932Y-86291101D01*
X127000000Y-86158142D01*
X127071068Y-86291101D01*
X127250393Y-86509608D01*
X127468900Y-86688932D01*
X127718193Y-86822182D01*
X127988692Y-86904236D01*
X128270000Y-86931943D01*
X128551309Y-86904236D01*
X128821808Y-86822182D01*
X129071101Y-86688932D01*
X129289608Y-86509608D01*
X129468932Y-86291101D01*
X129540000Y-86158142D01*
X129611068Y-86291101D01*
X129790393Y-86509608D01*
X129977023Y-86662771D01*
X129988411Y-86700312D01*
X130070589Y-86854058D01*
X130181183Y-86988817D01*
X130214956Y-87016534D01*
X135233470Y-92035049D01*
X135261183Y-92068817D01*
X135294951Y-92096530D01*
X135294953Y-92096532D01*
X135370086Y-92158192D01*
X135395941Y-92179411D01*
X135549687Y-92261589D01*
X135716510Y-92312195D01*
X135846523Y-92325000D01*
X135846531Y-92325000D01*
X135890000Y-92329281D01*
X135933469Y-92325000D01*
X146006531Y-92325000D01*
X146050000Y-92329281D01*
X146093469Y-92325000D01*
X146093477Y-92325000D01*
X146223490Y-92312195D01*
X146390313Y-92261589D01*
X146544059Y-92179411D01*
X146678817Y-92068817D01*
X146706534Y-92035044D01*
X147915049Y-90826530D01*
X147948817Y-90798817D01*
X148059411Y-90664059D01*
X148141589Y-90510313D01*
X148192195Y-90343490D01*
X148205000Y-90213477D01*
X148205000Y-90213467D01*
X148209281Y-90170001D01*
X148205000Y-90126535D01*
X148205000Y-78472975D01*
X148356962Y-78321013D01*
X148503061Y-78102359D01*
X148603696Y-77859405D01*
X148655000Y-77601486D01*
X148655000Y-77338514D01*
X148603696Y-77080595D01*
X148503061Y-76837641D01*
X148356962Y-76618987D01*
X148171013Y-76433038D01*
X147952359Y-76286939D01*
X147742470Y-76200000D01*
X147952359Y-76113061D01*
X148171013Y-75966962D01*
X148356962Y-75781013D01*
X148503061Y-75562359D01*
X148603696Y-75319405D01*
X148655000Y-75061486D01*
X148655000Y-74798514D01*
X148603696Y-74540595D01*
X148503061Y-74297641D01*
X148356962Y-74078987D01*
X148205000Y-73927025D01*
X148205000Y-72604625D01*
X148294482Y-72595812D01*
X148414180Y-72559502D01*
X148524494Y-72500537D01*
X148621185Y-72421185D01*
X148700537Y-72324494D01*
X148759502Y-72214180D01*
X148795812Y-72094482D01*
X148808072Y-71970000D01*
X148808072Y-70270000D01*
X148795812Y-70145518D01*
X148759502Y-70025820D01*
X148700537Y-69915506D01*
X148621185Y-69818815D01*
X148524494Y-69739463D01*
X148414180Y-69680498D01*
X148294482Y-69644188D01*
X148170000Y-69631928D01*
X146470000Y-69631928D01*
X146345518Y-69644188D01*
X146225820Y-69680498D01*
X146115506Y-69739463D01*
X146018815Y-69818815D01*
X145939463Y-69915506D01*
X145880498Y-70025820D01*
X145858487Y-70098380D01*
X145726632Y-69966525D01*
X145483411Y-69804010D01*
X145213158Y-69692068D01*
X144926260Y-69635000D01*
X144633740Y-69635000D01*
X144346842Y-69692068D01*
X144076589Y-69804010D01*
X143833368Y-69966525D01*
X143626525Y-70173368D01*
X143510000Y-70347760D01*
X143393475Y-70173368D01*
X143186632Y-69966525D01*
X142943411Y-69804010D01*
X142673158Y-69692068D01*
X142386260Y-69635000D01*
X142093740Y-69635000D01*
X141806842Y-69692068D01*
X141536589Y-69804010D01*
X141293368Y-69966525D01*
X141086525Y-70173368D01*
X140970000Y-70347760D01*
X140853475Y-70173368D01*
X140646632Y-69966525D01*
X140403411Y-69804010D01*
X140133158Y-69692068D01*
X139846260Y-69635000D01*
X139553740Y-69635000D01*
X139266842Y-69692068D01*
X138996589Y-69804010D01*
X138753368Y-69966525D01*
X138546525Y-70173368D01*
X138430000Y-70347760D01*
X138313475Y-70173368D01*
X138106632Y-69966525D01*
X137863411Y-69804010D01*
X137593158Y-69692068D01*
X137306260Y-69635000D01*
X137013740Y-69635000D01*
X136726842Y-69692068D01*
X136456589Y-69804010D01*
X136213368Y-69966525D01*
X136006525Y-70173368D01*
X135890000Y-70347760D01*
X135773475Y-70173368D01*
X135566632Y-69966525D01*
X135323411Y-69804010D01*
X135053158Y-69692068D01*
X134766260Y-69635000D01*
X134473740Y-69635000D01*
X134186842Y-69692068D01*
X133916589Y-69804010D01*
X133673368Y-69966525D01*
X133466525Y-70173368D01*
X133350000Y-70347760D01*
X133233475Y-70173368D01*
X133026632Y-69966525D01*
X132783411Y-69804010D01*
X132513158Y-69692068D01*
X132226260Y-69635000D01*
X131933740Y-69635000D01*
X131646842Y-69692068D01*
X131376589Y-69804010D01*
X131133368Y-69966525D01*
X130926525Y-70173368D01*
X130810000Y-70347760D01*
X130693475Y-70173368D01*
X130486632Y-69966525D01*
X130243411Y-69804010D01*
X129973158Y-69692068D01*
X129686260Y-69635000D01*
X129393740Y-69635000D01*
X129106842Y-69692068D01*
X128836589Y-69804010D01*
X128593368Y-69966525D01*
X128386525Y-70173368D01*
X128224010Y-70416589D01*
X128112068Y-70686842D01*
X128055000Y-70973740D01*
X128055000Y-71266260D01*
X128112068Y-71553158D01*
X128224010Y-71823411D01*
X128386525Y-72066632D01*
X128593368Y-72273475D01*
X128655001Y-72314657D01*
X128655000Y-73927025D01*
X128503038Y-74078987D01*
X128356939Y-74297641D01*
X128256304Y-74540595D01*
X128205000Y-74798514D01*
X128205000Y-75061486D01*
X128256304Y-75319405D01*
X128356939Y-75562359D01*
X128503038Y-75781013D01*
X128688987Y-75966962D01*
X128907641Y-76113061D01*
X129117530Y-76200000D01*
X128907641Y-76286939D01*
X128688987Y-76433038D01*
X128503038Y-76618987D01*
X128356939Y-76837641D01*
X128256304Y-77080595D01*
X128205000Y-77338514D01*
X128205000Y-77601486D01*
X128256304Y-77859405D01*
X128356939Y-78102359D01*
X128503038Y-78321013D01*
X128688987Y-78506962D01*
X128907641Y-78653061D01*
X129150595Y-78753696D01*
X129408514Y-78805000D01*
X129671486Y-78805000D01*
X129929405Y-78753696D01*
X130172359Y-78653061D01*
X130391013Y-78506962D01*
X130576962Y-78321013D01*
X130723061Y-78102359D01*
X130810000Y-77892470D01*
X130896939Y-78102359D01*
X131043038Y-78321013D01*
X131228987Y-78506962D01*
X131447641Y-78653061D01*
X131690595Y-78753696D01*
X131948514Y-78805000D01*
X132211486Y-78805000D01*
X132469405Y-78753696D01*
X132712359Y-78653061D01*
X132931013Y-78506962D01*
X133116962Y-78321013D01*
X133263061Y-78102359D01*
X133350000Y-77892470D01*
X133436939Y-78102359D01*
X133583038Y-78321013D01*
X133768987Y-78506962D01*
X133987641Y-78653061D01*
X134230595Y-78753696D01*
X134488514Y-78805000D01*
X134751486Y-78805000D01*
X135009405Y-78753696D01*
X135252359Y-78653061D01*
X135471013Y-78506962D01*
X135656962Y-78321013D01*
X135803061Y-78102359D01*
X135890000Y-77892470D01*
X135976939Y-78102359D01*
X136123038Y-78321013D01*
X136275000Y-78472975D01*
X136275001Y-79966521D01*
X136270719Y-80010000D01*
X136287805Y-80183490D01*
X136338412Y-80350313D01*
X136420590Y-80504059D01*
X136503468Y-80605046D01*
X136503471Y-80605049D01*
X136531184Y-80638817D01*
X136564951Y-80666530D01*
X139778394Y-83879973D01*
X139771068Y-83888900D01*
X139700000Y-84021858D01*
X139628932Y-83888899D01*
X139449607Y-83670392D01*
X139231100Y-83491068D01*
X138981807Y-83357818D01*
X138711308Y-83275764D01*
X138430000Y-83248057D01*
X138148691Y-83275764D01*
X137878192Y-83357818D01*
X137628899Y-83491068D01*
X137410392Y-83670393D01*
X137231068Y-83888900D01*
X137160000Y-84021858D01*
X137088932Y-83888899D01*
X136909607Y-83670392D01*
X136691100Y-83491068D01*
X136441807Y-83357818D01*
X136171308Y-83275764D01*
X135890000Y-83248057D01*
X135608691Y-83275764D01*
X135338192Y-83357818D01*
X135088899Y-83491068D01*
X134870392Y-83670393D01*
X134691068Y-83888900D01*
X134620000Y-84021858D01*
X134548932Y-83888899D01*
X134369607Y-83670392D01*
X134151100Y-83491068D01*
X133901807Y-83357818D01*
X133631308Y-83275764D01*
X133350000Y-83248057D01*
X133068691Y-83275764D01*
X132798192Y-83357818D01*
X132548899Y-83491068D01*
X132330392Y-83670393D01*
X132151068Y-83888900D01*
X132080000Y-84021858D01*
X132008932Y-83888899D01*
X131829607Y-83670392D01*
X131611100Y-83491068D01*
X131361807Y-83357818D01*
X131091308Y-83275764D01*
X130810000Y-83248057D01*
X130528691Y-83275764D01*
X130258192Y-83357818D01*
X130008899Y-83491068D01*
X129790392Y-83670393D01*
X129611068Y-83888900D01*
X129540000Y-84021858D01*
X129468932Y-83888899D01*
X129289607Y-83670392D01*
X129071100Y-83491068D01*
X128821807Y-83357818D01*
X128551308Y-83275764D01*
X128270000Y-83248057D01*
X127988691Y-83275764D01*
X127718192Y-83357818D01*
X127468899Y-83491068D01*
X127250392Y-83670393D01*
X127071068Y-83888900D01*
X127000000Y-84021858D01*
X126928932Y-83888899D01*
X126749607Y-83670392D01*
X126531100Y-83491068D01*
X126281807Y-83357818D01*
X126011308Y-83275764D01*
X125730000Y-83248057D01*
X125448691Y-83275764D01*
X125178192Y-83357818D01*
X124928899Y-83491068D01*
X124710392Y-83670393D01*
X124531068Y-83888900D01*
X124460000Y-84021858D01*
X124388932Y-83888899D01*
X124209607Y-83670392D01*
X123991100Y-83491068D01*
X123741807Y-83357818D01*
X123471308Y-83275764D01*
X123190000Y-83248057D01*
X122908691Y-83275764D01*
X122638192Y-83357818D01*
X122388899Y-83491068D01*
X122170392Y-83670393D01*
X121991068Y-83888900D01*
X121920000Y-84021858D01*
X121848932Y-83888899D01*
X121669607Y-83670392D01*
X121451100Y-83491068D01*
X121201807Y-83357818D01*
X120931308Y-83275764D01*
X120650000Y-83248057D01*
X120368691Y-83275764D01*
X120098192Y-83357818D01*
X119848899Y-83491068D01*
X119630392Y-83670393D01*
X119451068Y-83888900D01*
X119380000Y-84021858D01*
X119308932Y-83888899D01*
X119129607Y-83670392D01*
X118911100Y-83491068D01*
X118661807Y-83357818D01*
X118391308Y-83275764D01*
X118110000Y-83248057D01*
X117828691Y-83275764D01*
X117558192Y-83357818D01*
X117308899Y-83491068D01*
X117090392Y-83670393D01*
X116911068Y-83888900D01*
X116840000Y-84021858D01*
X116768932Y-83888899D01*
X116589607Y-83670392D01*
X116371100Y-83491068D01*
X116121807Y-83357818D01*
X115851308Y-83275764D01*
X115570000Y-83248057D01*
X115288691Y-83275764D01*
X115018192Y-83357818D01*
X114768899Y-83491068D01*
X114550392Y-83670393D01*
X114371068Y-83888900D01*
X114300000Y-84021858D01*
X114228932Y-83888899D01*
X114049607Y-83670392D01*
X113915000Y-83559923D01*
X113915000Y-81204656D01*
X113976632Y-81163475D01*
X114183475Y-80956632D01*
X114300000Y-80782240D01*
X114416525Y-80956632D01*
X114623368Y-81163475D01*
X114866589Y-81325990D01*
X115136842Y-81437932D01*
X115423740Y-81495000D01*
X115716260Y-81495000D01*
X116003158Y-81437932D01*
X116273411Y-81325990D01*
X116516632Y-81163475D01*
X116723475Y-80956632D01*
X116764656Y-80895000D01*
X121876531Y-80895000D01*
X121920000Y-80899281D01*
X121963469Y-80895000D01*
X121963477Y-80895000D01*
X122093490Y-80882195D01*
X122260313Y-80831589D01*
X122414059Y-80749411D01*
X122548817Y-80638817D01*
X122576534Y-80605044D01*
X125553561Y-77628017D01*
X125588665Y-77635000D01*
X125871335Y-77635000D01*
X126148574Y-77579853D01*
X126409727Y-77471680D01*
X126644759Y-77314637D01*
X126844637Y-77114759D01*
X127001680Y-76879727D01*
X127109853Y-76618574D01*
X127165000Y-76341335D01*
X127165000Y-76058665D01*
X127109853Y-75781426D01*
X127001680Y-75520273D01*
X126844637Y-75285241D01*
X126644759Y-75085363D01*
X126409727Y-74928320D01*
X126148574Y-74820147D01*
X125871335Y-74765000D01*
X125588665Y-74765000D01*
X125311426Y-74820147D01*
X125050273Y-74928320D01*
X124815241Y-75085363D01*
X124615363Y-75285241D01*
X124458320Y-75520273D01*
X124350147Y-75781426D01*
X124295000Y-76058665D01*
X124295000Y-76341335D01*
X124301983Y-76376439D01*
X121553422Y-79125000D01*
X116764656Y-79125000D01*
X116723475Y-79063368D01*
X116580000Y-78919893D01*
X116580000Y-78789604D01*
X116584886Y-78739999D01*
X116579346Y-78683750D01*
X116565385Y-78542006D01*
X116507632Y-78351620D01*
X116413847Y-78176160D01*
X116287633Y-78022367D01*
X116249094Y-77990739D01*
X115049261Y-76790906D01*
X115017633Y-76752367D01*
X114863840Y-76626153D01*
X114688380Y-76532368D01*
X114497994Y-76474615D01*
X114349608Y-76460000D01*
X114300000Y-76455114D01*
X114250392Y-76460000D01*
X107999608Y-76460000D01*
X107950000Y-76455114D01*
X107900393Y-76460000D01*
X106809870Y-76460000D01*
X106799502Y-76425820D01*
X106740537Y-76315506D01*
X106661185Y-76218815D01*
X106564494Y-76139463D01*
X106454180Y-76080498D01*
X106334482Y-76044188D01*
X106210000Y-76031928D01*
X104610000Y-76031928D01*
X104485518Y-76044188D01*
X104365820Y-76080498D01*
X104255506Y-76139463D01*
X104158815Y-76218815D01*
X104079463Y-76315506D01*
X104020498Y-76425820D01*
X104010130Y-76460000D01*
X103288356Y-76460000D01*
X101765000Y-74936645D01*
X101765000Y-74788665D01*
X101709853Y-74511426D01*
X101601680Y-74250273D01*
X101444637Y-74015241D01*
X101244759Y-73815363D01*
X101009727Y-73658320D01*
X100748574Y-73550147D01*
X100471335Y-73495000D01*
X100188665Y-73495000D01*
X99911426Y-73550147D01*
X99650273Y-73658320D01*
X99415241Y-73815363D01*
X99215363Y-74015241D01*
X99058320Y-74250273D01*
X98950147Y-74511426D01*
X98895000Y-74788665D01*
X98895000Y-75071335D01*
X98950147Y-75348574D01*
X99058320Y-75609727D01*
X99215363Y-75844759D01*
X99415241Y-76044637D01*
X99650273Y-76201680D01*
X99911426Y-76309853D01*
X100188665Y-76365000D01*
X100336645Y-76365000D01*
X102120743Y-78149099D01*
X102152367Y-78187633D01*
X102306160Y-78313847D01*
X102481620Y-78407632D01*
X102672006Y-78465385D01*
X102820392Y-78480000D01*
X102820394Y-78480000D01*
X102869999Y-78484886D01*
X102919604Y-78480000D01*
X104010130Y-78480000D01*
X104020498Y-78514180D01*
X104079463Y-78624494D01*
X104158815Y-78721185D01*
X104255506Y-78800537D01*
X104365820Y-78859502D01*
X104485518Y-78895812D01*
X104610000Y-78908072D01*
X104617215Y-78908072D01*
X104596903Y-78977298D01*
X105410000Y-79790395D01*
X106223097Y-78977298D01*
X106202785Y-78908072D01*
X106210000Y-78908072D01*
X106334482Y-78895812D01*
X106454180Y-78859502D01*
X106564494Y-78800537D01*
X106661185Y-78721185D01*
X106740537Y-78624494D01*
X106799502Y-78514180D01*
X106809870Y-78480000D01*
X106940001Y-78480000D01*
X106940000Y-83662508D01*
X106930392Y-83670393D01*
X106751068Y-83888900D01*
X106617818Y-84138193D01*
X106535764Y-84408692D01*
X106515000Y-84619509D01*
X106515000Y-85560492D01*
X106535764Y-85771309D01*
X106617818Y-86041808D01*
X106751068Y-86291101D01*
X106930393Y-86509608D01*
X107148900Y-86688932D01*
X107398193Y-86822182D01*
X107516680Y-86858124D01*
X107455941Y-86890589D01*
X107354953Y-86973468D01*
X107354951Y-86973470D01*
X107321183Y-87001183D01*
X107293470Y-87034951D01*
X102810028Y-91518394D01*
X102801101Y-91511068D01*
X102668142Y-91440000D01*
X102801101Y-91368932D01*
X103019608Y-91189608D01*
X103198932Y-90971101D01*
X103332182Y-90721808D01*
X103414236Y-90451309D01*
X103441943Y-90170000D01*
X103414236Y-89888691D01*
X103332182Y-89618192D01*
X103198932Y-89368899D01*
X103019608Y-89150392D01*
X102801101Y-88971068D01*
X102668142Y-88900000D01*
X102801101Y-88828932D01*
X103019608Y-88649608D01*
X103198932Y-88431101D01*
X103332182Y-88181808D01*
X103414236Y-87911309D01*
X103441943Y-87630000D01*
X103414236Y-87348691D01*
X103332182Y-87078192D01*
X103198932Y-86828899D01*
X103019608Y-86610392D01*
X102801101Y-86431068D01*
X102673259Y-86362735D01*
X102902839Y-86212601D01*
X103104500Y-86014895D01*
X103263715Y-85781646D01*
X103374367Y-85521818D01*
X103391904Y-85439039D01*
X103269915Y-85217000D01*
X101727000Y-85217000D01*
X101727000Y-85237000D01*
X101473000Y-85237000D01*
X101473000Y-85217000D01*
X99930085Y-85217000D01*
X99808096Y-85439039D01*
X99825633Y-85521818D01*
X99936285Y-85781646D01*
X100095500Y-86014895D01*
X100297161Y-86212601D01*
X100526741Y-86362735D01*
X100398899Y-86431068D01*
X100180392Y-86610392D01*
X100001068Y-86828899D01*
X99867818Y-87078192D01*
X99785764Y-87348691D01*
X99758057Y-87630000D01*
X99785764Y-87911309D01*
X99867818Y-88181808D01*
X100001068Y-88431101D01*
X100180392Y-88649608D01*
X100398899Y-88828932D01*
X100531858Y-88900000D01*
X100398899Y-88971068D01*
X100180392Y-89150392D01*
X100001068Y-89368899D01*
X99867818Y-89618192D01*
X99785764Y-89888691D01*
X99758057Y-90170000D01*
X99785764Y-90451309D01*
X99867818Y-90721808D01*
X100001068Y-90971101D01*
X100180392Y-91189608D01*
X100398899Y-91368932D01*
X100531858Y-91440000D01*
X100398899Y-91511068D01*
X100180392Y-91690392D01*
X100001068Y-91908899D01*
X99867818Y-92158192D01*
X99785764Y-92428691D01*
X99758057Y-92710000D01*
X99785764Y-92991309D01*
X99867818Y-93261808D01*
X100001068Y-93511101D01*
X100180392Y-93729608D01*
X100398899Y-93908932D01*
X100531858Y-93980000D01*
X100398899Y-94051068D01*
X100180392Y-94230392D01*
X100027228Y-94417023D01*
X99989687Y-94428411D01*
X99835941Y-94510589D01*
X99835939Y-94510590D01*
X99835940Y-94510590D01*
X99734953Y-94593468D01*
X99734951Y-94593470D01*
X99701183Y-94621183D01*
X99673470Y-94654951D01*
X98464951Y-95863471D01*
X98431184Y-95891183D01*
X98403471Y-95924951D01*
X98403468Y-95924954D01*
X98320590Y-96025941D01*
X98238412Y-96179687D01*
X98187805Y-96346510D01*
X98170719Y-96520000D01*
X98175001Y-96563479D01*
X98175000Y-104096531D01*
X98170719Y-104140000D01*
X98175000Y-104183469D01*
X98175000Y-104183476D01*
X98187805Y-104313489D01*
X98238411Y-104480312D01*
X98320589Y-104634058D01*
X98431183Y-104768817D01*
X98464956Y-104796534D01*
X99673470Y-106005049D01*
X99701183Y-106038817D01*
X99734951Y-106066530D01*
X99734953Y-106066532D01*
X99765143Y-106091308D01*
X99835941Y-106149411D01*
X99989687Y-106231589D01*
X100156510Y-106282195D01*
X100286523Y-106295000D01*
X100286533Y-106295000D01*
X100329999Y-106299281D01*
X100373465Y-106295000D01*
X106636531Y-106295000D01*
X106680000Y-106299281D01*
X106723469Y-106295000D01*
X106723477Y-106295000D01*
X106853490Y-106282195D01*
X107020313Y-106231589D01*
X107174059Y-106149411D01*
X107308817Y-106038817D01*
X107336534Y-106005044D01*
X108458578Y-104883000D01*
X109055000Y-104883000D01*
X109055000Y-105283000D01*
X110363000Y-105283000D01*
X110363000Y-103740085D01*
X110140961Y-103618096D01*
X110058182Y-103635633D01*
X109798354Y-103746285D01*
X109565105Y-103905500D01*
X109367399Y-104107161D01*
X109212834Y-104343517D01*
X109107350Y-104605486D01*
X109055000Y-104883000D01*
X108458578Y-104883000D01*
X111085049Y-102256530D01*
X111118817Y-102228817D01*
X111181559Y-102152367D01*
X111229411Y-102094059D01*
X111311589Y-101940314D01*
X111322977Y-101902772D01*
X111509608Y-101749608D01*
X111688932Y-101531101D01*
X111760000Y-101398142D01*
X111831068Y-101531101D01*
X112010393Y-101749608D01*
X112145001Y-101860078D01*
X112145000Y-103879923D01*
X112010393Y-103990392D01*
X111831068Y-104208899D01*
X111762735Y-104336741D01*
X111612601Y-104107161D01*
X111414895Y-103905500D01*
X111181646Y-103746285D01*
X110921818Y-103635633D01*
X110839039Y-103618096D01*
X110617000Y-103740085D01*
X110617000Y-105283000D01*
X110637000Y-105283000D01*
X110637000Y-105537000D01*
X110617000Y-105537000D01*
X110617000Y-105557000D01*
X110363000Y-105557000D01*
X110363000Y-105537000D01*
X109055000Y-105537000D01*
X109055000Y-105937000D01*
X109107350Y-106214514D01*
X109212834Y-106476483D01*
X109367399Y-106712839D01*
X109565105Y-106914500D01*
X109785587Y-107065000D01*
X105453469Y-107065000D01*
X105410000Y-107060719D01*
X105366531Y-107065000D01*
X105366523Y-107065000D01*
X105236510Y-107077805D01*
X105069686Y-107128411D01*
X104915941Y-107210589D01*
X104814953Y-107293468D01*
X104814951Y-107293470D01*
X104781183Y-107321183D01*
X104753470Y-107354951D01*
X101233422Y-110875000D01*
X93076579Y-110875000D01*
X92325000Y-110123422D01*
X92325000Y-103566205D01*
X92381068Y-103671101D01*
X92560392Y-103889608D01*
X92778899Y-104068932D01*
X92970001Y-104171078D01*
X92970000Y-108129893D01*
X92826525Y-108273368D01*
X92664010Y-108516589D01*
X92552068Y-108786842D01*
X92495000Y-109073740D01*
X92495000Y-109366260D01*
X92552068Y-109653158D01*
X92664010Y-109923411D01*
X92826525Y-110166632D01*
X93033368Y-110373475D01*
X93276589Y-110535990D01*
X93546842Y-110647932D01*
X93833740Y-110705000D01*
X94126260Y-110705000D01*
X94413158Y-110647932D01*
X94683411Y-110535990D01*
X94926632Y-110373475D01*
X95133475Y-110166632D01*
X95250000Y-109992240D01*
X95366525Y-110166632D01*
X95573368Y-110373475D01*
X95816589Y-110535990D01*
X96086842Y-110647932D01*
X96373740Y-110705000D01*
X96666260Y-110705000D01*
X96953158Y-110647932D01*
X97223411Y-110535990D01*
X97466632Y-110373475D01*
X97598487Y-110241620D01*
X97620498Y-110314180D01*
X97679463Y-110424494D01*
X97758815Y-110521185D01*
X97855506Y-110600537D01*
X97965820Y-110659502D01*
X98085518Y-110695812D01*
X98210000Y-110708072D01*
X98774250Y-110705000D01*
X98933000Y-110546250D01*
X98933000Y-109347000D01*
X99187000Y-109347000D01*
X99187000Y-110546250D01*
X99345750Y-110705000D01*
X99910000Y-110708072D01*
X100034482Y-110695812D01*
X100154180Y-110659502D01*
X100264494Y-110600537D01*
X100361185Y-110521185D01*
X100440537Y-110424494D01*
X100499502Y-110314180D01*
X100535812Y-110194482D01*
X100548072Y-110070000D01*
X100545000Y-109505750D01*
X100386250Y-109347000D01*
X99187000Y-109347000D01*
X98933000Y-109347000D01*
X98913000Y-109347000D01*
X98913000Y-109093000D01*
X98933000Y-109093000D01*
X98933000Y-107893750D01*
X99187000Y-107893750D01*
X99187000Y-109093000D01*
X100386250Y-109093000D01*
X100545000Y-108934250D01*
X100548072Y-108370000D01*
X100535812Y-108245518D01*
X100499502Y-108125820D01*
X100440537Y-108015506D01*
X100361185Y-107918815D01*
X100264494Y-107839463D01*
X100154180Y-107780498D01*
X100034482Y-107744188D01*
X99910000Y-107731928D01*
X99345750Y-107735000D01*
X99187000Y-107893750D01*
X98933000Y-107893750D01*
X98774250Y-107735000D01*
X98210000Y-107731928D01*
X98085518Y-107744188D01*
X97965820Y-107780498D01*
X97855506Y-107839463D01*
X97758815Y-107918815D01*
X97679463Y-108015506D01*
X97620498Y-108125820D01*
X97598487Y-108198380D01*
X97466632Y-108066525D01*
X97223411Y-107904010D01*
X96953158Y-107792068D01*
X96666260Y-107735000D01*
X96373740Y-107735000D01*
X96086842Y-107792068D01*
X95816589Y-107904010D01*
X95573368Y-108066525D01*
X95366525Y-108273368D01*
X95250000Y-108447760D01*
X95133475Y-108273368D01*
X94990000Y-108129893D01*
X94990000Y-104171078D01*
X95181101Y-104068932D01*
X95399608Y-103889608D01*
X95578932Y-103671101D01*
X95712182Y-103421808D01*
X95794236Y-103151309D01*
X95821943Y-102870000D01*
X95794236Y-102588691D01*
X95712182Y-102318192D01*
X95578932Y-102068899D01*
X95399608Y-101850392D01*
X95181101Y-101671068D01*
X95048142Y-101600000D01*
X95181101Y-101528932D01*
X95399608Y-101349608D01*
X95578932Y-101131101D01*
X95712182Y-100881808D01*
X95794236Y-100611309D01*
X95821943Y-100330000D01*
X95794236Y-100048691D01*
X95712182Y-99778192D01*
X95578932Y-99528899D01*
X95399608Y-99310392D01*
X95181101Y-99131068D01*
X95048142Y-99060000D01*
X95181101Y-98988932D01*
X95399608Y-98809608D01*
X95578932Y-98591101D01*
X95712182Y-98341808D01*
X95794236Y-98071309D01*
X95821943Y-97790000D01*
X95794236Y-97508691D01*
X95712182Y-97238192D01*
X95578932Y-96988899D01*
X95399608Y-96770392D01*
X95181101Y-96591068D01*
X95048142Y-96520000D01*
X95181101Y-96448932D01*
X95399608Y-96269608D01*
X95578932Y-96051101D01*
X95712182Y-95801808D01*
X95794236Y-95531309D01*
X95821943Y-95250000D01*
X95794236Y-94968691D01*
X95712182Y-94698192D01*
X95578932Y-94448899D01*
X95399608Y-94230392D01*
X95181101Y-94051068D01*
X95048142Y-93980000D01*
X95181101Y-93908932D01*
X95399608Y-93729608D01*
X95552772Y-93542977D01*
X95590313Y-93531589D01*
X95744059Y-93449411D01*
X95878817Y-93338817D01*
X95906534Y-93305044D01*
X98385050Y-90826529D01*
X98418817Y-90798817D01*
X98529411Y-90664059D01*
X98611589Y-90510313D01*
X98662195Y-90343490D01*
X98675000Y-90213477D01*
X98675000Y-90213467D01*
X98679281Y-90170001D01*
X98675000Y-90126535D01*
X98675000Y-84740961D01*
X99808096Y-84740961D01*
X99930085Y-84963000D01*
X101473000Y-84963000D01*
X101473000Y-83655000D01*
X101727000Y-83655000D01*
X101727000Y-84963000D01*
X103269915Y-84963000D01*
X103391904Y-84740961D01*
X103374367Y-84658182D01*
X103263715Y-84398354D01*
X103104500Y-84165105D01*
X102902839Y-83967399D01*
X102666483Y-83812834D01*
X102404514Y-83707350D01*
X102127000Y-83655000D01*
X101727000Y-83655000D01*
X101473000Y-83655000D01*
X101073000Y-83655000D01*
X100795486Y-83707350D01*
X100533517Y-83812834D01*
X100297161Y-83967399D01*
X100095500Y-84165105D01*
X99936285Y-84398354D01*
X99825633Y-84658182D01*
X99808096Y-84740961D01*
X98675000Y-84740961D01*
X98675000Y-80922702D01*
X99516903Y-80922702D01*
X99588486Y-81166671D01*
X99843996Y-81287571D01*
X100118184Y-81356300D01*
X100400512Y-81370217D01*
X100680130Y-81328787D01*
X100946292Y-81233603D01*
X101071514Y-81166671D01*
X101131360Y-80962702D01*
X104596903Y-80962702D01*
X104668486Y-81206671D01*
X104923996Y-81327571D01*
X105198184Y-81396300D01*
X105480512Y-81410217D01*
X105760130Y-81368787D01*
X106026292Y-81273603D01*
X106151514Y-81206671D01*
X106223097Y-80962702D01*
X105410000Y-80149605D01*
X104596903Y-80962702D01*
X101131360Y-80962702D01*
X101143097Y-80922702D01*
X100330000Y-80109605D01*
X99516903Y-80922702D01*
X98675000Y-80922702D01*
X98675000Y-80000512D01*
X98889783Y-80000512D01*
X98931213Y-80280130D01*
X99026397Y-80546292D01*
X99093329Y-80671514D01*
X99337298Y-80743097D01*
X100150395Y-79930000D01*
X100509605Y-79930000D01*
X101322702Y-80743097D01*
X101566671Y-80671514D01*
X101687571Y-80416004D01*
X101756300Y-80141816D01*
X101761293Y-80040512D01*
X103969783Y-80040512D01*
X104011213Y-80320130D01*
X104106397Y-80586292D01*
X104173329Y-80711514D01*
X104417298Y-80783097D01*
X105230395Y-79970000D01*
X105589605Y-79970000D01*
X106402702Y-80783097D01*
X106646671Y-80711514D01*
X106767571Y-80456004D01*
X106836300Y-80181816D01*
X106850217Y-79899488D01*
X106808787Y-79619870D01*
X106713603Y-79353708D01*
X106646671Y-79228486D01*
X106402702Y-79156903D01*
X105589605Y-79970000D01*
X105230395Y-79970000D01*
X104417298Y-79156903D01*
X104173329Y-79228486D01*
X104052429Y-79483996D01*
X103983700Y-79758184D01*
X103969783Y-80040512D01*
X101761293Y-80040512D01*
X101770217Y-79859488D01*
X101728787Y-79579870D01*
X101633603Y-79313708D01*
X101566671Y-79188486D01*
X101322702Y-79116903D01*
X100509605Y-79930000D01*
X100150395Y-79930000D01*
X99337298Y-79116903D01*
X99093329Y-79188486D01*
X98972429Y-79443996D01*
X98903700Y-79718184D01*
X98889783Y-80000512D01*
X98675000Y-80000512D01*
X98675000Y-78937298D01*
X99516903Y-78937298D01*
X100330000Y-79750395D01*
X101143097Y-78937298D01*
X101071514Y-78693329D01*
X100816004Y-78572429D01*
X100541816Y-78503700D01*
X100259488Y-78489783D01*
X99979870Y-78531213D01*
X99713708Y-78626397D01*
X99588486Y-78693329D01*
X99516903Y-78937298D01*
X98675000Y-78937298D01*
X98675000Y-74026578D01*
X99426579Y-73275000D01*
X103773422Y-73275000D01*
X106023470Y-75525049D01*
X106051183Y-75558817D01*
X106084951Y-75586530D01*
X106084953Y-75586532D01*
X106112451Y-75609099D01*
X106185941Y-75669411D01*
X106339687Y-75751589D01*
X106506510Y-75802195D01*
X106636523Y-75815000D01*
X106636533Y-75815000D01*
X106679999Y-75819281D01*
X106723465Y-75815000D01*
X117431531Y-75815000D01*
X117475000Y-75819281D01*
X117518469Y-75815000D01*
X117518477Y-75815000D01*
X117648490Y-75802195D01*
X117815313Y-75751589D01*
X117969059Y-75669411D01*
X118103817Y-75558817D01*
X118131534Y-75525044D01*
X120610050Y-73046529D01*
X120643817Y-73018817D01*
X120671533Y-72985046D01*
X120754410Y-72884060D01*
X120754411Y-72884059D01*
X120836589Y-72730313D01*
X120887195Y-72563490D01*
X120900000Y-72433477D01*
X120900000Y-72433467D01*
X120904281Y-72390001D01*
X120900000Y-72346535D01*
X120900000Y-72314656D01*
X120961632Y-72273475D01*
X121168475Y-72066632D01*
X121285000Y-71892240D01*
X121401525Y-72066632D01*
X121608368Y-72273475D01*
X121670001Y-72314657D01*
X121670000Y-73928421D01*
X120826439Y-74771983D01*
X120791335Y-74765000D01*
X120508665Y-74765000D01*
X120231426Y-74820147D01*
X119970273Y-74928320D01*
X119735241Y-75085363D01*
X119535363Y-75285241D01*
X119378320Y-75520273D01*
X119270147Y-75781426D01*
X119215000Y-76058665D01*
X119215000Y-76341335D01*
X119270147Y-76618574D01*
X119378320Y-76879727D01*
X119535363Y-77114759D01*
X119735241Y-77314637D01*
X119970273Y-77471680D01*
X120231426Y-77579853D01*
X120508665Y-77635000D01*
X120791335Y-77635000D01*
X121068574Y-77579853D01*
X121329727Y-77471680D01*
X121564759Y-77314637D01*
X121764637Y-77114759D01*
X121921680Y-76879727D01*
X122029853Y-76618574D01*
X122085000Y-76341335D01*
X122085000Y-76058665D01*
X122078017Y-76023561D01*
X123150050Y-74951529D01*
X123183817Y-74923817D01*
X123294411Y-74789059D01*
X123376589Y-74635313D01*
X123427195Y-74468490D01*
X123440000Y-74338477D01*
X123440000Y-74338469D01*
X123444281Y-74295000D01*
X123440000Y-74251531D01*
X123440000Y-72314656D01*
X123501632Y-72273475D01*
X123708475Y-72066632D01*
X123825000Y-71892240D01*
X123941525Y-72066632D01*
X124148368Y-72273475D01*
X124391589Y-72435990D01*
X124661842Y-72547932D01*
X124948740Y-72605000D01*
X125241260Y-72605000D01*
X125528158Y-72547932D01*
X125798411Y-72435990D01*
X126041632Y-72273475D01*
X126248475Y-72066632D01*
X126410990Y-71823411D01*
X126522932Y-71553158D01*
X126580000Y-71266260D01*
X126580000Y-70973740D01*
X126522932Y-70686842D01*
X126410990Y-70416589D01*
X126248475Y-70173368D01*
X126041632Y-69966525D01*
X125798411Y-69804010D01*
X125528158Y-69692068D01*
X125241260Y-69635000D01*
X124948740Y-69635000D01*
X124661842Y-69692068D01*
X124391589Y-69804010D01*
X124148368Y-69966525D01*
X123941525Y-70173368D01*
X123825000Y-70347760D01*
X123708475Y-70173368D01*
X123501632Y-69966525D01*
X123258411Y-69804010D01*
X122988158Y-69692068D01*
X122701260Y-69635000D01*
X122408740Y-69635000D01*
X122121842Y-69692068D01*
X121851589Y-69804010D01*
X121608368Y-69966525D01*
X121401525Y-70173368D01*
X121285000Y-70347760D01*
X121168475Y-70173368D01*
X120961632Y-69966525D01*
X120718411Y-69804010D01*
X120448158Y-69692068D01*
X120161260Y-69635000D01*
X119868740Y-69635000D01*
X119581842Y-69692068D01*
X119311589Y-69804010D01*
X119068368Y-69966525D01*
X118861525Y-70173368D01*
X118745000Y-70347760D01*
X118628475Y-70173368D01*
X118421632Y-69966525D01*
X118178411Y-69804010D01*
X117908158Y-69692068D01*
X117621260Y-69635000D01*
X117328740Y-69635000D01*
X117041842Y-69692068D01*
X116771589Y-69804010D01*
X116528368Y-69966525D01*
X116321525Y-70173368D01*
X116205000Y-70347760D01*
X116088475Y-70173368D01*
X115881632Y-69966525D01*
X115638411Y-69804010D01*
X115368158Y-69692068D01*
X115081260Y-69635000D01*
X114788740Y-69635000D01*
X114501842Y-69692068D01*
X114231589Y-69804010D01*
X113988368Y-69966525D01*
X113781525Y-70173368D01*
X113665000Y-70347760D01*
X113548475Y-70173368D01*
X113341632Y-69966525D01*
X113098411Y-69804010D01*
X112828158Y-69692068D01*
X112541260Y-69635000D01*
X112248740Y-69635000D01*
X111961842Y-69692068D01*
X111691589Y-69804010D01*
X111448368Y-69966525D01*
X111316513Y-70098380D01*
X111294502Y-70025820D01*
X111235537Y-69915506D01*
X111156185Y-69818815D01*
X111059494Y-69739463D01*
X110949180Y-69680498D01*
X110829482Y-69644188D01*
X110705000Y-69631928D01*
X109005000Y-69631928D01*
X108880518Y-69644188D01*
X108760820Y-69680498D01*
X108650506Y-69739463D01*
X108553815Y-69818815D01*
X108474463Y-69915506D01*
X108415498Y-70025820D01*
X108379188Y-70145518D01*
X108366928Y-70270000D01*
X108366928Y-71970000D01*
X108379188Y-72094482D01*
X108415498Y-72214180D01*
X108474463Y-72324494D01*
X108553815Y-72421185D01*
X108650506Y-72500537D01*
X108760820Y-72559502D01*
X108880518Y-72595812D01*
X109005000Y-72608072D01*
X110705000Y-72608072D01*
X110829482Y-72595812D01*
X110949180Y-72559502D01*
X111059494Y-72500537D01*
X111156185Y-72421185D01*
X111235537Y-72324494D01*
X111294502Y-72214180D01*
X111316513Y-72141620D01*
X111448368Y-72273475D01*
X111691589Y-72435990D01*
X111961842Y-72547932D01*
X112248740Y-72605000D01*
X112541260Y-72605000D01*
X112828158Y-72547932D01*
X113098411Y-72435990D01*
X113341632Y-72273475D01*
X113548475Y-72066632D01*
X113665000Y-71892240D01*
X113781525Y-72066632D01*
X113988368Y-72273475D01*
X114231589Y-72435990D01*
X114501842Y-72547932D01*
X114788740Y-72605000D01*
X115081260Y-72605000D01*
X115368158Y-72547932D01*
X115638411Y-72435990D01*
X115881632Y-72273475D01*
X116088475Y-72066632D01*
X116205000Y-71892240D01*
X116321525Y-72066632D01*
X116434157Y-72179264D01*
X115838422Y-72775000D01*
X108316579Y-72775000D01*
X106066534Y-70524956D01*
X106038817Y-70491183D01*
X105904059Y-70380589D01*
X105750313Y-70298411D01*
X105583490Y-70247805D01*
X105453477Y-70235000D01*
X105453469Y-70235000D01*
X105410000Y-70230719D01*
X105366531Y-70235000D01*
X97833465Y-70235000D01*
X97789999Y-70230719D01*
X97746533Y-70235000D01*
X97746523Y-70235000D01*
X97616510Y-70247805D01*
X97449687Y-70298411D01*
X97295941Y-70380589D01*
X97295939Y-70380590D01*
X97295940Y-70380590D01*
X97194953Y-70463468D01*
X97194951Y-70463470D01*
X97161183Y-70491183D01*
X97133470Y-70524951D01*
X95924951Y-71733471D01*
X95891184Y-71761183D01*
X95863471Y-71794951D01*
X95863468Y-71794954D01*
X95780590Y-71895941D01*
X95698412Y-72049687D01*
X95647805Y-72216510D01*
X95630719Y-72390000D01*
X95635001Y-72433476D01*
X95635000Y-84393795D01*
X95578932Y-84288899D01*
X95399608Y-84070392D01*
X95181101Y-83891068D01*
X94931808Y-83757818D01*
X94661309Y-83675764D01*
X94450492Y-83655000D01*
X93509508Y-83655000D01*
X93298691Y-83675764D01*
X93028192Y-83757818D01*
X92778899Y-83891068D01*
X92560392Y-84070392D01*
X92381068Y-84288899D01*
X92247818Y-84538192D01*
X92165764Y-84808691D01*
X92138057Y-85090000D01*
X92165764Y-85371309D01*
X92247818Y-85641808D01*
X92381068Y-85891101D01*
X92560392Y-86109608D01*
X92778899Y-86288932D01*
X92911858Y-86360000D01*
X92778899Y-86431068D01*
X92560392Y-86610392D01*
X92381068Y-86828899D01*
X92247818Y-87078192D01*
X92165764Y-87348691D01*
X92138057Y-87630000D01*
X92165764Y-87911309D01*
X92247818Y-88181808D01*
X92381068Y-88431101D01*
X92560392Y-88649608D01*
X92778899Y-88828932D01*
X92911858Y-88900000D01*
X92778899Y-88971068D01*
X92560392Y-89150392D01*
X92407228Y-89337023D01*
X92369686Y-89348411D01*
X92215941Y-89430589D01*
X92114953Y-89513468D01*
X92114951Y-89513470D01*
X92081183Y-89541183D01*
X92053470Y-89574951D01*
X88304951Y-93323470D01*
X88271184Y-93351183D01*
X88243471Y-93384951D01*
X88243468Y-93384954D01*
X88160590Y-93485941D01*
X88078412Y-93639687D01*
X88027805Y-93806510D01*
X88010719Y-93980000D01*
X87045000Y-93980000D01*
X87045000Y-69265000D01*
X149175000Y-69265000D01*
X149175001Y-122505000D01*
G37*
G04 #@! TD.AperFunction*
D24*
X114440769Y-79039124D02*
X114416525Y-79063368D01*
X114300000Y-79237760D01*
X114183475Y-79063368D01*
X113976632Y-78856525D01*
X113733411Y-78694010D01*
X113463158Y-78582068D01*
X113176260Y-78525000D01*
X112883740Y-78525000D01*
X112596842Y-78582068D01*
X112326589Y-78694010D01*
X112083368Y-78856525D01*
X111951513Y-78988380D01*
X111929502Y-78915820D01*
X111870537Y-78805506D01*
X111791185Y-78708815D01*
X111694494Y-78629463D01*
X111584180Y-78570498D01*
X111464482Y-78534188D01*
X111340000Y-78521928D01*
X110775750Y-78525000D01*
X110617000Y-78683750D01*
X110617000Y-79883000D01*
X110637000Y-79883000D01*
X110637000Y-80137000D01*
X110617000Y-80137000D01*
X110617000Y-81336250D01*
X110775750Y-81495000D01*
X111340000Y-81498072D01*
X111464482Y-81485812D01*
X111584180Y-81449502D01*
X111694494Y-81390537D01*
X111791185Y-81311185D01*
X111870537Y-81214494D01*
X111929502Y-81104180D01*
X111951513Y-81031620D01*
X112083368Y-81163475D01*
X112145000Y-81204656D01*
X112145001Y-83559922D01*
X112010392Y-83670393D01*
X111831068Y-83888900D01*
X111760000Y-84021858D01*
X111688932Y-83888899D01*
X111509607Y-83670392D01*
X111291100Y-83491068D01*
X111041807Y-83357818D01*
X110771308Y-83275764D01*
X110490000Y-83248057D01*
X110208691Y-83275764D01*
X109938192Y-83357818D01*
X109688899Y-83491068D01*
X109470392Y-83670393D01*
X109291068Y-83888900D01*
X109220000Y-84021858D01*
X109148932Y-83888899D01*
X108969607Y-83670392D01*
X108960000Y-83662508D01*
X108960000Y-80860000D01*
X109001928Y-80860000D01*
X109014188Y-80984482D01*
X109050498Y-81104180D01*
X109109463Y-81214494D01*
X109188815Y-81311185D01*
X109285506Y-81390537D01*
X109395820Y-81449502D01*
X109515518Y-81485812D01*
X109640000Y-81498072D01*
X110204250Y-81495000D01*
X110363000Y-81336250D01*
X110363000Y-80137000D01*
X109163750Y-80137000D01*
X109005000Y-80295750D01*
X109001928Y-80860000D01*
X108960000Y-80860000D01*
X108960000Y-79160000D01*
X109001928Y-79160000D01*
X109005000Y-79724250D01*
X109163750Y-79883000D01*
X110363000Y-79883000D01*
X110363000Y-78683750D01*
X110204250Y-78525000D01*
X109640000Y-78521928D01*
X109515518Y-78534188D01*
X109395820Y-78570498D01*
X109285506Y-78629463D01*
X109188815Y-78708815D01*
X109109463Y-78805506D01*
X109050498Y-78915820D01*
X109014188Y-79035518D01*
X109001928Y-79160000D01*
X108960000Y-79160000D01*
X108960000Y-78480000D01*
X113881645Y-78480000D01*
X114440769Y-79039124D01*
G04 #@! TA.AperFunction,Conductor*
D25*
G36*
X114440769Y-79039124D02*
G01*
X114416525Y-79063368D01*
X114300000Y-79237760D01*
X114183475Y-79063368D01*
X113976632Y-78856525D01*
X113733411Y-78694010D01*
X113463158Y-78582068D01*
X113176260Y-78525000D01*
X112883740Y-78525000D01*
X112596842Y-78582068D01*
X112326589Y-78694010D01*
X112083368Y-78856525D01*
X111951513Y-78988380D01*
X111929502Y-78915820D01*
X111870537Y-78805506D01*
X111791185Y-78708815D01*
X111694494Y-78629463D01*
X111584180Y-78570498D01*
X111464482Y-78534188D01*
X111340000Y-78521928D01*
X110775750Y-78525000D01*
X110617000Y-78683750D01*
X110617000Y-79883000D01*
X110637000Y-79883000D01*
X110637000Y-80137000D01*
X110617000Y-80137000D01*
X110617000Y-81336250D01*
X110775750Y-81495000D01*
X111340000Y-81498072D01*
X111464482Y-81485812D01*
X111584180Y-81449502D01*
X111694494Y-81390537D01*
X111791185Y-81311185D01*
X111870537Y-81214494D01*
X111929502Y-81104180D01*
X111951513Y-81031620D01*
X112083368Y-81163475D01*
X112145000Y-81204656D01*
X112145001Y-83559922D01*
X112010392Y-83670393D01*
X111831068Y-83888900D01*
X111760000Y-84021858D01*
X111688932Y-83888899D01*
X111509607Y-83670392D01*
X111291100Y-83491068D01*
X111041807Y-83357818D01*
X110771308Y-83275764D01*
X110490000Y-83248057D01*
X110208691Y-83275764D01*
X109938192Y-83357818D01*
X109688899Y-83491068D01*
X109470392Y-83670393D01*
X109291068Y-83888900D01*
X109220000Y-84021858D01*
X109148932Y-83888899D01*
X108969607Y-83670392D01*
X108960000Y-83662508D01*
X108960000Y-80860000D01*
X109001928Y-80860000D01*
X109014188Y-80984482D01*
X109050498Y-81104180D01*
X109109463Y-81214494D01*
X109188815Y-81311185D01*
X109285506Y-81390537D01*
X109395820Y-81449502D01*
X109515518Y-81485812D01*
X109640000Y-81498072D01*
X110204250Y-81495000D01*
X110363000Y-81336250D01*
X110363000Y-80137000D01*
X109163750Y-80137000D01*
X109005000Y-80295750D01*
X109001928Y-80860000D01*
X108960000Y-80860000D01*
X108960000Y-79160000D01*
X109001928Y-79160000D01*
X109005000Y-79724250D01*
X109163750Y-79883000D01*
X110363000Y-79883000D01*
X110363000Y-78683750D01*
X110204250Y-78525000D01*
X109640000Y-78521928D01*
X109515518Y-78534188D01*
X109395820Y-78570498D01*
X109285506Y-78629463D01*
X109188815Y-78708815D01*
X109109463Y-78805506D01*
X109050498Y-78915820D01*
X109014188Y-79035518D01*
X109001928Y-79160000D01*
X108960000Y-79160000D01*
X108960000Y-78480000D01*
X113881645Y-78480000D01*
X114440769Y-79039124D01*
G37*
G04 #@! TD.AperFunction*
G04 #@! TD*
M02*
