%TF.GenerationSoftware,KiCad,Pcbnew,(5.1.12)-1*%
%TF.CreationDate,2022-05-13T18:30:43+02:00*%
%TF.ProjectId,Keyboard,4b657962-6f61-4726-942e-6b696361645f,rev?*%
%TF.SameCoordinates,Original*%
%TF.FileFunction,Legend,Top*%
%TF.FilePolarity,Positive*%
%FSLAX46Y46*%
G04 Gerber Fmt 4.6, Leading zero omitted, Abs format (unit mm)*
G04 Created by KiCad (PCBNEW (5.1.12)-1) date 2022-05-13 18:30:43*
%MOMM*%
%LPD*%
G01*
G04 APERTURE LIST*
%ADD10C,0.120000*%
%ADD11C,0.150000*%
G04 APERTURE END LIST*
D10*
%TO.C,REF\u002A\u002A*%
X139050000Y-32150000D02*
X136450000Y-32150000D01*
X139050000Y-34350000D02*
X139050000Y-32150000D01*
X136450000Y-34350000D02*
X139050000Y-34350000D01*
X136450000Y-33850000D02*
X136450000Y-34350000D01*
X136450000Y-32150000D02*
X136450000Y-33850000D01*
X221950000Y-32150000D02*
X221950000Y-33850000D01*
X221950000Y-33850000D02*
X221950000Y-34350000D01*
X221950000Y-34350000D02*
X224550000Y-34350000D01*
X224550000Y-34350000D02*
X224550000Y-32150000D01*
X224550000Y-32150000D02*
X221950000Y-32150000D01*
X340700000Y-13150000D02*
X340700000Y-14850000D01*
X340700000Y-14850000D02*
X340700000Y-15350000D01*
X340700000Y-15350000D02*
X343300000Y-15350000D01*
X343300000Y-15350000D02*
X343300000Y-13150000D01*
X343300000Y-13150000D02*
X340700000Y-13150000D01*
X29800000Y-13150000D02*
X27200000Y-13150000D01*
X29800000Y-15350000D02*
X29800000Y-13150000D01*
X27200000Y-15350000D02*
X29800000Y-15350000D01*
X27200000Y-14850000D02*
X27200000Y-15350000D01*
X27200000Y-13150000D02*
X27200000Y-14850000D01*
X36700000Y-93900000D02*
X36700000Y-95600000D01*
X36700000Y-95600000D02*
X36700000Y-96100000D01*
X36700000Y-96100000D02*
X39300000Y-96100000D01*
X39300000Y-96100000D02*
X39300000Y-93900000D01*
X39300000Y-93900000D02*
X36700000Y-93900000D01*
X58300000Y-131900000D02*
X55700000Y-131900000D01*
X58300000Y-134100000D02*
X58300000Y-131900000D01*
X55700000Y-134100000D02*
X58300000Y-134100000D01*
X55700000Y-133600000D02*
X55700000Y-134100000D01*
X55700000Y-131900000D02*
X55700000Y-133600000D01*
X283700000Y-131900000D02*
X283700000Y-133600000D01*
X283700000Y-133600000D02*
X283700000Y-134100000D01*
X283700000Y-134100000D02*
X286300000Y-134100000D01*
X286300000Y-134100000D02*
X286300000Y-131900000D01*
X286300000Y-131900000D02*
X283700000Y-131900000D01*
X343300000Y-112900000D02*
X340700000Y-112900000D01*
X343300000Y-115100000D02*
X343300000Y-112900000D01*
X340700000Y-115100000D02*
X343300000Y-115100000D01*
X340700000Y-114600000D02*
X340700000Y-115100000D01*
X340700000Y-112900000D02*
X340700000Y-114600000D01*
X302700000Y-74900000D02*
X302700000Y-76600000D01*
X302700000Y-76600000D02*
X302700000Y-77100000D01*
X302700000Y-77100000D02*
X305300000Y-77100000D01*
X305300000Y-77100000D02*
X305300000Y-74900000D01*
X305300000Y-74900000D02*
X302700000Y-74900000D01*
X310050000Y-32150000D02*
X307450000Y-32150000D01*
X310050000Y-34350000D02*
X310050000Y-32150000D01*
X307450000Y-34350000D02*
X310050000Y-34350000D01*
X307450000Y-33850000D02*
X307450000Y-34350000D01*
X307450000Y-32150000D02*
X307450000Y-33850000D01*
X46200000Y-32150000D02*
X46200000Y-33850000D01*
X46200000Y-33850000D02*
X46200000Y-34350000D01*
X46200000Y-34350000D02*
X48800000Y-34350000D01*
X48800000Y-34350000D02*
X48800000Y-32150000D01*
X48800000Y-32150000D02*
X46200000Y-32150000D01*
%TO.C,SW29*%
X202015000Y-69015000D02*
X215985000Y-69015000D01*
X215985000Y-69015000D02*
X215985000Y-82985000D01*
X215985000Y-82985000D02*
X202015000Y-82985000D01*
X202015000Y-82985000D02*
X202015000Y-69015000D01*
%TO.C,SW1E1*%
X316015000Y-50015000D02*
X329985000Y-50015000D01*
X329985000Y-50015000D02*
X329985000Y-63985000D01*
X329985000Y-63985000D02*
X316015000Y-63985000D01*
X316015000Y-63985000D02*
X316015000Y-50015000D01*
%TO.C,SW42*%
X83265000Y-107015000D02*
X97235000Y-107015000D01*
X97235000Y-107015000D02*
X97235000Y-120985000D01*
X97235000Y-120985000D02*
X83265000Y-120985000D01*
X83265000Y-120985000D02*
X83265000Y-107015000D01*
%TO.C,SW43*%
X102265000Y-107015000D02*
X116235000Y-107015000D01*
X116235000Y-107015000D02*
X116235000Y-120985000D01*
X116235000Y-120985000D02*
X102265000Y-120985000D01*
X102265000Y-120985000D02*
X102265000Y-107015000D01*
%TO.C,SW4C1*%
X268515000Y-120985000D02*
X268515000Y-107015000D01*
X282485000Y-120985000D02*
X268515000Y-120985000D01*
X282485000Y-107015000D02*
X282485000Y-120985000D01*
X268515000Y-107015000D02*
X282485000Y-107015000D01*
%TO.C,SW0D1*%
X287515000Y-40235000D02*
X287515000Y-26265000D01*
X301485000Y-40235000D02*
X287515000Y-40235000D01*
X301485000Y-26265000D02*
X301485000Y-40235000D01*
X287515000Y-26265000D02*
X301485000Y-26265000D01*
%TO.C,SW0C1*%
X268515000Y-40235000D02*
X268515000Y-26265000D01*
X282485000Y-40235000D02*
X268515000Y-40235000D01*
X282485000Y-26265000D02*
X282485000Y-40235000D01*
X268515000Y-26265000D02*
X282485000Y-26265000D01*
%TO.C,SW0B1*%
X249515000Y-40235000D02*
X249515000Y-26265000D01*
X263485000Y-40235000D02*
X249515000Y-40235000D01*
X263485000Y-26265000D02*
X263485000Y-40235000D01*
X249515000Y-26265000D02*
X263485000Y-26265000D01*
%TO.C,SW0A1*%
X230515000Y-40235000D02*
X230515000Y-26265000D01*
X244485000Y-40235000D02*
X230515000Y-40235000D01*
X244485000Y-26265000D02*
X244485000Y-40235000D01*
X230515000Y-26265000D02*
X244485000Y-26265000D01*
%TO.C,SW9*%
X202015000Y-40235000D02*
X202015000Y-26265000D01*
X215985000Y-40235000D02*
X202015000Y-40235000D01*
X215985000Y-26265000D02*
X215985000Y-40235000D01*
X202015000Y-26265000D02*
X215985000Y-26265000D01*
%TO.C,SW8*%
X183015000Y-40235000D02*
X183015000Y-26265000D01*
X196985000Y-40235000D02*
X183015000Y-40235000D01*
X196985000Y-26265000D02*
X196985000Y-40235000D01*
X183015000Y-26265000D02*
X196985000Y-26265000D01*
%TO.C,SW7*%
X164015000Y-40235000D02*
X164015000Y-26265000D01*
X177985000Y-40235000D02*
X164015000Y-40235000D01*
X177985000Y-26265000D02*
X177985000Y-40235000D01*
X164015000Y-26265000D02*
X177985000Y-26265000D01*
%TO.C,SW6*%
X145015000Y-40235000D02*
X145015000Y-26265000D01*
X158985000Y-40235000D02*
X145015000Y-40235000D01*
X158985000Y-26265000D02*
X158985000Y-40235000D01*
X145015000Y-26265000D02*
X158985000Y-26265000D01*
%TO.C,SW5*%
X116515000Y-40235000D02*
X116515000Y-26265000D01*
X130485000Y-40235000D02*
X116515000Y-40235000D01*
X130485000Y-26265000D02*
X130485000Y-40235000D01*
X116515000Y-26265000D02*
X130485000Y-26265000D01*
%TO.C,SW4*%
X97515000Y-40235000D02*
X97515000Y-26265000D01*
X111485000Y-40235000D02*
X97515000Y-40235000D01*
X111485000Y-26265000D02*
X111485000Y-40235000D01*
X97515000Y-26265000D02*
X111485000Y-26265000D01*
%TO.C,SW3*%
X78515000Y-40235000D02*
X78515000Y-26265000D01*
X92485000Y-40235000D02*
X78515000Y-40235000D01*
X92485000Y-26265000D02*
X92485000Y-40235000D01*
X78515000Y-26265000D02*
X92485000Y-26265000D01*
%TO.C,SW2*%
X59515000Y-40235000D02*
X59515000Y-26265000D01*
X73485000Y-40235000D02*
X59515000Y-40235000D01*
X73485000Y-26265000D02*
X73485000Y-40235000D01*
X59515000Y-26265000D02*
X73485000Y-26265000D01*
%TO.C,J1*%
X157420000Y-12700000D02*
X157420000Y-11370000D01*
X157420000Y-11370000D02*
X158750000Y-11370000D01*
X157420000Y-13970000D02*
X160020000Y-13970000D01*
X160020000Y-13970000D02*
X160020000Y-11370000D01*
X160020000Y-11370000D02*
X200720000Y-11370000D01*
X200720000Y-16570000D02*
X200720000Y-11370000D01*
X157420000Y-16570000D02*
X200720000Y-16570000D01*
X157420000Y-16570000D02*
X157420000Y-13970000D01*
%TO.C,SW2F1*%
X335015000Y-69015000D02*
X348985000Y-69015000D01*
X348985000Y-69015000D02*
X348985000Y-82985000D01*
X348985000Y-82985000D02*
X335015000Y-82985000D01*
X335015000Y-82985000D02*
X335015000Y-69015000D01*
%TO.C,SW1F1*%
X335015000Y-50015000D02*
X348985000Y-50015000D01*
X348985000Y-50015000D02*
X348985000Y-63985000D01*
X348985000Y-63985000D02*
X335015000Y-63985000D01*
X335015000Y-63985000D02*
X335015000Y-50015000D01*
%TO.C,SW2E1*%
X316015000Y-69015000D02*
X329985000Y-69015000D01*
X329985000Y-69015000D02*
X329985000Y-82985000D01*
X329985000Y-82985000D02*
X316015000Y-82985000D01*
X316015000Y-82985000D02*
X316015000Y-69015000D01*
%TO.C,SW5F1*%
X335015000Y-126015000D02*
X348985000Y-126015000D01*
X348985000Y-126015000D02*
X348985000Y-139985000D01*
X348985000Y-139985000D02*
X335015000Y-139985000D01*
X335015000Y-139985000D02*
X335015000Y-126015000D01*
%TO.C,SW4E1*%
X316015000Y-107015000D02*
X329985000Y-107015000D01*
X329985000Y-107015000D02*
X329985000Y-120985000D01*
X329985000Y-120985000D02*
X316015000Y-120985000D01*
X316015000Y-120985000D02*
X316015000Y-107015000D01*
%TO.C,SW3E1*%
X316015000Y-26265000D02*
X329985000Y-26265000D01*
X329985000Y-26265000D02*
X329985000Y-40235000D01*
X329985000Y-40235000D02*
X316015000Y-40235000D01*
X316015000Y-40235000D02*
X316015000Y-26265000D01*
%TO.C,SW1D1*%
X278015000Y-50015000D02*
X291985000Y-50015000D01*
X291985000Y-50015000D02*
X291985000Y-63985000D01*
X291985000Y-63985000D02*
X278015000Y-63985000D01*
X278015000Y-63985000D02*
X278015000Y-50015000D01*
%TO.C,SW5E1*%
X316015000Y-126015000D02*
X329985000Y-126015000D01*
X329985000Y-126015000D02*
X329985000Y-139985000D01*
X329985000Y-139985000D02*
X316015000Y-139985000D01*
X316015000Y-139985000D02*
X316015000Y-126015000D01*
%TO.C,SW3C1*%
X273265000Y-88015000D02*
X287235000Y-88015000D01*
X287235000Y-88015000D02*
X287235000Y-101985000D01*
X287235000Y-101985000D02*
X273265000Y-101985000D01*
X273265000Y-101985000D02*
X273265000Y-88015000D01*
%TO.C,SW2D1*%
X278015000Y-69015000D02*
X291985000Y-69015000D01*
X291985000Y-69015000D02*
X291985000Y-82985000D01*
X291985000Y-82985000D02*
X278015000Y-82985000D01*
X278015000Y-82985000D02*
X278015000Y-69015000D01*
%TO.C,SW1C1*%
X249515000Y-50015000D02*
X263485000Y-50015000D01*
X263485000Y-50015000D02*
X263485000Y-63985000D01*
X263485000Y-63985000D02*
X249515000Y-63985000D01*
X249515000Y-63985000D02*
X249515000Y-50015000D01*
%TO.C,SW5D1*%
X297015000Y-126015000D02*
X310985000Y-126015000D01*
X310985000Y-126015000D02*
X310985000Y-139985000D01*
X310985000Y-139985000D02*
X297015000Y-139985000D01*
X297015000Y-139985000D02*
X297015000Y-126015000D01*
%TO.C,SW3B1*%
X244765000Y-88015000D02*
X258735000Y-88015000D01*
X258735000Y-88015000D02*
X258735000Y-101985000D01*
X258735000Y-101985000D02*
X244765000Y-101985000D01*
X244765000Y-101985000D02*
X244765000Y-88015000D01*
%TO.C,SW2C1*%
X259015000Y-69015000D02*
X272985000Y-69015000D01*
X272985000Y-69015000D02*
X272985000Y-82985000D01*
X272985000Y-82985000D02*
X259015000Y-82985000D01*
X259015000Y-82985000D02*
X259015000Y-69015000D01*
%TO.C,SW1B1*%
X230515000Y-50015000D02*
X244485000Y-50015000D01*
X244485000Y-50015000D02*
X244485000Y-63985000D01*
X244485000Y-63985000D02*
X230515000Y-63985000D01*
X230515000Y-63985000D02*
X230515000Y-50015000D01*
%TO.C,SW4A1*%
X235265000Y-107015000D02*
X249235000Y-107015000D01*
X249235000Y-107015000D02*
X249235000Y-120985000D01*
X249235000Y-120985000D02*
X235265000Y-120985000D01*
X235265000Y-120985000D02*
X235265000Y-107015000D01*
%TO.C,SW3A1*%
X225765000Y-88015000D02*
X239735000Y-88015000D01*
X239735000Y-88015000D02*
X239735000Y-101985000D01*
X239735000Y-101985000D02*
X225765000Y-101985000D01*
X225765000Y-101985000D02*
X225765000Y-88015000D01*
%TO.C,SW2B1*%
X240015000Y-69015000D02*
X253985000Y-69015000D01*
X253985000Y-69015000D02*
X253985000Y-82985000D01*
X253985000Y-82985000D02*
X240015000Y-82985000D01*
X240015000Y-82985000D02*
X240015000Y-69015000D01*
%TO.C,SW1A1*%
X211515000Y-50015000D02*
X225485000Y-50015000D01*
X225485000Y-50015000D02*
X225485000Y-63985000D01*
X225485000Y-63985000D02*
X211515000Y-63985000D01*
X211515000Y-63985000D02*
X211515000Y-50015000D01*
%TO.C,SW49*%
X216265000Y-107015000D02*
X230235000Y-107015000D01*
X230235000Y-107015000D02*
X230235000Y-120985000D01*
X230235000Y-120985000D02*
X216265000Y-120985000D01*
X216265000Y-120985000D02*
X216265000Y-107015000D01*
%TO.C,SW39*%
X206765000Y-88015000D02*
X220735000Y-88015000D01*
X220735000Y-88015000D02*
X220735000Y-101985000D01*
X220735000Y-101985000D02*
X206765000Y-101985000D01*
X206765000Y-101985000D02*
X206765000Y-88015000D01*
%TO.C,SW2A1*%
X221015000Y-69015000D02*
X234985000Y-69015000D01*
X234985000Y-69015000D02*
X234985000Y-82985000D01*
X234985000Y-82985000D02*
X221015000Y-82985000D01*
X221015000Y-82985000D02*
X221015000Y-69015000D01*
%TO.C,SW19*%
X192515000Y-50015000D02*
X206485000Y-50015000D01*
X206485000Y-50015000D02*
X206485000Y-63985000D01*
X206485000Y-63985000D02*
X192515000Y-63985000D01*
X192515000Y-63985000D02*
X192515000Y-50015000D01*
%TO.C,SW48*%
X197265000Y-107015000D02*
X211235000Y-107015000D01*
X211235000Y-107015000D02*
X211235000Y-120985000D01*
X211235000Y-120985000D02*
X197265000Y-120985000D01*
X197265000Y-120985000D02*
X197265000Y-107015000D01*
%TO.C,SW38*%
X187765000Y-88015000D02*
X201735000Y-88015000D01*
X201735000Y-88015000D02*
X201735000Y-101985000D01*
X201735000Y-101985000D02*
X187765000Y-101985000D01*
X187765000Y-101985000D02*
X187765000Y-88015000D01*
%TO.C,SW18*%
X173515000Y-50015000D02*
X187485000Y-50015000D01*
X187485000Y-50015000D02*
X187485000Y-63985000D01*
X187485000Y-63985000D02*
X173515000Y-63985000D01*
X173515000Y-63985000D02*
X173515000Y-50015000D01*
%TO.C,SW47*%
X178265000Y-107015000D02*
X192235000Y-107015000D01*
X192235000Y-107015000D02*
X192235000Y-120985000D01*
X192235000Y-120985000D02*
X178265000Y-120985000D01*
X178265000Y-120985000D02*
X178265000Y-107015000D01*
%TO.C,SW37*%
X168765000Y-88015000D02*
X182735000Y-88015000D01*
X182735000Y-88015000D02*
X182735000Y-101985000D01*
X182735000Y-101985000D02*
X168765000Y-101985000D01*
X168765000Y-101985000D02*
X168765000Y-88015000D01*
%TO.C,SW28*%
X183015000Y-69015000D02*
X196985000Y-69015000D01*
X196985000Y-69015000D02*
X196985000Y-82985000D01*
X196985000Y-82985000D02*
X183015000Y-82985000D01*
X183015000Y-82985000D02*
X183015000Y-69015000D01*
%TO.C,SW17*%
X154515000Y-50015000D02*
X168485000Y-50015000D01*
X168485000Y-50015000D02*
X168485000Y-63985000D01*
X168485000Y-63985000D02*
X154515000Y-63985000D01*
X154515000Y-63985000D02*
X154515000Y-50015000D01*
%TO.C,SW46*%
X159265000Y-107015000D02*
X173235000Y-107015000D01*
X173235000Y-107015000D02*
X173235000Y-120985000D01*
X173235000Y-120985000D02*
X159265000Y-120985000D01*
X159265000Y-120985000D02*
X159265000Y-107015000D01*
%TO.C,SW36*%
X149765000Y-88015000D02*
X163735000Y-88015000D01*
X163735000Y-88015000D02*
X163735000Y-101985000D01*
X163735000Y-101985000D02*
X149765000Y-101985000D01*
X149765000Y-101985000D02*
X149765000Y-88015000D01*
%TO.C,SW27*%
X164015000Y-69015000D02*
X177985000Y-69015000D01*
X177985000Y-69015000D02*
X177985000Y-82985000D01*
X177985000Y-82985000D02*
X164015000Y-82985000D01*
X164015000Y-82985000D02*
X164015000Y-69015000D01*
%TO.C,SW16*%
X135515000Y-50015000D02*
X149485000Y-50015000D01*
X149485000Y-50015000D02*
X149485000Y-63985000D01*
X149485000Y-63985000D02*
X135515000Y-63985000D01*
X135515000Y-63985000D02*
X135515000Y-50015000D01*
%TO.C,SW45*%
X140265000Y-107015000D02*
X154235000Y-107015000D01*
X154235000Y-107015000D02*
X154235000Y-120985000D01*
X154235000Y-120985000D02*
X140265000Y-120985000D01*
X140265000Y-120985000D02*
X140265000Y-107015000D01*
%TO.C,SW35*%
X130765000Y-88015000D02*
X144735000Y-88015000D01*
X144735000Y-88015000D02*
X144735000Y-101985000D01*
X144735000Y-101985000D02*
X130765000Y-101985000D01*
X130765000Y-101985000D02*
X130765000Y-88015000D01*
%TO.C,SW26*%
X145015000Y-69015000D02*
X158985000Y-69015000D01*
X158985000Y-69015000D02*
X158985000Y-82985000D01*
X158985000Y-82985000D02*
X145015000Y-82985000D01*
X145015000Y-82985000D02*
X145015000Y-69015000D01*
%TO.C,SW15*%
X116515000Y-50015000D02*
X130485000Y-50015000D01*
X130485000Y-50015000D02*
X130485000Y-63985000D01*
X130485000Y-63985000D02*
X116515000Y-63985000D01*
X116515000Y-63985000D02*
X116515000Y-50015000D01*
%TO.C,SW44*%
X121265000Y-107015000D02*
X135235000Y-107015000D01*
X135235000Y-107015000D02*
X135235000Y-120985000D01*
X135235000Y-120985000D02*
X121265000Y-120985000D01*
X121265000Y-120985000D02*
X121265000Y-107015000D01*
%TO.C,SW34*%
X111765000Y-88015000D02*
X125735000Y-88015000D01*
X125735000Y-88015000D02*
X125735000Y-101985000D01*
X125735000Y-101985000D02*
X111765000Y-101985000D01*
X111765000Y-101985000D02*
X111765000Y-88015000D01*
%TO.C,SW25*%
X126015000Y-69015000D02*
X139985000Y-69015000D01*
X139985000Y-69015000D02*
X139985000Y-82985000D01*
X139985000Y-82985000D02*
X126015000Y-82985000D01*
X126015000Y-82985000D02*
X126015000Y-69015000D01*
%TO.C,SW14*%
X97515000Y-50015000D02*
X111485000Y-50015000D01*
X111485000Y-50015000D02*
X111485000Y-63985000D01*
X111485000Y-63985000D02*
X97515000Y-63985000D01*
X97515000Y-63985000D02*
X97515000Y-50015000D01*
%TO.C,SW33*%
X92765000Y-88015000D02*
X106735000Y-88015000D01*
X106735000Y-88015000D02*
X106735000Y-101985000D01*
X106735000Y-101985000D02*
X92765000Y-101985000D01*
X92765000Y-101985000D02*
X92765000Y-88015000D01*
%TO.C,SW24*%
X107015000Y-69015000D02*
X120985000Y-69015000D01*
X120985000Y-69015000D02*
X120985000Y-82985000D01*
X120985000Y-82985000D02*
X107015000Y-82985000D01*
X107015000Y-82985000D02*
X107015000Y-69015000D01*
%TO.C,SW13*%
X78515000Y-50015000D02*
X92485000Y-50015000D01*
X92485000Y-50015000D02*
X92485000Y-63985000D01*
X92485000Y-63985000D02*
X78515000Y-63985000D01*
X78515000Y-63985000D02*
X78515000Y-50015000D01*
%TO.C,SW32*%
X73765000Y-88015000D02*
X87735000Y-88015000D01*
X87735000Y-88015000D02*
X87735000Y-101985000D01*
X87735000Y-101985000D02*
X73765000Y-101985000D01*
X73765000Y-101985000D02*
X73765000Y-88015000D01*
%TO.C,SW23*%
X88015000Y-69015000D02*
X101985000Y-69015000D01*
X101985000Y-69015000D02*
X101985000Y-82985000D01*
X101985000Y-82985000D02*
X88015000Y-82985000D01*
X88015000Y-82985000D02*
X88015000Y-69015000D01*
%TO.C,SW12*%
X59515000Y-50015000D02*
X73485000Y-50015000D01*
X73485000Y-50015000D02*
X73485000Y-63985000D01*
X73485000Y-63985000D02*
X59515000Y-63985000D01*
X59515000Y-63985000D02*
X59515000Y-50015000D01*
%TO.C,SW41*%
X64265000Y-107015000D02*
X78235000Y-107015000D01*
X78235000Y-107015000D02*
X78235000Y-120985000D01*
X78235000Y-120985000D02*
X64265000Y-120985000D01*
X64265000Y-120985000D02*
X64265000Y-107015000D01*
%TO.C,SW31*%
X54765000Y-88015000D02*
X68735000Y-88015000D01*
X68735000Y-88015000D02*
X68735000Y-101985000D01*
X68735000Y-101985000D02*
X54765000Y-101985000D01*
X54765000Y-101985000D02*
X54765000Y-88015000D01*
%TO.C,SW22*%
X69015000Y-69015000D02*
X82985000Y-69015000D01*
X82985000Y-69015000D02*
X82985000Y-82985000D01*
X82985000Y-82985000D02*
X69015000Y-82985000D01*
X69015000Y-82985000D02*
X69015000Y-69015000D01*
%TO.C,SW11*%
X40515000Y-50015000D02*
X54485000Y-50015000D01*
X54485000Y-50015000D02*
X54485000Y-63985000D01*
X54485000Y-63985000D02*
X40515000Y-63985000D01*
X40515000Y-63985000D02*
X40515000Y-50015000D01*
%TO.C,SW55*%
X145015000Y-126015000D02*
X158985000Y-126015000D01*
X158985000Y-126015000D02*
X158985000Y-139985000D01*
X158985000Y-139985000D02*
X145015000Y-139985000D01*
X145015000Y-139985000D02*
X145015000Y-126015000D01*
%TO.C,SW40*%
X35765000Y-107015000D02*
X49735000Y-107015000D01*
X49735000Y-107015000D02*
X49735000Y-120985000D01*
X49735000Y-120985000D02*
X35765000Y-120985000D01*
X35765000Y-120985000D02*
X35765000Y-107015000D01*
%TO.C,SW21*%
X50015000Y-69015000D02*
X63985000Y-69015000D01*
X63985000Y-69015000D02*
X63985000Y-82985000D01*
X63985000Y-82985000D02*
X50015000Y-82985000D01*
X50015000Y-82985000D02*
X50015000Y-69015000D01*
%TO.C,SW10*%
X21515000Y-50015000D02*
X35485000Y-50015000D01*
X35485000Y-50015000D02*
X35485000Y-63985000D01*
X35485000Y-63985000D02*
X21515000Y-63985000D01*
X21515000Y-63985000D02*
X21515000Y-50015000D01*
%TO.C,SW51*%
X69015000Y-126015000D02*
X82985000Y-126015000D01*
X82985000Y-126015000D02*
X82985000Y-139985000D01*
X82985000Y-139985000D02*
X69015000Y-139985000D01*
X69015000Y-139985000D02*
X69015000Y-126015000D01*
%TO.C,SW50*%
X31015000Y-126015000D02*
X44985000Y-126015000D01*
X44985000Y-126015000D02*
X44985000Y-139985000D01*
X44985000Y-139985000D02*
X31015000Y-139985000D01*
X31015000Y-139985000D02*
X31015000Y-126015000D01*
%TO.C,SW20*%
X26265000Y-69015000D02*
X40235000Y-69015000D01*
X40235000Y-69015000D02*
X40235000Y-82985000D01*
X40235000Y-82985000D02*
X26265000Y-82985000D01*
X26265000Y-82985000D02*
X26265000Y-69015000D01*
%TO.C,SW0*%
X21515000Y-26265000D02*
X35485000Y-26265000D01*
X35485000Y-26265000D02*
X35485000Y-40235000D01*
X35485000Y-40235000D02*
X21515000Y-40235000D01*
X21515000Y-40235000D02*
X21515000Y-26265000D01*
%TO.C,REF\u002A\u002A*%
D11*
X136416666Y-35652380D02*
X136083333Y-35176190D01*
X135845238Y-35652380D02*
X135845238Y-34652380D01*
X136226190Y-34652380D01*
X136321428Y-34700000D01*
X136369047Y-34747619D01*
X136416666Y-34842857D01*
X136416666Y-34985714D01*
X136369047Y-35080952D01*
X136321428Y-35128571D01*
X136226190Y-35176190D01*
X135845238Y-35176190D01*
X136845238Y-35128571D02*
X137178571Y-35128571D01*
X137321428Y-35652380D02*
X136845238Y-35652380D01*
X136845238Y-34652380D01*
X137321428Y-34652380D01*
X138083333Y-35128571D02*
X137750000Y-35128571D01*
X137750000Y-35652380D02*
X137750000Y-34652380D01*
X138226190Y-34652380D01*
X138750000Y-34652380D02*
X138750000Y-34890476D01*
X138511904Y-34795238D02*
X138750000Y-34890476D01*
X138988095Y-34795238D01*
X138607142Y-35080952D02*
X138750000Y-34890476D01*
X138892857Y-35080952D01*
X139511904Y-34652380D02*
X139511904Y-34890476D01*
X139273809Y-34795238D02*
X139511904Y-34890476D01*
X139750000Y-34795238D01*
X139369047Y-35080952D02*
X139511904Y-34890476D01*
X139654761Y-35080952D01*
X221916666Y-35652380D02*
X221583333Y-35176190D01*
X221345238Y-35652380D02*
X221345238Y-34652380D01*
X221726190Y-34652380D01*
X221821428Y-34700000D01*
X221869047Y-34747619D01*
X221916666Y-34842857D01*
X221916666Y-34985714D01*
X221869047Y-35080952D01*
X221821428Y-35128571D01*
X221726190Y-35176190D01*
X221345238Y-35176190D01*
X222345238Y-35128571D02*
X222678571Y-35128571D01*
X222821428Y-35652380D02*
X222345238Y-35652380D01*
X222345238Y-34652380D01*
X222821428Y-34652380D01*
X223583333Y-35128571D02*
X223250000Y-35128571D01*
X223250000Y-35652380D02*
X223250000Y-34652380D01*
X223726190Y-34652380D01*
X224250000Y-34652380D02*
X224250000Y-34890476D01*
X224011904Y-34795238D02*
X224250000Y-34890476D01*
X224488095Y-34795238D01*
X224107142Y-35080952D02*
X224250000Y-34890476D01*
X224392857Y-35080952D01*
X225011904Y-34652380D02*
X225011904Y-34890476D01*
X224773809Y-34795238D02*
X225011904Y-34890476D01*
X225250000Y-34795238D01*
X224869047Y-35080952D02*
X225011904Y-34890476D01*
X225154761Y-35080952D01*
X340666666Y-16652380D02*
X340333333Y-16176190D01*
X340095238Y-16652380D02*
X340095238Y-15652380D01*
X340476190Y-15652380D01*
X340571428Y-15700000D01*
X340619047Y-15747619D01*
X340666666Y-15842857D01*
X340666666Y-15985714D01*
X340619047Y-16080952D01*
X340571428Y-16128571D01*
X340476190Y-16176190D01*
X340095238Y-16176190D01*
X341095238Y-16128571D02*
X341428571Y-16128571D01*
X341571428Y-16652380D02*
X341095238Y-16652380D01*
X341095238Y-15652380D01*
X341571428Y-15652380D01*
X342333333Y-16128571D02*
X342000000Y-16128571D01*
X342000000Y-16652380D02*
X342000000Y-15652380D01*
X342476190Y-15652380D01*
X343000000Y-15652380D02*
X343000000Y-15890476D01*
X342761904Y-15795238D02*
X343000000Y-15890476D01*
X343238095Y-15795238D01*
X342857142Y-16080952D02*
X343000000Y-15890476D01*
X343142857Y-16080952D01*
X343761904Y-15652380D02*
X343761904Y-15890476D01*
X343523809Y-15795238D02*
X343761904Y-15890476D01*
X344000000Y-15795238D01*
X343619047Y-16080952D02*
X343761904Y-15890476D01*
X343904761Y-16080952D01*
X27166666Y-16652380D02*
X26833333Y-16176190D01*
X26595238Y-16652380D02*
X26595238Y-15652380D01*
X26976190Y-15652380D01*
X27071428Y-15700000D01*
X27119047Y-15747619D01*
X27166666Y-15842857D01*
X27166666Y-15985714D01*
X27119047Y-16080952D01*
X27071428Y-16128571D01*
X26976190Y-16176190D01*
X26595238Y-16176190D01*
X27595238Y-16128571D02*
X27928571Y-16128571D01*
X28071428Y-16652380D02*
X27595238Y-16652380D01*
X27595238Y-15652380D01*
X28071428Y-15652380D01*
X28833333Y-16128571D02*
X28500000Y-16128571D01*
X28500000Y-16652380D02*
X28500000Y-15652380D01*
X28976190Y-15652380D01*
X29500000Y-15652380D02*
X29500000Y-15890476D01*
X29261904Y-15795238D02*
X29500000Y-15890476D01*
X29738095Y-15795238D01*
X29357142Y-16080952D02*
X29500000Y-15890476D01*
X29642857Y-16080952D01*
X30261904Y-15652380D02*
X30261904Y-15890476D01*
X30023809Y-15795238D02*
X30261904Y-15890476D01*
X30500000Y-15795238D01*
X30119047Y-16080952D02*
X30261904Y-15890476D01*
X30404761Y-16080952D01*
X36666666Y-97402380D02*
X36333333Y-96926190D01*
X36095238Y-97402380D02*
X36095238Y-96402380D01*
X36476190Y-96402380D01*
X36571428Y-96450000D01*
X36619047Y-96497619D01*
X36666666Y-96592857D01*
X36666666Y-96735714D01*
X36619047Y-96830952D01*
X36571428Y-96878571D01*
X36476190Y-96926190D01*
X36095238Y-96926190D01*
X37095238Y-96878571D02*
X37428571Y-96878571D01*
X37571428Y-97402380D02*
X37095238Y-97402380D01*
X37095238Y-96402380D01*
X37571428Y-96402380D01*
X38333333Y-96878571D02*
X38000000Y-96878571D01*
X38000000Y-97402380D02*
X38000000Y-96402380D01*
X38476190Y-96402380D01*
X39000000Y-96402380D02*
X39000000Y-96640476D01*
X38761904Y-96545238D02*
X39000000Y-96640476D01*
X39238095Y-96545238D01*
X38857142Y-96830952D02*
X39000000Y-96640476D01*
X39142857Y-96830952D01*
X39761904Y-96402380D02*
X39761904Y-96640476D01*
X39523809Y-96545238D02*
X39761904Y-96640476D01*
X40000000Y-96545238D01*
X39619047Y-96830952D02*
X39761904Y-96640476D01*
X39904761Y-96830952D01*
X55666666Y-135402380D02*
X55333333Y-134926190D01*
X55095238Y-135402380D02*
X55095238Y-134402380D01*
X55476190Y-134402380D01*
X55571428Y-134450000D01*
X55619047Y-134497619D01*
X55666666Y-134592857D01*
X55666666Y-134735714D01*
X55619047Y-134830952D01*
X55571428Y-134878571D01*
X55476190Y-134926190D01*
X55095238Y-134926190D01*
X56095238Y-134878571D02*
X56428571Y-134878571D01*
X56571428Y-135402380D02*
X56095238Y-135402380D01*
X56095238Y-134402380D01*
X56571428Y-134402380D01*
X57333333Y-134878571D02*
X57000000Y-134878571D01*
X57000000Y-135402380D02*
X57000000Y-134402380D01*
X57476190Y-134402380D01*
X58000000Y-134402380D02*
X58000000Y-134640476D01*
X57761904Y-134545238D02*
X58000000Y-134640476D01*
X58238095Y-134545238D01*
X57857142Y-134830952D02*
X58000000Y-134640476D01*
X58142857Y-134830952D01*
X58761904Y-134402380D02*
X58761904Y-134640476D01*
X58523809Y-134545238D02*
X58761904Y-134640476D01*
X59000000Y-134545238D01*
X58619047Y-134830952D02*
X58761904Y-134640476D01*
X58904761Y-134830952D01*
X283666666Y-135402380D02*
X283333333Y-134926190D01*
X283095238Y-135402380D02*
X283095238Y-134402380D01*
X283476190Y-134402380D01*
X283571428Y-134450000D01*
X283619047Y-134497619D01*
X283666666Y-134592857D01*
X283666666Y-134735714D01*
X283619047Y-134830952D01*
X283571428Y-134878571D01*
X283476190Y-134926190D01*
X283095238Y-134926190D01*
X284095238Y-134878571D02*
X284428571Y-134878571D01*
X284571428Y-135402380D02*
X284095238Y-135402380D01*
X284095238Y-134402380D01*
X284571428Y-134402380D01*
X285333333Y-134878571D02*
X285000000Y-134878571D01*
X285000000Y-135402380D02*
X285000000Y-134402380D01*
X285476190Y-134402380D01*
X286000000Y-134402380D02*
X286000000Y-134640476D01*
X285761904Y-134545238D02*
X286000000Y-134640476D01*
X286238095Y-134545238D01*
X285857142Y-134830952D02*
X286000000Y-134640476D01*
X286142857Y-134830952D01*
X286761904Y-134402380D02*
X286761904Y-134640476D01*
X286523809Y-134545238D02*
X286761904Y-134640476D01*
X287000000Y-134545238D01*
X286619047Y-134830952D02*
X286761904Y-134640476D01*
X286904761Y-134830952D01*
X340666666Y-116402380D02*
X340333333Y-115926190D01*
X340095238Y-116402380D02*
X340095238Y-115402380D01*
X340476190Y-115402380D01*
X340571428Y-115450000D01*
X340619047Y-115497619D01*
X340666666Y-115592857D01*
X340666666Y-115735714D01*
X340619047Y-115830952D01*
X340571428Y-115878571D01*
X340476190Y-115926190D01*
X340095238Y-115926190D01*
X341095238Y-115878571D02*
X341428571Y-115878571D01*
X341571428Y-116402380D02*
X341095238Y-116402380D01*
X341095238Y-115402380D01*
X341571428Y-115402380D01*
X342333333Y-115878571D02*
X342000000Y-115878571D01*
X342000000Y-116402380D02*
X342000000Y-115402380D01*
X342476190Y-115402380D01*
X343000000Y-115402380D02*
X343000000Y-115640476D01*
X342761904Y-115545238D02*
X343000000Y-115640476D01*
X343238095Y-115545238D01*
X342857142Y-115830952D02*
X343000000Y-115640476D01*
X343142857Y-115830952D01*
X343761904Y-115402380D02*
X343761904Y-115640476D01*
X343523809Y-115545238D02*
X343761904Y-115640476D01*
X344000000Y-115545238D01*
X343619047Y-115830952D02*
X343761904Y-115640476D01*
X343904761Y-115830952D01*
X302666666Y-78402380D02*
X302333333Y-77926190D01*
X302095238Y-78402380D02*
X302095238Y-77402380D01*
X302476190Y-77402380D01*
X302571428Y-77450000D01*
X302619047Y-77497619D01*
X302666666Y-77592857D01*
X302666666Y-77735714D01*
X302619047Y-77830952D01*
X302571428Y-77878571D01*
X302476190Y-77926190D01*
X302095238Y-77926190D01*
X303095238Y-77878571D02*
X303428571Y-77878571D01*
X303571428Y-78402380D02*
X303095238Y-78402380D01*
X303095238Y-77402380D01*
X303571428Y-77402380D01*
X304333333Y-77878571D02*
X304000000Y-77878571D01*
X304000000Y-78402380D02*
X304000000Y-77402380D01*
X304476190Y-77402380D01*
X305000000Y-77402380D02*
X305000000Y-77640476D01*
X304761904Y-77545238D02*
X305000000Y-77640476D01*
X305238095Y-77545238D01*
X304857142Y-77830952D02*
X305000000Y-77640476D01*
X305142857Y-77830952D01*
X305761904Y-77402380D02*
X305761904Y-77640476D01*
X305523809Y-77545238D02*
X305761904Y-77640476D01*
X306000000Y-77545238D01*
X305619047Y-77830952D02*
X305761904Y-77640476D01*
X305904761Y-77830952D01*
X307416666Y-35652380D02*
X307083333Y-35176190D01*
X306845238Y-35652380D02*
X306845238Y-34652380D01*
X307226190Y-34652380D01*
X307321428Y-34700000D01*
X307369047Y-34747619D01*
X307416666Y-34842857D01*
X307416666Y-34985714D01*
X307369047Y-35080952D01*
X307321428Y-35128571D01*
X307226190Y-35176190D01*
X306845238Y-35176190D01*
X307845238Y-35128571D02*
X308178571Y-35128571D01*
X308321428Y-35652380D02*
X307845238Y-35652380D01*
X307845238Y-34652380D01*
X308321428Y-34652380D01*
X309083333Y-35128571D02*
X308750000Y-35128571D01*
X308750000Y-35652380D02*
X308750000Y-34652380D01*
X309226190Y-34652380D01*
X309750000Y-34652380D02*
X309750000Y-34890476D01*
X309511904Y-34795238D02*
X309750000Y-34890476D01*
X309988095Y-34795238D01*
X309607142Y-35080952D02*
X309750000Y-34890476D01*
X309892857Y-35080952D01*
X310511904Y-34652380D02*
X310511904Y-34890476D01*
X310273809Y-34795238D02*
X310511904Y-34890476D01*
X310750000Y-34795238D01*
X310369047Y-35080952D02*
X310511904Y-34890476D01*
X310654761Y-35080952D01*
X46166666Y-35652380D02*
X45833333Y-35176190D01*
X45595238Y-35652380D02*
X45595238Y-34652380D01*
X45976190Y-34652380D01*
X46071428Y-34700000D01*
X46119047Y-34747619D01*
X46166666Y-34842857D01*
X46166666Y-34985714D01*
X46119047Y-35080952D01*
X46071428Y-35128571D01*
X45976190Y-35176190D01*
X45595238Y-35176190D01*
X46595238Y-35128571D02*
X46928571Y-35128571D01*
X47071428Y-35652380D02*
X46595238Y-35652380D01*
X46595238Y-34652380D01*
X47071428Y-34652380D01*
X47833333Y-35128571D02*
X47500000Y-35128571D01*
X47500000Y-35652380D02*
X47500000Y-34652380D01*
X47976190Y-34652380D01*
X48500000Y-34652380D02*
X48500000Y-34890476D01*
X48261904Y-34795238D02*
X48500000Y-34890476D01*
X48738095Y-34795238D01*
X48357142Y-35080952D02*
X48500000Y-34890476D01*
X48642857Y-35080952D01*
X49261904Y-34652380D02*
X49261904Y-34890476D01*
X49023809Y-34795238D02*
X49261904Y-34890476D01*
X49500000Y-34795238D01*
X49119047Y-35080952D02*
X49261904Y-34890476D01*
X49404761Y-35080952D01*
%TO.C,SW29*%
X207190476Y-68530761D02*
X207333333Y-68578380D01*
X207571428Y-68578380D01*
X207666666Y-68530761D01*
X207714285Y-68483142D01*
X207761904Y-68387904D01*
X207761904Y-68292666D01*
X207714285Y-68197428D01*
X207666666Y-68149809D01*
X207571428Y-68102190D01*
X207380952Y-68054571D01*
X207285714Y-68006952D01*
X207238095Y-67959333D01*
X207190476Y-67864095D01*
X207190476Y-67768857D01*
X207238095Y-67673619D01*
X207285714Y-67626000D01*
X207380952Y-67578380D01*
X207619047Y-67578380D01*
X207761904Y-67626000D01*
X208095238Y-67578380D02*
X208333333Y-68578380D01*
X208523809Y-67864095D01*
X208714285Y-68578380D01*
X208952380Y-67578380D01*
X209285714Y-67673619D02*
X209333333Y-67626000D01*
X209428571Y-67578380D01*
X209666666Y-67578380D01*
X209761904Y-67626000D01*
X209809523Y-67673619D01*
X209857142Y-67768857D01*
X209857142Y-67864095D01*
X209809523Y-68006952D01*
X209238095Y-68578380D01*
X209857142Y-68578380D01*
X210333333Y-68578380D02*
X210523809Y-68578380D01*
X210619047Y-68530761D01*
X210666666Y-68483142D01*
X210761904Y-68340285D01*
X210809523Y-68149809D01*
X210809523Y-67768857D01*
X210761904Y-67673619D01*
X210714285Y-67626000D01*
X210619047Y-67578380D01*
X210428571Y-67578380D01*
X210333333Y-67626000D01*
X210285714Y-67673619D01*
X210238095Y-67768857D01*
X210238095Y-68006952D01*
X210285714Y-68102190D01*
X210333333Y-68149809D01*
X210428571Y-68197428D01*
X210619047Y-68197428D01*
X210714285Y-68149809D01*
X210761904Y-68102190D01*
X210809523Y-68006952D01*
%TO.C,SW1E1*%
X320738095Y-49530761D02*
X320880952Y-49578380D01*
X321119047Y-49578380D01*
X321214285Y-49530761D01*
X321261904Y-49483142D01*
X321309523Y-49387904D01*
X321309523Y-49292666D01*
X321261904Y-49197428D01*
X321214285Y-49149809D01*
X321119047Y-49102190D01*
X320928571Y-49054571D01*
X320833333Y-49006952D01*
X320785714Y-48959333D01*
X320738095Y-48864095D01*
X320738095Y-48768857D01*
X320785714Y-48673619D01*
X320833333Y-48626000D01*
X320928571Y-48578380D01*
X321166666Y-48578380D01*
X321309523Y-48626000D01*
X321642857Y-48578380D02*
X321880952Y-49578380D01*
X322071428Y-48864095D01*
X322261904Y-49578380D01*
X322500000Y-48578380D01*
X323404761Y-49578380D02*
X322833333Y-49578380D01*
X323119047Y-49578380D02*
X323119047Y-48578380D01*
X323023809Y-48721238D01*
X322928571Y-48816476D01*
X322833333Y-48864095D01*
X323833333Y-49054571D02*
X324166666Y-49054571D01*
X324309523Y-49578380D02*
X323833333Y-49578380D01*
X323833333Y-48578380D01*
X324309523Y-48578380D01*
X325261904Y-49578380D02*
X324690476Y-49578380D01*
X324976190Y-49578380D02*
X324976190Y-48578380D01*
X324880952Y-48721238D01*
X324785714Y-48816476D01*
X324690476Y-48864095D01*
%TO.C,SW42*%
X88440476Y-106530761D02*
X88583333Y-106578380D01*
X88821428Y-106578380D01*
X88916666Y-106530761D01*
X88964285Y-106483142D01*
X89011904Y-106387904D01*
X89011904Y-106292666D01*
X88964285Y-106197428D01*
X88916666Y-106149809D01*
X88821428Y-106102190D01*
X88630952Y-106054571D01*
X88535714Y-106006952D01*
X88488095Y-105959333D01*
X88440476Y-105864095D01*
X88440476Y-105768857D01*
X88488095Y-105673619D01*
X88535714Y-105626000D01*
X88630952Y-105578380D01*
X88869047Y-105578380D01*
X89011904Y-105626000D01*
X89345238Y-105578380D02*
X89583333Y-106578380D01*
X89773809Y-105864095D01*
X89964285Y-106578380D01*
X90202380Y-105578380D01*
X91011904Y-105911714D02*
X91011904Y-106578380D01*
X90773809Y-105530761D02*
X90535714Y-106245047D01*
X91154761Y-106245047D01*
X91488095Y-105673619D02*
X91535714Y-105626000D01*
X91630952Y-105578380D01*
X91869047Y-105578380D01*
X91964285Y-105626000D01*
X92011904Y-105673619D01*
X92059523Y-105768857D01*
X92059523Y-105864095D01*
X92011904Y-106006952D01*
X91440476Y-106578380D01*
X92059523Y-106578380D01*
%TO.C,SW43*%
X107440476Y-106530761D02*
X107583333Y-106578380D01*
X107821428Y-106578380D01*
X107916666Y-106530761D01*
X107964285Y-106483142D01*
X108011904Y-106387904D01*
X108011904Y-106292666D01*
X107964285Y-106197428D01*
X107916666Y-106149809D01*
X107821428Y-106102190D01*
X107630952Y-106054571D01*
X107535714Y-106006952D01*
X107488095Y-105959333D01*
X107440476Y-105864095D01*
X107440476Y-105768857D01*
X107488095Y-105673619D01*
X107535714Y-105626000D01*
X107630952Y-105578380D01*
X107869047Y-105578380D01*
X108011904Y-105626000D01*
X108345238Y-105578380D02*
X108583333Y-106578380D01*
X108773809Y-105864095D01*
X108964285Y-106578380D01*
X109202380Y-105578380D01*
X110011904Y-105911714D02*
X110011904Y-106578380D01*
X109773809Y-105530761D02*
X109535714Y-106245047D01*
X110154761Y-106245047D01*
X110440476Y-105578380D02*
X111059523Y-105578380D01*
X110726190Y-105959333D01*
X110869047Y-105959333D01*
X110964285Y-106006952D01*
X111011904Y-106054571D01*
X111059523Y-106149809D01*
X111059523Y-106387904D01*
X111011904Y-106483142D01*
X110964285Y-106530761D01*
X110869047Y-106578380D01*
X110583333Y-106578380D01*
X110488095Y-106530761D01*
X110440476Y-106483142D01*
%TO.C,SW4C1*%
X273190476Y-106530761D02*
X273333333Y-106578380D01*
X273571428Y-106578380D01*
X273666666Y-106530761D01*
X273714285Y-106483142D01*
X273761904Y-106387904D01*
X273761904Y-106292666D01*
X273714285Y-106197428D01*
X273666666Y-106149809D01*
X273571428Y-106102190D01*
X273380952Y-106054571D01*
X273285714Y-106006952D01*
X273238095Y-105959333D01*
X273190476Y-105864095D01*
X273190476Y-105768857D01*
X273238095Y-105673619D01*
X273285714Y-105626000D01*
X273380952Y-105578380D01*
X273619047Y-105578380D01*
X273761904Y-105626000D01*
X274095238Y-105578380D02*
X274333333Y-106578380D01*
X274523809Y-105864095D01*
X274714285Y-106578380D01*
X274952380Y-105578380D01*
X275761904Y-105911714D02*
X275761904Y-106578380D01*
X275523809Y-105530761D02*
X275285714Y-106245047D01*
X275904761Y-106245047D01*
X276857142Y-106483142D02*
X276809523Y-106530761D01*
X276666666Y-106578380D01*
X276571428Y-106578380D01*
X276428571Y-106530761D01*
X276333333Y-106435523D01*
X276285714Y-106340285D01*
X276238095Y-106149809D01*
X276238095Y-106006952D01*
X276285714Y-105816476D01*
X276333333Y-105721238D01*
X276428571Y-105626000D01*
X276571428Y-105578380D01*
X276666666Y-105578380D01*
X276809523Y-105626000D01*
X276857142Y-105673619D01*
X277809523Y-106578380D02*
X277238095Y-106578380D01*
X277523809Y-106578380D02*
X277523809Y-105578380D01*
X277428571Y-105721238D01*
X277333333Y-105816476D01*
X277238095Y-105864095D01*
%TO.C,SW0D1*%
X292190476Y-25780761D02*
X292333333Y-25828380D01*
X292571428Y-25828380D01*
X292666666Y-25780761D01*
X292714285Y-25733142D01*
X292761904Y-25637904D01*
X292761904Y-25542666D01*
X292714285Y-25447428D01*
X292666666Y-25399809D01*
X292571428Y-25352190D01*
X292380952Y-25304571D01*
X292285714Y-25256952D01*
X292238095Y-25209333D01*
X292190476Y-25114095D01*
X292190476Y-25018857D01*
X292238095Y-24923619D01*
X292285714Y-24876000D01*
X292380952Y-24828380D01*
X292619047Y-24828380D01*
X292761904Y-24876000D01*
X293095238Y-24828380D02*
X293333333Y-25828380D01*
X293523809Y-25114095D01*
X293714285Y-25828380D01*
X293952380Y-24828380D01*
X294523809Y-24828380D02*
X294619047Y-24828380D01*
X294714285Y-24876000D01*
X294761904Y-24923619D01*
X294809523Y-25018857D01*
X294857142Y-25209333D01*
X294857142Y-25447428D01*
X294809523Y-25637904D01*
X294761904Y-25733142D01*
X294714285Y-25780761D01*
X294619047Y-25828380D01*
X294523809Y-25828380D01*
X294428571Y-25780761D01*
X294380952Y-25733142D01*
X294333333Y-25637904D01*
X294285714Y-25447428D01*
X294285714Y-25209333D01*
X294333333Y-25018857D01*
X294380952Y-24923619D01*
X294428571Y-24876000D01*
X294523809Y-24828380D01*
X295285714Y-25828380D02*
X295285714Y-24828380D01*
X295523809Y-24828380D01*
X295666666Y-24876000D01*
X295761904Y-24971238D01*
X295809523Y-25066476D01*
X295857142Y-25256952D01*
X295857142Y-25399809D01*
X295809523Y-25590285D01*
X295761904Y-25685523D01*
X295666666Y-25780761D01*
X295523809Y-25828380D01*
X295285714Y-25828380D01*
X296809523Y-25828380D02*
X296238095Y-25828380D01*
X296523809Y-25828380D02*
X296523809Y-24828380D01*
X296428571Y-24971238D01*
X296333333Y-25066476D01*
X296238095Y-25114095D01*
%TO.C,SW0C1*%
X273190476Y-25780761D02*
X273333333Y-25828380D01*
X273571428Y-25828380D01*
X273666666Y-25780761D01*
X273714285Y-25733142D01*
X273761904Y-25637904D01*
X273761904Y-25542666D01*
X273714285Y-25447428D01*
X273666666Y-25399809D01*
X273571428Y-25352190D01*
X273380952Y-25304571D01*
X273285714Y-25256952D01*
X273238095Y-25209333D01*
X273190476Y-25114095D01*
X273190476Y-25018857D01*
X273238095Y-24923619D01*
X273285714Y-24876000D01*
X273380952Y-24828380D01*
X273619047Y-24828380D01*
X273761904Y-24876000D01*
X274095238Y-24828380D02*
X274333333Y-25828380D01*
X274523809Y-25114095D01*
X274714285Y-25828380D01*
X274952380Y-24828380D01*
X275523809Y-24828380D02*
X275619047Y-24828380D01*
X275714285Y-24876000D01*
X275761904Y-24923619D01*
X275809523Y-25018857D01*
X275857142Y-25209333D01*
X275857142Y-25447428D01*
X275809523Y-25637904D01*
X275761904Y-25733142D01*
X275714285Y-25780761D01*
X275619047Y-25828380D01*
X275523809Y-25828380D01*
X275428571Y-25780761D01*
X275380952Y-25733142D01*
X275333333Y-25637904D01*
X275285714Y-25447428D01*
X275285714Y-25209333D01*
X275333333Y-25018857D01*
X275380952Y-24923619D01*
X275428571Y-24876000D01*
X275523809Y-24828380D01*
X276857142Y-25733142D02*
X276809523Y-25780761D01*
X276666666Y-25828380D01*
X276571428Y-25828380D01*
X276428571Y-25780761D01*
X276333333Y-25685523D01*
X276285714Y-25590285D01*
X276238095Y-25399809D01*
X276238095Y-25256952D01*
X276285714Y-25066476D01*
X276333333Y-24971238D01*
X276428571Y-24876000D01*
X276571428Y-24828380D01*
X276666666Y-24828380D01*
X276809523Y-24876000D01*
X276857142Y-24923619D01*
X277809523Y-25828380D02*
X277238095Y-25828380D01*
X277523809Y-25828380D02*
X277523809Y-24828380D01*
X277428571Y-24971238D01*
X277333333Y-25066476D01*
X277238095Y-25114095D01*
%TO.C,SW0B1*%
X254190476Y-25780761D02*
X254333333Y-25828380D01*
X254571428Y-25828380D01*
X254666666Y-25780761D01*
X254714285Y-25733142D01*
X254761904Y-25637904D01*
X254761904Y-25542666D01*
X254714285Y-25447428D01*
X254666666Y-25399809D01*
X254571428Y-25352190D01*
X254380952Y-25304571D01*
X254285714Y-25256952D01*
X254238095Y-25209333D01*
X254190476Y-25114095D01*
X254190476Y-25018857D01*
X254238095Y-24923619D01*
X254285714Y-24876000D01*
X254380952Y-24828380D01*
X254619047Y-24828380D01*
X254761904Y-24876000D01*
X255095238Y-24828380D02*
X255333333Y-25828380D01*
X255523809Y-25114095D01*
X255714285Y-25828380D01*
X255952380Y-24828380D01*
X256523809Y-24828380D02*
X256619047Y-24828380D01*
X256714285Y-24876000D01*
X256761904Y-24923619D01*
X256809523Y-25018857D01*
X256857142Y-25209333D01*
X256857142Y-25447428D01*
X256809523Y-25637904D01*
X256761904Y-25733142D01*
X256714285Y-25780761D01*
X256619047Y-25828380D01*
X256523809Y-25828380D01*
X256428571Y-25780761D01*
X256380952Y-25733142D01*
X256333333Y-25637904D01*
X256285714Y-25447428D01*
X256285714Y-25209333D01*
X256333333Y-25018857D01*
X256380952Y-24923619D01*
X256428571Y-24876000D01*
X256523809Y-24828380D01*
X257619047Y-25304571D02*
X257761904Y-25352190D01*
X257809523Y-25399809D01*
X257857142Y-25495047D01*
X257857142Y-25637904D01*
X257809523Y-25733142D01*
X257761904Y-25780761D01*
X257666666Y-25828380D01*
X257285714Y-25828380D01*
X257285714Y-24828380D01*
X257619047Y-24828380D01*
X257714285Y-24876000D01*
X257761904Y-24923619D01*
X257809523Y-25018857D01*
X257809523Y-25114095D01*
X257761904Y-25209333D01*
X257714285Y-25256952D01*
X257619047Y-25304571D01*
X257285714Y-25304571D01*
X258809523Y-25828380D02*
X258238095Y-25828380D01*
X258523809Y-25828380D02*
X258523809Y-24828380D01*
X258428571Y-24971238D01*
X258333333Y-25066476D01*
X258238095Y-25114095D01*
%TO.C,SW0A1*%
X235261904Y-25780761D02*
X235404761Y-25828380D01*
X235642857Y-25828380D01*
X235738095Y-25780761D01*
X235785714Y-25733142D01*
X235833333Y-25637904D01*
X235833333Y-25542666D01*
X235785714Y-25447428D01*
X235738095Y-25399809D01*
X235642857Y-25352190D01*
X235452380Y-25304571D01*
X235357142Y-25256952D01*
X235309523Y-25209333D01*
X235261904Y-25114095D01*
X235261904Y-25018857D01*
X235309523Y-24923619D01*
X235357142Y-24876000D01*
X235452380Y-24828380D01*
X235690476Y-24828380D01*
X235833333Y-24876000D01*
X236166666Y-24828380D02*
X236404761Y-25828380D01*
X236595238Y-25114095D01*
X236785714Y-25828380D01*
X237023809Y-24828380D01*
X237595238Y-24828380D02*
X237690476Y-24828380D01*
X237785714Y-24876000D01*
X237833333Y-24923619D01*
X237880952Y-25018857D01*
X237928571Y-25209333D01*
X237928571Y-25447428D01*
X237880952Y-25637904D01*
X237833333Y-25733142D01*
X237785714Y-25780761D01*
X237690476Y-25828380D01*
X237595238Y-25828380D01*
X237500000Y-25780761D01*
X237452380Y-25733142D01*
X237404761Y-25637904D01*
X237357142Y-25447428D01*
X237357142Y-25209333D01*
X237404761Y-25018857D01*
X237452380Y-24923619D01*
X237500000Y-24876000D01*
X237595238Y-24828380D01*
X238309523Y-25542666D02*
X238785714Y-25542666D01*
X238214285Y-25828380D02*
X238547619Y-24828380D01*
X238880952Y-25828380D01*
X239738095Y-25828380D02*
X239166666Y-25828380D01*
X239452380Y-25828380D02*
X239452380Y-24828380D01*
X239357142Y-24971238D01*
X239261904Y-25066476D01*
X239166666Y-25114095D01*
%TO.C,SW9*%
X207666666Y-25780761D02*
X207809523Y-25828380D01*
X208047619Y-25828380D01*
X208142857Y-25780761D01*
X208190476Y-25733142D01*
X208238095Y-25637904D01*
X208238095Y-25542666D01*
X208190476Y-25447428D01*
X208142857Y-25399809D01*
X208047619Y-25352190D01*
X207857142Y-25304571D01*
X207761904Y-25256952D01*
X207714285Y-25209333D01*
X207666666Y-25114095D01*
X207666666Y-25018857D01*
X207714285Y-24923619D01*
X207761904Y-24876000D01*
X207857142Y-24828380D01*
X208095238Y-24828380D01*
X208238095Y-24876000D01*
X208571428Y-24828380D02*
X208809523Y-25828380D01*
X209000000Y-25114095D01*
X209190476Y-25828380D01*
X209428571Y-24828380D01*
X209857142Y-25828380D02*
X210047619Y-25828380D01*
X210142857Y-25780761D01*
X210190476Y-25733142D01*
X210285714Y-25590285D01*
X210333333Y-25399809D01*
X210333333Y-25018857D01*
X210285714Y-24923619D01*
X210238095Y-24876000D01*
X210142857Y-24828380D01*
X209952380Y-24828380D01*
X209857142Y-24876000D01*
X209809523Y-24923619D01*
X209761904Y-25018857D01*
X209761904Y-25256952D01*
X209809523Y-25352190D01*
X209857142Y-25399809D01*
X209952380Y-25447428D01*
X210142857Y-25447428D01*
X210238095Y-25399809D01*
X210285714Y-25352190D01*
X210333333Y-25256952D01*
%TO.C,SW8*%
X188666666Y-25780761D02*
X188809523Y-25828380D01*
X189047619Y-25828380D01*
X189142857Y-25780761D01*
X189190476Y-25733142D01*
X189238095Y-25637904D01*
X189238095Y-25542666D01*
X189190476Y-25447428D01*
X189142857Y-25399809D01*
X189047619Y-25352190D01*
X188857142Y-25304571D01*
X188761904Y-25256952D01*
X188714285Y-25209333D01*
X188666666Y-25114095D01*
X188666666Y-25018857D01*
X188714285Y-24923619D01*
X188761904Y-24876000D01*
X188857142Y-24828380D01*
X189095238Y-24828380D01*
X189238095Y-24876000D01*
X189571428Y-24828380D02*
X189809523Y-25828380D01*
X190000000Y-25114095D01*
X190190476Y-25828380D01*
X190428571Y-24828380D01*
X190952380Y-25256952D02*
X190857142Y-25209333D01*
X190809523Y-25161714D01*
X190761904Y-25066476D01*
X190761904Y-25018857D01*
X190809523Y-24923619D01*
X190857142Y-24876000D01*
X190952380Y-24828380D01*
X191142857Y-24828380D01*
X191238095Y-24876000D01*
X191285714Y-24923619D01*
X191333333Y-25018857D01*
X191333333Y-25066476D01*
X191285714Y-25161714D01*
X191238095Y-25209333D01*
X191142857Y-25256952D01*
X190952380Y-25256952D01*
X190857142Y-25304571D01*
X190809523Y-25352190D01*
X190761904Y-25447428D01*
X190761904Y-25637904D01*
X190809523Y-25733142D01*
X190857142Y-25780761D01*
X190952380Y-25828380D01*
X191142857Y-25828380D01*
X191238095Y-25780761D01*
X191285714Y-25733142D01*
X191333333Y-25637904D01*
X191333333Y-25447428D01*
X191285714Y-25352190D01*
X191238095Y-25304571D01*
X191142857Y-25256952D01*
%TO.C,SW7*%
X169666666Y-25780761D02*
X169809523Y-25828380D01*
X170047619Y-25828380D01*
X170142857Y-25780761D01*
X170190476Y-25733142D01*
X170238095Y-25637904D01*
X170238095Y-25542666D01*
X170190476Y-25447428D01*
X170142857Y-25399809D01*
X170047619Y-25352190D01*
X169857142Y-25304571D01*
X169761904Y-25256952D01*
X169714285Y-25209333D01*
X169666666Y-25114095D01*
X169666666Y-25018857D01*
X169714285Y-24923619D01*
X169761904Y-24876000D01*
X169857142Y-24828380D01*
X170095238Y-24828380D01*
X170238095Y-24876000D01*
X170571428Y-24828380D02*
X170809523Y-25828380D01*
X171000000Y-25114095D01*
X171190476Y-25828380D01*
X171428571Y-24828380D01*
X171714285Y-24828380D02*
X172380952Y-24828380D01*
X171952380Y-25828380D01*
%TO.C,SW6*%
X150666666Y-25780761D02*
X150809523Y-25828380D01*
X151047619Y-25828380D01*
X151142857Y-25780761D01*
X151190476Y-25733142D01*
X151238095Y-25637904D01*
X151238095Y-25542666D01*
X151190476Y-25447428D01*
X151142857Y-25399809D01*
X151047619Y-25352190D01*
X150857142Y-25304571D01*
X150761904Y-25256952D01*
X150714285Y-25209333D01*
X150666666Y-25114095D01*
X150666666Y-25018857D01*
X150714285Y-24923619D01*
X150761904Y-24876000D01*
X150857142Y-24828380D01*
X151095238Y-24828380D01*
X151238095Y-24876000D01*
X151571428Y-24828380D02*
X151809523Y-25828380D01*
X152000000Y-25114095D01*
X152190476Y-25828380D01*
X152428571Y-24828380D01*
X153238095Y-24828380D02*
X153047619Y-24828380D01*
X152952380Y-24876000D01*
X152904761Y-24923619D01*
X152809523Y-25066476D01*
X152761904Y-25256952D01*
X152761904Y-25637904D01*
X152809523Y-25733142D01*
X152857142Y-25780761D01*
X152952380Y-25828380D01*
X153142857Y-25828380D01*
X153238095Y-25780761D01*
X153285714Y-25733142D01*
X153333333Y-25637904D01*
X153333333Y-25399809D01*
X153285714Y-25304571D01*
X153238095Y-25256952D01*
X153142857Y-25209333D01*
X152952380Y-25209333D01*
X152857142Y-25256952D01*
X152809523Y-25304571D01*
X152761904Y-25399809D01*
%TO.C,SW5*%
X122166666Y-25780761D02*
X122309523Y-25828380D01*
X122547619Y-25828380D01*
X122642857Y-25780761D01*
X122690476Y-25733142D01*
X122738095Y-25637904D01*
X122738095Y-25542666D01*
X122690476Y-25447428D01*
X122642857Y-25399809D01*
X122547619Y-25352190D01*
X122357142Y-25304571D01*
X122261904Y-25256952D01*
X122214285Y-25209333D01*
X122166666Y-25114095D01*
X122166666Y-25018857D01*
X122214285Y-24923619D01*
X122261904Y-24876000D01*
X122357142Y-24828380D01*
X122595238Y-24828380D01*
X122738095Y-24876000D01*
X123071428Y-24828380D02*
X123309523Y-25828380D01*
X123500000Y-25114095D01*
X123690476Y-25828380D01*
X123928571Y-24828380D01*
X124785714Y-24828380D02*
X124309523Y-24828380D01*
X124261904Y-25304571D01*
X124309523Y-25256952D01*
X124404761Y-25209333D01*
X124642857Y-25209333D01*
X124738095Y-25256952D01*
X124785714Y-25304571D01*
X124833333Y-25399809D01*
X124833333Y-25637904D01*
X124785714Y-25733142D01*
X124738095Y-25780761D01*
X124642857Y-25828380D01*
X124404761Y-25828380D01*
X124309523Y-25780761D01*
X124261904Y-25733142D01*
%TO.C,SW4*%
X103166666Y-25780761D02*
X103309523Y-25828380D01*
X103547619Y-25828380D01*
X103642857Y-25780761D01*
X103690476Y-25733142D01*
X103738095Y-25637904D01*
X103738095Y-25542666D01*
X103690476Y-25447428D01*
X103642857Y-25399809D01*
X103547619Y-25352190D01*
X103357142Y-25304571D01*
X103261904Y-25256952D01*
X103214285Y-25209333D01*
X103166666Y-25114095D01*
X103166666Y-25018857D01*
X103214285Y-24923619D01*
X103261904Y-24876000D01*
X103357142Y-24828380D01*
X103595238Y-24828380D01*
X103738095Y-24876000D01*
X104071428Y-24828380D02*
X104309523Y-25828380D01*
X104500000Y-25114095D01*
X104690476Y-25828380D01*
X104928571Y-24828380D01*
X105738095Y-25161714D02*
X105738095Y-25828380D01*
X105500000Y-24780761D02*
X105261904Y-25495047D01*
X105880952Y-25495047D01*
%TO.C,SW3*%
X84166666Y-25780761D02*
X84309523Y-25828380D01*
X84547619Y-25828380D01*
X84642857Y-25780761D01*
X84690476Y-25733142D01*
X84738095Y-25637904D01*
X84738095Y-25542666D01*
X84690476Y-25447428D01*
X84642857Y-25399809D01*
X84547619Y-25352190D01*
X84357142Y-25304571D01*
X84261904Y-25256952D01*
X84214285Y-25209333D01*
X84166666Y-25114095D01*
X84166666Y-25018857D01*
X84214285Y-24923619D01*
X84261904Y-24876000D01*
X84357142Y-24828380D01*
X84595238Y-24828380D01*
X84738095Y-24876000D01*
X85071428Y-24828380D02*
X85309523Y-25828380D01*
X85500000Y-25114095D01*
X85690476Y-25828380D01*
X85928571Y-24828380D01*
X86214285Y-24828380D02*
X86833333Y-24828380D01*
X86500000Y-25209333D01*
X86642857Y-25209333D01*
X86738095Y-25256952D01*
X86785714Y-25304571D01*
X86833333Y-25399809D01*
X86833333Y-25637904D01*
X86785714Y-25733142D01*
X86738095Y-25780761D01*
X86642857Y-25828380D01*
X86357142Y-25828380D01*
X86261904Y-25780761D01*
X86214285Y-25733142D01*
%TO.C,SW2*%
X65166666Y-25780761D02*
X65309523Y-25828380D01*
X65547619Y-25828380D01*
X65642857Y-25780761D01*
X65690476Y-25733142D01*
X65738095Y-25637904D01*
X65738095Y-25542666D01*
X65690476Y-25447428D01*
X65642857Y-25399809D01*
X65547619Y-25352190D01*
X65357142Y-25304571D01*
X65261904Y-25256952D01*
X65214285Y-25209333D01*
X65166666Y-25114095D01*
X65166666Y-25018857D01*
X65214285Y-24923619D01*
X65261904Y-24876000D01*
X65357142Y-24828380D01*
X65595238Y-24828380D01*
X65738095Y-24876000D01*
X66071428Y-24828380D02*
X66309523Y-25828380D01*
X66500000Y-25114095D01*
X66690476Y-25828380D01*
X66928571Y-24828380D01*
X67261904Y-24923619D02*
X67309523Y-24876000D01*
X67404761Y-24828380D01*
X67642857Y-24828380D01*
X67738095Y-24876000D01*
X67785714Y-24923619D01*
X67833333Y-25018857D01*
X67833333Y-25114095D01*
X67785714Y-25256952D01*
X67214285Y-25828380D01*
X67833333Y-25828380D01*
%TO.C,J1*%
X155432380Y-14303333D02*
X156146666Y-14303333D01*
X156289523Y-14350952D01*
X156384761Y-14446190D01*
X156432380Y-14589047D01*
X156432380Y-14684285D01*
X156432380Y-13303333D02*
X156432380Y-13874761D01*
X156432380Y-13589047D02*
X155432380Y-13589047D01*
X155575238Y-13684285D01*
X155670476Y-13779523D01*
X155718095Y-13874761D01*
%TO.C,SW2F1*%
X339761904Y-68530761D02*
X339904761Y-68578380D01*
X340142857Y-68578380D01*
X340238095Y-68530761D01*
X340285714Y-68483142D01*
X340333333Y-68387904D01*
X340333333Y-68292666D01*
X340285714Y-68197428D01*
X340238095Y-68149809D01*
X340142857Y-68102190D01*
X339952380Y-68054571D01*
X339857142Y-68006952D01*
X339809523Y-67959333D01*
X339761904Y-67864095D01*
X339761904Y-67768857D01*
X339809523Y-67673619D01*
X339857142Y-67626000D01*
X339952380Y-67578380D01*
X340190476Y-67578380D01*
X340333333Y-67626000D01*
X340666666Y-67578380D02*
X340904761Y-68578380D01*
X341095238Y-67864095D01*
X341285714Y-68578380D01*
X341523809Y-67578380D01*
X341857142Y-67673619D02*
X341904761Y-67626000D01*
X342000000Y-67578380D01*
X342238095Y-67578380D01*
X342333333Y-67626000D01*
X342380952Y-67673619D01*
X342428571Y-67768857D01*
X342428571Y-67864095D01*
X342380952Y-68006952D01*
X341809523Y-68578380D01*
X342428571Y-68578380D01*
X343190476Y-68054571D02*
X342857142Y-68054571D01*
X342857142Y-68578380D02*
X342857142Y-67578380D01*
X343333333Y-67578380D01*
X344238095Y-68578380D02*
X343666666Y-68578380D01*
X343952380Y-68578380D02*
X343952380Y-67578380D01*
X343857142Y-67721238D01*
X343761904Y-67816476D01*
X343666666Y-67864095D01*
%TO.C,SW1F1*%
X339761904Y-49530761D02*
X339904761Y-49578380D01*
X340142857Y-49578380D01*
X340238095Y-49530761D01*
X340285714Y-49483142D01*
X340333333Y-49387904D01*
X340333333Y-49292666D01*
X340285714Y-49197428D01*
X340238095Y-49149809D01*
X340142857Y-49102190D01*
X339952380Y-49054571D01*
X339857142Y-49006952D01*
X339809523Y-48959333D01*
X339761904Y-48864095D01*
X339761904Y-48768857D01*
X339809523Y-48673619D01*
X339857142Y-48626000D01*
X339952380Y-48578380D01*
X340190476Y-48578380D01*
X340333333Y-48626000D01*
X340666666Y-48578380D02*
X340904761Y-49578380D01*
X341095238Y-48864095D01*
X341285714Y-49578380D01*
X341523809Y-48578380D01*
X342428571Y-49578380D02*
X341857142Y-49578380D01*
X342142857Y-49578380D02*
X342142857Y-48578380D01*
X342047619Y-48721238D01*
X341952380Y-48816476D01*
X341857142Y-48864095D01*
X343190476Y-49054571D02*
X342857142Y-49054571D01*
X342857142Y-49578380D02*
X342857142Y-48578380D01*
X343333333Y-48578380D01*
X344238095Y-49578380D02*
X343666666Y-49578380D01*
X343952380Y-49578380D02*
X343952380Y-48578380D01*
X343857142Y-48721238D01*
X343761904Y-48816476D01*
X343666666Y-48864095D01*
%TO.C,SW2E1*%
X320738095Y-68530761D02*
X320880952Y-68578380D01*
X321119047Y-68578380D01*
X321214285Y-68530761D01*
X321261904Y-68483142D01*
X321309523Y-68387904D01*
X321309523Y-68292666D01*
X321261904Y-68197428D01*
X321214285Y-68149809D01*
X321119047Y-68102190D01*
X320928571Y-68054571D01*
X320833333Y-68006952D01*
X320785714Y-67959333D01*
X320738095Y-67864095D01*
X320738095Y-67768857D01*
X320785714Y-67673619D01*
X320833333Y-67626000D01*
X320928571Y-67578380D01*
X321166666Y-67578380D01*
X321309523Y-67626000D01*
X321642857Y-67578380D02*
X321880952Y-68578380D01*
X322071428Y-67864095D01*
X322261904Y-68578380D01*
X322500000Y-67578380D01*
X322833333Y-67673619D02*
X322880952Y-67626000D01*
X322976190Y-67578380D01*
X323214285Y-67578380D01*
X323309523Y-67626000D01*
X323357142Y-67673619D01*
X323404761Y-67768857D01*
X323404761Y-67864095D01*
X323357142Y-68006952D01*
X322785714Y-68578380D01*
X323404761Y-68578380D01*
X323833333Y-68054571D02*
X324166666Y-68054571D01*
X324309523Y-68578380D02*
X323833333Y-68578380D01*
X323833333Y-67578380D01*
X324309523Y-67578380D01*
X325261904Y-68578380D02*
X324690476Y-68578380D01*
X324976190Y-68578380D02*
X324976190Y-67578380D01*
X324880952Y-67721238D01*
X324785714Y-67816476D01*
X324690476Y-67864095D01*
%TO.C,SW5F1*%
X339761904Y-125530761D02*
X339904761Y-125578380D01*
X340142857Y-125578380D01*
X340238095Y-125530761D01*
X340285714Y-125483142D01*
X340333333Y-125387904D01*
X340333333Y-125292666D01*
X340285714Y-125197428D01*
X340238095Y-125149809D01*
X340142857Y-125102190D01*
X339952380Y-125054571D01*
X339857142Y-125006952D01*
X339809523Y-124959333D01*
X339761904Y-124864095D01*
X339761904Y-124768857D01*
X339809523Y-124673619D01*
X339857142Y-124626000D01*
X339952380Y-124578380D01*
X340190476Y-124578380D01*
X340333333Y-124626000D01*
X340666666Y-124578380D02*
X340904761Y-125578380D01*
X341095238Y-124864095D01*
X341285714Y-125578380D01*
X341523809Y-124578380D01*
X342380952Y-124578380D02*
X341904761Y-124578380D01*
X341857142Y-125054571D01*
X341904761Y-125006952D01*
X342000000Y-124959333D01*
X342238095Y-124959333D01*
X342333333Y-125006952D01*
X342380952Y-125054571D01*
X342428571Y-125149809D01*
X342428571Y-125387904D01*
X342380952Y-125483142D01*
X342333333Y-125530761D01*
X342238095Y-125578380D01*
X342000000Y-125578380D01*
X341904761Y-125530761D01*
X341857142Y-125483142D01*
X343190476Y-125054571D02*
X342857142Y-125054571D01*
X342857142Y-125578380D02*
X342857142Y-124578380D01*
X343333333Y-124578380D01*
X344238095Y-125578380D02*
X343666666Y-125578380D01*
X343952380Y-125578380D02*
X343952380Y-124578380D01*
X343857142Y-124721238D01*
X343761904Y-124816476D01*
X343666666Y-124864095D01*
%TO.C,SW4E1*%
X320738095Y-106530761D02*
X320880952Y-106578380D01*
X321119047Y-106578380D01*
X321214285Y-106530761D01*
X321261904Y-106483142D01*
X321309523Y-106387904D01*
X321309523Y-106292666D01*
X321261904Y-106197428D01*
X321214285Y-106149809D01*
X321119047Y-106102190D01*
X320928571Y-106054571D01*
X320833333Y-106006952D01*
X320785714Y-105959333D01*
X320738095Y-105864095D01*
X320738095Y-105768857D01*
X320785714Y-105673619D01*
X320833333Y-105626000D01*
X320928571Y-105578380D01*
X321166666Y-105578380D01*
X321309523Y-105626000D01*
X321642857Y-105578380D02*
X321880952Y-106578380D01*
X322071428Y-105864095D01*
X322261904Y-106578380D01*
X322500000Y-105578380D01*
X323309523Y-105911714D02*
X323309523Y-106578380D01*
X323071428Y-105530761D02*
X322833333Y-106245047D01*
X323452380Y-106245047D01*
X323833333Y-106054571D02*
X324166666Y-106054571D01*
X324309523Y-106578380D02*
X323833333Y-106578380D01*
X323833333Y-105578380D01*
X324309523Y-105578380D01*
X325261904Y-106578380D02*
X324690476Y-106578380D01*
X324976190Y-106578380D02*
X324976190Y-105578380D01*
X324880952Y-105721238D01*
X324785714Y-105816476D01*
X324690476Y-105864095D01*
%TO.C,SW3E1*%
X320738095Y-25780761D02*
X320880952Y-25828380D01*
X321119047Y-25828380D01*
X321214285Y-25780761D01*
X321261904Y-25733142D01*
X321309523Y-25637904D01*
X321309523Y-25542666D01*
X321261904Y-25447428D01*
X321214285Y-25399809D01*
X321119047Y-25352190D01*
X320928571Y-25304571D01*
X320833333Y-25256952D01*
X320785714Y-25209333D01*
X320738095Y-25114095D01*
X320738095Y-25018857D01*
X320785714Y-24923619D01*
X320833333Y-24876000D01*
X320928571Y-24828380D01*
X321166666Y-24828380D01*
X321309523Y-24876000D01*
X321642857Y-24828380D02*
X321880952Y-25828380D01*
X322071428Y-25114095D01*
X322261904Y-25828380D01*
X322500000Y-24828380D01*
X322785714Y-24828380D02*
X323404761Y-24828380D01*
X323071428Y-25209333D01*
X323214285Y-25209333D01*
X323309523Y-25256952D01*
X323357142Y-25304571D01*
X323404761Y-25399809D01*
X323404761Y-25637904D01*
X323357142Y-25733142D01*
X323309523Y-25780761D01*
X323214285Y-25828380D01*
X322928571Y-25828380D01*
X322833333Y-25780761D01*
X322785714Y-25733142D01*
X323833333Y-25304571D02*
X324166666Y-25304571D01*
X324309523Y-25828380D02*
X323833333Y-25828380D01*
X323833333Y-24828380D01*
X324309523Y-24828380D01*
X325261904Y-25828380D02*
X324690476Y-25828380D01*
X324976190Y-25828380D02*
X324976190Y-24828380D01*
X324880952Y-24971238D01*
X324785714Y-25066476D01*
X324690476Y-25114095D01*
%TO.C,SW1D1*%
X282690476Y-49530761D02*
X282833333Y-49578380D01*
X283071428Y-49578380D01*
X283166666Y-49530761D01*
X283214285Y-49483142D01*
X283261904Y-49387904D01*
X283261904Y-49292666D01*
X283214285Y-49197428D01*
X283166666Y-49149809D01*
X283071428Y-49102190D01*
X282880952Y-49054571D01*
X282785714Y-49006952D01*
X282738095Y-48959333D01*
X282690476Y-48864095D01*
X282690476Y-48768857D01*
X282738095Y-48673619D01*
X282785714Y-48626000D01*
X282880952Y-48578380D01*
X283119047Y-48578380D01*
X283261904Y-48626000D01*
X283595238Y-48578380D02*
X283833333Y-49578380D01*
X284023809Y-48864095D01*
X284214285Y-49578380D01*
X284452380Y-48578380D01*
X285357142Y-49578380D02*
X284785714Y-49578380D01*
X285071428Y-49578380D02*
X285071428Y-48578380D01*
X284976190Y-48721238D01*
X284880952Y-48816476D01*
X284785714Y-48864095D01*
X285785714Y-49578380D02*
X285785714Y-48578380D01*
X286023809Y-48578380D01*
X286166666Y-48626000D01*
X286261904Y-48721238D01*
X286309523Y-48816476D01*
X286357142Y-49006952D01*
X286357142Y-49149809D01*
X286309523Y-49340285D01*
X286261904Y-49435523D01*
X286166666Y-49530761D01*
X286023809Y-49578380D01*
X285785714Y-49578380D01*
X287309523Y-49578380D02*
X286738095Y-49578380D01*
X287023809Y-49578380D02*
X287023809Y-48578380D01*
X286928571Y-48721238D01*
X286833333Y-48816476D01*
X286738095Y-48864095D01*
%TO.C,SW5E1*%
X320738095Y-125530761D02*
X320880952Y-125578380D01*
X321119047Y-125578380D01*
X321214285Y-125530761D01*
X321261904Y-125483142D01*
X321309523Y-125387904D01*
X321309523Y-125292666D01*
X321261904Y-125197428D01*
X321214285Y-125149809D01*
X321119047Y-125102190D01*
X320928571Y-125054571D01*
X320833333Y-125006952D01*
X320785714Y-124959333D01*
X320738095Y-124864095D01*
X320738095Y-124768857D01*
X320785714Y-124673619D01*
X320833333Y-124626000D01*
X320928571Y-124578380D01*
X321166666Y-124578380D01*
X321309523Y-124626000D01*
X321642857Y-124578380D02*
X321880952Y-125578380D01*
X322071428Y-124864095D01*
X322261904Y-125578380D01*
X322500000Y-124578380D01*
X323357142Y-124578380D02*
X322880952Y-124578380D01*
X322833333Y-125054571D01*
X322880952Y-125006952D01*
X322976190Y-124959333D01*
X323214285Y-124959333D01*
X323309523Y-125006952D01*
X323357142Y-125054571D01*
X323404761Y-125149809D01*
X323404761Y-125387904D01*
X323357142Y-125483142D01*
X323309523Y-125530761D01*
X323214285Y-125578380D01*
X322976190Y-125578380D01*
X322880952Y-125530761D01*
X322833333Y-125483142D01*
X323833333Y-125054571D02*
X324166666Y-125054571D01*
X324309523Y-125578380D02*
X323833333Y-125578380D01*
X323833333Y-124578380D01*
X324309523Y-124578380D01*
X325261904Y-125578380D02*
X324690476Y-125578380D01*
X324976190Y-125578380D02*
X324976190Y-124578380D01*
X324880952Y-124721238D01*
X324785714Y-124816476D01*
X324690476Y-124864095D01*
%TO.C,SW3C1*%
X277940476Y-87530761D02*
X278083333Y-87578380D01*
X278321428Y-87578380D01*
X278416666Y-87530761D01*
X278464285Y-87483142D01*
X278511904Y-87387904D01*
X278511904Y-87292666D01*
X278464285Y-87197428D01*
X278416666Y-87149809D01*
X278321428Y-87102190D01*
X278130952Y-87054571D01*
X278035714Y-87006952D01*
X277988095Y-86959333D01*
X277940476Y-86864095D01*
X277940476Y-86768857D01*
X277988095Y-86673619D01*
X278035714Y-86626000D01*
X278130952Y-86578380D01*
X278369047Y-86578380D01*
X278511904Y-86626000D01*
X278845238Y-86578380D02*
X279083333Y-87578380D01*
X279273809Y-86864095D01*
X279464285Y-87578380D01*
X279702380Y-86578380D01*
X279988095Y-86578380D02*
X280607142Y-86578380D01*
X280273809Y-86959333D01*
X280416666Y-86959333D01*
X280511904Y-87006952D01*
X280559523Y-87054571D01*
X280607142Y-87149809D01*
X280607142Y-87387904D01*
X280559523Y-87483142D01*
X280511904Y-87530761D01*
X280416666Y-87578380D01*
X280130952Y-87578380D01*
X280035714Y-87530761D01*
X279988095Y-87483142D01*
X281607142Y-87483142D02*
X281559523Y-87530761D01*
X281416666Y-87578380D01*
X281321428Y-87578380D01*
X281178571Y-87530761D01*
X281083333Y-87435523D01*
X281035714Y-87340285D01*
X280988095Y-87149809D01*
X280988095Y-87006952D01*
X281035714Y-86816476D01*
X281083333Y-86721238D01*
X281178571Y-86626000D01*
X281321428Y-86578380D01*
X281416666Y-86578380D01*
X281559523Y-86626000D01*
X281607142Y-86673619D01*
X282559523Y-87578380D02*
X281988095Y-87578380D01*
X282273809Y-87578380D02*
X282273809Y-86578380D01*
X282178571Y-86721238D01*
X282083333Y-86816476D01*
X281988095Y-86864095D01*
%TO.C,SW2D1*%
X282690476Y-68530761D02*
X282833333Y-68578380D01*
X283071428Y-68578380D01*
X283166666Y-68530761D01*
X283214285Y-68483142D01*
X283261904Y-68387904D01*
X283261904Y-68292666D01*
X283214285Y-68197428D01*
X283166666Y-68149809D01*
X283071428Y-68102190D01*
X282880952Y-68054571D01*
X282785714Y-68006952D01*
X282738095Y-67959333D01*
X282690476Y-67864095D01*
X282690476Y-67768857D01*
X282738095Y-67673619D01*
X282785714Y-67626000D01*
X282880952Y-67578380D01*
X283119047Y-67578380D01*
X283261904Y-67626000D01*
X283595238Y-67578380D02*
X283833333Y-68578380D01*
X284023809Y-67864095D01*
X284214285Y-68578380D01*
X284452380Y-67578380D01*
X284785714Y-67673619D02*
X284833333Y-67626000D01*
X284928571Y-67578380D01*
X285166666Y-67578380D01*
X285261904Y-67626000D01*
X285309523Y-67673619D01*
X285357142Y-67768857D01*
X285357142Y-67864095D01*
X285309523Y-68006952D01*
X284738095Y-68578380D01*
X285357142Y-68578380D01*
X285785714Y-68578380D02*
X285785714Y-67578380D01*
X286023809Y-67578380D01*
X286166666Y-67626000D01*
X286261904Y-67721238D01*
X286309523Y-67816476D01*
X286357142Y-68006952D01*
X286357142Y-68149809D01*
X286309523Y-68340285D01*
X286261904Y-68435523D01*
X286166666Y-68530761D01*
X286023809Y-68578380D01*
X285785714Y-68578380D01*
X287309523Y-68578380D02*
X286738095Y-68578380D01*
X287023809Y-68578380D02*
X287023809Y-67578380D01*
X286928571Y-67721238D01*
X286833333Y-67816476D01*
X286738095Y-67864095D01*
%TO.C,SW1C1*%
X254190476Y-49530761D02*
X254333333Y-49578380D01*
X254571428Y-49578380D01*
X254666666Y-49530761D01*
X254714285Y-49483142D01*
X254761904Y-49387904D01*
X254761904Y-49292666D01*
X254714285Y-49197428D01*
X254666666Y-49149809D01*
X254571428Y-49102190D01*
X254380952Y-49054571D01*
X254285714Y-49006952D01*
X254238095Y-48959333D01*
X254190476Y-48864095D01*
X254190476Y-48768857D01*
X254238095Y-48673619D01*
X254285714Y-48626000D01*
X254380952Y-48578380D01*
X254619047Y-48578380D01*
X254761904Y-48626000D01*
X255095238Y-48578380D02*
X255333333Y-49578380D01*
X255523809Y-48864095D01*
X255714285Y-49578380D01*
X255952380Y-48578380D01*
X256857142Y-49578380D02*
X256285714Y-49578380D01*
X256571428Y-49578380D02*
X256571428Y-48578380D01*
X256476190Y-48721238D01*
X256380952Y-48816476D01*
X256285714Y-48864095D01*
X257857142Y-49483142D02*
X257809523Y-49530761D01*
X257666666Y-49578380D01*
X257571428Y-49578380D01*
X257428571Y-49530761D01*
X257333333Y-49435523D01*
X257285714Y-49340285D01*
X257238095Y-49149809D01*
X257238095Y-49006952D01*
X257285714Y-48816476D01*
X257333333Y-48721238D01*
X257428571Y-48626000D01*
X257571428Y-48578380D01*
X257666666Y-48578380D01*
X257809523Y-48626000D01*
X257857142Y-48673619D01*
X258809523Y-49578380D02*
X258238095Y-49578380D01*
X258523809Y-49578380D02*
X258523809Y-48578380D01*
X258428571Y-48721238D01*
X258333333Y-48816476D01*
X258238095Y-48864095D01*
%TO.C,SW5D1*%
X301690476Y-125530761D02*
X301833333Y-125578380D01*
X302071428Y-125578380D01*
X302166666Y-125530761D01*
X302214285Y-125483142D01*
X302261904Y-125387904D01*
X302261904Y-125292666D01*
X302214285Y-125197428D01*
X302166666Y-125149809D01*
X302071428Y-125102190D01*
X301880952Y-125054571D01*
X301785714Y-125006952D01*
X301738095Y-124959333D01*
X301690476Y-124864095D01*
X301690476Y-124768857D01*
X301738095Y-124673619D01*
X301785714Y-124626000D01*
X301880952Y-124578380D01*
X302119047Y-124578380D01*
X302261904Y-124626000D01*
X302595238Y-124578380D02*
X302833333Y-125578380D01*
X303023809Y-124864095D01*
X303214285Y-125578380D01*
X303452380Y-124578380D01*
X304309523Y-124578380D02*
X303833333Y-124578380D01*
X303785714Y-125054571D01*
X303833333Y-125006952D01*
X303928571Y-124959333D01*
X304166666Y-124959333D01*
X304261904Y-125006952D01*
X304309523Y-125054571D01*
X304357142Y-125149809D01*
X304357142Y-125387904D01*
X304309523Y-125483142D01*
X304261904Y-125530761D01*
X304166666Y-125578380D01*
X303928571Y-125578380D01*
X303833333Y-125530761D01*
X303785714Y-125483142D01*
X304785714Y-125578380D02*
X304785714Y-124578380D01*
X305023809Y-124578380D01*
X305166666Y-124626000D01*
X305261904Y-124721238D01*
X305309523Y-124816476D01*
X305357142Y-125006952D01*
X305357142Y-125149809D01*
X305309523Y-125340285D01*
X305261904Y-125435523D01*
X305166666Y-125530761D01*
X305023809Y-125578380D01*
X304785714Y-125578380D01*
X306309523Y-125578380D02*
X305738095Y-125578380D01*
X306023809Y-125578380D02*
X306023809Y-124578380D01*
X305928571Y-124721238D01*
X305833333Y-124816476D01*
X305738095Y-124864095D01*
%TO.C,SW3B1*%
X249440476Y-87530761D02*
X249583333Y-87578380D01*
X249821428Y-87578380D01*
X249916666Y-87530761D01*
X249964285Y-87483142D01*
X250011904Y-87387904D01*
X250011904Y-87292666D01*
X249964285Y-87197428D01*
X249916666Y-87149809D01*
X249821428Y-87102190D01*
X249630952Y-87054571D01*
X249535714Y-87006952D01*
X249488095Y-86959333D01*
X249440476Y-86864095D01*
X249440476Y-86768857D01*
X249488095Y-86673619D01*
X249535714Y-86626000D01*
X249630952Y-86578380D01*
X249869047Y-86578380D01*
X250011904Y-86626000D01*
X250345238Y-86578380D02*
X250583333Y-87578380D01*
X250773809Y-86864095D01*
X250964285Y-87578380D01*
X251202380Y-86578380D01*
X251488095Y-86578380D02*
X252107142Y-86578380D01*
X251773809Y-86959333D01*
X251916666Y-86959333D01*
X252011904Y-87006952D01*
X252059523Y-87054571D01*
X252107142Y-87149809D01*
X252107142Y-87387904D01*
X252059523Y-87483142D01*
X252011904Y-87530761D01*
X251916666Y-87578380D01*
X251630952Y-87578380D01*
X251535714Y-87530761D01*
X251488095Y-87483142D01*
X252869047Y-87054571D02*
X253011904Y-87102190D01*
X253059523Y-87149809D01*
X253107142Y-87245047D01*
X253107142Y-87387904D01*
X253059523Y-87483142D01*
X253011904Y-87530761D01*
X252916666Y-87578380D01*
X252535714Y-87578380D01*
X252535714Y-86578380D01*
X252869047Y-86578380D01*
X252964285Y-86626000D01*
X253011904Y-86673619D01*
X253059523Y-86768857D01*
X253059523Y-86864095D01*
X253011904Y-86959333D01*
X252964285Y-87006952D01*
X252869047Y-87054571D01*
X252535714Y-87054571D01*
X254059523Y-87578380D02*
X253488095Y-87578380D01*
X253773809Y-87578380D02*
X253773809Y-86578380D01*
X253678571Y-86721238D01*
X253583333Y-86816476D01*
X253488095Y-86864095D01*
%TO.C,SW2C1*%
X263690476Y-68530761D02*
X263833333Y-68578380D01*
X264071428Y-68578380D01*
X264166666Y-68530761D01*
X264214285Y-68483142D01*
X264261904Y-68387904D01*
X264261904Y-68292666D01*
X264214285Y-68197428D01*
X264166666Y-68149809D01*
X264071428Y-68102190D01*
X263880952Y-68054571D01*
X263785714Y-68006952D01*
X263738095Y-67959333D01*
X263690476Y-67864095D01*
X263690476Y-67768857D01*
X263738095Y-67673619D01*
X263785714Y-67626000D01*
X263880952Y-67578380D01*
X264119047Y-67578380D01*
X264261904Y-67626000D01*
X264595238Y-67578380D02*
X264833333Y-68578380D01*
X265023809Y-67864095D01*
X265214285Y-68578380D01*
X265452380Y-67578380D01*
X265785714Y-67673619D02*
X265833333Y-67626000D01*
X265928571Y-67578380D01*
X266166666Y-67578380D01*
X266261904Y-67626000D01*
X266309523Y-67673619D01*
X266357142Y-67768857D01*
X266357142Y-67864095D01*
X266309523Y-68006952D01*
X265738095Y-68578380D01*
X266357142Y-68578380D01*
X267357142Y-68483142D02*
X267309523Y-68530761D01*
X267166666Y-68578380D01*
X267071428Y-68578380D01*
X266928571Y-68530761D01*
X266833333Y-68435523D01*
X266785714Y-68340285D01*
X266738095Y-68149809D01*
X266738095Y-68006952D01*
X266785714Y-67816476D01*
X266833333Y-67721238D01*
X266928571Y-67626000D01*
X267071428Y-67578380D01*
X267166666Y-67578380D01*
X267309523Y-67626000D01*
X267357142Y-67673619D01*
X268309523Y-68578380D02*
X267738095Y-68578380D01*
X268023809Y-68578380D02*
X268023809Y-67578380D01*
X267928571Y-67721238D01*
X267833333Y-67816476D01*
X267738095Y-67864095D01*
%TO.C,SW1B1*%
X235190476Y-49530761D02*
X235333333Y-49578380D01*
X235571428Y-49578380D01*
X235666666Y-49530761D01*
X235714285Y-49483142D01*
X235761904Y-49387904D01*
X235761904Y-49292666D01*
X235714285Y-49197428D01*
X235666666Y-49149809D01*
X235571428Y-49102190D01*
X235380952Y-49054571D01*
X235285714Y-49006952D01*
X235238095Y-48959333D01*
X235190476Y-48864095D01*
X235190476Y-48768857D01*
X235238095Y-48673619D01*
X235285714Y-48626000D01*
X235380952Y-48578380D01*
X235619047Y-48578380D01*
X235761904Y-48626000D01*
X236095238Y-48578380D02*
X236333333Y-49578380D01*
X236523809Y-48864095D01*
X236714285Y-49578380D01*
X236952380Y-48578380D01*
X237857142Y-49578380D02*
X237285714Y-49578380D01*
X237571428Y-49578380D02*
X237571428Y-48578380D01*
X237476190Y-48721238D01*
X237380952Y-48816476D01*
X237285714Y-48864095D01*
X238619047Y-49054571D02*
X238761904Y-49102190D01*
X238809523Y-49149809D01*
X238857142Y-49245047D01*
X238857142Y-49387904D01*
X238809523Y-49483142D01*
X238761904Y-49530761D01*
X238666666Y-49578380D01*
X238285714Y-49578380D01*
X238285714Y-48578380D01*
X238619047Y-48578380D01*
X238714285Y-48626000D01*
X238761904Y-48673619D01*
X238809523Y-48768857D01*
X238809523Y-48864095D01*
X238761904Y-48959333D01*
X238714285Y-49006952D01*
X238619047Y-49054571D01*
X238285714Y-49054571D01*
X239809523Y-49578380D02*
X239238095Y-49578380D01*
X239523809Y-49578380D02*
X239523809Y-48578380D01*
X239428571Y-48721238D01*
X239333333Y-48816476D01*
X239238095Y-48864095D01*
%TO.C,SW4A1*%
X240011904Y-106530761D02*
X240154761Y-106578380D01*
X240392857Y-106578380D01*
X240488095Y-106530761D01*
X240535714Y-106483142D01*
X240583333Y-106387904D01*
X240583333Y-106292666D01*
X240535714Y-106197428D01*
X240488095Y-106149809D01*
X240392857Y-106102190D01*
X240202380Y-106054571D01*
X240107142Y-106006952D01*
X240059523Y-105959333D01*
X240011904Y-105864095D01*
X240011904Y-105768857D01*
X240059523Y-105673619D01*
X240107142Y-105626000D01*
X240202380Y-105578380D01*
X240440476Y-105578380D01*
X240583333Y-105626000D01*
X240916666Y-105578380D02*
X241154761Y-106578380D01*
X241345238Y-105864095D01*
X241535714Y-106578380D01*
X241773809Y-105578380D01*
X242583333Y-105911714D02*
X242583333Y-106578380D01*
X242345238Y-105530761D02*
X242107142Y-106245047D01*
X242726190Y-106245047D01*
X243059523Y-106292666D02*
X243535714Y-106292666D01*
X242964285Y-106578380D02*
X243297619Y-105578380D01*
X243630952Y-106578380D01*
X244488095Y-106578380D02*
X243916666Y-106578380D01*
X244202380Y-106578380D02*
X244202380Y-105578380D01*
X244107142Y-105721238D01*
X244011904Y-105816476D01*
X243916666Y-105864095D01*
%TO.C,SW3A1*%
X230511904Y-87530761D02*
X230654761Y-87578380D01*
X230892857Y-87578380D01*
X230988095Y-87530761D01*
X231035714Y-87483142D01*
X231083333Y-87387904D01*
X231083333Y-87292666D01*
X231035714Y-87197428D01*
X230988095Y-87149809D01*
X230892857Y-87102190D01*
X230702380Y-87054571D01*
X230607142Y-87006952D01*
X230559523Y-86959333D01*
X230511904Y-86864095D01*
X230511904Y-86768857D01*
X230559523Y-86673619D01*
X230607142Y-86626000D01*
X230702380Y-86578380D01*
X230940476Y-86578380D01*
X231083333Y-86626000D01*
X231416666Y-86578380D02*
X231654761Y-87578380D01*
X231845238Y-86864095D01*
X232035714Y-87578380D01*
X232273809Y-86578380D01*
X232559523Y-86578380D02*
X233178571Y-86578380D01*
X232845238Y-86959333D01*
X232988095Y-86959333D01*
X233083333Y-87006952D01*
X233130952Y-87054571D01*
X233178571Y-87149809D01*
X233178571Y-87387904D01*
X233130952Y-87483142D01*
X233083333Y-87530761D01*
X232988095Y-87578380D01*
X232702380Y-87578380D01*
X232607142Y-87530761D01*
X232559523Y-87483142D01*
X233559523Y-87292666D02*
X234035714Y-87292666D01*
X233464285Y-87578380D02*
X233797619Y-86578380D01*
X234130952Y-87578380D01*
X234988095Y-87578380D02*
X234416666Y-87578380D01*
X234702380Y-87578380D02*
X234702380Y-86578380D01*
X234607142Y-86721238D01*
X234511904Y-86816476D01*
X234416666Y-86864095D01*
%TO.C,SW2B1*%
X244690476Y-68530761D02*
X244833333Y-68578380D01*
X245071428Y-68578380D01*
X245166666Y-68530761D01*
X245214285Y-68483142D01*
X245261904Y-68387904D01*
X245261904Y-68292666D01*
X245214285Y-68197428D01*
X245166666Y-68149809D01*
X245071428Y-68102190D01*
X244880952Y-68054571D01*
X244785714Y-68006952D01*
X244738095Y-67959333D01*
X244690476Y-67864095D01*
X244690476Y-67768857D01*
X244738095Y-67673619D01*
X244785714Y-67626000D01*
X244880952Y-67578380D01*
X245119047Y-67578380D01*
X245261904Y-67626000D01*
X245595238Y-67578380D02*
X245833333Y-68578380D01*
X246023809Y-67864095D01*
X246214285Y-68578380D01*
X246452380Y-67578380D01*
X246785714Y-67673619D02*
X246833333Y-67626000D01*
X246928571Y-67578380D01*
X247166666Y-67578380D01*
X247261904Y-67626000D01*
X247309523Y-67673619D01*
X247357142Y-67768857D01*
X247357142Y-67864095D01*
X247309523Y-68006952D01*
X246738095Y-68578380D01*
X247357142Y-68578380D01*
X248119047Y-68054571D02*
X248261904Y-68102190D01*
X248309523Y-68149809D01*
X248357142Y-68245047D01*
X248357142Y-68387904D01*
X248309523Y-68483142D01*
X248261904Y-68530761D01*
X248166666Y-68578380D01*
X247785714Y-68578380D01*
X247785714Y-67578380D01*
X248119047Y-67578380D01*
X248214285Y-67626000D01*
X248261904Y-67673619D01*
X248309523Y-67768857D01*
X248309523Y-67864095D01*
X248261904Y-67959333D01*
X248214285Y-68006952D01*
X248119047Y-68054571D01*
X247785714Y-68054571D01*
X249309523Y-68578380D02*
X248738095Y-68578380D01*
X249023809Y-68578380D02*
X249023809Y-67578380D01*
X248928571Y-67721238D01*
X248833333Y-67816476D01*
X248738095Y-67864095D01*
%TO.C,SW1A1*%
X216261904Y-49530761D02*
X216404761Y-49578380D01*
X216642857Y-49578380D01*
X216738095Y-49530761D01*
X216785714Y-49483142D01*
X216833333Y-49387904D01*
X216833333Y-49292666D01*
X216785714Y-49197428D01*
X216738095Y-49149809D01*
X216642857Y-49102190D01*
X216452380Y-49054571D01*
X216357142Y-49006952D01*
X216309523Y-48959333D01*
X216261904Y-48864095D01*
X216261904Y-48768857D01*
X216309523Y-48673619D01*
X216357142Y-48626000D01*
X216452380Y-48578380D01*
X216690476Y-48578380D01*
X216833333Y-48626000D01*
X217166666Y-48578380D02*
X217404761Y-49578380D01*
X217595238Y-48864095D01*
X217785714Y-49578380D01*
X218023809Y-48578380D01*
X218928571Y-49578380D02*
X218357142Y-49578380D01*
X218642857Y-49578380D02*
X218642857Y-48578380D01*
X218547619Y-48721238D01*
X218452380Y-48816476D01*
X218357142Y-48864095D01*
X219309523Y-49292666D02*
X219785714Y-49292666D01*
X219214285Y-49578380D02*
X219547619Y-48578380D01*
X219880952Y-49578380D01*
X220738095Y-49578380D02*
X220166666Y-49578380D01*
X220452380Y-49578380D02*
X220452380Y-48578380D01*
X220357142Y-48721238D01*
X220261904Y-48816476D01*
X220166666Y-48864095D01*
%TO.C,SW49*%
X221440476Y-106530761D02*
X221583333Y-106578380D01*
X221821428Y-106578380D01*
X221916666Y-106530761D01*
X221964285Y-106483142D01*
X222011904Y-106387904D01*
X222011904Y-106292666D01*
X221964285Y-106197428D01*
X221916666Y-106149809D01*
X221821428Y-106102190D01*
X221630952Y-106054571D01*
X221535714Y-106006952D01*
X221488095Y-105959333D01*
X221440476Y-105864095D01*
X221440476Y-105768857D01*
X221488095Y-105673619D01*
X221535714Y-105626000D01*
X221630952Y-105578380D01*
X221869047Y-105578380D01*
X222011904Y-105626000D01*
X222345238Y-105578380D02*
X222583333Y-106578380D01*
X222773809Y-105864095D01*
X222964285Y-106578380D01*
X223202380Y-105578380D01*
X224011904Y-105911714D02*
X224011904Y-106578380D01*
X223773809Y-105530761D02*
X223535714Y-106245047D01*
X224154761Y-106245047D01*
X224583333Y-106578380D02*
X224773809Y-106578380D01*
X224869047Y-106530761D01*
X224916666Y-106483142D01*
X225011904Y-106340285D01*
X225059523Y-106149809D01*
X225059523Y-105768857D01*
X225011904Y-105673619D01*
X224964285Y-105626000D01*
X224869047Y-105578380D01*
X224678571Y-105578380D01*
X224583333Y-105626000D01*
X224535714Y-105673619D01*
X224488095Y-105768857D01*
X224488095Y-106006952D01*
X224535714Y-106102190D01*
X224583333Y-106149809D01*
X224678571Y-106197428D01*
X224869047Y-106197428D01*
X224964285Y-106149809D01*
X225011904Y-106102190D01*
X225059523Y-106006952D01*
%TO.C,SW39*%
X211940476Y-87530761D02*
X212083333Y-87578380D01*
X212321428Y-87578380D01*
X212416666Y-87530761D01*
X212464285Y-87483142D01*
X212511904Y-87387904D01*
X212511904Y-87292666D01*
X212464285Y-87197428D01*
X212416666Y-87149809D01*
X212321428Y-87102190D01*
X212130952Y-87054571D01*
X212035714Y-87006952D01*
X211988095Y-86959333D01*
X211940476Y-86864095D01*
X211940476Y-86768857D01*
X211988095Y-86673619D01*
X212035714Y-86626000D01*
X212130952Y-86578380D01*
X212369047Y-86578380D01*
X212511904Y-86626000D01*
X212845238Y-86578380D02*
X213083333Y-87578380D01*
X213273809Y-86864095D01*
X213464285Y-87578380D01*
X213702380Y-86578380D01*
X213988095Y-86578380D02*
X214607142Y-86578380D01*
X214273809Y-86959333D01*
X214416666Y-86959333D01*
X214511904Y-87006952D01*
X214559523Y-87054571D01*
X214607142Y-87149809D01*
X214607142Y-87387904D01*
X214559523Y-87483142D01*
X214511904Y-87530761D01*
X214416666Y-87578380D01*
X214130952Y-87578380D01*
X214035714Y-87530761D01*
X213988095Y-87483142D01*
X215083333Y-87578380D02*
X215273809Y-87578380D01*
X215369047Y-87530761D01*
X215416666Y-87483142D01*
X215511904Y-87340285D01*
X215559523Y-87149809D01*
X215559523Y-86768857D01*
X215511904Y-86673619D01*
X215464285Y-86626000D01*
X215369047Y-86578380D01*
X215178571Y-86578380D01*
X215083333Y-86626000D01*
X215035714Y-86673619D01*
X214988095Y-86768857D01*
X214988095Y-87006952D01*
X215035714Y-87102190D01*
X215083333Y-87149809D01*
X215178571Y-87197428D01*
X215369047Y-87197428D01*
X215464285Y-87149809D01*
X215511904Y-87102190D01*
X215559523Y-87006952D01*
%TO.C,SW2A1*%
X225761904Y-68530761D02*
X225904761Y-68578380D01*
X226142857Y-68578380D01*
X226238095Y-68530761D01*
X226285714Y-68483142D01*
X226333333Y-68387904D01*
X226333333Y-68292666D01*
X226285714Y-68197428D01*
X226238095Y-68149809D01*
X226142857Y-68102190D01*
X225952380Y-68054571D01*
X225857142Y-68006952D01*
X225809523Y-67959333D01*
X225761904Y-67864095D01*
X225761904Y-67768857D01*
X225809523Y-67673619D01*
X225857142Y-67626000D01*
X225952380Y-67578380D01*
X226190476Y-67578380D01*
X226333333Y-67626000D01*
X226666666Y-67578380D02*
X226904761Y-68578380D01*
X227095238Y-67864095D01*
X227285714Y-68578380D01*
X227523809Y-67578380D01*
X227857142Y-67673619D02*
X227904761Y-67626000D01*
X228000000Y-67578380D01*
X228238095Y-67578380D01*
X228333333Y-67626000D01*
X228380952Y-67673619D01*
X228428571Y-67768857D01*
X228428571Y-67864095D01*
X228380952Y-68006952D01*
X227809523Y-68578380D01*
X228428571Y-68578380D01*
X228809523Y-68292666D02*
X229285714Y-68292666D01*
X228714285Y-68578380D02*
X229047619Y-67578380D01*
X229380952Y-68578380D01*
X230238095Y-68578380D02*
X229666666Y-68578380D01*
X229952380Y-68578380D02*
X229952380Y-67578380D01*
X229857142Y-67721238D01*
X229761904Y-67816476D01*
X229666666Y-67864095D01*
%TO.C,SW19*%
X197690476Y-49530761D02*
X197833333Y-49578380D01*
X198071428Y-49578380D01*
X198166666Y-49530761D01*
X198214285Y-49483142D01*
X198261904Y-49387904D01*
X198261904Y-49292666D01*
X198214285Y-49197428D01*
X198166666Y-49149809D01*
X198071428Y-49102190D01*
X197880952Y-49054571D01*
X197785714Y-49006952D01*
X197738095Y-48959333D01*
X197690476Y-48864095D01*
X197690476Y-48768857D01*
X197738095Y-48673619D01*
X197785714Y-48626000D01*
X197880952Y-48578380D01*
X198119047Y-48578380D01*
X198261904Y-48626000D01*
X198595238Y-48578380D02*
X198833333Y-49578380D01*
X199023809Y-48864095D01*
X199214285Y-49578380D01*
X199452380Y-48578380D01*
X200357142Y-49578380D02*
X199785714Y-49578380D01*
X200071428Y-49578380D02*
X200071428Y-48578380D01*
X199976190Y-48721238D01*
X199880952Y-48816476D01*
X199785714Y-48864095D01*
X200833333Y-49578380D02*
X201023809Y-49578380D01*
X201119047Y-49530761D01*
X201166666Y-49483142D01*
X201261904Y-49340285D01*
X201309523Y-49149809D01*
X201309523Y-48768857D01*
X201261904Y-48673619D01*
X201214285Y-48626000D01*
X201119047Y-48578380D01*
X200928571Y-48578380D01*
X200833333Y-48626000D01*
X200785714Y-48673619D01*
X200738095Y-48768857D01*
X200738095Y-49006952D01*
X200785714Y-49102190D01*
X200833333Y-49149809D01*
X200928571Y-49197428D01*
X201119047Y-49197428D01*
X201214285Y-49149809D01*
X201261904Y-49102190D01*
X201309523Y-49006952D01*
%TO.C,SW48*%
X202440476Y-106530761D02*
X202583333Y-106578380D01*
X202821428Y-106578380D01*
X202916666Y-106530761D01*
X202964285Y-106483142D01*
X203011904Y-106387904D01*
X203011904Y-106292666D01*
X202964285Y-106197428D01*
X202916666Y-106149809D01*
X202821428Y-106102190D01*
X202630952Y-106054571D01*
X202535714Y-106006952D01*
X202488095Y-105959333D01*
X202440476Y-105864095D01*
X202440476Y-105768857D01*
X202488095Y-105673619D01*
X202535714Y-105626000D01*
X202630952Y-105578380D01*
X202869047Y-105578380D01*
X203011904Y-105626000D01*
X203345238Y-105578380D02*
X203583333Y-106578380D01*
X203773809Y-105864095D01*
X203964285Y-106578380D01*
X204202380Y-105578380D01*
X205011904Y-105911714D02*
X205011904Y-106578380D01*
X204773809Y-105530761D02*
X204535714Y-106245047D01*
X205154761Y-106245047D01*
X205678571Y-106006952D02*
X205583333Y-105959333D01*
X205535714Y-105911714D01*
X205488095Y-105816476D01*
X205488095Y-105768857D01*
X205535714Y-105673619D01*
X205583333Y-105626000D01*
X205678571Y-105578380D01*
X205869047Y-105578380D01*
X205964285Y-105626000D01*
X206011904Y-105673619D01*
X206059523Y-105768857D01*
X206059523Y-105816476D01*
X206011904Y-105911714D01*
X205964285Y-105959333D01*
X205869047Y-106006952D01*
X205678571Y-106006952D01*
X205583333Y-106054571D01*
X205535714Y-106102190D01*
X205488095Y-106197428D01*
X205488095Y-106387904D01*
X205535714Y-106483142D01*
X205583333Y-106530761D01*
X205678571Y-106578380D01*
X205869047Y-106578380D01*
X205964285Y-106530761D01*
X206011904Y-106483142D01*
X206059523Y-106387904D01*
X206059523Y-106197428D01*
X206011904Y-106102190D01*
X205964285Y-106054571D01*
X205869047Y-106006952D01*
%TO.C,SW38*%
X192940476Y-87530761D02*
X193083333Y-87578380D01*
X193321428Y-87578380D01*
X193416666Y-87530761D01*
X193464285Y-87483142D01*
X193511904Y-87387904D01*
X193511904Y-87292666D01*
X193464285Y-87197428D01*
X193416666Y-87149809D01*
X193321428Y-87102190D01*
X193130952Y-87054571D01*
X193035714Y-87006952D01*
X192988095Y-86959333D01*
X192940476Y-86864095D01*
X192940476Y-86768857D01*
X192988095Y-86673619D01*
X193035714Y-86626000D01*
X193130952Y-86578380D01*
X193369047Y-86578380D01*
X193511904Y-86626000D01*
X193845238Y-86578380D02*
X194083333Y-87578380D01*
X194273809Y-86864095D01*
X194464285Y-87578380D01*
X194702380Y-86578380D01*
X194988095Y-86578380D02*
X195607142Y-86578380D01*
X195273809Y-86959333D01*
X195416666Y-86959333D01*
X195511904Y-87006952D01*
X195559523Y-87054571D01*
X195607142Y-87149809D01*
X195607142Y-87387904D01*
X195559523Y-87483142D01*
X195511904Y-87530761D01*
X195416666Y-87578380D01*
X195130952Y-87578380D01*
X195035714Y-87530761D01*
X194988095Y-87483142D01*
X196178571Y-87006952D02*
X196083333Y-86959333D01*
X196035714Y-86911714D01*
X195988095Y-86816476D01*
X195988095Y-86768857D01*
X196035714Y-86673619D01*
X196083333Y-86626000D01*
X196178571Y-86578380D01*
X196369047Y-86578380D01*
X196464285Y-86626000D01*
X196511904Y-86673619D01*
X196559523Y-86768857D01*
X196559523Y-86816476D01*
X196511904Y-86911714D01*
X196464285Y-86959333D01*
X196369047Y-87006952D01*
X196178571Y-87006952D01*
X196083333Y-87054571D01*
X196035714Y-87102190D01*
X195988095Y-87197428D01*
X195988095Y-87387904D01*
X196035714Y-87483142D01*
X196083333Y-87530761D01*
X196178571Y-87578380D01*
X196369047Y-87578380D01*
X196464285Y-87530761D01*
X196511904Y-87483142D01*
X196559523Y-87387904D01*
X196559523Y-87197428D01*
X196511904Y-87102190D01*
X196464285Y-87054571D01*
X196369047Y-87006952D01*
%TO.C,SW18*%
X178690476Y-49530761D02*
X178833333Y-49578380D01*
X179071428Y-49578380D01*
X179166666Y-49530761D01*
X179214285Y-49483142D01*
X179261904Y-49387904D01*
X179261904Y-49292666D01*
X179214285Y-49197428D01*
X179166666Y-49149809D01*
X179071428Y-49102190D01*
X178880952Y-49054571D01*
X178785714Y-49006952D01*
X178738095Y-48959333D01*
X178690476Y-48864095D01*
X178690476Y-48768857D01*
X178738095Y-48673619D01*
X178785714Y-48626000D01*
X178880952Y-48578380D01*
X179119047Y-48578380D01*
X179261904Y-48626000D01*
X179595238Y-48578380D02*
X179833333Y-49578380D01*
X180023809Y-48864095D01*
X180214285Y-49578380D01*
X180452380Y-48578380D01*
X181357142Y-49578380D02*
X180785714Y-49578380D01*
X181071428Y-49578380D02*
X181071428Y-48578380D01*
X180976190Y-48721238D01*
X180880952Y-48816476D01*
X180785714Y-48864095D01*
X181928571Y-49006952D02*
X181833333Y-48959333D01*
X181785714Y-48911714D01*
X181738095Y-48816476D01*
X181738095Y-48768857D01*
X181785714Y-48673619D01*
X181833333Y-48626000D01*
X181928571Y-48578380D01*
X182119047Y-48578380D01*
X182214285Y-48626000D01*
X182261904Y-48673619D01*
X182309523Y-48768857D01*
X182309523Y-48816476D01*
X182261904Y-48911714D01*
X182214285Y-48959333D01*
X182119047Y-49006952D01*
X181928571Y-49006952D01*
X181833333Y-49054571D01*
X181785714Y-49102190D01*
X181738095Y-49197428D01*
X181738095Y-49387904D01*
X181785714Y-49483142D01*
X181833333Y-49530761D01*
X181928571Y-49578380D01*
X182119047Y-49578380D01*
X182214285Y-49530761D01*
X182261904Y-49483142D01*
X182309523Y-49387904D01*
X182309523Y-49197428D01*
X182261904Y-49102190D01*
X182214285Y-49054571D01*
X182119047Y-49006952D01*
%TO.C,SW47*%
X183440476Y-106530761D02*
X183583333Y-106578380D01*
X183821428Y-106578380D01*
X183916666Y-106530761D01*
X183964285Y-106483142D01*
X184011904Y-106387904D01*
X184011904Y-106292666D01*
X183964285Y-106197428D01*
X183916666Y-106149809D01*
X183821428Y-106102190D01*
X183630952Y-106054571D01*
X183535714Y-106006952D01*
X183488095Y-105959333D01*
X183440476Y-105864095D01*
X183440476Y-105768857D01*
X183488095Y-105673619D01*
X183535714Y-105626000D01*
X183630952Y-105578380D01*
X183869047Y-105578380D01*
X184011904Y-105626000D01*
X184345238Y-105578380D02*
X184583333Y-106578380D01*
X184773809Y-105864095D01*
X184964285Y-106578380D01*
X185202380Y-105578380D01*
X186011904Y-105911714D02*
X186011904Y-106578380D01*
X185773809Y-105530761D02*
X185535714Y-106245047D01*
X186154761Y-106245047D01*
X186440476Y-105578380D02*
X187107142Y-105578380D01*
X186678571Y-106578380D01*
%TO.C,SW37*%
X173940476Y-87530761D02*
X174083333Y-87578380D01*
X174321428Y-87578380D01*
X174416666Y-87530761D01*
X174464285Y-87483142D01*
X174511904Y-87387904D01*
X174511904Y-87292666D01*
X174464285Y-87197428D01*
X174416666Y-87149809D01*
X174321428Y-87102190D01*
X174130952Y-87054571D01*
X174035714Y-87006952D01*
X173988095Y-86959333D01*
X173940476Y-86864095D01*
X173940476Y-86768857D01*
X173988095Y-86673619D01*
X174035714Y-86626000D01*
X174130952Y-86578380D01*
X174369047Y-86578380D01*
X174511904Y-86626000D01*
X174845238Y-86578380D02*
X175083333Y-87578380D01*
X175273809Y-86864095D01*
X175464285Y-87578380D01*
X175702380Y-86578380D01*
X175988095Y-86578380D02*
X176607142Y-86578380D01*
X176273809Y-86959333D01*
X176416666Y-86959333D01*
X176511904Y-87006952D01*
X176559523Y-87054571D01*
X176607142Y-87149809D01*
X176607142Y-87387904D01*
X176559523Y-87483142D01*
X176511904Y-87530761D01*
X176416666Y-87578380D01*
X176130952Y-87578380D01*
X176035714Y-87530761D01*
X175988095Y-87483142D01*
X176940476Y-86578380D02*
X177607142Y-86578380D01*
X177178571Y-87578380D01*
%TO.C,SW28*%
X188190476Y-68530761D02*
X188333333Y-68578380D01*
X188571428Y-68578380D01*
X188666666Y-68530761D01*
X188714285Y-68483142D01*
X188761904Y-68387904D01*
X188761904Y-68292666D01*
X188714285Y-68197428D01*
X188666666Y-68149809D01*
X188571428Y-68102190D01*
X188380952Y-68054571D01*
X188285714Y-68006952D01*
X188238095Y-67959333D01*
X188190476Y-67864095D01*
X188190476Y-67768857D01*
X188238095Y-67673619D01*
X188285714Y-67626000D01*
X188380952Y-67578380D01*
X188619047Y-67578380D01*
X188761904Y-67626000D01*
X189095238Y-67578380D02*
X189333333Y-68578380D01*
X189523809Y-67864095D01*
X189714285Y-68578380D01*
X189952380Y-67578380D01*
X190285714Y-67673619D02*
X190333333Y-67626000D01*
X190428571Y-67578380D01*
X190666666Y-67578380D01*
X190761904Y-67626000D01*
X190809523Y-67673619D01*
X190857142Y-67768857D01*
X190857142Y-67864095D01*
X190809523Y-68006952D01*
X190238095Y-68578380D01*
X190857142Y-68578380D01*
X191428571Y-68006952D02*
X191333333Y-67959333D01*
X191285714Y-67911714D01*
X191238095Y-67816476D01*
X191238095Y-67768857D01*
X191285714Y-67673619D01*
X191333333Y-67626000D01*
X191428571Y-67578380D01*
X191619047Y-67578380D01*
X191714285Y-67626000D01*
X191761904Y-67673619D01*
X191809523Y-67768857D01*
X191809523Y-67816476D01*
X191761904Y-67911714D01*
X191714285Y-67959333D01*
X191619047Y-68006952D01*
X191428571Y-68006952D01*
X191333333Y-68054571D01*
X191285714Y-68102190D01*
X191238095Y-68197428D01*
X191238095Y-68387904D01*
X191285714Y-68483142D01*
X191333333Y-68530761D01*
X191428571Y-68578380D01*
X191619047Y-68578380D01*
X191714285Y-68530761D01*
X191761904Y-68483142D01*
X191809523Y-68387904D01*
X191809523Y-68197428D01*
X191761904Y-68102190D01*
X191714285Y-68054571D01*
X191619047Y-68006952D01*
%TO.C,SW17*%
X159690476Y-49530761D02*
X159833333Y-49578380D01*
X160071428Y-49578380D01*
X160166666Y-49530761D01*
X160214285Y-49483142D01*
X160261904Y-49387904D01*
X160261904Y-49292666D01*
X160214285Y-49197428D01*
X160166666Y-49149809D01*
X160071428Y-49102190D01*
X159880952Y-49054571D01*
X159785714Y-49006952D01*
X159738095Y-48959333D01*
X159690476Y-48864095D01*
X159690476Y-48768857D01*
X159738095Y-48673619D01*
X159785714Y-48626000D01*
X159880952Y-48578380D01*
X160119047Y-48578380D01*
X160261904Y-48626000D01*
X160595238Y-48578380D02*
X160833333Y-49578380D01*
X161023809Y-48864095D01*
X161214285Y-49578380D01*
X161452380Y-48578380D01*
X162357142Y-49578380D02*
X161785714Y-49578380D01*
X162071428Y-49578380D02*
X162071428Y-48578380D01*
X161976190Y-48721238D01*
X161880952Y-48816476D01*
X161785714Y-48864095D01*
X162690476Y-48578380D02*
X163357142Y-48578380D01*
X162928571Y-49578380D01*
%TO.C,SW46*%
X164440476Y-106530761D02*
X164583333Y-106578380D01*
X164821428Y-106578380D01*
X164916666Y-106530761D01*
X164964285Y-106483142D01*
X165011904Y-106387904D01*
X165011904Y-106292666D01*
X164964285Y-106197428D01*
X164916666Y-106149809D01*
X164821428Y-106102190D01*
X164630952Y-106054571D01*
X164535714Y-106006952D01*
X164488095Y-105959333D01*
X164440476Y-105864095D01*
X164440476Y-105768857D01*
X164488095Y-105673619D01*
X164535714Y-105626000D01*
X164630952Y-105578380D01*
X164869047Y-105578380D01*
X165011904Y-105626000D01*
X165345238Y-105578380D02*
X165583333Y-106578380D01*
X165773809Y-105864095D01*
X165964285Y-106578380D01*
X166202380Y-105578380D01*
X167011904Y-105911714D02*
X167011904Y-106578380D01*
X166773809Y-105530761D02*
X166535714Y-106245047D01*
X167154761Y-106245047D01*
X167964285Y-105578380D02*
X167773809Y-105578380D01*
X167678571Y-105626000D01*
X167630952Y-105673619D01*
X167535714Y-105816476D01*
X167488095Y-106006952D01*
X167488095Y-106387904D01*
X167535714Y-106483142D01*
X167583333Y-106530761D01*
X167678571Y-106578380D01*
X167869047Y-106578380D01*
X167964285Y-106530761D01*
X168011904Y-106483142D01*
X168059523Y-106387904D01*
X168059523Y-106149809D01*
X168011904Y-106054571D01*
X167964285Y-106006952D01*
X167869047Y-105959333D01*
X167678571Y-105959333D01*
X167583333Y-106006952D01*
X167535714Y-106054571D01*
X167488095Y-106149809D01*
%TO.C,SW36*%
X154940476Y-87530761D02*
X155083333Y-87578380D01*
X155321428Y-87578380D01*
X155416666Y-87530761D01*
X155464285Y-87483142D01*
X155511904Y-87387904D01*
X155511904Y-87292666D01*
X155464285Y-87197428D01*
X155416666Y-87149809D01*
X155321428Y-87102190D01*
X155130952Y-87054571D01*
X155035714Y-87006952D01*
X154988095Y-86959333D01*
X154940476Y-86864095D01*
X154940476Y-86768857D01*
X154988095Y-86673619D01*
X155035714Y-86626000D01*
X155130952Y-86578380D01*
X155369047Y-86578380D01*
X155511904Y-86626000D01*
X155845238Y-86578380D02*
X156083333Y-87578380D01*
X156273809Y-86864095D01*
X156464285Y-87578380D01*
X156702380Y-86578380D01*
X156988095Y-86578380D02*
X157607142Y-86578380D01*
X157273809Y-86959333D01*
X157416666Y-86959333D01*
X157511904Y-87006952D01*
X157559523Y-87054571D01*
X157607142Y-87149809D01*
X157607142Y-87387904D01*
X157559523Y-87483142D01*
X157511904Y-87530761D01*
X157416666Y-87578380D01*
X157130952Y-87578380D01*
X157035714Y-87530761D01*
X156988095Y-87483142D01*
X158464285Y-86578380D02*
X158273809Y-86578380D01*
X158178571Y-86626000D01*
X158130952Y-86673619D01*
X158035714Y-86816476D01*
X157988095Y-87006952D01*
X157988095Y-87387904D01*
X158035714Y-87483142D01*
X158083333Y-87530761D01*
X158178571Y-87578380D01*
X158369047Y-87578380D01*
X158464285Y-87530761D01*
X158511904Y-87483142D01*
X158559523Y-87387904D01*
X158559523Y-87149809D01*
X158511904Y-87054571D01*
X158464285Y-87006952D01*
X158369047Y-86959333D01*
X158178571Y-86959333D01*
X158083333Y-87006952D01*
X158035714Y-87054571D01*
X157988095Y-87149809D01*
%TO.C,SW27*%
X169190476Y-68530761D02*
X169333333Y-68578380D01*
X169571428Y-68578380D01*
X169666666Y-68530761D01*
X169714285Y-68483142D01*
X169761904Y-68387904D01*
X169761904Y-68292666D01*
X169714285Y-68197428D01*
X169666666Y-68149809D01*
X169571428Y-68102190D01*
X169380952Y-68054571D01*
X169285714Y-68006952D01*
X169238095Y-67959333D01*
X169190476Y-67864095D01*
X169190476Y-67768857D01*
X169238095Y-67673619D01*
X169285714Y-67626000D01*
X169380952Y-67578380D01*
X169619047Y-67578380D01*
X169761904Y-67626000D01*
X170095238Y-67578380D02*
X170333333Y-68578380D01*
X170523809Y-67864095D01*
X170714285Y-68578380D01*
X170952380Y-67578380D01*
X171285714Y-67673619D02*
X171333333Y-67626000D01*
X171428571Y-67578380D01*
X171666666Y-67578380D01*
X171761904Y-67626000D01*
X171809523Y-67673619D01*
X171857142Y-67768857D01*
X171857142Y-67864095D01*
X171809523Y-68006952D01*
X171238095Y-68578380D01*
X171857142Y-68578380D01*
X172190476Y-67578380D02*
X172857142Y-67578380D01*
X172428571Y-68578380D01*
%TO.C,SW16*%
X140690476Y-49530761D02*
X140833333Y-49578380D01*
X141071428Y-49578380D01*
X141166666Y-49530761D01*
X141214285Y-49483142D01*
X141261904Y-49387904D01*
X141261904Y-49292666D01*
X141214285Y-49197428D01*
X141166666Y-49149809D01*
X141071428Y-49102190D01*
X140880952Y-49054571D01*
X140785714Y-49006952D01*
X140738095Y-48959333D01*
X140690476Y-48864095D01*
X140690476Y-48768857D01*
X140738095Y-48673619D01*
X140785714Y-48626000D01*
X140880952Y-48578380D01*
X141119047Y-48578380D01*
X141261904Y-48626000D01*
X141595238Y-48578380D02*
X141833333Y-49578380D01*
X142023809Y-48864095D01*
X142214285Y-49578380D01*
X142452380Y-48578380D01*
X143357142Y-49578380D02*
X142785714Y-49578380D01*
X143071428Y-49578380D02*
X143071428Y-48578380D01*
X142976190Y-48721238D01*
X142880952Y-48816476D01*
X142785714Y-48864095D01*
X144214285Y-48578380D02*
X144023809Y-48578380D01*
X143928571Y-48626000D01*
X143880952Y-48673619D01*
X143785714Y-48816476D01*
X143738095Y-49006952D01*
X143738095Y-49387904D01*
X143785714Y-49483142D01*
X143833333Y-49530761D01*
X143928571Y-49578380D01*
X144119047Y-49578380D01*
X144214285Y-49530761D01*
X144261904Y-49483142D01*
X144309523Y-49387904D01*
X144309523Y-49149809D01*
X144261904Y-49054571D01*
X144214285Y-49006952D01*
X144119047Y-48959333D01*
X143928571Y-48959333D01*
X143833333Y-49006952D01*
X143785714Y-49054571D01*
X143738095Y-49149809D01*
%TO.C,SW45*%
X145440476Y-106530761D02*
X145583333Y-106578380D01*
X145821428Y-106578380D01*
X145916666Y-106530761D01*
X145964285Y-106483142D01*
X146011904Y-106387904D01*
X146011904Y-106292666D01*
X145964285Y-106197428D01*
X145916666Y-106149809D01*
X145821428Y-106102190D01*
X145630952Y-106054571D01*
X145535714Y-106006952D01*
X145488095Y-105959333D01*
X145440476Y-105864095D01*
X145440476Y-105768857D01*
X145488095Y-105673619D01*
X145535714Y-105626000D01*
X145630952Y-105578380D01*
X145869047Y-105578380D01*
X146011904Y-105626000D01*
X146345238Y-105578380D02*
X146583333Y-106578380D01*
X146773809Y-105864095D01*
X146964285Y-106578380D01*
X147202380Y-105578380D01*
X148011904Y-105911714D02*
X148011904Y-106578380D01*
X147773809Y-105530761D02*
X147535714Y-106245047D01*
X148154761Y-106245047D01*
X149011904Y-105578380D02*
X148535714Y-105578380D01*
X148488095Y-106054571D01*
X148535714Y-106006952D01*
X148630952Y-105959333D01*
X148869047Y-105959333D01*
X148964285Y-106006952D01*
X149011904Y-106054571D01*
X149059523Y-106149809D01*
X149059523Y-106387904D01*
X149011904Y-106483142D01*
X148964285Y-106530761D01*
X148869047Y-106578380D01*
X148630952Y-106578380D01*
X148535714Y-106530761D01*
X148488095Y-106483142D01*
%TO.C,SW35*%
X135940476Y-87530761D02*
X136083333Y-87578380D01*
X136321428Y-87578380D01*
X136416666Y-87530761D01*
X136464285Y-87483142D01*
X136511904Y-87387904D01*
X136511904Y-87292666D01*
X136464285Y-87197428D01*
X136416666Y-87149809D01*
X136321428Y-87102190D01*
X136130952Y-87054571D01*
X136035714Y-87006952D01*
X135988095Y-86959333D01*
X135940476Y-86864095D01*
X135940476Y-86768857D01*
X135988095Y-86673619D01*
X136035714Y-86626000D01*
X136130952Y-86578380D01*
X136369047Y-86578380D01*
X136511904Y-86626000D01*
X136845238Y-86578380D02*
X137083333Y-87578380D01*
X137273809Y-86864095D01*
X137464285Y-87578380D01*
X137702380Y-86578380D01*
X137988095Y-86578380D02*
X138607142Y-86578380D01*
X138273809Y-86959333D01*
X138416666Y-86959333D01*
X138511904Y-87006952D01*
X138559523Y-87054571D01*
X138607142Y-87149809D01*
X138607142Y-87387904D01*
X138559523Y-87483142D01*
X138511904Y-87530761D01*
X138416666Y-87578380D01*
X138130952Y-87578380D01*
X138035714Y-87530761D01*
X137988095Y-87483142D01*
X139511904Y-86578380D02*
X139035714Y-86578380D01*
X138988095Y-87054571D01*
X139035714Y-87006952D01*
X139130952Y-86959333D01*
X139369047Y-86959333D01*
X139464285Y-87006952D01*
X139511904Y-87054571D01*
X139559523Y-87149809D01*
X139559523Y-87387904D01*
X139511904Y-87483142D01*
X139464285Y-87530761D01*
X139369047Y-87578380D01*
X139130952Y-87578380D01*
X139035714Y-87530761D01*
X138988095Y-87483142D01*
%TO.C,SW26*%
X150190476Y-68530761D02*
X150333333Y-68578380D01*
X150571428Y-68578380D01*
X150666666Y-68530761D01*
X150714285Y-68483142D01*
X150761904Y-68387904D01*
X150761904Y-68292666D01*
X150714285Y-68197428D01*
X150666666Y-68149809D01*
X150571428Y-68102190D01*
X150380952Y-68054571D01*
X150285714Y-68006952D01*
X150238095Y-67959333D01*
X150190476Y-67864095D01*
X150190476Y-67768857D01*
X150238095Y-67673619D01*
X150285714Y-67626000D01*
X150380952Y-67578380D01*
X150619047Y-67578380D01*
X150761904Y-67626000D01*
X151095238Y-67578380D02*
X151333333Y-68578380D01*
X151523809Y-67864095D01*
X151714285Y-68578380D01*
X151952380Y-67578380D01*
X152285714Y-67673619D02*
X152333333Y-67626000D01*
X152428571Y-67578380D01*
X152666666Y-67578380D01*
X152761904Y-67626000D01*
X152809523Y-67673619D01*
X152857142Y-67768857D01*
X152857142Y-67864095D01*
X152809523Y-68006952D01*
X152238095Y-68578380D01*
X152857142Y-68578380D01*
X153714285Y-67578380D02*
X153523809Y-67578380D01*
X153428571Y-67626000D01*
X153380952Y-67673619D01*
X153285714Y-67816476D01*
X153238095Y-68006952D01*
X153238095Y-68387904D01*
X153285714Y-68483142D01*
X153333333Y-68530761D01*
X153428571Y-68578380D01*
X153619047Y-68578380D01*
X153714285Y-68530761D01*
X153761904Y-68483142D01*
X153809523Y-68387904D01*
X153809523Y-68149809D01*
X153761904Y-68054571D01*
X153714285Y-68006952D01*
X153619047Y-67959333D01*
X153428571Y-67959333D01*
X153333333Y-68006952D01*
X153285714Y-68054571D01*
X153238095Y-68149809D01*
%TO.C,SW15*%
X121690476Y-49530761D02*
X121833333Y-49578380D01*
X122071428Y-49578380D01*
X122166666Y-49530761D01*
X122214285Y-49483142D01*
X122261904Y-49387904D01*
X122261904Y-49292666D01*
X122214285Y-49197428D01*
X122166666Y-49149809D01*
X122071428Y-49102190D01*
X121880952Y-49054571D01*
X121785714Y-49006952D01*
X121738095Y-48959333D01*
X121690476Y-48864095D01*
X121690476Y-48768857D01*
X121738095Y-48673619D01*
X121785714Y-48626000D01*
X121880952Y-48578380D01*
X122119047Y-48578380D01*
X122261904Y-48626000D01*
X122595238Y-48578380D02*
X122833333Y-49578380D01*
X123023809Y-48864095D01*
X123214285Y-49578380D01*
X123452380Y-48578380D01*
X124357142Y-49578380D02*
X123785714Y-49578380D01*
X124071428Y-49578380D02*
X124071428Y-48578380D01*
X123976190Y-48721238D01*
X123880952Y-48816476D01*
X123785714Y-48864095D01*
X125261904Y-48578380D02*
X124785714Y-48578380D01*
X124738095Y-49054571D01*
X124785714Y-49006952D01*
X124880952Y-48959333D01*
X125119047Y-48959333D01*
X125214285Y-49006952D01*
X125261904Y-49054571D01*
X125309523Y-49149809D01*
X125309523Y-49387904D01*
X125261904Y-49483142D01*
X125214285Y-49530761D01*
X125119047Y-49578380D01*
X124880952Y-49578380D01*
X124785714Y-49530761D01*
X124738095Y-49483142D01*
%TO.C,SW44*%
X126440476Y-106530761D02*
X126583333Y-106578380D01*
X126821428Y-106578380D01*
X126916666Y-106530761D01*
X126964285Y-106483142D01*
X127011904Y-106387904D01*
X127011904Y-106292666D01*
X126964285Y-106197428D01*
X126916666Y-106149809D01*
X126821428Y-106102190D01*
X126630952Y-106054571D01*
X126535714Y-106006952D01*
X126488095Y-105959333D01*
X126440476Y-105864095D01*
X126440476Y-105768857D01*
X126488095Y-105673619D01*
X126535714Y-105626000D01*
X126630952Y-105578380D01*
X126869047Y-105578380D01*
X127011904Y-105626000D01*
X127345238Y-105578380D02*
X127583333Y-106578380D01*
X127773809Y-105864095D01*
X127964285Y-106578380D01*
X128202380Y-105578380D01*
X129011904Y-105911714D02*
X129011904Y-106578380D01*
X128773809Y-105530761D02*
X128535714Y-106245047D01*
X129154761Y-106245047D01*
X129964285Y-105911714D02*
X129964285Y-106578380D01*
X129726190Y-105530761D02*
X129488095Y-106245047D01*
X130107142Y-106245047D01*
%TO.C,SW34*%
X116940476Y-87530761D02*
X117083333Y-87578380D01*
X117321428Y-87578380D01*
X117416666Y-87530761D01*
X117464285Y-87483142D01*
X117511904Y-87387904D01*
X117511904Y-87292666D01*
X117464285Y-87197428D01*
X117416666Y-87149809D01*
X117321428Y-87102190D01*
X117130952Y-87054571D01*
X117035714Y-87006952D01*
X116988095Y-86959333D01*
X116940476Y-86864095D01*
X116940476Y-86768857D01*
X116988095Y-86673619D01*
X117035714Y-86626000D01*
X117130952Y-86578380D01*
X117369047Y-86578380D01*
X117511904Y-86626000D01*
X117845238Y-86578380D02*
X118083333Y-87578380D01*
X118273809Y-86864095D01*
X118464285Y-87578380D01*
X118702380Y-86578380D01*
X118988095Y-86578380D02*
X119607142Y-86578380D01*
X119273809Y-86959333D01*
X119416666Y-86959333D01*
X119511904Y-87006952D01*
X119559523Y-87054571D01*
X119607142Y-87149809D01*
X119607142Y-87387904D01*
X119559523Y-87483142D01*
X119511904Y-87530761D01*
X119416666Y-87578380D01*
X119130952Y-87578380D01*
X119035714Y-87530761D01*
X118988095Y-87483142D01*
X120464285Y-86911714D02*
X120464285Y-87578380D01*
X120226190Y-86530761D02*
X119988095Y-87245047D01*
X120607142Y-87245047D01*
%TO.C,SW25*%
X131190476Y-68530761D02*
X131333333Y-68578380D01*
X131571428Y-68578380D01*
X131666666Y-68530761D01*
X131714285Y-68483142D01*
X131761904Y-68387904D01*
X131761904Y-68292666D01*
X131714285Y-68197428D01*
X131666666Y-68149809D01*
X131571428Y-68102190D01*
X131380952Y-68054571D01*
X131285714Y-68006952D01*
X131238095Y-67959333D01*
X131190476Y-67864095D01*
X131190476Y-67768857D01*
X131238095Y-67673619D01*
X131285714Y-67626000D01*
X131380952Y-67578380D01*
X131619047Y-67578380D01*
X131761904Y-67626000D01*
X132095238Y-67578380D02*
X132333333Y-68578380D01*
X132523809Y-67864095D01*
X132714285Y-68578380D01*
X132952380Y-67578380D01*
X133285714Y-67673619D02*
X133333333Y-67626000D01*
X133428571Y-67578380D01*
X133666666Y-67578380D01*
X133761904Y-67626000D01*
X133809523Y-67673619D01*
X133857142Y-67768857D01*
X133857142Y-67864095D01*
X133809523Y-68006952D01*
X133238095Y-68578380D01*
X133857142Y-68578380D01*
X134761904Y-67578380D02*
X134285714Y-67578380D01*
X134238095Y-68054571D01*
X134285714Y-68006952D01*
X134380952Y-67959333D01*
X134619047Y-67959333D01*
X134714285Y-68006952D01*
X134761904Y-68054571D01*
X134809523Y-68149809D01*
X134809523Y-68387904D01*
X134761904Y-68483142D01*
X134714285Y-68530761D01*
X134619047Y-68578380D01*
X134380952Y-68578380D01*
X134285714Y-68530761D01*
X134238095Y-68483142D01*
%TO.C,SW14*%
X102690476Y-49530761D02*
X102833333Y-49578380D01*
X103071428Y-49578380D01*
X103166666Y-49530761D01*
X103214285Y-49483142D01*
X103261904Y-49387904D01*
X103261904Y-49292666D01*
X103214285Y-49197428D01*
X103166666Y-49149809D01*
X103071428Y-49102190D01*
X102880952Y-49054571D01*
X102785714Y-49006952D01*
X102738095Y-48959333D01*
X102690476Y-48864095D01*
X102690476Y-48768857D01*
X102738095Y-48673619D01*
X102785714Y-48626000D01*
X102880952Y-48578380D01*
X103119047Y-48578380D01*
X103261904Y-48626000D01*
X103595238Y-48578380D02*
X103833333Y-49578380D01*
X104023809Y-48864095D01*
X104214285Y-49578380D01*
X104452380Y-48578380D01*
X105357142Y-49578380D02*
X104785714Y-49578380D01*
X105071428Y-49578380D02*
X105071428Y-48578380D01*
X104976190Y-48721238D01*
X104880952Y-48816476D01*
X104785714Y-48864095D01*
X106214285Y-48911714D02*
X106214285Y-49578380D01*
X105976190Y-48530761D02*
X105738095Y-49245047D01*
X106357142Y-49245047D01*
%TO.C,SW33*%
X97940476Y-87530761D02*
X98083333Y-87578380D01*
X98321428Y-87578380D01*
X98416666Y-87530761D01*
X98464285Y-87483142D01*
X98511904Y-87387904D01*
X98511904Y-87292666D01*
X98464285Y-87197428D01*
X98416666Y-87149809D01*
X98321428Y-87102190D01*
X98130952Y-87054571D01*
X98035714Y-87006952D01*
X97988095Y-86959333D01*
X97940476Y-86864095D01*
X97940476Y-86768857D01*
X97988095Y-86673619D01*
X98035714Y-86626000D01*
X98130952Y-86578380D01*
X98369047Y-86578380D01*
X98511904Y-86626000D01*
X98845238Y-86578380D02*
X99083333Y-87578380D01*
X99273809Y-86864095D01*
X99464285Y-87578380D01*
X99702380Y-86578380D01*
X99988095Y-86578380D02*
X100607142Y-86578380D01*
X100273809Y-86959333D01*
X100416666Y-86959333D01*
X100511904Y-87006952D01*
X100559523Y-87054571D01*
X100607142Y-87149809D01*
X100607142Y-87387904D01*
X100559523Y-87483142D01*
X100511904Y-87530761D01*
X100416666Y-87578380D01*
X100130952Y-87578380D01*
X100035714Y-87530761D01*
X99988095Y-87483142D01*
X100940476Y-86578380D02*
X101559523Y-86578380D01*
X101226190Y-86959333D01*
X101369047Y-86959333D01*
X101464285Y-87006952D01*
X101511904Y-87054571D01*
X101559523Y-87149809D01*
X101559523Y-87387904D01*
X101511904Y-87483142D01*
X101464285Y-87530761D01*
X101369047Y-87578380D01*
X101083333Y-87578380D01*
X100988095Y-87530761D01*
X100940476Y-87483142D01*
%TO.C,SW24*%
X112190476Y-68530761D02*
X112333333Y-68578380D01*
X112571428Y-68578380D01*
X112666666Y-68530761D01*
X112714285Y-68483142D01*
X112761904Y-68387904D01*
X112761904Y-68292666D01*
X112714285Y-68197428D01*
X112666666Y-68149809D01*
X112571428Y-68102190D01*
X112380952Y-68054571D01*
X112285714Y-68006952D01*
X112238095Y-67959333D01*
X112190476Y-67864095D01*
X112190476Y-67768857D01*
X112238095Y-67673619D01*
X112285714Y-67626000D01*
X112380952Y-67578380D01*
X112619047Y-67578380D01*
X112761904Y-67626000D01*
X113095238Y-67578380D02*
X113333333Y-68578380D01*
X113523809Y-67864095D01*
X113714285Y-68578380D01*
X113952380Y-67578380D01*
X114285714Y-67673619D02*
X114333333Y-67626000D01*
X114428571Y-67578380D01*
X114666666Y-67578380D01*
X114761904Y-67626000D01*
X114809523Y-67673619D01*
X114857142Y-67768857D01*
X114857142Y-67864095D01*
X114809523Y-68006952D01*
X114238095Y-68578380D01*
X114857142Y-68578380D01*
X115714285Y-67911714D02*
X115714285Y-68578380D01*
X115476190Y-67530761D02*
X115238095Y-68245047D01*
X115857142Y-68245047D01*
%TO.C,SW13*%
X83690476Y-49530761D02*
X83833333Y-49578380D01*
X84071428Y-49578380D01*
X84166666Y-49530761D01*
X84214285Y-49483142D01*
X84261904Y-49387904D01*
X84261904Y-49292666D01*
X84214285Y-49197428D01*
X84166666Y-49149809D01*
X84071428Y-49102190D01*
X83880952Y-49054571D01*
X83785714Y-49006952D01*
X83738095Y-48959333D01*
X83690476Y-48864095D01*
X83690476Y-48768857D01*
X83738095Y-48673619D01*
X83785714Y-48626000D01*
X83880952Y-48578380D01*
X84119047Y-48578380D01*
X84261904Y-48626000D01*
X84595238Y-48578380D02*
X84833333Y-49578380D01*
X85023809Y-48864095D01*
X85214285Y-49578380D01*
X85452380Y-48578380D01*
X86357142Y-49578380D02*
X85785714Y-49578380D01*
X86071428Y-49578380D02*
X86071428Y-48578380D01*
X85976190Y-48721238D01*
X85880952Y-48816476D01*
X85785714Y-48864095D01*
X86690476Y-48578380D02*
X87309523Y-48578380D01*
X86976190Y-48959333D01*
X87119047Y-48959333D01*
X87214285Y-49006952D01*
X87261904Y-49054571D01*
X87309523Y-49149809D01*
X87309523Y-49387904D01*
X87261904Y-49483142D01*
X87214285Y-49530761D01*
X87119047Y-49578380D01*
X86833333Y-49578380D01*
X86738095Y-49530761D01*
X86690476Y-49483142D01*
%TO.C,SW32*%
X78940476Y-87530761D02*
X79083333Y-87578380D01*
X79321428Y-87578380D01*
X79416666Y-87530761D01*
X79464285Y-87483142D01*
X79511904Y-87387904D01*
X79511904Y-87292666D01*
X79464285Y-87197428D01*
X79416666Y-87149809D01*
X79321428Y-87102190D01*
X79130952Y-87054571D01*
X79035714Y-87006952D01*
X78988095Y-86959333D01*
X78940476Y-86864095D01*
X78940476Y-86768857D01*
X78988095Y-86673619D01*
X79035714Y-86626000D01*
X79130952Y-86578380D01*
X79369047Y-86578380D01*
X79511904Y-86626000D01*
X79845238Y-86578380D02*
X80083333Y-87578380D01*
X80273809Y-86864095D01*
X80464285Y-87578380D01*
X80702380Y-86578380D01*
X80988095Y-86578380D02*
X81607142Y-86578380D01*
X81273809Y-86959333D01*
X81416666Y-86959333D01*
X81511904Y-87006952D01*
X81559523Y-87054571D01*
X81607142Y-87149809D01*
X81607142Y-87387904D01*
X81559523Y-87483142D01*
X81511904Y-87530761D01*
X81416666Y-87578380D01*
X81130952Y-87578380D01*
X81035714Y-87530761D01*
X80988095Y-87483142D01*
X81988095Y-86673619D02*
X82035714Y-86626000D01*
X82130952Y-86578380D01*
X82369047Y-86578380D01*
X82464285Y-86626000D01*
X82511904Y-86673619D01*
X82559523Y-86768857D01*
X82559523Y-86864095D01*
X82511904Y-87006952D01*
X81940476Y-87578380D01*
X82559523Y-87578380D01*
%TO.C,SW23*%
X93190476Y-68530761D02*
X93333333Y-68578380D01*
X93571428Y-68578380D01*
X93666666Y-68530761D01*
X93714285Y-68483142D01*
X93761904Y-68387904D01*
X93761904Y-68292666D01*
X93714285Y-68197428D01*
X93666666Y-68149809D01*
X93571428Y-68102190D01*
X93380952Y-68054571D01*
X93285714Y-68006952D01*
X93238095Y-67959333D01*
X93190476Y-67864095D01*
X93190476Y-67768857D01*
X93238095Y-67673619D01*
X93285714Y-67626000D01*
X93380952Y-67578380D01*
X93619047Y-67578380D01*
X93761904Y-67626000D01*
X94095238Y-67578380D02*
X94333333Y-68578380D01*
X94523809Y-67864095D01*
X94714285Y-68578380D01*
X94952380Y-67578380D01*
X95285714Y-67673619D02*
X95333333Y-67626000D01*
X95428571Y-67578380D01*
X95666666Y-67578380D01*
X95761904Y-67626000D01*
X95809523Y-67673619D01*
X95857142Y-67768857D01*
X95857142Y-67864095D01*
X95809523Y-68006952D01*
X95238095Y-68578380D01*
X95857142Y-68578380D01*
X96190476Y-67578380D02*
X96809523Y-67578380D01*
X96476190Y-67959333D01*
X96619047Y-67959333D01*
X96714285Y-68006952D01*
X96761904Y-68054571D01*
X96809523Y-68149809D01*
X96809523Y-68387904D01*
X96761904Y-68483142D01*
X96714285Y-68530761D01*
X96619047Y-68578380D01*
X96333333Y-68578380D01*
X96238095Y-68530761D01*
X96190476Y-68483142D01*
%TO.C,SW12*%
X64690476Y-49530761D02*
X64833333Y-49578380D01*
X65071428Y-49578380D01*
X65166666Y-49530761D01*
X65214285Y-49483142D01*
X65261904Y-49387904D01*
X65261904Y-49292666D01*
X65214285Y-49197428D01*
X65166666Y-49149809D01*
X65071428Y-49102190D01*
X64880952Y-49054571D01*
X64785714Y-49006952D01*
X64738095Y-48959333D01*
X64690476Y-48864095D01*
X64690476Y-48768857D01*
X64738095Y-48673619D01*
X64785714Y-48626000D01*
X64880952Y-48578380D01*
X65119047Y-48578380D01*
X65261904Y-48626000D01*
X65595238Y-48578380D02*
X65833333Y-49578380D01*
X66023809Y-48864095D01*
X66214285Y-49578380D01*
X66452380Y-48578380D01*
X67357142Y-49578380D02*
X66785714Y-49578380D01*
X67071428Y-49578380D02*
X67071428Y-48578380D01*
X66976190Y-48721238D01*
X66880952Y-48816476D01*
X66785714Y-48864095D01*
X67738095Y-48673619D02*
X67785714Y-48626000D01*
X67880952Y-48578380D01*
X68119047Y-48578380D01*
X68214285Y-48626000D01*
X68261904Y-48673619D01*
X68309523Y-48768857D01*
X68309523Y-48864095D01*
X68261904Y-49006952D01*
X67690476Y-49578380D01*
X68309523Y-49578380D01*
%TO.C,SW41*%
X69440476Y-106530761D02*
X69583333Y-106578380D01*
X69821428Y-106578380D01*
X69916666Y-106530761D01*
X69964285Y-106483142D01*
X70011904Y-106387904D01*
X70011904Y-106292666D01*
X69964285Y-106197428D01*
X69916666Y-106149809D01*
X69821428Y-106102190D01*
X69630952Y-106054571D01*
X69535714Y-106006952D01*
X69488095Y-105959333D01*
X69440476Y-105864095D01*
X69440476Y-105768857D01*
X69488095Y-105673619D01*
X69535714Y-105626000D01*
X69630952Y-105578380D01*
X69869047Y-105578380D01*
X70011904Y-105626000D01*
X70345238Y-105578380D02*
X70583333Y-106578380D01*
X70773809Y-105864095D01*
X70964285Y-106578380D01*
X71202380Y-105578380D01*
X72011904Y-105911714D02*
X72011904Y-106578380D01*
X71773809Y-105530761D02*
X71535714Y-106245047D01*
X72154761Y-106245047D01*
X73059523Y-106578380D02*
X72488095Y-106578380D01*
X72773809Y-106578380D02*
X72773809Y-105578380D01*
X72678571Y-105721238D01*
X72583333Y-105816476D01*
X72488095Y-105864095D01*
%TO.C,SW31*%
X59940476Y-87530761D02*
X60083333Y-87578380D01*
X60321428Y-87578380D01*
X60416666Y-87530761D01*
X60464285Y-87483142D01*
X60511904Y-87387904D01*
X60511904Y-87292666D01*
X60464285Y-87197428D01*
X60416666Y-87149809D01*
X60321428Y-87102190D01*
X60130952Y-87054571D01*
X60035714Y-87006952D01*
X59988095Y-86959333D01*
X59940476Y-86864095D01*
X59940476Y-86768857D01*
X59988095Y-86673619D01*
X60035714Y-86626000D01*
X60130952Y-86578380D01*
X60369047Y-86578380D01*
X60511904Y-86626000D01*
X60845238Y-86578380D02*
X61083333Y-87578380D01*
X61273809Y-86864095D01*
X61464285Y-87578380D01*
X61702380Y-86578380D01*
X61988095Y-86578380D02*
X62607142Y-86578380D01*
X62273809Y-86959333D01*
X62416666Y-86959333D01*
X62511904Y-87006952D01*
X62559523Y-87054571D01*
X62607142Y-87149809D01*
X62607142Y-87387904D01*
X62559523Y-87483142D01*
X62511904Y-87530761D01*
X62416666Y-87578380D01*
X62130952Y-87578380D01*
X62035714Y-87530761D01*
X61988095Y-87483142D01*
X63559523Y-87578380D02*
X62988095Y-87578380D01*
X63273809Y-87578380D02*
X63273809Y-86578380D01*
X63178571Y-86721238D01*
X63083333Y-86816476D01*
X62988095Y-86864095D01*
%TO.C,SW22*%
X74190476Y-68530761D02*
X74333333Y-68578380D01*
X74571428Y-68578380D01*
X74666666Y-68530761D01*
X74714285Y-68483142D01*
X74761904Y-68387904D01*
X74761904Y-68292666D01*
X74714285Y-68197428D01*
X74666666Y-68149809D01*
X74571428Y-68102190D01*
X74380952Y-68054571D01*
X74285714Y-68006952D01*
X74238095Y-67959333D01*
X74190476Y-67864095D01*
X74190476Y-67768857D01*
X74238095Y-67673619D01*
X74285714Y-67626000D01*
X74380952Y-67578380D01*
X74619047Y-67578380D01*
X74761904Y-67626000D01*
X75095238Y-67578380D02*
X75333333Y-68578380D01*
X75523809Y-67864095D01*
X75714285Y-68578380D01*
X75952380Y-67578380D01*
X76285714Y-67673619D02*
X76333333Y-67626000D01*
X76428571Y-67578380D01*
X76666666Y-67578380D01*
X76761904Y-67626000D01*
X76809523Y-67673619D01*
X76857142Y-67768857D01*
X76857142Y-67864095D01*
X76809523Y-68006952D01*
X76238095Y-68578380D01*
X76857142Y-68578380D01*
X77238095Y-67673619D02*
X77285714Y-67626000D01*
X77380952Y-67578380D01*
X77619047Y-67578380D01*
X77714285Y-67626000D01*
X77761904Y-67673619D01*
X77809523Y-67768857D01*
X77809523Y-67864095D01*
X77761904Y-68006952D01*
X77190476Y-68578380D01*
X77809523Y-68578380D01*
%TO.C,SW11*%
X45690476Y-49530761D02*
X45833333Y-49578380D01*
X46071428Y-49578380D01*
X46166666Y-49530761D01*
X46214285Y-49483142D01*
X46261904Y-49387904D01*
X46261904Y-49292666D01*
X46214285Y-49197428D01*
X46166666Y-49149809D01*
X46071428Y-49102190D01*
X45880952Y-49054571D01*
X45785714Y-49006952D01*
X45738095Y-48959333D01*
X45690476Y-48864095D01*
X45690476Y-48768857D01*
X45738095Y-48673619D01*
X45785714Y-48626000D01*
X45880952Y-48578380D01*
X46119047Y-48578380D01*
X46261904Y-48626000D01*
X46595238Y-48578380D02*
X46833333Y-49578380D01*
X47023809Y-48864095D01*
X47214285Y-49578380D01*
X47452380Y-48578380D01*
X48357142Y-49578380D02*
X47785714Y-49578380D01*
X48071428Y-49578380D02*
X48071428Y-48578380D01*
X47976190Y-48721238D01*
X47880952Y-48816476D01*
X47785714Y-48864095D01*
X49309523Y-49578380D02*
X48738095Y-49578380D01*
X49023809Y-49578380D02*
X49023809Y-48578380D01*
X48928571Y-48721238D01*
X48833333Y-48816476D01*
X48738095Y-48864095D01*
%TO.C,SW55*%
X150190476Y-125530761D02*
X150333333Y-125578380D01*
X150571428Y-125578380D01*
X150666666Y-125530761D01*
X150714285Y-125483142D01*
X150761904Y-125387904D01*
X150761904Y-125292666D01*
X150714285Y-125197428D01*
X150666666Y-125149809D01*
X150571428Y-125102190D01*
X150380952Y-125054571D01*
X150285714Y-125006952D01*
X150238095Y-124959333D01*
X150190476Y-124864095D01*
X150190476Y-124768857D01*
X150238095Y-124673619D01*
X150285714Y-124626000D01*
X150380952Y-124578380D01*
X150619047Y-124578380D01*
X150761904Y-124626000D01*
X151095238Y-124578380D02*
X151333333Y-125578380D01*
X151523809Y-124864095D01*
X151714285Y-125578380D01*
X151952380Y-124578380D01*
X152809523Y-124578380D02*
X152333333Y-124578380D01*
X152285714Y-125054571D01*
X152333333Y-125006952D01*
X152428571Y-124959333D01*
X152666666Y-124959333D01*
X152761904Y-125006952D01*
X152809523Y-125054571D01*
X152857142Y-125149809D01*
X152857142Y-125387904D01*
X152809523Y-125483142D01*
X152761904Y-125530761D01*
X152666666Y-125578380D01*
X152428571Y-125578380D01*
X152333333Y-125530761D01*
X152285714Y-125483142D01*
X153761904Y-124578380D02*
X153285714Y-124578380D01*
X153238095Y-125054571D01*
X153285714Y-125006952D01*
X153380952Y-124959333D01*
X153619047Y-124959333D01*
X153714285Y-125006952D01*
X153761904Y-125054571D01*
X153809523Y-125149809D01*
X153809523Y-125387904D01*
X153761904Y-125483142D01*
X153714285Y-125530761D01*
X153619047Y-125578380D01*
X153380952Y-125578380D01*
X153285714Y-125530761D01*
X153238095Y-125483142D01*
%TO.C,SW40*%
X40940476Y-106530761D02*
X41083333Y-106578380D01*
X41321428Y-106578380D01*
X41416666Y-106530761D01*
X41464285Y-106483142D01*
X41511904Y-106387904D01*
X41511904Y-106292666D01*
X41464285Y-106197428D01*
X41416666Y-106149809D01*
X41321428Y-106102190D01*
X41130952Y-106054571D01*
X41035714Y-106006952D01*
X40988095Y-105959333D01*
X40940476Y-105864095D01*
X40940476Y-105768857D01*
X40988095Y-105673619D01*
X41035714Y-105626000D01*
X41130952Y-105578380D01*
X41369047Y-105578380D01*
X41511904Y-105626000D01*
X41845238Y-105578380D02*
X42083333Y-106578380D01*
X42273809Y-105864095D01*
X42464285Y-106578380D01*
X42702380Y-105578380D01*
X43511904Y-105911714D02*
X43511904Y-106578380D01*
X43273809Y-105530761D02*
X43035714Y-106245047D01*
X43654761Y-106245047D01*
X44226190Y-105578380D02*
X44321428Y-105578380D01*
X44416666Y-105626000D01*
X44464285Y-105673619D01*
X44511904Y-105768857D01*
X44559523Y-105959333D01*
X44559523Y-106197428D01*
X44511904Y-106387904D01*
X44464285Y-106483142D01*
X44416666Y-106530761D01*
X44321428Y-106578380D01*
X44226190Y-106578380D01*
X44130952Y-106530761D01*
X44083333Y-106483142D01*
X44035714Y-106387904D01*
X43988095Y-106197428D01*
X43988095Y-105959333D01*
X44035714Y-105768857D01*
X44083333Y-105673619D01*
X44130952Y-105626000D01*
X44226190Y-105578380D01*
%TO.C,SW21*%
X55190476Y-68530761D02*
X55333333Y-68578380D01*
X55571428Y-68578380D01*
X55666666Y-68530761D01*
X55714285Y-68483142D01*
X55761904Y-68387904D01*
X55761904Y-68292666D01*
X55714285Y-68197428D01*
X55666666Y-68149809D01*
X55571428Y-68102190D01*
X55380952Y-68054571D01*
X55285714Y-68006952D01*
X55238095Y-67959333D01*
X55190476Y-67864095D01*
X55190476Y-67768857D01*
X55238095Y-67673619D01*
X55285714Y-67626000D01*
X55380952Y-67578380D01*
X55619047Y-67578380D01*
X55761904Y-67626000D01*
X56095238Y-67578380D02*
X56333333Y-68578380D01*
X56523809Y-67864095D01*
X56714285Y-68578380D01*
X56952380Y-67578380D01*
X57285714Y-67673619D02*
X57333333Y-67626000D01*
X57428571Y-67578380D01*
X57666666Y-67578380D01*
X57761904Y-67626000D01*
X57809523Y-67673619D01*
X57857142Y-67768857D01*
X57857142Y-67864095D01*
X57809523Y-68006952D01*
X57238095Y-68578380D01*
X57857142Y-68578380D01*
X58809523Y-68578380D02*
X58238095Y-68578380D01*
X58523809Y-68578380D02*
X58523809Y-67578380D01*
X58428571Y-67721238D01*
X58333333Y-67816476D01*
X58238095Y-67864095D01*
%TO.C,SW10*%
X26690476Y-49530761D02*
X26833333Y-49578380D01*
X27071428Y-49578380D01*
X27166666Y-49530761D01*
X27214285Y-49483142D01*
X27261904Y-49387904D01*
X27261904Y-49292666D01*
X27214285Y-49197428D01*
X27166666Y-49149809D01*
X27071428Y-49102190D01*
X26880952Y-49054571D01*
X26785714Y-49006952D01*
X26738095Y-48959333D01*
X26690476Y-48864095D01*
X26690476Y-48768857D01*
X26738095Y-48673619D01*
X26785714Y-48626000D01*
X26880952Y-48578380D01*
X27119047Y-48578380D01*
X27261904Y-48626000D01*
X27595238Y-48578380D02*
X27833333Y-49578380D01*
X28023809Y-48864095D01*
X28214285Y-49578380D01*
X28452380Y-48578380D01*
X29357142Y-49578380D02*
X28785714Y-49578380D01*
X29071428Y-49578380D02*
X29071428Y-48578380D01*
X28976190Y-48721238D01*
X28880952Y-48816476D01*
X28785714Y-48864095D01*
X29976190Y-48578380D02*
X30071428Y-48578380D01*
X30166666Y-48626000D01*
X30214285Y-48673619D01*
X30261904Y-48768857D01*
X30309523Y-48959333D01*
X30309523Y-49197428D01*
X30261904Y-49387904D01*
X30214285Y-49483142D01*
X30166666Y-49530761D01*
X30071428Y-49578380D01*
X29976190Y-49578380D01*
X29880952Y-49530761D01*
X29833333Y-49483142D01*
X29785714Y-49387904D01*
X29738095Y-49197428D01*
X29738095Y-48959333D01*
X29785714Y-48768857D01*
X29833333Y-48673619D01*
X29880952Y-48626000D01*
X29976190Y-48578380D01*
%TO.C,SW51*%
X74190476Y-125530761D02*
X74333333Y-125578380D01*
X74571428Y-125578380D01*
X74666666Y-125530761D01*
X74714285Y-125483142D01*
X74761904Y-125387904D01*
X74761904Y-125292666D01*
X74714285Y-125197428D01*
X74666666Y-125149809D01*
X74571428Y-125102190D01*
X74380952Y-125054571D01*
X74285714Y-125006952D01*
X74238095Y-124959333D01*
X74190476Y-124864095D01*
X74190476Y-124768857D01*
X74238095Y-124673619D01*
X74285714Y-124626000D01*
X74380952Y-124578380D01*
X74619047Y-124578380D01*
X74761904Y-124626000D01*
X75095238Y-124578380D02*
X75333333Y-125578380D01*
X75523809Y-124864095D01*
X75714285Y-125578380D01*
X75952380Y-124578380D01*
X76809523Y-124578380D02*
X76333333Y-124578380D01*
X76285714Y-125054571D01*
X76333333Y-125006952D01*
X76428571Y-124959333D01*
X76666666Y-124959333D01*
X76761904Y-125006952D01*
X76809523Y-125054571D01*
X76857142Y-125149809D01*
X76857142Y-125387904D01*
X76809523Y-125483142D01*
X76761904Y-125530761D01*
X76666666Y-125578380D01*
X76428571Y-125578380D01*
X76333333Y-125530761D01*
X76285714Y-125483142D01*
X77809523Y-125578380D02*
X77238095Y-125578380D01*
X77523809Y-125578380D02*
X77523809Y-124578380D01*
X77428571Y-124721238D01*
X77333333Y-124816476D01*
X77238095Y-124864095D01*
%TO.C,SW50*%
X36190476Y-125530761D02*
X36333333Y-125578380D01*
X36571428Y-125578380D01*
X36666666Y-125530761D01*
X36714285Y-125483142D01*
X36761904Y-125387904D01*
X36761904Y-125292666D01*
X36714285Y-125197428D01*
X36666666Y-125149809D01*
X36571428Y-125102190D01*
X36380952Y-125054571D01*
X36285714Y-125006952D01*
X36238095Y-124959333D01*
X36190476Y-124864095D01*
X36190476Y-124768857D01*
X36238095Y-124673619D01*
X36285714Y-124626000D01*
X36380952Y-124578380D01*
X36619047Y-124578380D01*
X36761904Y-124626000D01*
X37095238Y-124578380D02*
X37333333Y-125578380D01*
X37523809Y-124864095D01*
X37714285Y-125578380D01*
X37952380Y-124578380D01*
X38809523Y-124578380D02*
X38333333Y-124578380D01*
X38285714Y-125054571D01*
X38333333Y-125006952D01*
X38428571Y-124959333D01*
X38666666Y-124959333D01*
X38761904Y-125006952D01*
X38809523Y-125054571D01*
X38857142Y-125149809D01*
X38857142Y-125387904D01*
X38809523Y-125483142D01*
X38761904Y-125530761D01*
X38666666Y-125578380D01*
X38428571Y-125578380D01*
X38333333Y-125530761D01*
X38285714Y-125483142D01*
X39476190Y-124578380D02*
X39571428Y-124578380D01*
X39666666Y-124626000D01*
X39714285Y-124673619D01*
X39761904Y-124768857D01*
X39809523Y-124959333D01*
X39809523Y-125197428D01*
X39761904Y-125387904D01*
X39714285Y-125483142D01*
X39666666Y-125530761D01*
X39571428Y-125578380D01*
X39476190Y-125578380D01*
X39380952Y-125530761D01*
X39333333Y-125483142D01*
X39285714Y-125387904D01*
X39238095Y-125197428D01*
X39238095Y-124959333D01*
X39285714Y-124768857D01*
X39333333Y-124673619D01*
X39380952Y-124626000D01*
X39476190Y-124578380D01*
%TO.C,SW20*%
X31440476Y-68530761D02*
X31583333Y-68578380D01*
X31821428Y-68578380D01*
X31916666Y-68530761D01*
X31964285Y-68483142D01*
X32011904Y-68387904D01*
X32011904Y-68292666D01*
X31964285Y-68197428D01*
X31916666Y-68149809D01*
X31821428Y-68102190D01*
X31630952Y-68054571D01*
X31535714Y-68006952D01*
X31488095Y-67959333D01*
X31440476Y-67864095D01*
X31440476Y-67768857D01*
X31488095Y-67673619D01*
X31535714Y-67626000D01*
X31630952Y-67578380D01*
X31869047Y-67578380D01*
X32011904Y-67626000D01*
X32345238Y-67578380D02*
X32583333Y-68578380D01*
X32773809Y-67864095D01*
X32964285Y-68578380D01*
X33202380Y-67578380D01*
X33535714Y-67673619D02*
X33583333Y-67626000D01*
X33678571Y-67578380D01*
X33916666Y-67578380D01*
X34011904Y-67626000D01*
X34059523Y-67673619D01*
X34107142Y-67768857D01*
X34107142Y-67864095D01*
X34059523Y-68006952D01*
X33488095Y-68578380D01*
X34107142Y-68578380D01*
X34726190Y-67578380D02*
X34821428Y-67578380D01*
X34916666Y-67626000D01*
X34964285Y-67673619D01*
X35011904Y-67768857D01*
X35059523Y-67959333D01*
X35059523Y-68197428D01*
X35011904Y-68387904D01*
X34964285Y-68483142D01*
X34916666Y-68530761D01*
X34821428Y-68578380D01*
X34726190Y-68578380D01*
X34630952Y-68530761D01*
X34583333Y-68483142D01*
X34535714Y-68387904D01*
X34488095Y-68197428D01*
X34488095Y-67959333D01*
X34535714Y-67768857D01*
X34583333Y-67673619D01*
X34630952Y-67626000D01*
X34726190Y-67578380D01*
%TO.C,SW0*%
X27166666Y-25780761D02*
X27309523Y-25828380D01*
X27547619Y-25828380D01*
X27642857Y-25780761D01*
X27690476Y-25733142D01*
X27738095Y-25637904D01*
X27738095Y-25542666D01*
X27690476Y-25447428D01*
X27642857Y-25399809D01*
X27547619Y-25352190D01*
X27357142Y-25304571D01*
X27261904Y-25256952D01*
X27214285Y-25209333D01*
X27166666Y-25114095D01*
X27166666Y-25018857D01*
X27214285Y-24923619D01*
X27261904Y-24876000D01*
X27357142Y-24828380D01*
X27595238Y-24828380D01*
X27738095Y-24876000D01*
X28071428Y-24828380D02*
X28309523Y-25828380D01*
X28500000Y-25114095D01*
X28690476Y-25828380D01*
X28928571Y-24828380D01*
X29500000Y-24828380D02*
X29595238Y-24828380D01*
X29690476Y-24876000D01*
X29738095Y-24923619D01*
X29785714Y-25018857D01*
X29833333Y-25209333D01*
X29833333Y-25447428D01*
X29785714Y-25637904D01*
X29738095Y-25733142D01*
X29690476Y-25780761D01*
X29595238Y-25828380D01*
X29500000Y-25828380D01*
X29404761Y-25780761D01*
X29357142Y-25733142D01*
X29309523Y-25637904D01*
X29261904Y-25447428D01*
X29261904Y-25209333D01*
X29309523Y-25018857D01*
X29357142Y-24923619D01*
X29404761Y-24876000D01*
X29500000Y-24828380D01*
%TD*%
M02*
