M48
; DRILL file {KiCad (5.1.12)-1} date 05/13/22 18:30:46
; FORMAT={-:-/ absolute / metric / decimal}
; #@! TF.CreationDate,2022-05-13T18:30:46+02:00
; #@! TF.GenerationSoftware,Kicad,Pcbnew,(5.1.12)-1
; #@! TF.FileFunction,Plated,1,2,PTH
FMAT,2
METRIC
T1C0.400
T2C0.900
T3C1.000
T4C1.500
%
G90
G05
T1
X143.51Y-26.67
X152.4Y-12.7
X157.48Y-121.92
X161.29Y-27.94
X208.28Y-12.7
X217.17Y-25.4
X217.17Y-27.94
X245.11Y-24.13
T2
X28.5Y-14.25
X38.0Y-95.0
X47.5Y-33.25
X57.0Y-133.0
X137.75Y-33.25
X223.25Y-33.25
X285.0Y-133.0
X304.0Y-76.0
X308.75Y-33.25
X342.0Y-14.25
X342.0Y-114.0
T3
X158.75Y-12.7
X158.75Y-15.24
X161.29Y-12.7
X161.29Y-15.24
X163.83Y-12.7
X163.83Y-15.24
X166.37Y-12.7
X166.37Y-15.24
X168.91Y-12.7
X168.91Y-15.24
X171.45Y-12.7
X171.45Y-15.24
X173.99Y-12.7
X173.99Y-15.24
X176.53Y-12.7
X176.53Y-15.24
X179.07Y-12.7
X179.07Y-15.24
X181.61Y-12.7
X181.61Y-15.24
X184.15Y-12.7
X184.15Y-15.24
X186.69Y-12.7
X186.69Y-15.24
X189.23Y-12.7
X189.23Y-15.24
X191.77Y-12.7
X191.77Y-15.24
X194.31Y-12.7
X194.31Y-15.24
X196.85Y-12.7
X196.85Y-15.24
X199.39Y-12.7
X199.39Y-15.24
T4
X24.69Y-30.71
X24.69Y-54.46
X29.44Y-73.46
X31.04Y-28.17
X31.04Y-51.92
X34.19Y-130.46
X35.79Y-70.92
X38.94Y-111.46
X40.54Y-127.92
X43.69Y-54.46
X45.29Y-108.92
X50.04Y-51.92
X53.19Y-73.46
X57.94Y-92.46
X59.54Y-70.92
X62.69Y-30.71
X62.69Y-54.46
X64.29Y-89.92
X67.44Y-111.46
X69.04Y-28.17
X69.04Y-51.92
X72.19Y-73.46
X72.19Y-130.46
X73.79Y-108.92
X76.94Y-92.46
X78.54Y-70.92
X78.54Y-127.92
X81.69Y-30.71
X81.69Y-54.46
X83.29Y-89.92
X86.44Y-111.46
X88.04Y-28.17
X88.04Y-51.92
X91.19Y-73.46
X92.79Y-108.92
X95.94Y-92.46
X97.54Y-70.92
X100.69Y-30.71
X100.69Y-54.46
X102.29Y-89.92
X105.44Y-111.46
X107.04Y-28.17
X107.04Y-51.92
X110.19Y-73.46
X111.79Y-108.92
X114.94Y-92.46
X116.54Y-70.92
X119.69Y-30.71
X119.69Y-54.46
X121.29Y-89.92
X124.44Y-111.46
X126.04Y-28.17
X126.04Y-51.92
X129.19Y-73.46
X130.79Y-108.92
X133.94Y-92.46
X135.54Y-70.92
X138.69Y-54.46
X140.29Y-89.92
X143.44Y-111.46
X145.04Y-51.92
X148.19Y-30.71
X148.19Y-73.46
X148.19Y-130.46
X149.79Y-108.92
X152.94Y-92.46
X154.54Y-28.17
X154.54Y-70.92
X154.54Y-127.92
X157.69Y-54.46
X159.29Y-89.92
X162.44Y-111.46
X164.04Y-51.92
X167.19Y-30.71
X167.19Y-73.46
X168.79Y-108.92
X171.94Y-92.46
X173.54Y-28.17
X173.54Y-70.92
X176.69Y-54.46
X178.29Y-89.92
X181.44Y-111.46
X183.04Y-51.92
X186.19Y-30.71
X186.19Y-73.46
X187.79Y-108.92
X190.94Y-92.46
X192.54Y-28.17
X192.54Y-70.92
X195.69Y-54.46
X197.29Y-89.92
X200.44Y-111.46
X202.04Y-51.92
X205.19Y-30.71
X205.19Y-73.46
X206.79Y-108.92
X209.94Y-92.46
X211.54Y-28.17
X211.54Y-70.92
X214.69Y-54.46
X216.29Y-89.92
X219.44Y-111.46
X221.04Y-51.92
X224.19Y-73.46
X225.79Y-108.92
X228.94Y-92.46
X230.54Y-70.92
X233.69Y-30.71
X233.69Y-54.46
X235.29Y-89.92
X238.44Y-111.46
X240.04Y-28.17
X240.04Y-51.92
X243.19Y-73.46
X244.79Y-108.92
X247.94Y-92.46
X249.54Y-70.92
X252.69Y-30.71
X252.69Y-54.46
X254.29Y-89.92
X259.04Y-28.17
X259.04Y-51.92
X262.19Y-73.46
X268.54Y-70.92
X271.69Y-30.71
X271.69Y-111.46
X276.44Y-92.46
X278.04Y-28.17
X278.04Y-108.92
X281.19Y-54.46
X281.19Y-73.46
X282.79Y-89.92
X287.54Y-51.92
X287.54Y-70.92
X290.69Y-30.71
X297.04Y-28.17
X300.19Y-130.46
X306.54Y-127.92
X319.19Y-30.71
X319.19Y-54.46
X319.19Y-73.46
X319.19Y-111.46
X319.19Y-130.46
X325.54Y-28.17
X325.54Y-51.92
X325.54Y-70.92
X325.54Y-108.92
X325.54Y-127.92
X338.19Y-54.46
X338.19Y-73.46
X338.19Y-130.46
X344.54Y-51.92
X344.54Y-70.92
X344.54Y-127.92
T0
M30
