M48
; DRILL file {KiCad (5.1.12)-1} date 05/13/22 18:30:46
; FORMAT={-:-/ absolute / metric / decimal}
; #@! TF.CreationDate,2022-05-13T18:30:46+02:00
; #@! TF.GenerationSoftware,Kicad,Pcbnew,(5.1.12)-1
; #@! TF.FileFunction,NonPlated,1,2,NPTH
FMAT,2
METRIC
T1C1.700
T2C3.050
T3C4.000
%
G90
G05
T1
X146.92Y-133.0
X157.08Y-133.0
T2
X102.0Y-126.0
X202.0Y-126.0
T3
X28.5Y-33.25
X28.5Y-57.0
X33.25Y-76.0
X38.0Y-133.0
X42.75Y-114.0
X47.5Y-57.0
X57.0Y-76.0
X61.75Y-95.0
X66.5Y-33.25
X66.5Y-57.0
X71.25Y-114.0
X76.0Y-76.0
X76.0Y-133.0
X80.75Y-95.0
X85.5Y-33.25
X85.5Y-57.0
X90.25Y-114.0
X95.0Y-76.0
X99.75Y-95.0
X102.0Y-141.24
X104.5Y-33.25
X104.5Y-57.0
X109.25Y-114.0
X114.0Y-76.0
X118.75Y-95.0
X123.5Y-33.25
X123.5Y-57.0
X128.25Y-114.0
X133.0Y-76.0
X137.75Y-95.0
X142.5Y-57.0
X147.25Y-114.0
X152.0Y-33.25
X152.0Y-76.0
X152.0Y-133.0
X156.75Y-95.0
X161.5Y-57.0
X166.25Y-114.0
X171.0Y-33.25
X171.0Y-76.0
X175.75Y-95.0
X180.5Y-57.0
X185.25Y-114.0
X190.0Y-33.25
X190.0Y-76.0
X194.75Y-95.0
X199.5Y-57.0
X202.0Y-141.24
X204.25Y-114.0
X209.0Y-33.25
X209.0Y-76.0
X213.75Y-95.0
X218.5Y-57.0
X223.25Y-114.0
X228.0Y-76.0
X232.75Y-95.0
X237.5Y-33.25
X237.5Y-57.0
X242.25Y-114.0
X247.0Y-76.0
X251.75Y-95.0
X256.5Y-33.25
X256.5Y-57.0
X266.0Y-76.0
X275.5Y-33.25
X275.5Y-114.0
X280.25Y-95.0
X285.0Y-57.0
X285.0Y-76.0
X294.5Y-33.25
X304.0Y-133.0
X323.0Y-33.25
X323.0Y-57.0
X323.0Y-76.0
X323.0Y-114.0
X323.0Y-133.0
X342.0Y-57.0
X342.0Y-76.0
X342.0Y-133.0
T0
M30
