%FSLAX45Y45*%
G04 Gerber Fmt 4.5, Leading zero omitted, Abs format (unit mm)*
G04 Created by KiCad (PCBNEW (5.1.12)-1) date 2022-05-13 18:30:53*
%MOMM*%
%LPD*%
G01*
G04 APERTURE LIST*
%TA.AperFunction,Profile*%
%ADD10C,0.100000*%
%TD*%
%ADD11C,0.200000*%
%ADD12C,0.300000*%
G04 APERTURE END LIST*
D10*
X35433000Y-635000D02*
X35433000Y-14478000D01*
X1651000Y-635000D02*
X35433000Y-635000D01*
X1651000Y-14478000D02*
X1651000Y-635000D01*
X35433000Y-14478000D02*
X1651000Y-14478000D01*
D11*
X14607000Y-13215000D02*
X14777000Y-13385000D01*
X14777000Y-13215000D02*
X14607000Y-13385000D01*
X15623000Y-13215000D02*
X15793000Y-13385000D01*
X15793000Y-13215000D02*
X15623000Y-13385000D01*
X10352500Y-12600000D02*
G75*
G03*
X10352500Y-12600000I-152500J0D01*
G01*
X20352500Y-12600000D02*
G75*
G03*
X20352500Y-12600000I-152500J0D01*
G01*
X2850000Y-3125000D02*
X2850000Y-3525000D01*
X2650000Y-3325000D02*
X3050000Y-3325000D01*
X2850000Y-5500000D02*
X2850000Y-5900000D01*
X2650000Y-5700000D02*
X3050000Y-5700000D01*
X3325000Y-7400000D02*
X3325000Y-7800000D01*
X3125000Y-7600000D02*
X3525000Y-7600000D01*
X3800000Y-13100000D02*
X3800000Y-13500000D01*
X3600000Y-13300000D02*
X4000000Y-13300000D01*
X4275000Y-11200000D02*
X4275000Y-11600000D01*
X4075000Y-11400000D02*
X4475000Y-11400000D01*
X4750000Y-5500000D02*
X4750000Y-5900000D01*
X4550000Y-5700000D02*
X4950000Y-5700000D01*
X5700000Y-7400000D02*
X5700000Y-7800000D01*
X5500000Y-7600000D02*
X5900000Y-7600000D01*
X6175000Y-9300000D02*
X6175000Y-9700000D01*
X5975000Y-9500000D02*
X6375000Y-9500000D01*
X6650000Y-3125000D02*
X6650000Y-3525000D01*
X6450000Y-3325000D02*
X6850000Y-3325000D01*
X6650000Y-5500000D02*
X6650000Y-5900000D01*
X6450000Y-5700000D02*
X6850000Y-5700000D01*
X7125000Y-11200000D02*
X7125000Y-11600000D01*
X6925000Y-11400000D02*
X7325000Y-11400000D01*
X7600000Y-7400000D02*
X7600000Y-7800000D01*
X7400000Y-7600000D02*
X7800000Y-7600000D01*
X7600000Y-13100000D02*
X7600000Y-13500000D01*
X7400000Y-13300000D02*
X7800000Y-13300000D01*
X8075000Y-9300000D02*
X8075000Y-9700000D01*
X7875000Y-9500000D02*
X8275000Y-9500000D01*
X8550000Y-3125000D02*
X8550000Y-3525000D01*
X8350000Y-3325000D02*
X8750000Y-3325000D01*
X8550000Y-5500000D02*
X8550000Y-5900000D01*
X8350000Y-5700000D02*
X8750000Y-5700000D01*
X9025000Y-11200000D02*
X9025000Y-11600000D01*
X8825000Y-11400000D02*
X9225000Y-11400000D01*
X9500000Y-7400000D02*
X9500000Y-7800000D01*
X9300000Y-7600000D02*
X9700000Y-7600000D01*
X9975000Y-9300000D02*
X9975000Y-9700000D01*
X9775000Y-9500000D02*
X10175000Y-9500000D01*
X10200000Y-13924000D02*
X10200000Y-14324000D01*
X10000000Y-14124000D02*
X10400000Y-14124000D01*
X10450000Y-3125000D02*
X10450000Y-3525000D01*
X10250000Y-3325000D02*
X10650000Y-3325000D01*
X10450000Y-5500000D02*
X10450000Y-5900000D01*
X10250000Y-5700000D02*
X10650000Y-5700000D01*
X10925000Y-11200000D02*
X10925000Y-11600000D01*
X10725000Y-11400000D02*
X11125000Y-11400000D01*
X11400000Y-7400000D02*
X11400000Y-7800000D01*
X11200000Y-7600000D02*
X11600000Y-7600000D01*
X11875000Y-9300000D02*
X11875000Y-9700000D01*
X11675000Y-9500000D02*
X12075000Y-9500000D01*
X12350000Y-3125000D02*
X12350000Y-3525000D01*
X12150000Y-3325000D02*
X12550000Y-3325000D01*
X12350000Y-5500000D02*
X12350000Y-5900000D01*
X12150000Y-5700000D02*
X12550000Y-5700000D01*
X12825000Y-11200000D02*
X12825000Y-11600000D01*
X12625000Y-11400000D02*
X13025000Y-11400000D01*
X13300000Y-7400000D02*
X13300000Y-7800000D01*
X13100000Y-7600000D02*
X13500000Y-7600000D01*
X13775000Y-9300000D02*
X13775000Y-9700000D01*
X13575000Y-9500000D02*
X13975000Y-9500000D01*
X14250000Y-5500000D02*
X14250000Y-5900000D01*
X14050000Y-5700000D02*
X14450000Y-5700000D01*
X14725000Y-11200000D02*
X14725000Y-11600000D01*
X14525000Y-11400000D02*
X14925000Y-11400000D01*
X15200000Y-3125000D02*
X15200000Y-3525000D01*
X15000000Y-3325000D02*
X15400000Y-3325000D01*
X15200000Y-7400000D02*
X15200000Y-7800000D01*
X15000000Y-7600000D02*
X15400000Y-7600000D01*
X15200000Y-13100000D02*
X15200000Y-13500000D01*
X15000000Y-13300000D02*
X15400000Y-13300000D01*
X15675000Y-9300000D02*
X15675000Y-9700000D01*
X15475000Y-9500000D02*
X15875000Y-9500000D01*
X16150000Y-5500000D02*
X16150000Y-5900000D01*
X15950000Y-5700000D02*
X16350000Y-5700000D01*
X16625000Y-11200000D02*
X16625000Y-11600000D01*
X16425000Y-11400000D02*
X16825000Y-11400000D01*
X17100000Y-3125000D02*
X17100000Y-3525000D01*
X16900000Y-3325000D02*
X17300000Y-3325000D01*
X17100000Y-7400000D02*
X17100000Y-7800000D01*
X16900000Y-7600000D02*
X17300000Y-7600000D01*
X17575000Y-9300000D02*
X17575000Y-9700000D01*
X17375000Y-9500000D02*
X17775000Y-9500000D01*
X18050000Y-5500000D02*
X18050000Y-5900000D01*
X17850000Y-5700000D02*
X18250000Y-5700000D01*
X18525000Y-11200000D02*
X18525000Y-11600000D01*
X18325000Y-11400000D02*
X18725000Y-11400000D01*
X19000000Y-3125000D02*
X19000000Y-3525000D01*
X18800000Y-3325000D02*
X19200000Y-3325000D01*
X19000000Y-7400000D02*
X19000000Y-7800000D01*
X18800000Y-7600000D02*
X19200000Y-7600000D01*
X19475000Y-9300000D02*
X19475000Y-9700000D01*
X19275000Y-9500000D02*
X19675000Y-9500000D01*
X19950000Y-5500000D02*
X19950000Y-5900000D01*
X19750000Y-5700000D02*
X20150000Y-5700000D01*
X20200000Y-13924000D02*
X20200000Y-14324000D01*
X20000000Y-14124000D02*
X20400000Y-14124000D01*
X20425000Y-11200000D02*
X20425000Y-11600000D01*
X20225000Y-11400000D02*
X20625000Y-11400000D01*
X20900000Y-3125000D02*
X20900000Y-3525000D01*
X20700000Y-3325000D02*
X21100000Y-3325000D01*
X20900000Y-7400000D02*
X20900000Y-7800000D01*
X20700000Y-7600000D02*
X21100000Y-7600000D01*
X21375000Y-9300000D02*
X21375000Y-9700000D01*
X21175000Y-9500000D02*
X21575000Y-9500000D01*
X21850000Y-5500000D02*
X21850000Y-5900000D01*
X21650000Y-5700000D02*
X22050000Y-5700000D01*
X22325000Y-11200000D02*
X22325000Y-11600000D01*
X22125000Y-11400000D02*
X22525000Y-11400000D01*
X22800000Y-7400000D02*
X22800000Y-7800000D01*
X22600000Y-7600000D02*
X23000000Y-7600000D01*
X23275000Y-9300000D02*
X23275000Y-9700000D01*
X23075000Y-9500000D02*
X23475000Y-9500000D01*
X23750000Y-3125000D02*
X23750000Y-3525000D01*
X23550000Y-3325000D02*
X23950000Y-3325000D01*
X23750000Y-5500000D02*
X23750000Y-5900000D01*
X23550000Y-5700000D02*
X23950000Y-5700000D01*
X24225000Y-11200000D02*
X24225000Y-11600000D01*
X24025000Y-11400000D02*
X24425000Y-11400000D01*
X24700000Y-7400000D02*
X24700000Y-7800000D01*
X24500000Y-7600000D02*
X24900000Y-7600000D01*
X25175000Y-9300000D02*
X25175000Y-9700000D01*
X24975000Y-9500000D02*
X25375000Y-9500000D01*
X25650000Y-3125000D02*
X25650000Y-3525000D01*
X25450000Y-3325000D02*
X25850000Y-3325000D01*
X25650000Y-5500000D02*
X25650000Y-5900000D01*
X25450000Y-5700000D02*
X25850000Y-5700000D01*
X26600000Y-7400000D02*
X26600000Y-7800000D01*
X26400000Y-7600000D02*
X26800000Y-7600000D01*
X27550000Y-3125000D02*
X27550000Y-3525000D01*
X27350000Y-3325000D02*
X27750000Y-3325000D01*
X27550000Y-11200000D02*
X27550000Y-11600000D01*
X27350000Y-11400000D02*
X27750000Y-11400000D01*
X28025000Y-9300000D02*
X28025000Y-9700000D01*
X27825000Y-9500000D02*
X28225000Y-9500000D01*
X28500000Y-5500000D02*
X28500000Y-5900000D01*
X28300000Y-5700000D02*
X28700000Y-5700000D01*
X28500000Y-7400000D02*
X28500000Y-7800000D01*
X28300000Y-7600000D02*
X28700000Y-7600000D01*
X29450000Y-3125000D02*
X29450000Y-3525000D01*
X29250000Y-3325000D02*
X29650000Y-3325000D01*
X30400000Y-13100000D02*
X30400000Y-13500000D01*
X30200000Y-13300000D02*
X30600000Y-13300000D01*
X32300000Y-3125000D02*
X32300000Y-3525000D01*
X32100000Y-3325000D02*
X32500000Y-3325000D01*
X32300000Y-5500000D02*
X32300000Y-5900000D01*
X32100000Y-5700000D02*
X32500000Y-5700000D01*
X32300000Y-7400000D02*
X32300000Y-7800000D01*
X32100000Y-7600000D02*
X32500000Y-7600000D01*
X32300000Y-11200000D02*
X32300000Y-11600000D01*
X32100000Y-11400000D02*
X32500000Y-11400000D01*
X32300000Y-13100000D02*
X32300000Y-13500000D01*
X32100000Y-13300000D02*
X32500000Y-13300000D01*
X34200000Y-5500000D02*
X34200000Y-5900000D01*
X34000000Y-5700000D02*
X34400000Y-5700000D01*
X34200000Y-7400000D02*
X34200000Y-7800000D01*
X34000000Y-7600000D02*
X34400000Y-7600000D01*
X34200000Y-13100000D02*
X34200000Y-13500000D01*
X34000000Y-13300000D02*
X34400000Y-13300000D01*
D12*
X1932428Y-14948714D02*
X1932428Y-14648714D01*
X2003857Y-14648714D01*
X2046714Y-14663000D01*
X2075286Y-14691571D01*
X2089571Y-14720143D01*
X2103857Y-14777286D01*
X2103857Y-14820143D01*
X2089571Y-14877286D01*
X2075286Y-14905857D01*
X2046714Y-14934429D01*
X2003857Y-14948714D01*
X1932428Y-14948714D01*
X2232428Y-14948714D02*
X2232428Y-14748714D01*
X2232428Y-14805857D02*
X2246714Y-14777286D01*
X2261000Y-14763000D01*
X2289571Y-14748714D01*
X2318143Y-14748714D01*
X2418143Y-14948714D02*
X2418143Y-14748714D01*
X2418143Y-14648714D02*
X2403857Y-14663000D01*
X2418143Y-14677286D01*
X2432428Y-14663000D01*
X2418143Y-14648714D01*
X2418143Y-14677286D01*
X2603857Y-14948714D02*
X2575286Y-14934429D01*
X2561000Y-14905857D01*
X2561000Y-14648714D01*
X2761000Y-14948714D02*
X2732428Y-14934429D01*
X2718143Y-14905857D01*
X2718143Y-14648714D01*
X3103857Y-14948714D02*
X3103857Y-14648714D01*
X3203857Y-14863000D01*
X3303857Y-14648714D01*
X3303857Y-14948714D01*
X3575286Y-14948714D02*
X3575286Y-14791571D01*
X3561000Y-14763000D01*
X3532428Y-14748714D01*
X3475286Y-14748714D01*
X3446714Y-14763000D01*
X3575286Y-14934429D02*
X3546714Y-14948714D01*
X3475286Y-14948714D01*
X3446714Y-14934429D01*
X3432428Y-14905857D01*
X3432428Y-14877286D01*
X3446714Y-14848714D01*
X3475286Y-14834429D01*
X3546714Y-14834429D01*
X3575286Y-14820143D01*
X3718143Y-14748714D02*
X3718143Y-15048714D01*
X3718143Y-14763000D02*
X3746714Y-14748714D01*
X3803857Y-14748714D01*
X3832428Y-14763000D01*
X3846714Y-14777286D01*
X3861000Y-14805857D01*
X3861000Y-14891571D01*
X3846714Y-14920143D01*
X3832428Y-14934429D01*
X3803857Y-14948714D01*
X3746714Y-14948714D01*
X3718143Y-14934429D01*
X3989571Y-14920143D02*
X4003857Y-14934429D01*
X3989571Y-14948714D01*
X3975286Y-14934429D01*
X3989571Y-14920143D01*
X3989571Y-14948714D01*
X3989571Y-14763000D02*
X4003857Y-14777286D01*
X3989571Y-14791571D01*
X3975286Y-14777286D01*
X3989571Y-14763000D01*
X3989571Y-14791571D01*
X1476000Y-15358000D02*
X1646000Y-15528000D01*
X1646000Y-15358000D02*
X1476000Y-15528000D01*
X2089571Y-15578714D02*
X1918143Y-15578714D01*
X2003857Y-15578714D02*
X2003857Y-15278714D01*
X1975286Y-15321571D01*
X1946714Y-15350143D01*
X1918143Y-15364429D01*
X2218143Y-15550143D02*
X2232428Y-15564429D01*
X2218143Y-15578714D01*
X2203857Y-15564429D01*
X2218143Y-15550143D01*
X2218143Y-15578714D01*
X2332428Y-15278714D02*
X2532428Y-15278714D01*
X2403857Y-15578714D01*
X2703857Y-15278714D02*
X2732428Y-15278714D01*
X2761000Y-15293000D01*
X2775286Y-15307286D01*
X2789571Y-15335857D01*
X2803857Y-15393000D01*
X2803857Y-15464429D01*
X2789571Y-15521571D01*
X2775286Y-15550143D01*
X2761000Y-15564429D01*
X2732428Y-15578714D01*
X2703857Y-15578714D01*
X2675286Y-15564429D01*
X2661000Y-15550143D01*
X2646714Y-15521571D01*
X2632428Y-15464429D01*
X2632428Y-15393000D01*
X2646714Y-15335857D01*
X2661000Y-15307286D01*
X2675286Y-15293000D01*
X2703857Y-15278714D01*
X2989571Y-15278714D02*
X3018143Y-15278714D01*
X3046714Y-15293000D01*
X3061000Y-15307286D01*
X3075286Y-15335857D01*
X3089571Y-15393000D01*
X3089571Y-15464429D01*
X3075286Y-15521571D01*
X3061000Y-15550143D01*
X3046714Y-15564429D01*
X3018143Y-15578714D01*
X2989571Y-15578714D01*
X2961000Y-15564429D01*
X2946714Y-15550143D01*
X2932428Y-15521571D01*
X2918143Y-15464429D01*
X2918143Y-15393000D01*
X2932428Y-15335857D01*
X2946714Y-15307286D01*
X2961000Y-15293000D01*
X2989571Y-15278714D01*
X3218143Y-15578714D02*
X3218143Y-15378714D01*
X3218143Y-15407286D02*
X3232428Y-15393000D01*
X3261000Y-15378714D01*
X3303857Y-15378714D01*
X3332428Y-15393000D01*
X3346714Y-15421571D01*
X3346714Y-15578714D01*
X3346714Y-15421571D02*
X3361000Y-15393000D01*
X3389571Y-15378714D01*
X3432428Y-15378714D01*
X3461000Y-15393000D01*
X3475286Y-15421571D01*
X3475286Y-15578714D01*
X3618143Y-15578714D02*
X3618143Y-15378714D01*
X3618143Y-15407286D02*
X3632428Y-15393000D01*
X3661000Y-15378714D01*
X3703857Y-15378714D01*
X3732428Y-15393000D01*
X3746714Y-15421571D01*
X3746714Y-15578714D01*
X3746714Y-15421571D02*
X3761000Y-15393000D01*
X3789571Y-15378714D01*
X3832428Y-15378714D01*
X3861000Y-15393000D01*
X3875286Y-15421571D01*
X3875286Y-15578714D01*
X4461000Y-15264429D02*
X4203857Y-15650143D01*
X4846714Y-15278714D02*
X4875286Y-15278714D01*
X4903857Y-15293000D01*
X4918143Y-15307286D01*
X4932428Y-15335857D01*
X4946714Y-15393000D01*
X4946714Y-15464429D01*
X4932428Y-15521571D01*
X4918143Y-15550143D01*
X4903857Y-15564429D01*
X4875286Y-15578714D01*
X4846714Y-15578714D01*
X4818143Y-15564429D01*
X4803857Y-15550143D01*
X4789571Y-15521571D01*
X4775286Y-15464429D01*
X4775286Y-15393000D01*
X4789571Y-15335857D01*
X4803857Y-15307286D01*
X4818143Y-15293000D01*
X4846714Y-15278714D01*
X5075286Y-15550143D02*
X5089571Y-15564429D01*
X5075286Y-15578714D01*
X5061000Y-15564429D01*
X5075286Y-15550143D01*
X5075286Y-15578714D01*
X5275286Y-15278714D02*
X5303857Y-15278714D01*
X5332428Y-15293000D01*
X5346714Y-15307286D01*
X5361000Y-15335857D01*
X5375286Y-15393000D01*
X5375286Y-15464429D01*
X5361000Y-15521571D01*
X5346714Y-15550143D01*
X5332428Y-15564429D01*
X5303857Y-15578714D01*
X5275286Y-15578714D01*
X5246714Y-15564429D01*
X5232428Y-15550143D01*
X5218143Y-15521571D01*
X5203857Y-15464429D01*
X5203857Y-15393000D01*
X5218143Y-15335857D01*
X5232428Y-15307286D01*
X5246714Y-15293000D01*
X5275286Y-15278714D01*
X5632428Y-15278714D02*
X5575286Y-15278714D01*
X5546714Y-15293000D01*
X5532428Y-15307286D01*
X5503857Y-15350143D01*
X5489571Y-15407286D01*
X5489571Y-15521571D01*
X5503857Y-15550143D01*
X5518143Y-15564429D01*
X5546714Y-15578714D01*
X5603857Y-15578714D01*
X5632428Y-15564429D01*
X5646714Y-15550143D01*
X5661000Y-15521571D01*
X5661000Y-15450143D01*
X5646714Y-15421571D01*
X5632428Y-15407286D01*
X5603857Y-15393000D01*
X5546714Y-15393000D01*
X5518143Y-15407286D01*
X5503857Y-15421571D01*
X5489571Y-15450143D01*
X5918143Y-15278714D02*
X5861000Y-15278714D01*
X5832428Y-15293000D01*
X5818143Y-15307286D01*
X5789571Y-15350143D01*
X5775286Y-15407286D01*
X5775286Y-15521571D01*
X5789571Y-15550143D01*
X5803857Y-15564429D01*
X5832428Y-15578714D01*
X5889571Y-15578714D01*
X5918143Y-15564429D01*
X5932428Y-15550143D01*
X5946714Y-15521571D01*
X5946714Y-15450143D01*
X5932428Y-15421571D01*
X5918143Y-15407286D01*
X5889571Y-15393000D01*
X5832428Y-15393000D01*
X5803857Y-15407286D01*
X5789571Y-15421571D01*
X5775286Y-15450143D01*
X6089571Y-15578714D02*
X6146714Y-15578714D01*
X6175286Y-15564429D01*
X6189571Y-15550143D01*
X6218143Y-15507286D01*
X6232428Y-15450143D01*
X6232428Y-15335857D01*
X6218143Y-15307286D01*
X6203857Y-15293000D01*
X6175286Y-15278714D01*
X6118143Y-15278714D01*
X6089571Y-15293000D01*
X6075286Y-15307286D01*
X6061000Y-15335857D01*
X6061000Y-15407286D01*
X6075286Y-15435857D01*
X6089571Y-15450143D01*
X6118143Y-15464429D01*
X6175286Y-15464429D01*
X6203857Y-15450143D01*
X6218143Y-15435857D01*
X6232428Y-15407286D01*
X6346714Y-15278714D02*
X6346714Y-15335857D01*
X6461000Y-15278714D02*
X6461000Y-15335857D01*
X6903857Y-15693000D02*
X6889571Y-15678714D01*
X6861000Y-15635857D01*
X6846714Y-15607286D01*
X6832428Y-15564429D01*
X6818143Y-15493000D01*
X6818143Y-15435857D01*
X6832428Y-15364429D01*
X6846714Y-15321571D01*
X6861000Y-15293000D01*
X6889571Y-15250143D01*
X6903857Y-15235857D01*
X7003857Y-15307286D02*
X7018143Y-15293000D01*
X7046714Y-15278714D01*
X7118143Y-15278714D01*
X7146714Y-15293000D01*
X7161000Y-15307286D01*
X7175286Y-15335857D01*
X7175286Y-15364429D01*
X7161000Y-15407286D01*
X6989571Y-15578714D01*
X7175286Y-15578714D01*
X7532428Y-15578714D02*
X7532428Y-15278714D01*
X7661000Y-15578714D02*
X7661000Y-15421571D01*
X7646714Y-15393000D01*
X7618143Y-15378714D01*
X7575286Y-15378714D01*
X7546714Y-15393000D01*
X7532428Y-15407286D01*
X7846714Y-15578714D02*
X7818143Y-15564429D01*
X7803857Y-15550143D01*
X7789571Y-15521571D01*
X7789571Y-15435857D01*
X7803857Y-15407286D01*
X7818143Y-15393000D01*
X7846714Y-15378714D01*
X7889571Y-15378714D01*
X7918143Y-15393000D01*
X7932428Y-15407286D01*
X7946714Y-15435857D01*
X7946714Y-15521571D01*
X7932428Y-15550143D01*
X7918143Y-15564429D01*
X7889571Y-15578714D01*
X7846714Y-15578714D01*
X8118143Y-15578714D02*
X8089571Y-15564429D01*
X8075286Y-15535857D01*
X8075286Y-15278714D01*
X8346714Y-15564429D02*
X8318143Y-15578714D01*
X8261000Y-15578714D01*
X8232428Y-15564429D01*
X8218143Y-15535857D01*
X8218143Y-15421571D01*
X8232428Y-15393000D01*
X8261000Y-15378714D01*
X8318143Y-15378714D01*
X8346714Y-15393000D01*
X8361000Y-15421571D01*
X8361000Y-15450143D01*
X8218143Y-15478714D01*
X8475286Y-15564429D02*
X8503857Y-15578714D01*
X8561000Y-15578714D01*
X8589571Y-15564429D01*
X8603857Y-15535857D01*
X8603857Y-15521571D01*
X8589571Y-15493000D01*
X8561000Y-15478714D01*
X8518143Y-15478714D01*
X8489571Y-15464429D01*
X8475286Y-15435857D01*
X8475286Y-15421571D01*
X8489571Y-15393000D01*
X8518143Y-15378714D01*
X8561000Y-15378714D01*
X8589571Y-15393000D01*
X8703857Y-15693000D02*
X8718143Y-15678714D01*
X8746714Y-15635857D01*
X8761000Y-15607286D01*
X8775286Y-15564429D01*
X8789571Y-15493000D01*
X8789571Y-15435857D01*
X8775286Y-15364429D01*
X8761000Y-15321571D01*
X8746714Y-15293000D01*
X8718143Y-15250143D01*
X8703857Y-15235857D01*
X9246714Y-15693000D02*
X9232428Y-15678714D01*
X9203857Y-15635857D01*
X9189571Y-15607286D01*
X9175286Y-15564429D01*
X9161000Y-15493000D01*
X9161000Y-15435857D01*
X9175286Y-15364429D01*
X9189571Y-15321571D01*
X9203857Y-15293000D01*
X9232428Y-15250143D01*
X9246714Y-15235857D01*
X9361000Y-15378714D02*
X9361000Y-15578714D01*
X9361000Y-15407286D02*
X9375286Y-15393000D01*
X9403857Y-15378714D01*
X9446714Y-15378714D01*
X9475286Y-15393000D01*
X9489571Y-15421571D01*
X9489571Y-15578714D01*
X9675286Y-15578714D02*
X9646714Y-15564429D01*
X9632428Y-15550143D01*
X9618143Y-15521571D01*
X9618143Y-15435857D01*
X9632428Y-15407286D01*
X9646714Y-15393000D01*
X9675286Y-15378714D01*
X9718143Y-15378714D01*
X9746714Y-15393000D01*
X9761000Y-15407286D01*
X9775286Y-15435857D01*
X9775286Y-15521571D01*
X9761000Y-15550143D01*
X9746714Y-15564429D01*
X9718143Y-15578714D01*
X9675286Y-15578714D01*
X9861000Y-15378714D02*
X9975286Y-15378714D01*
X9903857Y-15278714D02*
X9903857Y-15535857D01*
X9918143Y-15564429D01*
X9946714Y-15578714D01*
X9975286Y-15578714D01*
X10303857Y-15378714D02*
X10303857Y-15678714D01*
X10303857Y-15393000D02*
X10332428Y-15378714D01*
X10389571Y-15378714D01*
X10418143Y-15393000D01*
X10432428Y-15407286D01*
X10446714Y-15435857D01*
X10446714Y-15521571D01*
X10432428Y-15550143D01*
X10418143Y-15564429D01*
X10389571Y-15578714D01*
X10332428Y-15578714D01*
X10303857Y-15564429D01*
X10618143Y-15578714D02*
X10589571Y-15564429D01*
X10575286Y-15535857D01*
X10575286Y-15278714D01*
X10861000Y-15578714D02*
X10861000Y-15421571D01*
X10846714Y-15393000D01*
X10818143Y-15378714D01*
X10761000Y-15378714D01*
X10732428Y-15393000D01*
X10861000Y-15564429D02*
X10832428Y-15578714D01*
X10761000Y-15578714D01*
X10732428Y-15564429D01*
X10718143Y-15535857D01*
X10718143Y-15507286D01*
X10732428Y-15478714D01*
X10761000Y-15464429D01*
X10832428Y-15464429D01*
X10861000Y-15450143D01*
X10961000Y-15378714D02*
X11075286Y-15378714D01*
X11003857Y-15278714D02*
X11003857Y-15535857D01*
X11018143Y-15564429D01*
X11046714Y-15578714D01*
X11075286Y-15578714D01*
X11289571Y-15564429D02*
X11261000Y-15578714D01*
X11203857Y-15578714D01*
X11175286Y-15564429D01*
X11161000Y-15535857D01*
X11161000Y-15421571D01*
X11175286Y-15393000D01*
X11203857Y-15378714D01*
X11261000Y-15378714D01*
X11289571Y-15393000D01*
X11303857Y-15421571D01*
X11303857Y-15450143D01*
X11161000Y-15478714D01*
X11561000Y-15578714D02*
X11561000Y-15278714D01*
X11561000Y-15564429D02*
X11532428Y-15578714D01*
X11475286Y-15578714D01*
X11446714Y-15564429D01*
X11432428Y-15550143D01*
X11418143Y-15521571D01*
X11418143Y-15435857D01*
X11432428Y-15407286D01*
X11446714Y-15393000D01*
X11475286Y-15378714D01*
X11532428Y-15378714D01*
X11561000Y-15393000D01*
X11675286Y-15693000D02*
X11689571Y-15678714D01*
X11718143Y-15635857D01*
X11732428Y-15607286D01*
X11746714Y-15564429D01*
X11761000Y-15493000D01*
X11761000Y-15435857D01*
X11746714Y-15364429D01*
X11732428Y-15321571D01*
X11718143Y-15293000D01*
X11689571Y-15250143D01*
X11675286Y-15235857D01*
X1646000Y-15839000D02*
G75*
G03*
X1646000Y-15839000I-152500J0D01*
G01*
X1903857Y-15674714D02*
X2089571Y-15674714D01*
X1989571Y-15789000D01*
X2032428Y-15789000D01*
X2061000Y-15803286D01*
X2075286Y-15817571D01*
X2089571Y-15846143D01*
X2089571Y-15917571D01*
X2075286Y-15946143D01*
X2061000Y-15960429D01*
X2032428Y-15974714D01*
X1946714Y-15974714D01*
X1918143Y-15960429D01*
X1903857Y-15946143D01*
X2218143Y-15946143D02*
X2232428Y-15960429D01*
X2218143Y-15974714D01*
X2203857Y-15960429D01*
X2218143Y-15946143D01*
X2218143Y-15974714D01*
X2418143Y-15674714D02*
X2446714Y-15674714D01*
X2475286Y-15689000D01*
X2489571Y-15703286D01*
X2503857Y-15731857D01*
X2518143Y-15789000D01*
X2518143Y-15860429D01*
X2503857Y-15917571D01*
X2489571Y-15946143D01*
X2475286Y-15960429D01*
X2446714Y-15974714D01*
X2418143Y-15974714D01*
X2389571Y-15960429D01*
X2375286Y-15946143D01*
X2361000Y-15917571D01*
X2346714Y-15860429D01*
X2346714Y-15789000D01*
X2361000Y-15731857D01*
X2375286Y-15703286D01*
X2389571Y-15689000D01*
X2418143Y-15674714D01*
X2789571Y-15674714D02*
X2646714Y-15674714D01*
X2632428Y-15817571D01*
X2646714Y-15803286D01*
X2675286Y-15789000D01*
X2746714Y-15789000D01*
X2775286Y-15803286D01*
X2789571Y-15817571D01*
X2803857Y-15846143D01*
X2803857Y-15917571D01*
X2789571Y-15946143D01*
X2775286Y-15960429D01*
X2746714Y-15974714D01*
X2675286Y-15974714D01*
X2646714Y-15960429D01*
X2632428Y-15946143D01*
X2989571Y-15674714D02*
X3018143Y-15674714D01*
X3046714Y-15689000D01*
X3061000Y-15703286D01*
X3075286Y-15731857D01*
X3089571Y-15789000D01*
X3089571Y-15860429D01*
X3075286Y-15917571D01*
X3061000Y-15946143D01*
X3046714Y-15960429D01*
X3018143Y-15974714D01*
X2989571Y-15974714D01*
X2961000Y-15960429D01*
X2946714Y-15946143D01*
X2932428Y-15917571D01*
X2918143Y-15860429D01*
X2918143Y-15789000D01*
X2932428Y-15731857D01*
X2946714Y-15703286D01*
X2961000Y-15689000D01*
X2989571Y-15674714D01*
X3218143Y-15974714D02*
X3218143Y-15774714D01*
X3218143Y-15803286D02*
X3232428Y-15789000D01*
X3261000Y-15774714D01*
X3303857Y-15774714D01*
X3332428Y-15789000D01*
X3346714Y-15817571D01*
X3346714Y-15974714D01*
X3346714Y-15817571D02*
X3361000Y-15789000D01*
X3389571Y-15774714D01*
X3432428Y-15774714D01*
X3461000Y-15789000D01*
X3475286Y-15817571D01*
X3475286Y-15974714D01*
X3618143Y-15974714D02*
X3618143Y-15774714D01*
X3618143Y-15803286D02*
X3632428Y-15789000D01*
X3661000Y-15774714D01*
X3703857Y-15774714D01*
X3732428Y-15789000D01*
X3746714Y-15817571D01*
X3746714Y-15974714D01*
X3746714Y-15817571D02*
X3761000Y-15789000D01*
X3789571Y-15774714D01*
X3832428Y-15774714D01*
X3861000Y-15789000D01*
X3875286Y-15817571D01*
X3875286Y-15974714D01*
X4461000Y-15660429D02*
X4203857Y-16046143D01*
X4846714Y-15674714D02*
X4875286Y-15674714D01*
X4903857Y-15689000D01*
X4918143Y-15703286D01*
X4932428Y-15731857D01*
X4946714Y-15789000D01*
X4946714Y-15860429D01*
X4932428Y-15917571D01*
X4918143Y-15946143D01*
X4903857Y-15960429D01*
X4875286Y-15974714D01*
X4846714Y-15974714D01*
X4818143Y-15960429D01*
X4803857Y-15946143D01*
X4789571Y-15917571D01*
X4775286Y-15860429D01*
X4775286Y-15789000D01*
X4789571Y-15731857D01*
X4803857Y-15703286D01*
X4818143Y-15689000D01*
X4846714Y-15674714D01*
X5075286Y-15946143D02*
X5089571Y-15960429D01*
X5075286Y-15974714D01*
X5061000Y-15960429D01*
X5075286Y-15946143D01*
X5075286Y-15974714D01*
X5375286Y-15974714D02*
X5203857Y-15974714D01*
X5289571Y-15974714D02*
X5289571Y-15674714D01*
X5261000Y-15717571D01*
X5232428Y-15746143D01*
X5203857Y-15760429D01*
X5489571Y-15703286D02*
X5503857Y-15689000D01*
X5532428Y-15674714D01*
X5603857Y-15674714D01*
X5632428Y-15689000D01*
X5646714Y-15703286D01*
X5661000Y-15731857D01*
X5661000Y-15760429D01*
X5646714Y-15803286D01*
X5475286Y-15974714D01*
X5661000Y-15974714D01*
X5846714Y-15674714D02*
X5875286Y-15674714D01*
X5903857Y-15689000D01*
X5918143Y-15703286D01*
X5932428Y-15731857D01*
X5946714Y-15789000D01*
X5946714Y-15860429D01*
X5932428Y-15917571D01*
X5918143Y-15946143D01*
X5903857Y-15960429D01*
X5875286Y-15974714D01*
X5846714Y-15974714D01*
X5818143Y-15960429D01*
X5803857Y-15946143D01*
X5789571Y-15917571D01*
X5775286Y-15860429D01*
X5775286Y-15789000D01*
X5789571Y-15731857D01*
X5803857Y-15703286D01*
X5818143Y-15689000D01*
X5846714Y-15674714D01*
X6232428Y-15974714D02*
X6061000Y-15974714D01*
X6146714Y-15974714D02*
X6146714Y-15674714D01*
X6118143Y-15717571D01*
X6089571Y-15746143D01*
X6061000Y-15760429D01*
X6346714Y-15674714D02*
X6346714Y-15731857D01*
X6461000Y-15674714D02*
X6461000Y-15731857D01*
X6903857Y-16089000D02*
X6889571Y-16074714D01*
X6861000Y-16031857D01*
X6846714Y-16003286D01*
X6832428Y-15960429D01*
X6818143Y-15889000D01*
X6818143Y-15831857D01*
X6832428Y-15760429D01*
X6846714Y-15717571D01*
X6861000Y-15689000D01*
X6889571Y-15646143D01*
X6903857Y-15631857D01*
X7003857Y-15703286D02*
X7018143Y-15689000D01*
X7046714Y-15674714D01*
X7118143Y-15674714D01*
X7146714Y-15689000D01*
X7161000Y-15703286D01*
X7175286Y-15731857D01*
X7175286Y-15760429D01*
X7161000Y-15803286D01*
X6989571Y-15974714D01*
X7175286Y-15974714D01*
X7532428Y-15974714D02*
X7532428Y-15674714D01*
X7661000Y-15974714D02*
X7661000Y-15817571D01*
X7646714Y-15789000D01*
X7618143Y-15774714D01*
X7575286Y-15774714D01*
X7546714Y-15789000D01*
X7532428Y-15803286D01*
X7846714Y-15974714D02*
X7818143Y-15960429D01*
X7803857Y-15946143D01*
X7789571Y-15917571D01*
X7789571Y-15831857D01*
X7803857Y-15803286D01*
X7818143Y-15789000D01*
X7846714Y-15774714D01*
X7889571Y-15774714D01*
X7918143Y-15789000D01*
X7932428Y-15803286D01*
X7946714Y-15831857D01*
X7946714Y-15917571D01*
X7932428Y-15946143D01*
X7918143Y-15960429D01*
X7889571Y-15974714D01*
X7846714Y-15974714D01*
X8118143Y-15974714D02*
X8089571Y-15960429D01*
X8075286Y-15931857D01*
X8075286Y-15674714D01*
X8346714Y-15960429D02*
X8318143Y-15974714D01*
X8261000Y-15974714D01*
X8232428Y-15960429D01*
X8218143Y-15931857D01*
X8218143Y-15817571D01*
X8232428Y-15789000D01*
X8261000Y-15774714D01*
X8318143Y-15774714D01*
X8346714Y-15789000D01*
X8361000Y-15817571D01*
X8361000Y-15846143D01*
X8218143Y-15874714D01*
X8475286Y-15960429D02*
X8503857Y-15974714D01*
X8561000Y-15974714D01*
X8589571Y-15960429D01*
X8603857Y-15931857D01*
X8603857Y-15917571D01*
X8589571Y-15889000D01*
X8561000Y-15874714D01*
X8518143Y-15874714D01*
X8489571Y-15860429D01*
X8475286Y-15831857D01*
X8475286Y-15817571D01*
X8489571Y-15789000D01*
X8518143Y-15774714D01*
X8561000Y-15774714D01*
X8589571Y-15789000D01*
X8703857Y-16089000D02*
X8718143Y-16074714D01*
X8746714Y-16031857D01*
X8761000Y-16003286D01*
X8775286Y-15960429D01*
X8789571Y-15889000D01*
X8789571Y-15831857D01*
X8775286Y-15760429D01*
X8761000Y-15717571D01*
X8746714Y-15689000D01*
X8718143Y-15646143D01*
X8703857Y-15631857D01*
X9246714Y-16089000D02*
X9232428Y-16074714D01*
X9203857Y-16031857D01*
X9189571Y-16003286D01*
X9175286Y-15960429D01*
X9161000Y-15889000D01*
X9161000Y-15831857D01*
X9175286Y-15760429D01*
X9189571Y-15717571D01*
X9203857Y-15689000D01*
X9232428Y-15646143D01*
X9246714Y-15631857D01*
X9361000Y-15774714D02*
X9361000Y-15974714D01*
X9361000Y-15803286D02*
X9375286Y-15789000D01*
X9403857Y-15774714D01*
X9446714Y-15774714D01*
X9475286Y-15789000D01*
X9489571Y-15817571D01*
X9489571Y-15974714D01*
X9675286Y-15974714D02*
X9646714Y-15960429D01*
X9632428Y-15946143D01*
X9618143Y-15917571D01*
X9618143Y-15831857D01*
X9632428Y-15803286D01*
X9646714Y-15789000D01*
X9675286Y-15774714D01*
X9718143Y-15774714D01*
X9746714Y-15789000D01*
X9761000Y-15803286D01*
X9775286Y-15831857D01*
X9775286Y-15917571D01*
X9761000Y-15946143D01*
X9746714Y-15960429D01*
X9718143Y-15974714D01*
X9675286Y-15974714D01*
X9861000Y-15774714D02*
X9975286Y-15774714D01*
X9903857Y-15674714D02*
X9903857Y-15931857D01*
X9918143Y-15960429D01*
X9946714Y-15974714D01*
X9975286Y-15974714D01*
X10303857Y-15774714D02*
X10303857Y-16074714D01*
X10303857Y-15789000D02*
X10332428Y-15774714D01*
X10389571Y-15774714D01*
X10418143Y-15789000D01*
X10432428Y-15803286D01*
X10446714Y-15831857D01*
X10446714Y-15917571D01*
X10432428Y-15946143D01*
X10418143Y-15960429D01*
X10389571Y-15974714D01*
X10332428Y-15974714D01*
X10303857Y-15960429D01*
X10618143Y-15974714D02*
X10589571Y-15960429D01*
X10575286Y-15931857D01*
X10575286Y-15674714D01*
X10861000Y-15974714D02*
X10861000Y-15817571D01*
X10846714Y-15789000D01*
X10818143Y-15774714D01*
X10761000Y-15774714D01*
X10732428Y-15789000D01*
X10861000Y-15960429D02*
X10832428Y-15974714D01*
X10761000Y-15974714D01*
X10732428Y-15960429D01*
X10718143Y-15931857D01*
X10718143Y-15903286D01*
X10732428Y-15874714D01*
X10761000Y-15860429D01*
X10832428Y-15860429D01*
X10861000Y-15846143D01*
X10961000Y-15774714D02*
X11075286Y-15774714D01*
X11003857Y-15674714D02*
X11003857Y-15931857D01*
X11018143Y-15960429D01*
X11046714Y-15974714D01*
X11075286Y-15974714D01*
X11289571Y-15960429D02*
X11261000Y-15974714D01*
X11203857Y-15974714D01*
X11175286Y-15960429D01*
X11161000Y-15931857D01*
X11161000Y-15817571D01*
X11175286Y-15789000D01*
X11203857Y-15774714D01*
X11261000Y-15774714D01*
X11289571Y-15789000D01*
X11303857Y-15817571D01*
X11303857Y-15846143D01*
X11161000Y-15874714D01*
X11561000Y-15974714D02*
X11561000Y-15674714D01*
X11561000Y-15960429D02*
X11532428Y-15974714D01*
X11475286Y-15974714D01*
X11446714Y-15960429D01*
X11432428Y-15946143D01*
X11418143Y-15917571D01*
X11418143Y-15831857D01*
X11432428Y-15803286D01*
X11446714Y-15789000D01*
X11475286Y-15774714D01*
X11532428Y-15774714D01*
X11561000Y-15789000D01*
X11675286Y-16089000D02*
X11689571Y-16074714D01*
X11718143Y-16031857D01*
X11732428Y-16003286D01*
X11746714Y-15960429D01*
X11761000Y-15889000D01*
X11761000Y-15831857D01*
X11746714Y-15760429D01*
X11732428Y-15717571D01*
X11718143Y-15689000D01*
X11689571Y-15646143D01*
X11675286Y-15631857D01*
X1446000Y-16074000D02*
X1446000Y-16474000D01*
X1246000Y-16274000D02*
X1646000Y-16274000D01*
X2061000Y-16209714D02*
X2061000Y-16409714D01*
X1989571Y-16095429D02*
X1918143Y-16309714D01*
X2103857Y-16309714D01*
X2218143Y-16381143D02*
X2232428Y-16395429D01*
X2218143Y-16409714D01*
X2203857Y-16395429D01*
X2218143Y-16381143D01*
X2218143Y-16409714D01*
X2418143Y-16109714D02*
X2446714Y-16109714D01*
X2475286Y-16124000D01*
X2489571Y-16138286D01*
X2503857Y-16166857D01*
X2518143Y-16224000D01*
X2518143Y-16295429D01*
X2503857Y-16352571D01*
X2489571Y-16381143D01*
X2475286Y-16395429D01*
X2446714Y-16409714D01*
X2418143Y-16409714D01*
X2389571Y-16395429D01*
X2375286Y-16381143D01*
X2361000Y-16352571D01*
X2346714Y-16295429D01*
X2346714Y-16224000D01*
X2361000Y-16166857D01*
X2375286Y-16138286D01*
X2389571Y-16124000D01*
X2418143Y-16109714D01*
X2703857Y-16109714D02*
X2732428Y-16109714D01*
X2761000Y-16124000D01*
X2775286Y-16138286D01*
X2789571Y-16166857D01*
X2803857Y-16224000D01*
X2803857Y-16295429D01*
X2789571Y-16352571D01*
X2775286Y-16381143D01*
X2761000Y-16395429D01*
X2732428Y-16409714D01*
X2703857Y-16409714D01*
X2675286Y-16395429D01*
X2661000Y-16381143D01*
X2646714Y-16352571D01*
X2632428Y-16295429D01*
X2632428Y-16224000D01*
X2646714Y-16166857D01*
X2661000Y-16138286D01*
X2675286Y-16124000D01*
X2703857Y-16109714D01*
X2989571Y-16109714D02*
X3018143Y-16109714D01*
X3046714Y-16124000D01*
X3061000Y-16138286D01*
X3075286Y-16166857D01*
X3089571Y-16224000D01*
X3089571Y-16295429D01*
X3075286Y-16352571D01*
X3061000Y-16381143D01*
X3046714Y-16395429D01*
X3018143Y-16409714D01*
X2989571Y-16409714D01*
X2961000Y-16395429D01*
X2946714Y-16381143D01*
X2932428Y-16352571D01*
X2918143Y-16295429D01*
X2918143Y-16224000D01*
X2932428Y-16166857D01*
X2946714Y-16138286D01*
X2961000Y-16124000D01*
X2989571Y-16109714D01*
X3218143Y-16409714D02*
X3218143Y-16209714D01*
X3218143Y-16238286D02*
X3232428Y-16224000D01*
X3261000Y-16209714D01*
X3303857Y-16209714D01*
X3332428Y-16224000D01*
X3346714Y-16252571D01*
X3346714Y-16409714D01*
X3346714Y-16252571D02*
X3361000Y-16224000D01*
X3389571Y-16209714D01*
X3432428Y-16209714D01*
X3461000Y-16224000D01*
X3475286Y-16252571D01*
X3475286Y-16409714D01*
X3618143Y-16409714D02*
X3618143Y-16209714D01*
X3618143Y-16238286D02*
X3632428Y-16224000D01*
X3661000Y-16209714D01*
X3703857Y-16209714D01*
X3732428Y-16224000D01*
X3746714Y-16252571D01*
X3746714Y-16409714D01*
X3746714Y-16252571D02*
X3761000Y-16224000D01*
X3789571Y-16209714D01*
X3832428Y-16209714D01*
X3861000Y-16224000D01*
X3875286Y-16252571D01*
X3875286Y-16409714D01*
X4461000Y-16095429D02*
X4203857Y-16481143D01*
X4846714Y-16109714D02*
X4875286Y-16109714D01*
X4903857Y-16124000D01*
X4918143Y-16138286D01*
X4932428Y-16166857D01*
X4946714Y-16224000D01*
X4946714Y-16295429D01*
X4932428Y-16352571D01*
X4918143Y-16381143D01*
X4903857Y-16395429D01*
X4875286Y-16409714D01*
X4846714Y-16409714D01*
X4818143Y-16395429D01*
X4803857Y-16381143D01*
X4789571Y-16352571D01*
X4775286Y-16295429D01*
X4775286Y-16224000D01*
X4789571Y-16166857D01*
X4803857Y-16138286D01*
X4818143Y-16124000D01*
X4846714Y-16109714D01*
X5075286Y-16381143D02*
X5089571Y-16395429D01*
X5075286Y-16409714D01*
X5061000Y-16395429D01*
X5075286Y-16381143D01*
X5075286Y-16409714D01*
X5375286Y-16409714D02*
X5203857Y-16409714D01*
X5289571Y-16409714D02*
X5289571Y-16109714D01*
X5261000Y-16152571D01*
X5232428Y-16181143D01*
X5203857Y-16195429D01*
X5646714Y-16109714D02*
X5503857Y-16109714D01*
X5489571Y-16252571D01*
X5503857Y-16238286D01*
X5532428Y-16224000D01*
X5603857Y-16224000D01*
X5632428Y-16238286D01*
X5646714Y-16252571D01*
X5661000Y-16281143D01*
X5661000Y-16352571D01*
X5646714Y-16381143D01*
X5632428Y-16395429D01*
X5603857Y-16409714D01*
X5532428Y-16409714D01*
X5503857Y-16395429D01*
X5489571Y-16381143D01*
X5761000Y-16109714D02*
X5961000Y-16109714D01*
X5832428Y-16409714D01*
X6218143Y-16109714D02*
X6075286Y-16109714D01*
X6061000Y-16252571D01*
X6075286Y-16238286D01*
X6103857Y-16224000D01*
X6175286Y-16224000D01*
X6203857Y-16238286D01*
X6218143Y-16252571D01*
X6232428Y-16281143D01*
X6232428Y-16352571D01*
X6218143Y-16381143D01*
X6203857Y-16395429D01*
X6175286Y-16409714D01*
X6103857Y-16409714D01*
X6075286Y-16395429D01*
X6061000Y-16381143D01*
X6346714Y-16109714D02*
X6346714Y-16166857D01*
X6461000Y-16109714D02*
X6461000Y-16166857D01*
X6903857Y-16524000D02*
X6889571Y-16509714D01*
X6861000Y-16466857D01*
X6846714Y-16438286D01*
X6832428Y-16395429D01*
X6818143Y-16324000D01*
X6818143Y-16266857D01*
X6832428Y-16195429D01*
X6846714Y-16152571D01*
X6861000Y-16124000D01*
X6889571Y-16081143D01*
X6903857Y-16066857D01*
X6989571Y-16109714D02*
X7189571Y-16109714D01*
X7061000Y-16409714D01*
X7318143Y-16409714D02*
X7375286Y-16409714D01*
X7403857Y-16395429D01*
X7418143Y-16381143D01*
X7446714Y-16338286D01*
X7461000Y-16281143D01*
X7461000Y-16166857D01*
X7446714Y-16138286D01*
X7432428Y-16124000D01*
X7403857Y-16109714D01*
X7346714Y-16109714D01*
X7318143Y-16124000D01*
X7303857Y-16138286D01*
X7289571Y-16166857D01*
X7289571Y-16238286D01*
X7303857Y-16266857D01*
X7318143Y-16281143D01*
X7346714Y-16295429D01*
X7403857Y-16295429D01*
X7432428Y-16281143D01*
X7446714Y-16266857D01*
X7461000Y-16238286D01*
X7818143Y-16409714D02*
X7818143Y-16109714D01*
X7946714Y-16409714D02*
X7946714Y-16252571D01*
X7932428Y-16224000D01*
X7903857Y-16209714D01*
X7861000Y-16209714D01*
X7832428Y-16224000D01*
X7818143Y-16238286D01*
X8132428Y-16409714D02*
X8103857Y-16395429D01*
X8089571Y-16381143D01*
X8075286Y-16352571D01*
X8075286Y-16266857D01*
X8089571Y-16238286D01*
X8103857Y-16224000D01*
X8132428Y-16209714D01*
X8175286Y-16209714D01*
X8203857Y-16224000D01*
X8218143Y-16238286D01*
X8232428Y-16266857D01*
X8232428Y-16352571D01*
X8218143Y-16381143D01*
X8203857Y-16395429D01*
X8175286Y-16409714D01*
X8132428Y-16409714D01*
X8403857Y-16409714D02*
X8375286Y-16395429D01*
X8361000Y-16366857D01*
X8361000Y-16109714D01*
X8632428Y-16395429D02*
X8603857Y-16409714D01*
X8546714Y-16409714D01*
X8518143Y-16395429D01*
X8503857Y-16366857D01*
X8503857Y-16252571D01*
X8518143Y-16224000D01*
X8546714Y-16209714D01*
X8603857Y-16209714D01*
X8632428Y-16224000D01*
X8646714Y-16252571D01*
X8646714Y-16281143D01*
X8503857Y-16309714D01*
X8761000Y-16395429D02*
X8789571Y-16409714D01*
X8846714Y-16409714D01*
X8875286Y-16395429D01*
X8889571Y-16366857D01*
X8889571Y-16352571D01*
X8875286Y-16324000D01*
X8846714Y-16309714D01*
X8803857Y-16309714D01*
X8775286Y-16295429D01*
X8761000Y-16266857D01*
X8761000Y-16252571D01*
X8775286Y-16224000D01*
X8803857Y-16209714D01*
X8846714Y-16209714D01*
X8875286Y-16224000D01*
X8989571Y-16524000D02*
X9003857Y-16509714D01*
X9032428Y-16466857D01*
X9046714Y-16438286D01*
X9061000Y-16395429D01*
X9075286Y-16324000D01*
X9075286Y-16266857D01*
X9061000Y-16195429D01*
X9046714Y-16152571D01*
X9032428Y-16124000D01*
X9003857Y-16081143D01*
X8989571Y-16066857D01*
X9532428Y-16524000D02*
X9518143Y-16509714D01*
X9489571Y-16466857D01*
X9475286Y-16438286D01*
X9461000Y-16395429D01*
X9446714Y-16324000D01*
X9446714Y-16266857D01*
X9461000Y-16195429D01*
X9475286Y-16152571D01*
X9489571Y-16124000D01*
X9518143Y-16081143D01*
X9532428Y-16066857D01*
X9646714Y-16209714D02*
X9646714Y-16409714D01*
X9646714Y-16238286D02*
X9661000Y-16224000D01*
X9689571Y-16209714D01*
X9732428Y-16209714D01*
X9761000Y-16224000D01*
X9775286Y-16252571D01*
X9775286Y-16409714D01*
X9961000Y-16409714D02*
X9932428Y-16395429D01*
X9918143Y-16381143D01*
X9903857Y-16352571D01*
X9903857Y-16266857D01*
X9918143Y-16238286D01*
X9932428Y-16224000D01*
X9961000Y-16209714D01*
X10003857Y-16209714D01*
X10032428Y-16224000D01*
X10046714Y-16238286D01*
X10061000Y-16266857D01*
X10061000Y-16352571D01*
X10046714Y-16381143D01*
X10032428Y-16395429D01*
X10003857Y-16409714D01*
X9961000Y-16409714D01*
X10146714Y-16209714D02*
X10261000Y-16209714D01*
X10189571Y-16109714D02*
X10189571Y-16366857D01*
X10203857Y-16395429D01*
X10232428Y-16409714D01*
X10261000Y-16409714D01*
X10589571Y-16209714D02*
X10589571Y-16509714D01*
X10589571Y-16224000D02*
X10618143Y-16209714D01*
X10675286Y-16209714D01*
X10703857Y-16224000D01*
X10718143Y-16238286D01*
X10732428Y-16266857D01*
X10732428Y-16352571D01*
X10718143Y-16381143D01*
X10703857Y-16395429D01*
X10675286Y-16409714D01*
X10618143Y-16409714D01*
X10589571Y-16395429D01*
X10903857Y-16409714D02*
X10875286Y-16395429D01*
X10861000Y-16366857D01*
X10861000Y-16109714D01*
X11146714Y-16409714D02*
X11146714Y-16252571D01*
X11132428Y-16224000D01*
X11103857Y-16209714D01*
X11046714Y-16209714D01*
X11018143Y-16224000D01*
X11146714Y-16395429D02*
X11118143Y-16409714D01*
X11046714Y-16409714D01*
X11018143Y-16395429D01*
X11003857Y-16366857D01*
X11003857Y-16338286D01*
X11018143Y-16309714D01*
X11046714Y-16295429D01*
X11118143Y-16295429D01*
X11146714Y-16281143D01*
X11246714Y-16209714D02*
X11361000Y-16209714D01*
X11289571Y-16109714D02*
X11289571Y-16366857D01*
X11303857Y-16395429D01*
X11332428Y-16409714D01*
X11361000Y-16409714D01*
X11575286Y-16395429D02*
X11546714Y-16409714D01*
X11489571Y-16409714D01*
X11461000Y-16395429D01*
X11446714Y-16366857D01*
X11446714Y-16252571D01*
X11461000Y-16224000D01*
X11489571Y-16209714D01*
X11546714Y-16209714D01*
X11575286Y-16224000D01*
X11589571Y-16252571D01*
X11589571Y-16281143D01*
X11446714Y-16309714D01*
X11846714Y-16409714D02*
X11846714Y-16109714D01*
X11846714Y-16395429D02*
X11818143Y-16409714D01*
X11761000Y-16409714D01*
X11732428Y-16395429D01*
X11718143Y-16381143D01*
X11703857Y-16352571D01*
X11703857Y-16266857D01*
X11718143Y-16238286D01*
X11732428Y-16224000D01*
X11761000Y-16209714D01*
X11818143Y-16209714D01*
X11846714Y-16224000D01*
X11961000Y-16524000D02*
X11975286Y-16509714D01*
X12003857Y-16466857D01*
X12018143Y-16438286D01*
X12032428Y-16395429D01*
X12046714Y-16324000D01*
X12046714Y-16266857D01*
X12032428Y-16195429D01*
X12018143Y-16152571D01*
X12003857Y-16124000D01*
X11975286Y-16081143D01*
X11961000Y-16066857D01*
M02*
