%TF.GenerationSoftware,KiCad,Pcbnew,(5.1.12)-1*%
%TF.CreationDate,2022-05-13T18:30:43+02:00*%
%TF.ProjectId,Keyboard,4b657962-6f61-4726-942e-6b696361645f,rev?*%
%TF.SameCoordinates,Original*%
%TF.FileFunction,Soldermask,Top*%
%TF.FilePolarity,Negative*%
%FSLAX46Y46*%
G04 Gerber Fmt 4.6, Leading zero omitted, Abs format (unit mm)*
G04 Created by KiCad (PCBNEW (5.1.12)-1) date 2022-05-13 18:30:43*
%MOMM*%
%LPD*%
G01*
G04 APERTURE LIST*
%ADD10C,1.800000*%
%ADD11C,4.000000*%
%ADD12C,2.200000*%
%ADD13O,1.700000X1.700000*%
%ADD14R,1.700000X1.700000*%
%ADD15C,3.050000*%
%ADD16C,1.700000*%
G04 APERTURE END LIST*
D10*
%TO.C,REF\u002A\u002A*%
X137750000Y-33250000D03*
%TD*%
%TO.C,REF\u002A\u002A*%
X223250000Y-33250000D03*
%TD*%
%TO.C,REF\u002A\u002A*%
X342000000Y-14250000D03*
%TD*%
%TO.C,REF\u002A\u002A*%
X28500000Y-14250000D03*
%TD*%
%TO.C,REF\u002A\u002A*%
X38000000Y-95000000D03*
%TD*%
%TO.C,REF\u002A\u002A*%
X57000000Y-133000000D03*
%TD*%
%TO.C,REF\u002A\u002A*%
X285000000Y-133000000D03*
%TD*%
%TO.C,REF\u002A\u002A*%
X342000000Y-114000000D03*
%TD*%
%TO.C,REF\u002A\u002A*%
X304000000Y-76000000D03*
%TD*%
%TO.C,REF\u002A\u002A*%
X308750000Y-33250000D03*
%TD*%
%TO.C,REF\u002A\u002A*%
X47500000Y-33250000D03*
%TD*%
D11*
%TO.C,SW29*%
X209000000Y-76000000D03*
D12*
X205190000Y-73460000D03*
X211540000Y-70920000D03*
%TD*%
D11*
%TO.C,SW1E1*%
X323000000Y-57000000D03*
D12*
X319190000Y-54460000D03*
X325540000Y-51920000D03*
%TD*%
D11*
%TO.C,SW42*%
X90250000Y-114000000D03*
D12*
X86440000Y-111460000D03*
X92790000Y-108920000D03*
%TD*%
D11*
%TO.C,SW43*%
X109250000Y-114000000D03*
D12*
X105440000Y-111460000D03*
X111790000Y-108920000D03*
%TD*%
D11*
%TO.C,SW4C1*%
X275500000Y-114000000D03*
D12*
X271690000Y-111460000D03*
X278040000Y-108920000D03*
%TD*%
D11*
%TO.C,SW0D1*%
X294500000Y-33250000D03*
D12*
X290690000Y-30710000D03*
X297040000Y-28170000D03*
%TD*%
D11*
%TO.C,SW0C1*%
X275500000Y-33250000D03*
D12*
X271690000Y-30710000D03*
X278040000Y-28170000D03*
%TD*%
D11*
%TO.C,SW0B1*%
X256500000Y-33250000D03*
D12*
X252690000Y-30710000D03*
X259040000Y-28170000D03*
%TD*%
D11*
%TO.C,SW0A1*%
X237500000Y-33250000D03*
D12*
X233690000Y-30710000D03*
X240040000Y-28170000D03*
%TD*%
D11*
%TO.C,SW9*%
X209000000Y-33250000D03*
D12*
X205190000Y-30710000D03*
X211540000Y-28170000D03*
%TD*%
D11*
%TO.C,SW8*%
X190000000Y-33250000D03*
D12*
X186190000Y-30710000D03*
X192540000Y-28170000D03*
%TD*%
D11*
%TO.C,SW7*%
X171000000Y-33250000D03*
D12*
X167190000Y-30710000D03*
X173540000Y-28170000D03*
%TD*%
D11*
%TO.C,SW6*%
X152000000Y-33250000D03*
D12*
X148190000Y-30710000D03*
X154540000Y-28170000D03*
%TD*%
D11*
%TO.C,SW5*%
X123500000Y-33250000D03*
D12*
X119690000Y-30710000D03*
X126040000Y-28170000D03*
%TD*%
D11*
%TO.C,SW4*%
X104500000Y-33250000D03*
D12*
X100690000Y-30710000D03*
X107040000Y-28170000D03*
%TD*%
D11*
%TO.C,SW3*%
X85500000Y-33250000D03*
D12*
X81690000Y-30710000D03*
X88040000Y-28170000D03*
%TD*%
D11*
%TO.C,SW2*%
X66500000Y-33250000D03*
D12*
X62690000Y-30710000D03*
X69040000Y-28170000D03*
%TD*%
D13*
%TO.C,J1*%
X199390000Y-15240000D03*
X199390000Y-12700000D03*
X196850000Y-15240000D03*
X196850000Y-12700000D03*
X194310000Y-15240000D03*
X194310000Y-12700000D03*
X191770000Y-15240000D03*
X191770000Y-12700000D03*
X189230000Y-15240000D03*
X189230000Y-12700000D03*
X186690000Y-15240000D03*
X186690000Y-12700000D03*
X184150000Y-15240000D03*
X184150000Y-12700000D03*
X181610000Y-15240000D03*
X181610000Y-12700000D03*
X179070000Y-15240000D03*
X179070000Y-12700000D03*
X176530000Y-15240000D03*
X176530000Y-12700000D03*
X173990000Y-15240000D03*
X173990000Y-12700000D03*
X171450000Y-15240000D03*
X171450000Y-12700000D03*
X168910000Y-15240000D03*
X168910000Y-12700000D03*
X166370000Y-15240000D03*
X166370000Y-12700000D03*
X163830000Y-15240000D03*
X163830000Y-12700000D03*
X161290000Y-15240000D03*
X161290000Y-12700000D03*
X158750000Y-15240000D03*
D14*
X158750000Y-12700000D03*
%TD*%
D11*
%TO.C,SW2F1*%
X342000000Y-76000000D03*
D12*
X338190000Y-73460000D03*
X344540000Y-70920000D03*
%TD*%
D11*
%TO.C,SW1F1*%
X342000000Y-57000000D03*
D12*
X338190000Y-54460000D03*
X344540000Y-51920000D03*
%TD*%
D11*
%TO.C,SW2E1*%
X323000000Y-76000000D03*
D12*
X319190000Y-73460000D03*
X325540000Y-70920000D03*
%TD*%
D11*
%TO.C,SW5F1*%
X342000000Y-133000000D03*
D12*
X338190000Y-130460000D03*
X344540000Y-127920000D03*
%TD*%
D11*
%TO.C,SW4E1*%
X323000000Y-114000000D03*
D12*
X319190000Y-111460000D03*
X325540000Y-108920000D03*
%TD*%
D11*
%TO.C,SW3E1*%
X323000000Y-33250000D03*
D12*
X319190000Y-30710000D03*
X325540000Y-28170000D03*
%TD*%
D11*
%TO.C,SW1D1*%
X285000000Y-57000000D03*
D12*
X281190000Y-54460000D03*
X287540000Y-51920000D03*
%TD*%
D11*
%TO.C,SW5E1*%
X323000000Y-133000000D03*
D12*
X319190000Y-130460000D03*
X325540000Y-127920000D03*
%TD*%
D11*
%TO.C,SW3C1*%
X280250000Y-95000000D03*
D12*
X276440000Y-92460000D03*
X282790000Y-89920000D03*
%TD*%
D11*
%TO.C,SW2D1*%
X285000000Y-76000000D03*
D12*
X281190000Y-73460000D03*
X287540000Y-70920000D03*
%TD*%
D11*
%TO.C,SW1C1*%
X256500000Y-57000000D03*
D12*
X252690000Y-54460000D03*
X259040000Y-51920000D03*
%TD*%
D11*
%TO.C,SW5D1*%
X304000000Y-133000000D03*
D12*
X300190000Y-130460000D03*
X306540000Y-127920000D03*
%TD*%
D11*
%TO.C,SW3B1*%
X251750000Y-95000000D03*
D12*
X247940000Y-92460000D03*
X254290000Y-89920000D03*
%TD*%
D11*
%TO.C,SW2C1*%
X266000000Y-76000000D03*
D12*
X262190000Y-73460000D03*
X268540000Y-70920000D03*
%TD*%
D11*
%TO.C,SW1B1*%
X237500000Y-57000000D03*
D12*
X233690000Y-54460000D03*
X240040000Y-51920000D03*
%TD*%
D11*
%TO.C,SW4A1*%
X242250000Y-114000000D03*
D12*
X238440000Y-111460000D03*
X244790000Y-108920000D03*
%TD*%
D11*
%TO.C,SW3A1*%
X232750000Y-95000000D03*
D12*
X228940000Y-92460000D03*
X235290000Y-89920000D03*
%TD*%
D11*
%TO.C,SW2B1*%
X247000000Y-76000000D03*
D12*
X243190000Y-73460000D03*
X249540000Y-70920000D03*
%TD*%
D11*
%TO.C,SW1A1*%
X218500000Y-57000000D03*
D12*
X214690000Y-54460000D03*
X221040000Y-51920000D03*
%TD*%
D11*
%TO.C,SW49*%
X223250000Y-114000000D03*
D12*
X219440000Y-111460000D03*
X225790000Y-108920000D03*
%TD*%
D11*
%TO.C,SW39*%
X213750000Y-95000000D03*
D12*
X209940000Y-92460000D03*
X216290000Y-89920000D03*
%TD*%
D11*
%TO.C,SW2A1*%
X228000000Y-76000000D03*
D12*
X224190000Y-73460000D03*
X230540000Y-70920000D03*
%TD*%
D11*
%TO.C,SW19*%
X199500000Y-57000000D03*
D12*
X195690000Y-54460000D03*
X202040000Y-51920000D03*
%TD*%
D11*
%TO.C,SW48*%
X204250000Y-114000000D03*
D12*
X200440000Y-111460000D03*
X206790000Y-108920000D03*
%TD*%
D11*
%TO.C,SW38*%
X194750000Y-95000000D03*
D12*
X190940000Y-92460000D03*
X197290000Y-89920000D03*
%TD*%
D11*
%TO.C,SW18*%
X180500000Y-57000000D03*
D12*
X176690000Y-54460000D03*
X183040000Y-51920000D03*
%TD*%
D11*
%TO.C,SW47*%
X185250000Y-114000000D03*
D12*
X181440000Y-111460000D03*
X187790000Y-108920000D03*
%TD*%
D11*
%TO.C,SW37*%
X175750000Y-95000000D03*
D12*
X171940000Y-92460000D03*
X178290000Y-89920000D03*
%TD*%
D11*
%TO.C,SW28*%
X190000000Y-76000000D03*
D12*
X186190000Y-73460000D03*
X192540000Y-70920000D03*
%TD*%
D11*
%TO.C,SW17*%
X161500000Y-57000000D03*
D12*
X157690000Y-54460000D03*
X164040000Y-51920000D03*
%TD*%
D11*
%TO.C,SW46*%
X166250000Y-114000000D03*
D12*
X162440000Y-111460000D03*
X168790000Y-108920000D03*
%TD*%
D11*
%TO.C,SW36*%
X156750000Y-95000000D03*
D12*
X152940000Y-92460000D03*
X159290000Y-89920000D03*
%TD*%
D11*
%TO.C,SW27*%
X171000000Y-76000000D03*
D12*
X167190000Y-73460000D03*
X173540000Y-70920000D03*
%TD*%
D11*
%TO.C,SW16*%
X142500000Y-57000000D03*
D12*
X138690000Y-54460000D03*
X145040000Y-51920000D03*
%TD*%
D11*
%TO.C,SW45*%
X147250000Y-114000000D03*
D12*
X143440000Y-111460000D03*
X149790000Y-108920000D03*
%TD*%
D11*
%TO.C,SW35*%
X137750000Y-95000000D03*
D12*
X133940000Y-92460000D03*
X140290000Y-89920000D03*
%TD*%
D11*
%TO.C,SW26*%
X152000000Y-76000000D03*
D12*
X148190000Y-73460000D03*
X154540000Y-70920000D03*
%TD*%
D11*
%TO.C,SW15*%
X123500000Y-57000000D03*
D12*
X119690000Y-54460000D03*
X126040000Y-51920000D03*
%TD*%
D11*
%TO.C,SW44*%
X128250000Y-114000000D03*
D12*
X124440000Y-111460000D03*
X130790000Y-108920000D03*
%TD*%
D11*
%TO.C,SW34*%
X118750000Y-95000000D03*
D12*
X114940000Y-92460000D03*
X121290000Y-89920000D03*
%TD*%
D11*
%TO.C,SW25*%
X133000000Y-76000000D03*
D12*
X129190000Y-73460000D03*
X135540000Y-70920000D03*
%TD*%
D11*
%TO.C,SW14*%
X104500000Y-57000000D03*
D12*
X100690000Y-54460000D03*
X107040000Y-51920000D03*
%TD*%
D11*
%TO.C,SW33*%
X99750000Y-95000000D03*
D12*
X95940000Y-92460000D03*
X102290000Y-89920000D03*
%TD*%
D11*
%TO.C,SW24*%
X114000000Y-76000000D03*
D12*
X110190000Y-73460000D03*
X116540000Y-70920000D03*
%TD*%
D11*
%TO.C,SW13*%
X85500000Y-57000000D03*
D12*
X81690000Y-54460000D03*
X88040000Y-51920000D03*
%TD*%
D11*
%TO.C,SW32*%
X80750000Y-95000000D03*
D12*
X76940000Y-92460000D03*
X83290000Y-89920000D03*
%TD*%
D11*
%TO.C,SW23*%
X95000000Y-76000000D03*
D12*
X91190000Y-73460000D03*
X97540000Y-70920000D03*
%TD*%
D11*
%TO.C,SW12*%
X66500000Y-57000000D03*
D12*
X62690000Y-54460000D03*
X69040000Y-51920000D03*
%TD*%
D11*
%TO.C,SW41*%
X71250000Y-114000000D03*
D12*
X67440000Y-111460000D03*
X73790000Y-108920000D03*
%TD*%
D11*
%TO.C,SW31*%
X61750000Y-95000000D03*
D12*
X57940000Y-92460000D03*
X64290000Y-89920000D03*
%TD*%
D11*
%TO.C,SW22*%
X76000000Y-76000000D03*
D12*
X72190000Y-73460000D03*
X78540000Y-70920000D03*
%TD*%
D11*
%TO.C,SW11*%
X47500000Y-57000000D03*
D12*
X43690000Y-54460000D03*
X50040000Y-51920000D03*
%TD*%
D15*
%TO.C,SW55*%
X202000000Y-126000000D03*
X102000000Y-126000000D03*
D11*
X102000000Y-141240000D03*
X202000000Y-141240000D03*
D16*
X157080000Y-133000000D03*
X146920000Y-133000000D03*
D11*
X152000000Y-133000000D03*
D12*
X148190000Y-130460000D03*
X154540000Y-127920000D03*
%TD*%
D11*
%TO.C,SW40*%
X42750000Y-114000000D03*
D12*
X38940000Y-111460000D03*
X45290000Y-108920000D03*
%TD*%
D11*
%TO.C,SW21*%
X57000000Y-76000000D03*
D12*
X53190000Y-73460000D03*
X59540000Y-70920000D03*
%TD*%
D11*
%TO.C,SW10*%
X28500000Y-57000000D03*
D12*
X24690000Y-54460000D03*
X31040000Y-51920000D03*
%TD*%
D11*
%TO.C,SW51*%
X76000000Y-133000000D03*
D12*
X72190000Y-130460000D03*
X78540000Y-127920000D03*
%TD*%
D11*
%TO.C,SW50*%
X38000000Y-133000000D03*
D12*
X34190000Y-130460000D03*
X40540000Y-127920000D03*
%TD*%
D11*
%TO.C,SW20*%
X33250000Y-76000000D03*
D12*
X29440000Y-73460000D03*
X35790000Y-70920000D03*
%TD*%
D11*
%TO.C,SW0*%
X28500000Y-33250000D03*
D12*
X24690000Y-30710000D03*
X31040000Y-28170000D03*
%TD*%
M02*
